<svg width="320" height="294" viewBox="0 0 320 294" fill="none" xmlns="http://www.w3.org/2000/svg">
<g filter="url(#filter0_d_1540_2518)">
<path d="M131.775 91.9678C144.948 105.34 102.036 183.579 66.9084 182.781C62.1183 182.581 55.1327 180.985 44.5545 183.579C27.789 187.571 23.7971 196.952 18.009 194.756C5.43492 189.966 16.6119 145.258 20.2045 134.88C21.0029 132.684 22.4 129.091 25.1943 128.493C29.5852 127.495 32.5791 134.68 35.7725 134.081C41.9598 132.684 35.7725 102.945 46.1512 97.7559C53.1368 94.1633 61.1204 104.941 69.3035 100.75C76.0896 97.3567 73.0957 88.7744 80.6801 82.3875C89.8612 74.8031 105.828 76.9986 107.226 80.9904C108.024 83.5851 102.834 86.1797 103.633 88.7744C105.23 93.3649 125.388 85.5809 131.775 91.9678Z" fill="#1A1A18"/>
<path d="M129.18 171.407C127.384 175.797 124.989 179.789 122.594 184.18C122.195 184.779 121.995 185.378 121.596 185.977C119.999 188.571 118.403 191.166 116.806 193.361C115.209 195.557 113.812 197.752 112.215 199.748C110.419 201.944 108.822 204.139 107.026 206.135C104.232 209.528 101.437 212.322 98.6432 215.117C93.2543 212.123 87.8654 209.329 82.4765 206.534C86.8675 199.149 91.458 191.765 95.849 184.579C96.4477 183.382 97.2461 182.384 97.8448 181.186C102.435 173.602 107.226 165.818 111.816 158.234C112.814 158.034 116.207 157.236 120.398 159.431C124.789 161.826 127.983 166.417 129.18 171.407Z" fill="#F7A39C"/>
<path d="M109.022 192.564L112.215 199.749C110.419 201.944 108.822 204.14 107.026 206.136C103.433 198.951 99.6411 191.765 95.8489 184.58C100.24 187.175 104.631 189.969 109.022 192.564Z" fill="#240100"/>
<path d="M171.094 152.645L179.078 224.298C168.5 229.088 157.921 233.878 147.144 238.668L122.993 198.95L118.203 191.166L114.411 184.979C112.016 183.981 107.425 181.586 105.429 177.195C104.232 174.8 104.032 172.404 104.432 170.209C105.03 166.217 107.226 162.225 109.222 158.633C110.02 157.236 111.018 155.439 112.415 153.643C114.211 151.248 116.407 148.454 119.6 146.059C120.798 145.061 122.195 144.262 123.792 143.264C123.991 143.065 124.191 143.065 124.191 143.065C126.985 141.468 130.378 140.271 133.771 139.472C135.168 139.073 136.565 138.873 137.963 138.674C146.345 137.476 155.327 138.674 162.712 143.863C166.504 146.258 168.899 149.053 171.094 152.645Z" fill="#F7A39C"/>
<path d="M144.748 149.451C137.962 152.445 131.176 155.439 124.39 158.632C123.592 156.437 122.594 154.241 121.796 151.846C120.399 147.855 118.802 143.863 117.405 140.071C117.205 139.671 117.205 139.472 117.006 139.272C115.409 134.881 113.613 130.49 112.016 126.099L119.201 123.505L125.787 121.11L128.781 119.912C130.378 124.103 132.574 128.494 134.969 133.085C138.362 139.073 141.555 144.661 144.748 149.451Z" fill="#F7A39C"/>
<path d="M133.372 131.288C135.767 136.477 134.17 142.066 129.979 143.463C125.788 144.86 120.399 141.866 118.004 136.477C115.608 131.288 117.205 125.699 121.397 124.302C125.788 122.905 130.977 126.099 133.372 131.288Z" fill="#240100"/>
<path d="M102.036 80.3937C100.04 80.9925 98.2441 81.7908 96.6474 82.5892C88.065 86.7806 84.672 97.3588 88.8634 106.939L97.4458 126.499C99.0425 128.694 104.631 136.478 114.61 139.871C120.398 141.867 125.388 141.468 127.983 141.069C128.183 141.069 128.382 140.869 128.382 140.869C128.582 140.869 128.781 140.869 128.781 140.67C131.176 139.273 134.969 136.678 137.763 131.688C142.553 123.305 140.757 114.324 140.158 111.729L131.576 92.1695C127.384 82.5892 116.806 76.8011 107.226 78.9966C105.629 79.1962 103.833 79.5954 102.036 80.3937Z" fill="#F7A39C"/>
<path d="M98.6433 118.515C100.44 122.506 99.4417 126.299 96.847 127.296C94.0528 128.294 90.4602 125.899 88.6639 121.908C86.8675 117.916 87.8655 114.124 90.4602 113.126C93.0549 112.128 96.847 114.523 98.6433 118.515Z" fill="#F7A39C"/>
<path d="M143.95 102.947C145.746 106.939 144.748 110.731 142.154 111.729C139.359 112.727 135.767 110.332 133.971 106.34C132.174 102.348 133.172 98.5562 135.767 97.5582C138.362 96.5603 142.154 98.9554 143.95 102.947Z" fill="#F7A39C"/>
<path d="M119.999 124.901C120.598 124.302 121.197 123.903 121.995 123.504C122.794 123.304 123.592 123.105 124.39 123.304C123.792 123.903 123.193 124.302 122.394 124.701C121.596 124.901 120.798 125.101 119.999 124.901Z" fill="#240100"/>
<path d="M125.588 110.132C126.386 111.729 128.183 112.727 129.779 112.128C131.376 111.529 132.174 109.933 131.376 108.136C130.578 106.54 128.781 105.542 127.185 106.14C125.588 106.739 124.789 108.536 125.588 110.132Z" fill="#240100"/>
<path d="M122.794 112.327C122.594 112.327 122.395 112.128 122.395 111.928C122.395 111.728 121.995 108.335 124.59 106.739C126.985 105.142 130.777 106.14 133.172 108.934C133.372 109.134 133.372 109.533 133.172 109.732C132.973 109.932 132.574 109.932 132.374 109.732C130.378 107.337 127.185 106.339 124.989 107.737C122.993 109.134 123.193 112.127 123.393 112.127C123.193 112.127 122.993 112.327 122.794 112.327Z" fill="#240100"/>
<path d="M110.02 115.921C110.818 117.517 110.02 119.314 108.623 119.912C107.026 120.511 105.23 119.713 104.431 117.916C103.633 116.32 104.431 114.523 105.828 113.925C107.425 113.326 109.221 114.324 110.02 115.921Z" fill="#240100"/>
<path d="M101.038 120.512C100.839 120.512 100.639 120.312 100.639 120.113C100.439 118.316 100.839 116.52 101.836 115.123C102.635 114.125 103.832 113.327 105.23 113.127C108.223 112.928 110.618 115.522 110.818 115.722C111.018 115.921 111.018 116.321 110.818 116.52C110.618 116.72 110.219 116.72 110.02 116.52C110.02 116.52 107.824 114.125 105.429 114.325C104.431 114.524 103.433 114.923 102.635 115.921C101.836 117.119 101.437 118.516 101.637 120.113C101.637 120.312 101.437 120.512 101.038 120.512C101.238 120.512 101.038 120.512 101.038 120.512Z" fill="#240100"/>
<path d="M131.177 122.106C132.773 127.296 130.578 132.286 126.786 133.683C122.794 135.08 118.802 132.485 118.203 132.286C120.199 131.088 122.195 129.89 124.191 128.294C126.985 126.098 129.181 124.102 131.177 122.106Z" fill="white"/>
<path d="M132.174 101.351C132.174 101.949 129.979 101.55 125.987 102.348C122.195 103.346 120.598 104.344 120.199 103.945C119.6 103.346 121.396 100.153 124.39 99.3546C127.983 98.1571 132.174 100.552 132.174 101.351Z" fill="#1A1A18"/>
<path d="M107.226 108.336C107.426 108.934 105.23 108.934 101.637 110.93C98.2444 112.727 97.0469 114.323 96.6477 113.924C96.0489 113.325 96.8473 109.932 99.442 108.336C102.436 106.14 107.026 107.537 107.226 108.336Z" fill="#1A1A18"/>
<path d="M122.394 79.3955C127.983 82.3894 131.176 86.9799 131.975 88.1775V88.3771C134.968 92.9676 135.966 98.3565 134.769 98.7557C133.971 99.1549 132.773 96.9594 127.384 92.768C125.388 91.1713 124.191 90.5725 123.193 90.7721C121.596 91.1713 121.796 93.5664 119.999 94.5643C117.804 95.7619 115.608 93.3668 114.012 94.3647C112.215 95.5623 114.411 99.5541 112.614 101.55C110.02 104.544 102.435 100.552 100.639 102.947C99.8407 104.145 101.437 105.542 100.44 107.338C99.4416 109.534 96.8469 109.134 95.2502 110.531C90.4601 114.523 98.0444 128.694 94.6514 130.49C92.4559 131.688 88.2646 128.095 85.8695 126.099C83.674 124.104 75.2913 116.918 76.4888 108.536C77.0876 104.743 79.0835 104.544 84.4724 96.5602C90.6597 87.3791 89.063 86.1816 92.456 82.7885C100.44 75.4037 114.81 75.4037 122.394 79.3955Z" fill="#1A1A18"/>
<path d="M171.094 151.647L179.676 228.489C180.674 236.672 174.687 243.458 166.504 243.458C150.771 243.458 136.291 234.823 128.723 221.03C125.533 215.216 122.348 209.397 119.201 203.54C117.804 200.946 116.407 198.551 115.01 195.956C110.818 188.372 106.826 180.787 102.635 173.203C102.236 172.604 101.837 171.806 101.438 171.207C102.036 168.013 103.433 163.024 106.826 157.834C107.425 156.836 108.224 155.839 109.022 154.841C109.82 153.843 110.619 153.044 111.417 152.246C114.411 149.252 117.205 147.456 119.401 146.258C119.401 146.458 119.4 146.458 119.6 146.657C121.596 151.847 126.187 155.24 130.178 156.038C132.174 156.437 133.971 156.437 135.567 155.639C137.164 155.04 138.362 153.643 139.16 152.046C140.757 149.052 140.956 144.662 138.761 140.47C138.761 140.271 138.561 140.271 138.561 140.071C138.361 139.672 138.162 139.273 137.763 138.873C140.158 138.075 147.143 136.279 155.526 139.273C161.913 141.468 166.304 145.26 168.3 147.256C169.497 148.653 170.296 150.05 171.094 151.647Z" fill="#FF6665"/>
<path d="M129.38 191.366C124.191 197.553 119.201 203.74 114.012 209.927C107.226 200.547 100.44 191.166 93.6537 181.785C95.2504 177.794 97.2463 173.403 99.841 168.812C103.633 162.026 107.825 156.437 111.617 152.246C117.604 165.219 123.393 178.193 129.38 191.366Z" fill="#FF6665"/>
<path d="M92.6556 147.057C92.2564 146.458 91.2585 146.658 90.6597 146.658C90.2605 146.658 89.2626 146.857 87.2667 148.853C86.4684 149.651 85.67 150.649 84.672 152.246C83.6741 153.044 82.8758 153.044 82.4766 153.044C81.8778 152.845 80.0815 151.647 78.6844 139.672C78.6844 139.672 78.2852 135.88 77.6864 132.287C77.6864 131.888 78.0856 126.1 76.0897 125.302C75.8901 125.302 75.491 125.302 75.0918 125.302C74.0938 126.699 74.0939 128.096 74.2934 129.892C74.493 131.688 74.8922 133.884 74.6926 136.678C74.6926 137.876 74.493 139.872 74.0938 142.067C73.8942 142.067 73.4951 142.067 72.8963 141.867C71.1 140.87 71.2996 137.277 69.7028 131.489C69.1041 128.894 67.707 123.505 66.1103 123.306C65.5115 123.306 65.1123 123.904 64.9127 124.104C63.1164 126.299 64.7131 129.693 65.9107 133.086C66.709 135.481 67.707 138.874 68.3058 143.464C66.9086 140.67 65.5115 137.676 64.1144 134.682C62.9168 132.287 61.9189 129.693 60.9209 127.297C60.1226 127.098 59.5238 127.297 59.3242 127.497C58.3263 128.096 58.1267 130.092 59.7234 132.088C61.5197 136.479 63.1164 140.87 64.9127 145.26C64.1144 145.66 63.5156 146.059 62.9168 146.458C60.7213 143.464 59.3242 140.67 58.3263 138.874C57.3283 136.878 56.3304 134.882 55.3325 134.882C54.7337 134.882 54.3345 136.079 54.3345 136.079C53.9353 137.277 54.5341 138.874 55.5321 140.87C58.5259 145.26 60.5218 148.454 60.9209 149.053C61.3201 149.651 61.5197 150.45 61.5197 150.45C61.5197 150.649 61.7193 150.849 61.7193 151.049C61.7193 151.248 61.9189 151.647 62.1185 152.446C62.3181 153.244 62.3181 153.444 62.5177 154.242C62.7173 155.04 62.9168 155.639 63.1164 156.038C65.5115 161.627 71.4992 164.82 76.4889 167.614C77.0877 167.814 77.4868 168.213 77.6864 168.213C81.0794 164.022 84.6721 159.831 88.0651 155.639C93.0548 150.849 93.2544 147.656 92.6556 147.057Z" fill="#F7A39C"/>
<path d="M75.092 154.641C72.6969 154.442 70.3018 154.442 67.9067 154.242C66.7092 163.423 66.7092 176.596 73.2957 192.364C75.8903 198.551 79.0838 204.14 82.2772 209.129C82.4768 209.528 82.6764 210.127 83.0755 210.926C83.0755 210.926 83.8739 212.323 85.4706 213.72C86.269 214.319 89.662 217.512 94.053 217.113C98.2443 216.714 100.44 213.72 100.839 213.121C100.44 211.125 100.041 209.528 99.841 208.53C99.0427 204.938 97.2464 199.15 96.8472 198.152C96.8472 197.952 96.6476 197.353 96.4481 196.555C96.2485 195.956 96.0488 195.158 95.8492 194.759C90.8595 180.788 80.6804 174.201 76.6887 160.629C75.4911 157.835 75.2916 155.639 75.092 154.641Z" fill="#F7A39C"/>
<rect x="191.59" y="194.543" width="78.7478" height="48.9146" rx="6" fill="#DF2025"/>
<path d="M208.416 163.539L250.773 163.539L250.773 171.9L218.054 171.9L221.248 181.945L214.658 181.945L208.416 164.439L208.416 163.539Z" fill="#1A1A18"/>
<path d="M244.415 143.856L244.415 143.304C244.415 140.981 244.135 138.988 243.573 137.323C242.993 135.64 242.161 134.256 241.077 133.172C239.993 132.088 238.667 131.285 237.099 130.762C235.512 130.24 233.712 129.978 231.699 129.978L223.687 129.978C222.158 129.978 220.812 130.133 219.651 130.443C218.49 130.733 217.532 131.159 216.777 131.72C216.003 132.262 215.422 132.901 215.035 133.636C214.648 134.352 214.455 135.146 214.455 136.017C214.455 136.946 214.687 137.769 215.151 138.485C215.596 139.201 216.206 139.81 216.98 140.314C217.754 140.798 218.645 141.175 219.651 141.446C220.638 141.698 221.674 141.823 222.758 141.823C223.841 141.823 224.877 141.698 225.864 141.446C226.832 141.194 227.693 140.817 228.448 140.314C229.183 139.81 229.774 139.181 230.219 138.427C230.645 137.672 230.857 136.781 230.857 135.756C230.857 134.769 230.674 133.888 230.306 133.114C229.919 132.32 229.416 131.653 228.796 131.111C228.177 130.549 227.49 130.123 226.735 129.833C225.98 129.524 225.216 129.369 224.441 129.369L225.951 126.611C227.306 126.611 228.641 126.901 229.957 127.482C231.274 128.062 232.474 128.875 233.557 129.92C234.622 130.946 235.474 132.136 236.112 133.491C236.751 134.846 237.07 136.298 237.07 137.846C237.07 139.82 236.712 141.572 235.996 143.101C235.261 144.63 234.254 145.926 232.977 146.991C231.68 148.036 230.17 148.83 228.448 149.372C226.725 149.914 224.858 150.184 222.845 150.184C220.793 150.184 218.867 149.855 217.067 149.197C215.267 148.52 213.68 147.562 212.306 146.323C210.932 145.065 209.858 143.565 209.084 141.823C208.29 140.062 207.893 138.107 207.893 135.959C207.893 133.811 208.309 131.856 209.142 130.094C209.974 128.333 211.155 126.824 212.684 125.566C214.193 124.307 216.003 123.34 218.113 122.662C220.222 121.966 222.564 121.617 225.138 121.617L228.041 121.617C230.79 121.617 233.345 121.917 235.706 122.517C238.067 123.098 240.206 123.978 242.122 125.159C244.019 126.32 245.644 127.772 246.999 129.514C248.354 131.236 249.389 133.24 250.106 135.523C250.822 137.807 251.18 140.362 251.18 143.188L251.18 143.856L244.415 143.856Z" fill="#1A1A18"/>
<path d="M218.867 115.753L216.632 115.753C215.025 115.753 213.564 115.404 212.248 114.708C210.932 114.011 209.877 112.985 209.084 111.63C208.29 110.275 207.893 108.611 207.893 106.637C207.893 104.605 208.29 102.911 209.084 101.556C209.877 100.182 210.932 99.1562 212.248 98.4788C213.564 97.782 215.025 97.4337 216.632 97.4337L218.867 97.4337C220.435 97.4337 221.877 97.782 223.193 98.4788C224.509 99.1562 225.564 100.172 226.358 101.527C227.151 102.882 227.548 104.556 227.548 106.55C227.548 108.563 227.151 110.256 226.358 111.63C225.564 112.985 224.509 114.011 223.193 114.708C221.877 115.404 220.435 115.753 218.867 115.753ZM216.632 110.208L218.867 110.208C219.545 110.208 220.193 110.082 220.812 109.83C221.412 109.559 221.906 109.153 222.293 108.611C222.661 108.05 222.845 107.372 222.845 106.579C222.845 105.746 222.661 105.069 222.293 104.546C221.906 104.024 221.412 103.637 220.812 103.385C220.193 103.134 219.545 103.008 218.867 103.008L216.632 103.008C215.916 103.008 215.258 103.143 214.658 103.414C214.038 103.666 213.545 104.063 213.177 104.605C212.79 105.127 212.596 105.805 212.596 106.637C212.596 107.411 212.79 108.069 213.177 108.611C213.545 109.153 214.038 109.559 214.658 109.83C215.258 110.082 215.916 110.208 216.632 110.208ZM242.644 95.5466L240.409 95.5466C238.822 95.5466 237.37 95.1982 236.054 94.5014C234.738 93.7853 233.683 92.7499 232.89 91.395C232.096 90.0209 231.699 88.337 231.699 86.3435C231.699 84.3306 232.096 82.6468 232.89 81.292C233.683 79.9371 234.738 78.9114 236.054 78.2146C237.37 77.5178 238.822 77.1694 240.409 77.1694L242.644 77.1694C244.231 77.1694 245.683 77.5178 246.999 78.2146C248.315 78.892 249.37 79.9081 250.164 81.2629C250.957 82.6178 251.354 84.2919 251.354 86.2854C251.354 88.2983 250.957 89.9918 250.164 91.366C249.37 92.7402 248.315 93.7853 246.999 94.5014C245.683 95.1982 244.231 95.5466 242.644 95.5466ZM240.409 89.9725L242.644 89.9725C243.341 89.9725 243.999 89.8176 244.619 89.508C245.238 89.1983 245.731 88.7725 246.099 88.2306C246.467 87.6693 246.651 87.0209 246.651 86.2854C246.651 85.3564 246.467 84.6306 246.099 84.1081C245.731 83.5855 245.238 83.2274 244.619 83.0339C243.999 82.821 243.341 82.7145 242.644 82.7145L240.409 82.7145C239.712 82.7145 239.064 82.85 238.464 83.121C237.844 83.3919 237.351 83.7984 236.983 84.3403C236.596 84.8629 236.403 85.5306 236.403 86.3435C236.403 87.1564 236.596 87.8338 236.983 88.3757C237.351 88.8983 237.844 89.2951 238.464 89.566C239.064 89.837 239.712 89.9725 240.409 89.9725ZM214.542 84.2822L247.58 104.924L245.431 108.988L212.393 88.3467L214.542 84.2822Z" fill="#1A1A18"/>
<path fill-rule="evenodd" clip-rule="evenodd" d="M165.92 237.456C165.92 254.771 179.958 268.809 197.273 268.809L264.654 268.809C281.97 268.809 296.007 254.771 296.007 237.456L296.007 80.6406C296.007 63.3249 281.97 49.2877 264.654 49.2877L197.273 49.2877C179.958 49.2877 165.92 63.3249 165.92 80.6406L165.92 237.456ZM197.273 252.548C188.938 252.548 182.181 245.791 182.181 237.456L182.181 80.6406C182.181 72.3055 188.938 65.5485 197.273 65.5485L264.654 65.5485C272.989 65.5485 279.746 72.3055 279.746 80.6406L279.746 237.456C279.746 245.791 272.989 252.548 264.654 252.548L197.273 252.548Z" fill="#1A1A18"/>
<path d="M211.994 24.8965C207.504 24.8965 203.864 28.5366 203.864 33.0269C203.864 37.5172 207.504 41.1573 211.994 41.1573L249.933 41.1573C254.423 41.1573 258.063 37.5172 258.063 33.0269C258.063 28.5366 254.423 24.8965 249.933 24.8965L211.994 24.8965Z" fill="#1A1A18"/>
<path d="M145.185 60.8396L137.807 14.1133M107.804 232.989L51.7324 268.403M69.4392 221.184L25.1722 232.989M104.853 66.7419L86.1623 32.312" stroke="#1A1A18" stroke-width="3" stroke-linecap="round"/>
</g>
<defs>
<filter id="filter0_d_1540_2518" x="-5" y="-5" width="330" height="303.704" filterUnits="userSpaceOnUse" color-interpolation-filters="sRGB">
<feFlood flood-opacity="0" result="BackgroundImageFix"/>
<feColorMatrix in="SourceAlpha" type="matrix" values="0 0 0 0 0 0 0 0 0 0 0 0 0 0 0 0 0 0 127 0" result="hardAlpha"/>
<feOffset/>
<feGaussianBlur stdDeviation="2.5"/>
<feComposite in2="hardAlpha" operator="out"/>
<feColorMatrix type="matrix" values="0 0 0 0 0 0 0 0 0 0 0 0 0 0 0 0 0 0 0.25 0"/>
<feBlend mode="normal" in2="BackgroundImageFix" result="effect1_dropShadow_1540_2518"/>
<feBlend mode="normal" in="SourceGraphic" in2="effect1_dropShadow_1540_2518" result="shape"/>
</filter>
</defs>
</svg>
