<svg width="201" height="226" viewBox="0 0 201 226" fill="none" xmlns="http://www.w3.org/2000/svg">
<rect x="121.957" y="13.8975" width="77.6919" height="77.6919" rx="21.9709" fill="#FDE67E"/>
<path fill-rule="evenodd" clip-rule="evenodd" d="M154.475 47.3165C157.433 50.2742 157.433 55.0695 154.475 58.0272L146.664 65.8389C143.706 68.7966 138.911 68.7966 135.953 65.8389L128.141 58.0272C125.184 55.0695 125.184 50.2742 128.141 47.3165L135.953 39.5048C138.911 36.5472 143.706 36.5472 146.664 39.5048L154.475 47.3165ZM151.576 55.1283C152.933 53.7716 152.933 51.5721 151.576 50.2155L143.765 42.4038C142.408 41.0472 140.209 41.0472 138.852 42.4038L131.04 50.2155C129.684 51.5721 129.684 53.7716 131.04 55.1283L138.852 62.94C140.209 64.2966 142.408 64.2966 143.765 62.94L151.576 55.1283Z" fill="#EA404B"/>
<path fill-rule="evenodd" clip-rule="evenodd" d="M173.93 66.8869C176.887 69.8445 176.887 74.6398 173.93 77.5975L166.118 85.4092C163.16 88.3669 158.365 88.3669 155.407 85.4092L147.596 77.5975C144.638 74.6398 144.638 69.8445 147.596 66.8869L155.407 59.0752C158.365 56.1175 163.16 56.1175 166.118 59.0752L173.93 66.8869ZM171.031 74.6986C172.387 73.3419 172.387 71.1424 171.031 69.7858L163.219 61.9741C161.862 60.6175 159.663 60.6175 158.306 61.9741L150.494 69.7858C149.138 71.1424 149.138 73.3419 150.494 74.6986L158.306 82.5103C159.663 83.8669 161.862 83.8669 163.219 82.5103L171.031 74.6986Z" fill="#EA404B"/>
<path fill-rule="evenodd" clip-rule="evenodd" d="M193.5 47.3175C196.457 50.2752 196.457 55.0705 193.5 58.0282L185.688 65.8399C182.73 68.7975 177.935 68.7975 174.977 65.8399L167.166 58.0282C164.208 55.0705 164.208 50.2752 167.166 47.3175L174.977 39.5058C177.935 36.5482 182.73 36.5482 185.688 39.5058L193.5 47.3175ZM190.601 55.1292C191.957 53.7726 191.957 51.5731 190.601 50.2165L182.789 42.4048C181.432 41.0481 179.233 41.0481 177.876 42.4048L170.065 50.2165C168.708 51.5731 168.708 53.7726 170.065 55.1292L177.876 62.9409C179.233 64.2976 181.432 64.2976 182.789 62.9409L190.601 55.1292Z" fill="#EA404B"/>
<path fill-rule="evenodd" clip-rule="evenodd" d="M174.038 27.754C176.996 30.7117 176.996 35.507 174.038 38.4647L166.227 46.2764C163.269 49.2341 158.474 49.2341 155.516 46.2764L147.704 38.4647C144.747 35.507 144.747 30.7117 147.704 27.754L155.516 19.9423C158.474 16.9847 163.269 16.9847 166.227 19.9423L174.038 27.754ZM171.139 35.5658C172.496 34.2091 172.496 32.0096 171.139 30.653L163.328 22.8413C161.971 21.4847 159.772 21.4847 158.415 22.8413L150.603 30.653C149.247 32.0096 149.247 34.2091 150.603 35.5658L158.415 43.3775C159.772 44.7341 161.971 44.7341 163.328 43.3775L171.139 35.5658Z" fill="#EA404B"/>
<rect x="121.957" y="13.8975" width="77.6919" height="77.6919" rx="21.9709" stroke="black" stroke-width="2"/>
<path d="M74.8632 72.2578C74.4037 72.9471 74.5899 73.8784 75.2792 74.3379C75.9685 74.7974 76.8998 74.6111 77.3593 73.9219L74.8632 72.2578ZM106.089 8.31738L96.0696 22.4461L113.315 24.0584L106.089 8.31738ZM82.6291 91.4624C81.8373 91.7061 81.393 92.5454 81.6366 93.3372C81.8802 94.129 82.7196 94.5734 83.5114 94.3298L82.6291 91.4624ZM144.096 107.349L137.383 91.3824L126.912 105.179L144.096 107.349ZM51.6689 90.903C50.8638 91.0982 50.3694 91.9091 50.5646 92.7142C50.7597 93.5193 51.5706 94.0137 52.3757 93.8186L51.6689 90.903ZM110.371 66.666L93.3458 69.8507L104.617 83.0026L110.371 66.666ZM77.3593 73.9219C78.8867 71.6307 81.1125 68.6421 83.7273 65.0367C86.3268 61.4524 89.2757 57.3054 92.19 52.7714C98.0068 43.7218 103.745 33.0418 106.293 22.0957L103.371 21.4157C100.939 31.8656 95.4157 42.2047 89.6664 51.1493C86.7976 55.6124 83.8873 59.7061 81.2987 63.2754C78.7255 66.8234 76.4343 69.901 74.8632 72.2578L77.3593 73.9219ZM83.5114 94.3298C92.9423 91.428 113.986 89.5127 132.58 100.48L134.105 97.8957C114.583 86.3819 92.6131 88.3905 82.6291 91.4624L83.5114 94.3298ZM52.3757 93.8186C65.0425 90.7478 87.465 84.131 100.843 76.7655L99.3957 74.1375C86.3908 81.2978 64.3011 87.8407 51.6689 90.903L52.3757 93.8186Z" fill="#1A1A18"/>
<path fill-rule="evenodd" clip-rule="evenodd" d="M108.747 225.636H40.5319C35.0041 225.636 30.3584 221.549 29.6234 216.08L16.7742 119.021C15.8921 112.434 21.0377 106.583 27.6828 106.583H121.626C128.271 106.583 133.387 112.434 132.534 119.021L119.656 216.08C118.921 221.549 114.275 225.636 108.747 225.636ZM28.7119 113.638C27.0653 113.874 25.948 115.344 26.1539 116.961L33.2106 166.476L40.2673 215.991C40.5026 217.608 42.0021 218.725 43.6193 218.49C45.2365 218.255 46.3832 216.785 46.148 215.167L39.0912 165.652L32.0345 116.138C31.8287 114.55 30.3291 113.433 28.7119 113.638ZM56.4978 116.696C56.439 115.079 57.7033 113.785 59.3205 113.638C60.9671 113.491 62.349 114.814 62.3784 116.402L64.7307 165.917L67.0829 215.431C67.1711 217.049 65.9068 218.342 64.2896 218.489C62.6725 218.636 61.2905 217.343 61.2023 215.726L58.8501 166.211L56.4978 116.696ZM89.9586 113.639C88.312 113.727 86.9301 114.815 86.8713 116.402L84.519 165.917L82.1668 215.432C82.0785 217.049 83.4017 218.843 84.9894 218.49C86.6066 218.725 87.9886 217.314 88.0768 215.726L90.429 166.211L92.7813 116.697C92.8401 115.079 91.5758 113.55 89.9586 113.639ZM117.215 116.138C117.451 114.521 118.95 113.403 120.597 113.638C122.214 113.874 123.361 115.373 123.096 116.961L116.039 166.476L108.982 215.991C108.777 217.608 107.248 218.725 105.63 218.49C104.013 218.255 102.867 216.785 103.102 215.167L110.159 165.653L117.215 116.138Z" fill="#FD3E43"/>
<path d="M94.8544 18.7967L18.9682 93.6846C17.0428 95.5846 13.9242 95.564 12.0241 93.6386C10.1241 91.7132 10.1447 88.5946 12.0701 86.6945L87.9563 11.8066C89.8817 9.90653 93.0003 9.92718 94.9004 11.8526C96.8004 13.778 96.7798 16.8966 94.8544 18.7967Z" fill="#FD3E43"/>
<path d="M31.0566 51.5986L52.6128 30.326C54.6429 28.3226 57.8862 28.3441 59.8896 30.3742L64.4539 34.9993L59.2218 40.1626L56.2065 37.1071L37.7895 55.2817L40.8049 58.3373L35.5728 63.5005L31.0084 58.8754C29.0051 56.8453 29.0266 53.602 31.0566 51.5986Z" fill="#FD3E43"/>
</svg>
