<svg width="320" height="304" viewBox="0 0 320 304" fill="none" xmlns="http://www.w3.org/2000/svg">
<g filter="url(#filter0_d_1533_5236)">
<path d="M189.648 46.6953C191.449 47.8212 180.191 81.3708 159.926 85.8742C153.171 87.2252 150.469 84.7483 143.489 87.4503C134.483 91.053 134.933 98.2583 127.277 105.013C115.794 114.921 95.0786 116.497 84.0454 108.391C76.3898 102.762 78.8666 96.457 70.5355 91.7285C61.5289 86.5497 55.8997 92.404 44.4163 88.8013C33.158 85.1987 21.4494 74.3907 22.5752 64.9338C23.2507 59.5298 31.1315 54.5761 47.1183 44.6688C66.9329 32.5099 76.615 25.9801 81.5686 24.1788C96.2044 18.3245 112.416 11.7947 123.449 19C130.88 23.7284 129.754 30.7086 139.887 36.3377C147.092 40.1655 154.072 36.5629 156.999 41.0662C159.476 44.894 155.648 48.2715 158.125 51.8741C161.953 57.5033 177.039 56.6026 186.271 49.8476C188.522 47.8212 189.198 46.4702 189.648 46.6953Z" fill="#EFEFEF"/>
<path d="M194.874 121.415L209.111 122.414C209.86 118.418 210.859 114.172 211.859 110.175C212.108 108.676 212.608 106.928 212.858 105.18C212.858 104.93 212.858 104.68 213.107 104.68C213.607 102.682 214.107 100.684 214.356 98.6853C215.106 94.6889 216.105 90.6925 216.854 86.696C214.606 76.4552 212.108 65.9645 209.86 55.7236C209.361 55.9734 208.362 56.2232 207.363 56.7227C202.117 59.4703 198.371 66.4641 195.873 95.4382C195.873 96.1876 195.873 96.9369 195.623 97.936C195.373 103.931 194.874 112.173 194.874 121.415Z" fill="#F7A39C"/>
<path d="M224.847 209.087C229.343 211.585 239.833 199.596 241.332 197.847C241.832 197.597 242.331 197.098 242.831 196.598C244.33 195.1 246.328 192.602 248.576 189.854C263.812 170.122 291.288 123.913 292.786 116.17C282.046 117.669 271.555 119.167 261.065 120.416C238.585 148.641 229.593 170.122 225.846 184.109C225.097 186.357 224.847 188.605 224.347 190.354C223.098 195.599 220.85 207.089 224.847 209.087Z" fill="#F7A39C"/>
<path d="M225.846 184.11C231.591 188.357 237.336 192.353 242.831 196.349C244.33 194.851 246.328 192.353 248.576 189.605C247.827 189.106 247.327 188.606 246.578 188.107C239.584 186.858 232.84 185.609 225.846 184.11Z" fill="#240100"/>
<path d="M286.542 192.353C286.792 193.352 287.291 194.352 287.541 195.101C289.539 200.596 293.536 210.837 297.782 210.587C302.278 210.337 304.776 198.848 305.525 194.102C305.775 193.352 305.775 192.603 305.775 192.353C306.025 191.354 306.025 190.605 306.274 189.606C308.772 174.869 312.019 161.131 308.772 142.897C304.526 118.919 293.036 102.434 286.792 94.6904C284.294 103.932 281.796 113.174 279.298 122.416C276.801 156.635 281.796 178.865 286.542 192.353Z" fill="#F7A39C"/>
<path d="M286.542 192.353C292.786 192.852 299.28 193.352 305.525 193.851C305.775 193.102 305.775 192.353 305.775 192.103C306.024 191.104 306.024 190.354 306.274 189.355C303.776 189.355 301.279 189.355 298.781 189.105C294.784 190.354 290.538 191.353 286.542 192.353Z" fill="#240100"/>
<path d="M270.057 293.513C282.796 293.513 295.784 293.513 308.523 293.513C308.772 292.015 309.272 290.017 308.273 287.519C308.023 286.769 307.524 286.02 307.274 285.77C306.275 284.272 305.026 281.524 304.526 276.529C302.278 276.279 299.78 276.029 297.532 275.779C288.79 287.519 283.795 290.017 280.797 289.767C278.799 289.767 276.801 290.766 274.553 290.766C273.304 290.766 271.556 290.766 270.556 291.765C270.307 292.514 270.057 293.014 270.057 293.513Z" fill="#F7A39C"/>
<path d="M190.878 290.015C203.616 290.015 216.605 290.015 229.343 290.015C229.593 288.517 230.093 286.519 229.094 284.021C228.844 283.271 228.344 282.522 228.094 282.272C227.095 280.774 225.846 278.026 225.347 273.031C223.099 272.781 220.601 272.531 218.353 272.281C209.611 284.021 204.615 286.519 201.618 286.269C199.62 286.269 197.622 287.268 195.374 287.268C194.125 287.268 192.376 287.268 191.377 288.267C191.127 289.016 190.878 289.766 190.878 290.015Z" fill="#F7A39C"/>
<path d="M295.034 280.025C298.281 280.025 301.529 280.275 304.776 280.275C304.776 277.777 305.025 274.03 305.275 269.534C307.273 246.055 312.519 238.062 312.269 224.075C312.019 217.83 310.77 208.838 304.776 197.598C299.031 196.35 293.286 195.35 287.291 194.102C288.79 203.593 290.289 213.834 291.538 224.325C293.785 244.307 294.785 262.79 295.034 280.025Z" fill="#F7A39C"/>
<path d="M240.084 34.7428C248.826 40.4877 257.818 46.4823 266.56 52.2272C270.557 52.7268 274.553 53.4761 278.549 53.9757C280.797 54.2254 283.046 54.725 285.294 54.9748C291.038 55.7241 297.033 56.7232 302.778 57.4725L306.774 43.7348C298.032 40.4877 290.289 37.9899 284.294 36.2415C283.545 35.9917 282.796 35.7419 282.046 35.4921C254.321 27.4993 246.328 28.4984 241.832 32.4948C240.833 33.4939 240.334 34.2433 240.084 34.7428Z" fill="#F7A39C"/>
<path d="M246.578 120.917C248.077 122.166 251.074 124.914 257.318 129.909C266.81 137.902 267.559 138.652 268.558 139.151C276.052 143.397 287.541 144.896 293.036 140.9C300.779 135.155 299.531 114.423 285.293 91.9432C281.297 87.1975 278.05 82.9512 274.303 78.2055C273.803 75.7077 273.054 73.2099 272.055 70.7122C269.058 61.7202 265.311 53.7273 261.315 46.4838C254.571 34.994 239.834 31.4971 228.594 38.4909C225.097 40.7389 221.35 43.4864 217.604 46.9833C216.355 47.9824 215.106 49.2313 214.107 50.2304C211.109 53.2278 208.112 56.7246 207.363 57.7237C203.117 63.7184 210.36 77.2064 212.858 81.4526C222.599 100.186 236.587 112.425 246.578 120.917Z" fill="#F7A39C"/>
<path d="M289.04 151.887C299.386 151.887 307.773 141.711 307.773 129.157C307.773 116.604 299.386 106.428 289.04 106.428C278.694 106.428 270.306 116.604 270.306 129.157C270.306 141.711 278.694 151.887 289.04 151.887Z" fill="#F7A39C"/>
<path d="M216.854 274.78C219.852 275.029 222.599 275.279 225.596 275.529C226.096 273.281 226.845 269.534 228.094 265.038C234.089 242.308 240.833 235.315 243.081 221.577C244.08 215.582 244.33 206.341 240.333 194.101C235.338 192.603 230.092 191.104 225.097 189.605C224.348 199.097 223.598 208.589 222.849 218.08C220.851 237.313 218.852 256.296 216.854 274.78Z" fill="#F7A39C"/>
<path d="M213.357 59.7205L231.091 43.9846C224.098 37.4904 217.104 30.9962 210.11 24.502L196.123 36.9908C197.371 37.7401 198.87 38.7393 200.369 39.9881C202.867 41.9864 205.614 44.7339 208.112 48.4806C208.611 48.9801 208.861 49.7295 209.361 50.229C211.359 53.7259 212.608 57.2228 213.357 59.7205Z" fill="#F7A39C"/>
<path d="M209.111 49.9805L209.361 49.7308C212.359 46.9832 211.609 41.2384 207.613 36.7424C207.113 35.993 206.364 35.4935 205.615 34.7441L200.119 39.7397C202.617 41.7379 205.365 44.4855 207.863 48.2321C208.362 48.7317 208.862 49.481 209.111 49.9805Z" fill="#240100"/>
<path d="M183.384 35.491L183.634 35.7408C184.633 36.9897 185.382 37.4893 185.882 38.2386C186.881 39.2377 187.131 39.2377 187.63 39.987C188.38 40.9861 188.63 41.4857 189.129 42.4848C189.878 43.4839 190.628 43.9835 191.377 44.7328C196.123 48.4795 198.371 50.2279 201.118 50.4777C208.112 50.9772 214.107 39.7373 214.357 34.2422C214.606 31.7444 214.107 29.2466 214.107 29.2466C213.857 27.7479 213.358 26.4991 212.858 25.7497C211.859 23.5017 210.36 20.7542 208.112 18.0066C204.365 13.2609 200.119 10.5133 197.372 9.01465C195.124 9.26443 189.129 10.5133 183.634 15.5089C178.638 20.0049 176.89 25.2502 176.39 27.4982C177.889 29.4964 179.638 31.7444 181.636 33.9924C182.385 34.4919 182.885 34.9915 183.384 35.491Z" fill="#F7A39C"/>
<path d="M193.375 34.7437C193.125 34.7437 192.876 34.494 192.876 34.494C192.626 33.7446 192.376 32.9953 192.626 32.4957C193.125 30.7473 195.623 29.7482 198.62 30.2477C198.87 30.2477 199.12 30.4975 199.12 30.9971C199.12 31.2468 198.87 31.4966 198.371 31.4966C195.873 31.2468 194.124 31.9962 193.625 32.9953C193.625 33.2451 193.625 33.7446 193.875 34.2442C194.124 34.494 193.875 34.9935 193.625 34.9935C193.625 34.7437 193.625 34.7437 193.375 34.7437Z" fill="#240100"/>
<path d="M196.639 34.0126C197.361 33.3714 197.427 32.2662 196.786 31.5441C196.144 30.822 195.039 30.7564 194.317 31.3976C193.595 32.0388 193.529 33.144 194.17 33.8661C194.812 34.5882 195.917 34.6538 196.639 34.0126Z" fill="#240100"/>
<path d="M185.132 41.9859C184.883 41.9859 184.633 41.7361 184.633 41.7361C184.383 40.9868 184.133 40.2375 184.383 39.7379C184.883 37.9895 187.38 36.9904 190.378 37.4899C190.627 37.4899 190.877 37.7397 190.877 38.2393C190.877 38.489 190.627 38.7388 190.128 38.7388C187.63 38.489 185.882 39.2384 185.382 40.2375C185.382 40.4872 185.382 40.9868 185.632 41.4864C185.882 41.7361 185.632 42.2357 185.382 42.2357C185.132 41.9859 185.132 41.9859 185.132 41.9859Z" fill="#240100"/>
<path d="M188.139 41.2987C188.861 40.6575 188.927 39.5523 188.286 38.8302C187.644 38.1081 186.539 38.0426 185.817 38.6837C185.095 39.3249 185.029 40.4301 185.67 41.1522C186.312 41.8743 187.417 41.9399 188.139 41.2987Z" fill="#240100"/>
<path d="M194.874 24.752C194.874 24.752 194.374 25.2515 193.875 25.7511C193.125 26.7502 192.126 28.7484 190.878 31.7457C190.628 31.7457 189.878 31.7457 189.129 31.2462C188.629 30.7466 188.13 30.2471 188.13 29.9973C189.379 28.2489 190.128 27 190.628 26.0009C190.877 25.7511 191.377 24.5022 192.626 23.5031C193.125 23.0035 193.625 23.0035 193.625 22.7538C194.874 22.2542 195.873 23.0035 196.373 23.0035C195.873 23.7529 195.373 24.2524 194.874 24.752Z" fill="#240100"/>
<path d="M182.635 35.9919L182.884 36.2416C183.884 35.4923 185.382 34.743 187.38 33.7439C187.38 33.4941 187.131 32.7448 186.631 32.2452C186.132 31.7456 185.632 31.4959 185.382 31.2461C183.884 32.7448 182.635 33.4941 181.636 34.2434C181.636 34.2434 181.386 34.4932 181.136 34.4932C181.885 34.9928 182.135 35.4923 182.635 35.9919Z" fill="#240100"/>
<path d="M196.622 40.7373C196.622 40.9871 196.373 41.9862 195.374 42.4857C194.624 42.7355 194.125 42.7355 193.875 42.7355L196.622 40.7373Z" fill="#240100"/>
<path d="M199.62 47.7316C199.37 47.7316 199.12 47.7316 199.12 47.4818C198.871 47.2321 198.871 46.7325 199.37 46.7325L200.869 45.7334C201.119 45.4836 201.618 45.4836 201.618 45.9832C201.868 46.233 201.868 46.7325 201.368 46.7325L199.87 47.7316C199.87 47.7316 199.87 47.7316 199.62 47.7316Z" fill="#240100"/>
<path d="M195.374 45.4829C195.623 46.2322 197.622 46.482 199.12 46.2322C199.87 45.9825 201.618 45.4829 201.618 44.4838C201.618 43.7345 200.369 42.9851 199.12 42.7354C197.122 42.7354 195.124 44.4838 195.374 45.4829Z" fill="white"/>
<path d="M283.045 192.851C285.543 221.825 288.041 251.049 290.289 280.023C296.783 280.023 303.527 280.023 310.021 280.023C313.268 265.786 316.016 246.303 314.018 223.823C313.268 214.082 311.52 205.589 309.771 197.846C310.77 167.873 310.77 144.644 310.271 133.154C310.271 130.406 309.771 125.411 307.274 119.666C303.777 112.422 298.531 108.176 296.034 106.428C289.04 112.922 281.796 119.416 274.802 125.91C275.052 133.653 275.302 141.896 276.301 150.389C277.8 166.125 280.298 180.112 283.045 192.851Z" fill="#5A78EC"/>
<path d="M220.601 195.351C218.603 221.827 216.605 248.303 214.606 275.03C221.101 275.779 227.595 276.278 234.089 277.028C239.834 263.79 246.328 244.057 246.078 220.079C246.078 213.085 245.329 206.84 244.58 201.095C256.319 181.863 268.059 162.38 279.798 143.147C285.044 130.908 290.539 118.669 295.784 106.68C290.789 110.426 286.293 113.923 282.046 116.921C269.308 126.412 264.312 129.409 258.317 128.41C256.069 128.161 254.321 127.161 253.072 126.662C246.828 136.153 240.583 147.144 234.339 160.132C228.594 172.871 224.098 184.61 220.601 195.351Z" fill="#5A78EC"/>
<path d="M230.342 138.901C233.839 140.15 251.573 145.895 270.806 136.903C289.789 128.16 297.032 111.675 298.281 108.178C287.291 90.444 276.551 72.7099 265.56 54.9757C252.572 49.9801 239.334 44.7348 226.345 39.7393C227.095 47.7321 223.098 53.9766 218.103 54.9757C215.105 55.725 212.108 54.2263 210.859 53.2272C209.61 53.9766 208.362 54.9757 207.113 56.7241C202.866 62.469 204.865 69.9623 205.114 71.2112C213.607 93.9409 221.849 116.421 230.342 138.901Z" fill="#240100"/>
<path d="M293.036 101.933C296.283 101.933 299.78 101.933 303.027 101.933C304.276 95.4392 305.775 90.4437 306.774 86.697C309.022 79.4535 311.52 69.962 312.519 58.9718C312.769 55.9744 313.019 51.2287 310.271 47.2322C309.022 45.4838 307.773 44.4847 306.774 43.7354C303.027 45.7336 299.031 47.9816 295.284 49.9798C294.285 54.7255 293.786 58.722 293.786 61.4695C293.036 75.4571 297.033 82.201 294.785 94.9397C294.036 97.937 293.536 100.435 293.036 101.933Z" fill="#F7A39C"/>
<path d="M256.569 53.4757C265.311 54.9744 273.803 56.4731 282.546 57.9717C283.295 50.2286 283.795 42.4855 284.544 34.9922C282.546 34.4927 279.548 33.7433 276.051 32.994C256.569 28.498 246.578 26.25 238.834 29.4971C235.837 30.746 231.091 33.4936 226.845 40.2375C236.587 44.4838 246.578 48.9797 256.569 53.4757Z" fill="#240100"/>
<path d="M303.028 100.684C304.027 101.434 305.026 102.683 305.525 104.181C306.025 105.93 306.025 108.178 302.029 114.422C301.279 115.421 295.284 124.663 293.786 123.914C293.286 123.664 293.286 121.416 296.533 113.173C294.785 121.915 293.286 126.162 292.037 125.912C291.538 125.912 291.288 125.412 290.789 124.663C291.288 121.166 291.538 117.669 292.037 114.172C288.79 122.165 286.542 125.912 285.293 125.662C284.794 125.662 284.544 124.913 284.294 123.914C285.793 119.917 287.292 116.171 288.79 112.174C282.546 116.67 278.799 118.419 277.8 117.669C277.55 117.419 277.55 117.17 277.55 116.67C279.549 115.921 289.789 111.675 293.536 101.184C294.785 97.4372 295.035 94.1902 294.785 91.6924C297.533 94.6897 300.28 97.687 303.028 100.684Z" fill="#F7A39C"/>
<path d="M294.285 56.2245H294.036C293.786 55.9747 293.786 55.725 293.786 55.4752L296.284 51.9783C296.533 51.7285 296.783 51.7285 297.033 51.7285C297.283 51.9783 297.283 52.2281 297.283 52.4778L294.785 55.9747C294.785 56.2245 294.535 56.2245 294.285 56.2245Z" fill="#240100"/>
<path d="M294.285 123.414C294.036 123.414 294.036 123.414 294.285 123.414C293.786 123.164 293.536 122.915 293.786 122.665L297.283 110.925C297.283 110.676 297.782 110.426 298.032 110.426C298.282 110.426 298.532 110.925 298.532 111.175L295.035 122.915C294.785 123.414 294.535 123.414 294.285 123.414Z" fill="#240100"/>
<path d="M292.037 114.923C291.538 114.923 291.288 114.424 291.538 114.174L292.037 111.426C292.037 111.177 292.537 110.927 292.787 110.927C293.036 110.927 293.286 111.426 293.286 111.676L292.787 114.424C292.537 114.673 292.287 114.923 292.037 114.923Z" fill="#240100"/>
<path d="M194.624 104.18C201.868 105.179 209.111 106.428 216.604 107.427C216.854 100.433 216.854 93.4396 217.104 86.6956C214.356 76.2049 211.859 65.7143 209.111 55.2236C208.112 55.7232 206.364 56.4725 204.615 57.9712C200.868 61.2183 198.87 65.4645 197.621 70.9596C194.124 83.948 194.624 100.433 194.624 104.18Z" fill="#240100"/>
<path d="M216.604 102.183C216.354 102.183 216.105 101.933 216.105 101.683L207.862 80.2024C207.862 79.9526 207.862 79.4531 208.112 79.4531C208.362 79.2033 208.861 79.4531 208.861 79.7028L217.104 101.184C217.354 101.683 217.104 101.933 216.604 102.183C216.854 102.183 216.604 102.183 216.604 102.183Z" fill="#240100"/>
<path d="M178.139 76.4551C175.641 78.4533 172.893 80.7013 170.396 82.6995C173.393 88.4444 175.391 93.4399 176.89 96.9368C179.637 103.931 183.634 112.923 189.628 122.164C191.127 124.662 193.875 128.409 198.62 129.907C200.619 130.407 202.367 130.407 203.366 130.407C204.115 130.157 206.613 128.908 208.362 125.911C210.11 122.914 209.86 120.166 209.86 119.167C207.113 114.421 204.365 110.675 202.617 108.427C193.874 97.1866 187.131 93.9395 181.136 82.6995C179.637 80.2017 178.638 77.9537 178.139 76.4551Z" fill="#F7A39C"/>
<path d="M207.113 116.669C206.863 116.669 206.613 116.669 206.613 116.419L201.867 108.676C201.618 108.426 201.867 107.927 202.117 107.927C202.367 107.677 202.867 107.927 202.867 108.176L207.612 115.92C207.862 116.169 207.612 116.669 207.362 116.669C207.362 116.669 207.363 116.669 207.113 116.669Z" fill="#240100"/>
<path d="M171.645 85.1969C174.142 84.1978 176.64 83.1987 179.138 82.1996C179.138 77.9534 178.888 73.7071 178.888 69.7107C176.14 64.9649 173.143 59.9694 170.396 55.2236C169.896 55.7232 169.397 56.2227 169.147 57.2218C168.897 58.7205 169.646 59.7196 171.145 61.9676C171.645 62.9667 172.394 64.4654 173.393 66.2138C170.895 66.9631 168.148 67.7125 165.65 68.212C165.15 69.7107 164.651 72.708 165.65 76.4547C166.649 81.7 170.396 84.4476 171.645 85.1969Z" fill="#F7A39C"/>
<path d="M172.893 73.4594C172.144 73.4594 170.895 72.9599 168.148 71.9608C167.898 71.711 167.648 71.4612 167.898 71.2114C168.148 70.9617 168.397 70.7119 168.647 70.9617C170.396 71.711 171.645 72.2106 172.144 72.2106C172.144 72.2106 172.144 71.9608 171.894 71.9608C170.645 70.7119 169.147 69.463 167.398 68.4639C167.149 68.2141 166.899 67.9644 167.149 67.7146C167.398 67.4648 167.648 67.215 167.898 67.4648C169.896 68.4639 171.645 69.7128 172.893 71.2114C173.643 71.9608 173.893 72.7101 173.643 73.2097C173.393 73.2097 173.143 73.4594 172.893 73.4594Z" fill="#240100"/>
<path d="M173.393 77.2055C172.644 77.2055 171.395 76.706 168.647 75.7069C168.397 75.4571 168.148 75.2073 168.397 74.9575C168.647 74.7078 168.897 74.458 169.147 74.7078C170.895 75.4571 172.144 75.9567 172.643 75.9567C172.643 75.9567 172.643 75.7069 172.394 75.7069C171.145 74.458 169.646 73.2091 167.898 72.21C167.648 71.9602 167.398 71.7104 167.648 71.4607C167.898 71.2109 168.148 70.9611 168.397 71.2109C170.396 72.21 172.144 73.4589 173.393 74.9575C174.142 75.7069 174.392 76.4562 174.142 76.9558C173.892 76.9558 173.643 77.2055 173.393 77.2055Z" fill="#240100"/>
<path d="M172.394 79.7046C171.645 79.7046 170.396 79.205 167.648 78.2059C167.398 77.9561 167.149 77.7063 167.398 77.4566C167.648 77.2068 167.898 76.957 168.148 77.2068C170.146 77.9561 171.145 78.4557 171.645 78.4557C171.645 78.4557 171.645 78.2059 171.395 78.2059C170.146 76.957 168.647 75.7081 166.899 74.709C166.649 74.4592 166.399 74.2095 166.649 73.9597C166.899 73.7099 167.149 73.4601 167.398 73.7099C169.397 74.709 171.145 75.9579 172.394 77.4566C173.143 78.2059 173.393 78.9552 173.143 79.4548C173.143 79.4548 172.894 79.7046 172.394 79.7046Z" fill="#240100"/>
<path d="M175.891 72.9581C176.64 74.207 177.639 75.4558 178.389 76.7047C180.387 74.4567 181.136 71.4594 180.137 69.2114C179.637 67.9625 178.638 66.9634 177.889 66.4639C174.142 67.7128 172.394 68.9616 172.394 69.4612C172.394 69.9607 173.393 70.2105 175.141 70.2105C175.641 71.2096 175.891 71.959 175.891 72.9581Z" fill="#F7A39C"/>
<path d="M172.643 69.7126C172.394 69.7126 172.144 69.4629 172.144 69.4629C171.894 69.2131 172.144 68.7135 172.394 68.7135L177.389 66.2158C177.639 65.966 178.139 66.2158 178.139 66.4656C178.388 66.7153 178.139 67.2149 177.889 67.2149L172.893 69.7126H172.643Z" fill="#240100"/>
<path d="M174.392 71.4609C174.143 71.4609 173.893 71.2111 173.893 70.9613C173.893 70.7115 173.893 70.212 174.392 70.212L177.39 69.2129C177.64 69.2129 178.139 69.2129 178.139 69.7124C178.139 69.9622 178.139 70.4618 177.639 70.4618L174.392 71.4609Z" fill="#240100"/>
<path d="M174.143 71.4605C174.143 71.4605 173.893 71.4605 174.143 71.4605C173.643 71.2107 173.144 71.2107 172.894 70.9609C172.145 70.4613 172.145 69.712 172.145 69.4622C172.145 69.2125 172.394 68.7129 172.644 68.7129C172.894 68.7129 173.393 68.9627 173.393 69.2125C173.393 69.4622 173.393 69.712 173.893 69.9618C174.143 70.2116 174.392 70.2116 174.392 70.2116C174.642 70.2116 174.892 70.7111 174.892 70.9609C174.642 71.2107 174.392 71.4605 174.143 71.4605Z" fill="#240100"/>
<path d="M175.141 80.2022C174.892 80.2022 174.642 79.9524 174.642 79.7026C174.392 78.4537 174.392 77.2048 174.392 76.2057C174.642 74.7071 175.141 72.9586 176.141 71.7097C176.39 71.46 176.64 71.46 176.89 71.46C177.14 71.7097 177.14 71.9595 177.14 72.2093C176.64 72.9586 175.891 74.4573 175.641 76.2057C175.391 77.2048 175.641 78.2039 175.891 79.4528C175.891 79.7026 175.641 79.9524 175.141 80.2022C175.391 80.2022 175.141 80.2022 175.141 80.2022Z" fill="#240100"/>
<path d="M191.127 290.764H229.593C230.092 290.764 230.342 290.515 230.342 290.015C230.342 289.515 230.092 289.266 229.593 289.266H191.127C190.627 289.266 190.378 289.515 190.378 290.015C190.378 290.515 190.627 290.764 191.127 290.764Z" fill="#240100"/>
<path d="M190.878 290.266H209.861V281.523H199.62C194.874 281.523 190.878 285.27 190.878 290.266Z" fill="#240100"/>
<path d="M270.307 294.762H308.522C309.022 294.762 309.272 294.513 309.272 294.013C309.272 293.513 309.022 293.264 308.522 293.264H270.057C269.557 293.264 269.307 293.513 269.307 294.013C269.307 294.263 269.807 294.762 270.307 294.762Z" fill="#240100"/>
<path d="M270.057 294.013H289.04V285.271H278.799C273.804 285.271 270.057 289.267 270.057 294.013Z" fill="#240100"/>
<path d="M276.051 150.141C275.802 150.141 275.552 149.891 275.552 149.641L274.802 141.149C274.802 140.899 275.052 140.399 275.302 140.399C275.802 140.399 276.051 140.649 276.051 140.899L276.801 149.391C276.801 149.891 276.301 150.141 276.051 150.141Z" fill="#240100"/>
<path d="M296.033 202.843C295.784 202.843 295.534 202.843 295.534 202.593C295.284 202.343 295.284 201.843 295.784 201.843L299.031 199.346C299.281 199.096 299.78 199.096 299.78 199.595C300.03 199.845 300.03 200.345 299.53 200.345L296.283 202.843H296.033Z" fill="#240100"/>
<path d="M239.584 202.594C239.334 202.594 239.084 202.344 239.084 202.095C239.084 201.845 239.084 201.345 239.334 201.345L243.33 199.847C243.58 199.597 244.08 199.847 244.08 200.096C244.08 200.346 244.079 200.846 243.83 200.846L239.584 202.594C239.833 202.594 239.833 202.594 239.584 202.594Z" fill="#240100"/>
<path d="M180.387 10.7644C178.388 11.7635 175.641 13.2622 175.141 15.7599C174.642 17.5084 175.641 18.5075 174.891 20.0061C173.892 22.0044 171.394 21.255 170.146 23.0035C168.647 25.2515 169.896 30.7466 173.892 32.495C175.641 33.2443 178.638 33.4941 180.387 31.9954C182.635 30.247 181.386 27.2497 183.883 26.0008C185.382 25.2515 186.131 26.0008 187.38 25.0017C188.629 24.0026 188.13 23.0035 189.129 21.5048C190.627 19.2568 193.625 19.007 194.124 18.7573C199.869 18.0079 204.615 24.5021 206.114 23.2532C206.863 22.5039 205.614 20.0061 206.114 19.7564C207.113 19.007 211.609 25.5012 212.608 25.0017C213.357 24.5021 212.108 20.2559 209.61 16.0097C208.362 13.7617 203.116 4.51995 197.122 5.01951C195.373 5.26928 195.623 6.01861 192.126 7.51728C186.381 9.5155 184.883 8.26661 180.387 10.7644Z" fill="#240100"/>
<path d="M49.7532 147.143C56.0988 147.143 61.243 141.998 61.243 135.653C61.243 129.307 56.0988 124.163 49.7532 124.163C43.4076 124.163 38.2634 129.307 38.2634 135.653C38.2634 141.998 43.4076 147.143 49.7532 147.143Z" fill="#240100"/>
<path d="M104.205 298.258H107.951C90.9665 271.782 92.7149 245.555 104.454 235.814C116.943 225.323 138.424 234.315 139.423 234.815C159.905 243.557 172.893 268.035 173.143 298.508H176.39C175.891 267.036 162.403 241.309 140.672 232.067C139.673 231.568 116.444 221.826 102.456 233.566C89.4678 243.807 86.9701 270.533 104.205 298.258Z" fill="#240100"/>
<path d="M51.7515 262.291H100.208C107.452 262.291 112.447 254.798 109.7 248.054L87.9692 194.102C86.4706 190.105 82.7239 187.607 78.4777 187.607H30.0209C22.7773 187.607 17.7818 195.101 20.5294 201.845L42.26 255.797C43.5088 259.793 47.5053 262.291 51.7515 262.291Z" fill="#EFEFEF"/>
<path d="M46.5059 265.537H167.398C169.147 265.537 170.645 264.039 170.645 262.29C170.645 260.542 169.147 259.043 167.398 259.043H46.5059C44.7575 259.043 43.2588 260.542 43.2588 262.29C43.2588 264.039 44.7575 265.537 46.5059 265.537Z" fill="#240100"/>
<path d="M45.5068 259.043H165.65C166.899 259.043 167.898 258.044 167.898 256.795C167.898 255.546 166.899 254.547 165.65 254.547H45.5068C44.258 254.547 43.2588 255.546 43.2588 256.795C43.2588 258.294 44.258 259.043 45.5068 259.043Z" fill="#EFEFEF"/>
<path d="M108.95 255.546H47.2554C47.0056 255.546 46.5061 255.296 46.5061 254.796C46.5061 254.546 46.7559 254.047 47.2554 254.047H108.95C109.2 254.047 109.7 254.297 109.7 254.796C109.7 255.296 109.45 255.546 108.95 255.546Z" fill="#240100"/>
<path d="M80.7256 193.351C81.4749 195.099 82.2243 197.098 82.9736 198.846C83.723 201.594 84.4723 204.591 85.2216 207.338C86.2207 208.837 86.9701 210.336 87.9692 211.834C88.219 212.334 88.4687 212.584 88.7185 213.083C89.4678 214.082 89.9674 215.331 90.467 216.33C90.467 216.33 90.7167 217.08 91.7158 218.578C93.4643 221.326 96.7114 226.571 97.7105 228.32C97.9603 228.32 99.9585 230.068 102.456 229.069C104.205 228.32 105.454 226.821 105.703 225.073C106.203 223.574 106.453 220.826 105.953 217.579C105.454 214.082 103.955 211.585 102.956 210.336C102.206 208.837 101.457 207.339 100.708 205.84C99.7087 204.091 98.7096 202.343 97.7105 200.595C97.4607 200.095 97.2109 199.845 96.9611 199.346C95.2127 196.348 93.2145 193.601 91.4661 191.103C88.2189 190.104 84.722 190.603 82.2243 192.352C81.4749 192.352 81.2251 192.851 80.7256 193.351Z" fill="#F7A39C"/>
<path d="M87.9688 211.836C88.2185 212.335 88.4683 212.585 88.7181 213.084C89.7172 214.833 90.7162 216.831 91.9651 218.58C95.7118 215.832 99.4584 213.084 103.205 210.337C97.9598 210.836 92.9643 211.336 87.9688 211.836Z" fill="#240100"/>
<path d="M78.2278 187.357C79.2269 189.355 79.9762 191.353 80.7256 193.351C81.4749 195.1 82.2243 197.098 82.9736 198.846C83.7229 201.594 84.4723 204.591 85.2216 207.339C86.2207 210.586 86.97 214.083 87.9692 217.33C88.7185 216.83 89.7176 216.581 90.4669 216.081C94.7131 214.083 98.7096 212.085 102.956 210.086C103.206 209.837 103.455 209.837 103.705 209.837C102.206 204.841 100.208 201.094 98.7095 198.597C95.962 194.101 93.2144 190.104 88.4687 188.106C84.2225 186.358 80.226 186.857 78.2278 187.357Z" fill="#5A78EC"/>
<path d="M56.2479 244.805H91.7163C90.7172 233.316 88.719 219.828 84.7225 205.341C82.9741 199.346 81.2257 193.851 79.2275 188.605C74.2319 189.105 68.9866 189.854 63.991 190.354C62.9919 191.353 61.4933 192.852 60.4942 195.1C58.9955 198.597 59.9946 201.844 60.2444 202.843C62.7422 215.332 48.255 229.319 54.4995 241.558C54.4995 242.308 54.999 243.556 56.2479 244.805Z" fill="#F7A39C"/>
<path d="M56.4976 247.054C57.4967 247.054 58.9954 247.054 60.4941 246.555C63.2416 245.556 64.4905 243.308 64.99 242.558C66.7385 240.061 72.7331 234.565 89.718 222.826C88.4691 216.581 86.7207 209.588 84.2229 202.094C82.4745 196.599 80.4762 191.354 78.478 186.858C76.7296 186.109 72.4833 184.36 66.9882 185.11C63.4914 185.609 60.9936 186.858 59.2452 187.607C55.4985 194.351 42.5101 218.58 52.5012 240.061C53.5003 242.558 54.7492 244.806 56.4976 247.054Z" fill="#5A78EC"/>
<path d="M65.9888 188.606C67.2377 188.606 68.9861 188.856 71.2341 189.605C75.9799 190.604 78.2279 192.103 79.7265 191.104C80.2261 190.854 80.7256 190.105 80.9754 188.356C80.4759 186.358 80.4759 184.61 80.2261 183.61C80.2261 182.611 80.2261 181.362 80.2261 180.114C80.2261 179.614 80.2261 178.865 80.2261 178.115C80.2261 177.616 80.2261 176.866 80.2261 176.367C80.2261 174.868 80.4759 173.37 80.4759 172.121C80.4759 171.122 80.7256 170.372 80.7256 169.373L78.7274 169.123L73.9817 168.874L68.9861 168.374C68.4866 171.122 67.987 174.119 67.4874 176.866C67.4874 177.116 67.4874 177.366 67.4874 177.366C66.9879 179.864 66.7381 182.362 66.2386 185.109C66.2386 185.858 65.9888 186.608 65.9888 187.357C66.2385 187.607 65.9888 188.106 65.9888 188.606Z" fill="#F7A39C"/>
<path d="M76.9791 178.115C78.228 178.865 79.2271 179.614 80.476 179.864C80.476 179.364 80.476 178.615 80.476 177.866C80.476 177.366 80.476 176.617 80.476 176.117C80.476 174.619 80.7257 173.12 80.7257 171.871C77.4786 169.873 73.9818 169.373 72.9827 171.122C71.7338 172.62 73.4822 175.867 76.9791 178.115Z" fill="#240100"/>
<path d="M85.2217 142.396L91.9656 153.885C96.2118 161.129 93.9639 170.62 86.7203 174.867C84.9719 175.366 82.2243 176.115 78.7274 175.866C71.4839 175.366 66.9879 170.87 65.739 169.371L57.7462 156.133C55.2484 151.887 55.748 146.392 59.2448 142.895C60.7435 141.396 62.4919 139.898 64.4901 138.649C65.739 137.9 67.2377 137.15 68.4866 136.651C74.731 134.403 81.7248 136.9 85.2217 142.396Z" fill="#F7A39C"/>
<path d="M88.7188 162.379C88.7188 162.629 88.2193 163.628 87.4699 164.127C86.2211 164.877 85.2219 164.627 84.9722 164.377L88.7188 162.379Z" fill="#240100"/>
<path d="M84.4724 151.389C84.7222 151.639 85.9711 151.14 88.4689 149.891C89.9675 149.141 90.4671 148.892 90.4671 148.642C90.4671 148.142 88.9685 147.643 87.7196 147.893C85.4716 148.392 84.2227 150.89 84.4724 151.389Z" fill="#240100"/>
<path d="M69.7358 157.382C69.9856 157.382 71.734 156.633 75.2309 155.134C77.4789 154.135 77.9784 153.885 78.2282 153.635C78.2282 153.136 76.4798 153.136 74.7313 153.885C71.9838 154.634 69.486 157.132 69.7358 157.382Z" fill="#240100"/>
<path d="M89.2184 199.347C88.2193 198.348 87.2201 197.349 86.221 196.35C81.725 199.597 75.9801 205.092 71.9837 214.084C70.485 217.581 69.4859 221.078 68.7366 224.325C68.4868 224.824 67.9872 225.823 68.237 227.322C68.4868 228.821 68.9864 230.07 69.2362 230.569C71.734 230.569 74.2317 230.819 76.7295 230.819C78.7277 227.572 79.7268 226.073 79.9766 225.324C79.9766 225.324 80.2264 224.824 80.4762 224.574C80.7259 224.325 80.9757 223.825 80.9757 223.575C84.7223 216.082 82.9739 209.338 86.9703 202.344C87.9694 200.846 88.7188 199.846 89.2184 199.347Z" fill="#F7A39C"/>
<path d="M80.9754 217.579H101.207C103.206 217.579 105.953 215.831 107.202 213.832L124.686 181.861C125.935 179.863 125.186 178.114 122.938 178.114H102.706C100.708 178.114 97.9603 179.863 96.7114 181.861L79.227 213.832C78.2279 215.831 78.9772 217.579 80.9754 217.579Z" fill="#240100"/>
<path d="M101.208 252.3C105.953 240.81 110.949 229.32 115.695 217.581C116.194 216.082 116.944 214.833 117.443 213.335C117.693 213.085 117.693 212.585 117.943 212.335C117.943 212.086 118.192 211.836 118.192 211.586C114.446 209.838 110.449 208.089 106.703 206.341C106.453 206.591 106.203 206.591 105.953 206.84C105.454 207.34 86.9703 234.316 86.9703 234.316C85.4717 236.564 83.2237 239.811 79.7268 243.308C80.2264 244.307 82.9739 249.802 89.4681 252.3C94.9632 254.298 99.9588 252.799 101.208 252.3Z" fill="#F7A39C"/>
<path d="M147.666 254.797H119.191C118.442 253.798 117.693 252.549 117.443 250.801C117.193 248.803 118.192 247.304 118.692 246.555C119.691 244.556 120.94 241.309 121.439 236.563C124.437 236.563 127.684 236.563 130.681 236.563C134.178 241.559 137.675 244.307 140.423 245.805C144.419 248.053 148.415 248.803 148.915 251.55C149.165 252.549 148.415 253.798 147.666 254.797Z" fill="#FFCE33"/>
<path d="M133.179 241.559C130.931 242.308 128.933 242.807 126.685 243.557C122.189 238.561 118.942 234.065 116.694 230.568C110.199 220.577 109.45 216.331 109.7 214.083C109.7 213.833 109.7 213.583 109.7 213.334C110.199 208.088 108.201 206.09 108.701 203.842C108.951 202.344 110.449 200.595 114.695 199.096C115.195 198.847 117.693 198.347 119.941 199.596C122.189 200.845 123.438 203.343 123.438 206.09C123.687 208.338 123.937 210.586 124.187 212.834C125.686 223.824 129.182 233.566 133.179 241.559Z" fill="#F7A39C"/>
<path d="M119.94 243.307C121.939 243.807 124.936 244.306 128.683 243.807C131.43 243.307 133.678 242.558 135.177 241.808C133.928 240.31 132.18 238.312 130.681 235.564C129.682 233.316 128.932 231.318 128.433 229.569C124.686 230.818 120.69 231.817 116.943 233.066C118.192 236.313 118.941 239.81 119.94 243.307Z" fill="#FFCE33"/>
<path d="M80.7256 239.311C77.7283 240.56 74.9807 241.559 71.9834 242.808C72.9825 244.307 77.2288 251.55 86.7203 254.298C94.963 256.796 101.707 254.048 103.705 253.299C105.953 249.802 108.95 244.557 110.699 237.813C111.948 233.317 112.697 229.07 112.697 225.573C113.696 227.072 114.695 228.571 115.694 230.069C119.191 227.322 122.688 224.824 126.435 222.077C126.185 216.831 125.186 211.086 123.937 205.092C123.687 203.843 123.188 202.594 122.938 201.345C122.438 200.846 118.192 196.849 112.198 198.098C107.951 198.847 105.454 201.845 104.704 202.594C96.7114 214.583 88.7185 227.072 80.7256 239.311Z" fill="#FF6665"/>
<path d="M112.697 225.574C112.447 225.574 112.197 225.574 112.197 225.324L107.701 216.582C107.452 216.332 107.701 215.833 107.951 215.833C108.201 215.583 108.7 215.833 108.7 216.083L113.196 224.825C113.446 225.075 113.196 225.574 112.947 225.574C112.947 225.574 112.947 225.574 112.697 225.574Z" fill="#240100"/>
<path d="M108.201 216.831C107.701 216.831 107.452 216.331 107.702 216.082L107.951 213.834C107.951 213.584 108.201 213.334 108.701 213.334C108.95 213.334 109.2 213.834 109.2 214.083L108.95 216.331C108.701 216.581 108.451 216.831 108.201 216.831Z" fill="#240100"/>
<path d="M108.201 216.334C107.951 216.334 107.702 216.334 107.702 216.084L106.702 214.585C106.453 214.336 106.453 213.836 106.952 213.836C107.202 213.586 107.702 213.586 107.702 214.086L108.701 215.584C108.95 215.834 108.95 216.334 108.451 216.334C108.451 216.334 108.451 216.334 108.201 216.334Z" fill="#240100"/>
<path d="M84.9721 253.797C89.7178 242.307 94.7134 230.817 99.4591 219.078C99.9587 217.579 100.708 216.33 101.208 214.832C101.457 214.582 101.457 214.082 101.707 213.833C101.707 213.583 101.957 213.333 101.957 213.083C98.2102 211.335 94.2139 209.586 90.4672 207.838C90.2174 208.088 89.9676 208.088 89.7178 208.337C89.2183 208.837 70.7347 235.813 70.7347 235.813C69.2361 238.061 66.9881 241.308 63.4912 244.805C63.9908 245.804 66.7383 251.299 73.2325 253.797C78.9774 255.795 83.7232 254.296 84.9721 253.797Z" fill="#F7A39C"/>
<path d="M131.431 256.546H102.956C102.207 255.547 101.457 254.298 101.208 252.55C100.958 250.552 101.957 249.053 102.457 248.304C103.456 246.305 104.705 243.058 105.204 238.312C108.201 238.312 111.448 238.312 114.446 238.312C117.943 243.308 121.44 246.056 124.187 247.554C128.184 249.802 132.18 250.552 132.68 253.299C132.929 254.298 132.18 255.547 131.431 256.546Z" fill="#FFCE33"/>
<path d="M116.944 243.308C114.696 244.057 112.697 244.556 110.449 245.306C105.953 240.31 102.706 235.814 100.458 232.317C93.9641 222.326 93.2147 218.08 93.4645 215.832C93.4645 215.582 93.4645 215.333 93.4645 215.083C93.964 209.837 91.9658 207.839 92.4654 205.591C92.7152 204.093 94.2138 202.344 98.46 200.845C98.9596 200.596 101.457 200.096 103.705 201.345C105.953 202.594 107.202 205.092 107.202 207.839C107.452 210.087 107.702 212.335 107.952 214.583C109.7 225.573 112.947 235.315 116.944 243.308Z" fill="#F7A39C"/>
<path d="M103.705 245.056C105.703 245.556 108.701 246.055 112.447 245.556C115.195 245.056 117.443 244.307 118.942 243.557C117.693 242.059 115.944 240.061 114.446 237.313C113.446 235.065 112.697 233.067 112.198 231.318C108.451 232.567 104.454 233.566 100.708 234.815C101.957 238.062 102.956 241.559 103.705 245.056Z" fill="#FFCE33"/>
<path d="M64.4901 241.058C63.9906 242.057 62.9915 243.556 60.9933 245.054C59.2448 246.303 57.4964 246.553 56.4973 246.803C58.7453 248.801 63.2413 252.298 69.9853 254.296C77.7284 256.544 84.4724 255.545 87.4697 254.796C89.7177 251.299 92.715 246.054 94.4634 239.31C95.7123 234.814 96.4617 230.567 96.4617 227.071C97.4608 228.569 98.4598 230.068 99.459 231.567C102.956 228.819 106.453 226.321 110.199 223.574C109.95 218.328 108.951 212.583 107.702 206.589C107.452 205.34 106.952 204.091 106.703 202.842C106.203 202.343 101.957 198.346 95.9621 199.595C91.7159 200.344 89.2181 203.342 88.4688 204.091C80.7257 216.33 72.483 228.819 64.4901 241.058Z" fill="#FF6665"/>
<path d="M96.7116 227.32C96.4618 227.32 96.212 227.32 96.212 227.071L91.716 218.328C91.4662 218.079 91.716 217.579 91.9657 217.579C92.2155 217.329 92.7151 217.579 92.7151 217.829L97.2111 226.571C97.4609 226.821 97.2111 227.32 96.9613 227.32C96.7115 227.32 96.7116 227.32 96.7116 227.32Z" fill="#240100"/>
<path d="M91.9657 218.577C91.4661 218.577 91.2164 218.077 91.4662 217.828L91.716 215.58C91.716 215.33 92.2155 215.08 92.4653 215.08C92.715 215.08 92.9648 215.33 92.9648 215.829L92.715 218.077C92.715 218.327 92.4652 218.577 91.9657 218.577Z" fill="#240100"/>
<path d="M92.2155 218.079C91.9657 218.079 91.716 218.079 91.716 217.829L90.7168 216.33C90.467 216.081 90.467 215.581 90.9666 215.581C91.2164 215.331 91.716 215.331 91.716 215.831L92.7151 217.329C92.9648 217.579 92.9648 218.079 92.4653 218.079H92.2155Z" fill="#240100"/>
<path d="M109.95 222.075C109.7 222.075 109.45 221.825 109.45 221.575L105.703 202.592C105.703 202.342 105.953 201.843 106.203 201.843C106.453 201.843 106.952 202.093 106.952 202.342L110.699 221.325C110.699 221.575 110.449 222.075 109.95 222.075C110.199 222.075 110.199 222.075 109.95 222.075Z" fill="#240100"/>
<path d="M89.4679 252.799C88.9683 252.549 88.7186 252.299 88.9684 252.05L96.4617 229.32C96.4617 229.07 96.9612 228.82 97.211 228.82C97.4608 228.82 97.7106 229.32 97.7106 229.57L90.2172 252.299C89.9675 252.549 89.7176 252.799 89.4679 252.799Z" fill="#240100"/>
<path d="M53.5 197.349C53.5 200.596 53.7498 203.843 54.2494 207.34C54.2494 207.84 54.2493 208.339 54.4991 208.839C54.7489 211.087 54.9987 213.085 55.4983 214.834C55.748 216.083 55.9978 217.331 56.2476 218.331C56.2476 218.83 56.4974 219.33 56.4974 219.829C56.4974 220.329 56.4974 220.828 56.4974 221.578C56.7471 223.076 57.2466 225.324 58.2458 227.323C59.7444 230.32 61.7427 232.068 62.9916 233.067C64.4902 234.316 66.2386 234.816 68.2368 234.316C70.7346 233.567 71.484 231.069 71.484 230.819C71.2342 228.821 70.7347 222.827 70.2351 219.579C69.9853 217.581 69.9853 216.832 69.9853 216.832C69.7355 215.583 69.7355 214.334 69.4857 213.085C69.4857 212.586 69.236 212.336 69.236 211.836C68.9862 210.088 68.7364 208.339 68.4866 206.591C67.4875 203.843 66.2387 201.096 65.2396 198.598C64.74 196.6 64.2404 194.852 63.7409 192.853C62.9916 192.604 62.492 192.604 61.7427 192.604C58.2458 192.853 55.2484 194.602 53.5 197.349Z" fill="#F7A39C"/>
<path d="M44.5077 298.258H48.2543C31.2695 271.782 33.0179 245.555 44.7575 235.814C57.2463 225.323 78.7272 234.315 79.7263 234.815C100.208 243.557 113.196 268.035 113.446 298.508H116.693C116.194 267.036 102.706 241.309 80.9752 232.067C79.9761 231.568 56.7468 221.826 42.7593 233.566C29.7709 243.807 27.273 270.533 44.5077 298.258Z" fill="#240100"/>
<path d="M56.2474 219.829C56.2474 220.328 56.2474 220.828 56.2474 221.577C60.7434 220.078 65.2394 218.58 69.7353 217.081C65.9887 217.331 62.4918 217.331 58.7452 217.581C57.7461 217.83 56.7469 218.33 55.7478 218.58C55.9976 218.829 55.9976 219.329 56.2474 219.829Z" fill="#240100"/>
<path d="M61.7428 186.358C62.2423 188.606 63.7215 190.634 64.4708 192.882C64.9704 194.88 65.9145 196.325 66.4141 198.323C67.663 200.571 68.427 203.432 69.4261 206.679C70.675 210.675 69.7356 214.084 69.9854 216.581C65.2396 217.581 60.7436 218.58 55.9979 219.579C55.7481 219.579 55.4983 219.829 55.2486 219.829C53.5001 215.083 52.7508 210.837 52.501 207.839C52.0014 202.344 51.5019 197.598 54.2495 193.102C56.4975 189.356 59.7446 187.358 61.7428 186.358Z" fill="#5A78EC"/>
<path d="M85.9711 201.594C86.9702 201.344 87.9693 201.094 89.2182 200.594C91.716 199.595 93.4644 198.596 94.9631 197.597C98.2102 197.347 99.9586 196.848 99.9586 196.348C99.9586 196.099 98.9595 195.599 96.9612 195.349C97.9603 196.598 99.7088 196.848 100.458 196.098C101.208 195.599 101.207 194.85 101.207 194.6C99.2093 193.101 97.2111 191.603 95.2128 190.104C94.2137 189.854 92.715 189.604 90.9666 190.104C86.2208 191.353 84.7222 197.098 84.7222 197.347C85.2217 198.846 85.4715 200.345 85.9711 201.594Z" fill="#F7A39C"/>
<path d="M69.7355 217.581C69.4857 217.581 69.2359 217.331 68.9862 217.081L68.4866 199.597C68.4866 199.347 68.7364 198.848 68.9862 198.848C69.2359 198.848 69.7355 199.097 69.7355 199.347L70.235 216.832C70.235 217.081 69.9852 217.331 69.7355 217.581Z" fill="#240100"/>
<path d="M54.2496 219.828C53.9998 219.828 53.75 219.578 53.75 219.329L51.2522 205.341C51.2522 205.091 51.502 204.592 51.7518 204.592C52.0016 204.592 52.5011 204.842 52.5011 205.091L54.9989 219.079C54.7491 219.329 54.4993 219.578 54.2496 219.828Z" fill="#240100"/>
<path d="M85.7211 169.872C85.2215 169.872 84.9717 169.872 84.4722 169.872C84.2224 169.872 83.9727 169.372 83.9727 169.122C83.9727 168.873 84.4722 168.623 84.722 168.623C85.2215 168.623 85.9708 168.873 86.9699 168.623C87.969 168.373 88.7184 167.624 88.9682 167.374C89.218 167.124 89.4677 167.124 89.9673 167.374C90.2171 167.624 90.2171 167.873 89.9673 168.373C89.4677 168.873 88.7184 169.622 87.2197 170.121C86.97 169.872 86.4704 169.872 85.7211 169.872Z" fill="#240100"/>
<path d="M85.721 171.121C85.4712 171.121 85.4713 171.121 85.2215 171.121C84.9717 171.121 84.7219 170.871 84.7219 170.371C84.7219 170.122 84.9717 169.872 85.4713 169.872C85.7211 169.872 85.9708 169.872 86.4704 169.872C86.9699 169.872 87.4695 169.622 87.7193 169.622C87.9691 169.372 88.4686 169.622 88.4686 169.872C88.4686 170.122 88.4686 170.621 88.2188 170.621C87.7192 170.871 87.2197 170.871 86.4704 171.121C86.2206 171.121 85.9708 171.121 85.721 171.121Z" fill="#240100"/>
<path d="M132.679 254.796C132.429 254.796 132.18 254.546 132.18 254.297C131.93 252.798 131.181 251.549 130.181 250.8C129.432 250.05 128.433 249.801 127.434 249.551C126.934 249.551 126.435 249.301 125.935 249.051C123.687 248.302 121.439 246.803 119.441 244.306C119.191 244.056 119.191 243.556 119.441 243.306C119.691 243.057 120.19 243.057 120.44 243.306C122.189 245.554 124.187 247.053 126.185 247.802C126.685 248.052 127.184 248.052 127.684 248.302C128.933 248.552 129.932 248.802 131.181 249.801C132.429 250.8 133.179 252.298 133.429 254.047C133.179 254.546 132.929 254.796 132.679 254.796Z" fill="#240100"/>
<path d="M100.708 195.099H100.458L93.9638 191.103C93.7141 190.853 93.4643 190.603 93.7141 190.353C93.9638 190.103 94.2136 189.854 94.4634 190.103L100.958 194.1C101.207 194.35 101.457 194.599 101.207 194.849C100.958 195.099 100.708 195.099 100.708 195.099Z" fill="#240100"/>
<path d="M99.9585 196.099H99.7087L93.2145 193.352C92.9647 193.102 92.715 192.852 92.9648 192.602C93.2146 192.352 93.4643 192.103 93.7141 192.352L100.208 195.1C100.458 195.35 100.708 195.6 100.458 195.849C100.458 196.099 100.208 196.099 99.9585 196.099Z" fill="#240100"/>
<path d="M87.4695 158.132C87.2197 158.132 86.9699 157.882 86.9699 157.633C86.4703 156.134 86.97 154.635 87.9691 153.886C88.7184 153.137 89.7175 153.137 90.217 153.137C90.4668 153.137 90.9663 153.386 90.9663 153.636C90.9663 153.886 90.7166 154.386 90.4668 154.386C90.2171 154.386 89.4677 154.386 88.9682 154.885C88.2188 155.385 87.969 156.384 88.2188 157.383C88.2188 157.633 87.969 157.882 87.4695 158.132C87.7193 158.132 87.7193 158.132 87.4695 158.132Z" fill="#240100"/>
<path d="M88.6533 153.481C88.1265 153.926 88.277 154.97 88.9894 155.813C89.7017 156.656 90.7062 156.978 91.233 156.533C91.7597 156.087 91.6093 155.043 90.8969 154.201C90.1845 153.358 89.18 153.035 88.6533 153.481Z" fill="#240100"/>
<path d="M77.9783 162.63C77.7286 162.63 77.4788 162.381 77.4788 162.131C77.229 160.632 77.4787 159.133 78.4779 158.384C78.9774 157.885 79.7267 157.635 80.7258 157.635C80.9756 157.635 81.4752 157.885 81.4752 158.134C81.4752 158.384 81.2254 158.884 80.9756 158.884C80.7259 158.884 79.9765 158.884 79.477 159.383C78.7276 159.883 78.4779 160.882 78.7277 161.881C78.7277 162.381 78.4779 162.63 77.9783 162.63Z" fill="#240100"/>
<path d="M78.8746 158.225C78.3478 158.67 78.4984 159.714 79.2109 160.557C79.9233 161.4 80.9279 161.722 81.4547 161.277C81.9814 160.832 81.8309 159.787 81.1184 158.945C80.4059 158.102 79.4013 157.78 78.8746 158.225Z" fill="#240100"/>
<path d="M50.7527 154.385C51.2523 155.634 52.2514 156.633 53.7501 158.632C54.9989 160.13 55.4985 160.88 55.998 161.379C57.4967 162.628 58.4958 162.128 62.7421 163.377C65.4896 164.127 65.7394 164.376 66.2389 164.127C67.9874 163.128 65.9892 158.881 67.7376 152.887C67.9874 151.638 68.9864 147.891 70.7349 147.641C71.4842 147.641 71.734 148.141 73.2327 148.89C75.4807 149.64 78.478 149.14 79.2274 147.891C79.7269 146.642 77.9784 144.644 78.478 144.145C78.9776 143.645 80.2264 145.144 81.9749 144.894C83.9731 144.644 85.222 142.396 85.9713 141.147C86.9704 139.399 87.9695 137.65 87.2202 135.652C86.7206 134.153 85.222 132.655 83.4735 132.155C80.9758 131.656 79.7269 133.654 77.2291 133.154C75.7304 132.905 75.2309 131.905 74.2318 131.156C70.7349 128.908 64.9901 131.656 62.7421 132.905C60.7438 133.904 52.2514 138.4 50.7527 146.892C50.0034 148.641 49.254 151.638 50.7527 154.385Z" fill="#240100"/>
<path d="M62.2253 161.912C60.2094 163.11 59.7181 166.004 61.1279 168.376C62.5377 170.747 65.3148 171.698 67.3307 170.5C69.3466 169.302 69.8378 166.408 68.428 164.036C67.0182 161.664 64.2411 160.713 62.2253 161.912Z" fill="#F7A39C"/>
<path d="M65.7389 168.874C65.4891 168.874 65.4892 168.874 65.2394 168.624L61.4928 164.878C61.243 164.628 61.243 164.129 61.4928 163.879C61.7425 163.629 62.2421 163.629 62.4918 163.879L66.2385 167.625C66.4883 167.875 66.4883 168.375 66.2385 168.624C66.2385 168.874 65.9887 168.874 65.7389 168.874Z" fill="#240100"/>
<path d="M64.2406 166.875C63.9908 166.875 63.741 166.626 63.4912 166.376V163.628C63.4912 163.378 63.741 162.879 63.9908 162.879C64.2406 162.879 64.7401 163.129 64.7401 163.378V166.126C64.7401 166.626 64.4904 166.875 64.2406 166.875Z" fill="#240100"/>
<path d="M98.7792 46.0468L92.1896 78.0309C91.8681 79.1559 92.1896 80.4417 92.8325 81.2453C93.4754 82.049 94.279 82.6919 95.2433 82.8526L123.049 88.6386C123.209 88.6386 123.37 88.6386 123.531 88.6386C124.013 88.4779 124.334 88.1565 124.495 87.6743L132.21 50.2256C132.371 49.5827 131.888 48.9398 131.245 48.7791L103.44 42.993C101.833 42.6716 100.226 43.3145 99.2614 44.6003C99.2614 44.9217 98.9399 45.4039 98.7792 46.0468Z" fill="#5A78EC"/>
<path d="M121.28 86.71C121.28 86.71 121.12 86.71 121.28 86.71C120.959 86.71 120.798 86.3885 120.959 86.2278L128.513 49.422C128.513 49.2613 128.835 49.1006 128.995 49.1006C129.156 49.1006 129.317 49.422 129.317 49.5828L121.602 86.3885C121.602 86.5493 121.441 86.71 121.28 86.71Z" fill="#240100"/>
<path d="M100.547 44.4404L92.9932 80.764C93.6361 81.5677 94.4397 82.2105 95.404 82.3713L123.209 88.1573C123.37 88.1573 123.531 88.1573 123.691 88.1573L131.406 51.0301L100.547 44.4404Z" fill="white"/>
<path d="M96.2078 80.6026L124.013 86.3887C124.656 86.5494 125.299 86.0673 125.46 85.4244L133.174 47.9757C133.335 47.3328 132.853 46.6899 132.21 46.5292L104.405 40.7431C102.155 40.261 100.065 41.7075 99.583 43.9576L92.9934 75.9417C92.5112 77.8703 93.9577 80.1205 96.2078 80.6026Z" fill="#FF6665"/>
<path d="M122.084 84.459C121.923 84.459 121.923 84.459 122.084 84.459C121.763 84.459 121.602 84.1376 121.763 83.9768L129.317 47.1711C129.317 47.0103 129.638 46.8496 129.799 46.8496C129.96 46.8496 130.12 47.1711 130.12 47.3318L122.566 84.1376C122.406 84.2983 122.245 84.459 122.084 84.459Z" fill="#240100"/>
<path d="M104.083 62.7627L118.549 65.8164C119.674 65.9772 120.799 65.3343 120.959 64.2092L121.924 59.3875C122.085 58.2624 121.442 57.1374 120.317 56.9766L105.851 53.9229C104.726 53.7622 103.601 54.405 103.441 55.5301L102.476 60.3518C102.155 61.4769 102.958 62.602 104.083 62.7627Z" fill="white"/>
<path d="M92.833 76.9068C92.5116 76.9068 92.3508 76.5854 92.5115 76.4246L99.1012 44.4406C99.1012 44.2799 99.4227 44.1191 99.5834 44.1191C99.7441 44.1191 99.9048 44.4406 99.9048 44.6013L93.3152 76.5854C93.1544 76.7461 92.9937 76.9068 92.833 76.9068Z" fill="#240100"/>
<path d="M68.8365 75.9186C61.9254 75.9186 56.3 70.2933 56.3 63.3822C56.3 56.471 61.9254 50.8457 68.8365 50.8457C75.7476 50.8457 81.373 56.471 81.373 63.3822C81.373 70.2933 75.7476 75.9186 68.8365 75.9186ZM68.8365 51.6493C62.4075 51.6493 57.1037 56.9532 57.1037 63.3822C57.1037 69.8111 62.4075 75.115 68.8365 75.115C75.2654 75.115 80.5694 69.8111 80.5694 63.3822C80.5694 56.9532 75.2654 51.6493 68.8365 51.6493Z" fill="#240100"/>
<path d="M68.8366 64.6673C69.5467 64.6673 70.1224 64.0916 70.1224 63.3815C70.1224 62.6714 69.5467 62.0957 68.8366 62.0957C68.1264 62.0957 67.5508 62.6714 67.5508 63.3815C67.5508 64.0916 68.1264 64.6673 68.8366 64.6673Z" fill="#240100"/>
<path d="M68.8364 63.383C68.6757 63.383 68.3542 63.2223 68.3542 62.9008V53.5788C68.3542 53.4181 68.515 53.0967 68.8364 53.0967C69.1578 53.0967 69.3186 53.2574 69.3186 53.5788V62.9008C69.3186 63.0616 69.1578 63.383 68.8364 63.383Z" fill="#240100"/>
<path d="M69.4796 63.864C69.3188 63.864 69.3189 63.864 69.1581 63.7033C68.9974 63.5426 68.9974 63.2211 69.1581 63.0604L74.9442 58.2387C75.1049 58.078 75.4264 58.078 75.5871 58.2387C75.7478 58.3994 75.7478 58.7209 75.5871 58.8816L69.801 63.7033C69.6403 63.7033 69.4796 63.864 69.4796 63.864Z" fill="#240100"/>
<path d="M146.953 117.42L205.562 160.313C209.491 163.26 210.473 168.826 207.526 172.755L186.899 200.914C183.952 204.843 178.386 205.825 174.456 202.878L127.962 168.826C122.068 170.136 119.523 177.845 113.629 179.155C115.594 174.898 113.555 163.915 115.52 159.658C111.918 156.711 111.263 151.473 113.883 147.544L134.511 119.385C137.457 115.456 143.024 114.474 146.953 117.42Z" fill="#EFEFEF"/>
<path d="M170.013 163.4L166.598 167.58C163.695 171.132 158.463 171.658 154.912 168.756V168.756C151.36 165.854 150.834 160.622 153.736 157.07L157.152 152.89" stroke="#1A1A18" stroke-width="1.26708" stroke-linecap="round"/>
<path d="M152.023 175.245L154.941 169.05L149.333 171.975L152.023 175.245Z" fill="#1A1A18"/>
<mask id="mask0_1533_5236" style="mask-type:alpha" maskUnits="userSpaceOnUse" x="154" y="146" width="20" height="23">
<path d="M172.551 156.357C174.583 153.871 174.215 150.209 171.728 148.177C169.242 146.145 165.58 146.514 163.548 149L155.666 158.646C153.634 161.132 154.003 164.795 156.489 166.826C158.975 168.858 162.637 168.489 164.669 166.003L172.551 156.357Z" fill="#FF6665"/>
</mask>
<g mask="url(#mask0_1533_5236)">
<rect width="11.6268" height="24.0842" rx="5.81342" transform="matrix(-0.774341 -0.632768 -0.632768 0.774341 176.23 151.855)" fill="#FF6665"/>
<rect x="170.133" y="154.337" width="0.655434" height="9.17608" transform="rotate(-49 170.133 154.337)" fill="#1A1A18"/>
<rect x="159.04" y="144.992" width="0.655434" height="9.17608" transform="rotate(-49 159.04 144.992)" fill="#1A1A18"/>
<rect x="167.882" y="156.874" width="0.655434" height="9.17608" transform="rotate(-49 167.882 156.874)" fill="#1A1A18"/>
<rect x="156.79" y="147.529" width="0.655434" height="9.17608" transform="rotate(-49 156.79 147.529)" fill="#1A1A18"/>
<rect x="163.382" y="161.947" width="0.655434" height="9.17608" transform="rotate(-49 163.382 161.947)" fill="#1A1A18"/>
<rect x="152.29" y="152.604" width="0.655434" height="9.17608" transform="rotate(-49 152.29 152.604)" fill="#1A1A18"/>
<rect x="161.132" y="164.485" width="0.655434" height="9.17608" transform="rotate(-49 161.132 164.485)" fill="#1A1A18"/>
<rect x="150.04" y="155.142" width="0.655434" height="9.17608" transform="rotate(-49 150.04 155.142)" fill="#1A1A18"/>
<rect x="165.632" y="159.41" width="0.655434" height="9.17608" transform="rotate(-49 165.632 159.41)" fill="#1A1A18"/>
<rect x="154.54" y="150.067" width="0.655434" height="9.17608" transform="rotate(-49 154.54 150.067)" fill="#1A1A18"/>
</g>
<path d="M136.977 159.339C134.031 154.308 134.263 147.606 138.078 142.356C141.892 137.105 148.195 134.814 153.885 136.068" stroke="#1A1A18" stroke-width="1.5" stroke-miterlimit="10" stroke-linecap="round"/>
<path d="M142.316 157.571C140.788 153.92 141.18 149.701 143.612 146.407C146.068 143.08 150.028 141.443 153.848 141.698" stroke="#1A1A18" stroke-width="1.5" stroke-miterlimit="10" stroke-linecap="round"/>
<path d="M147.659 155.796C147.416 151.166 149.994 148.781 153.821 147.314" stroke="#1A1A18" stroke-width="1.5" stroke-miterlimit="10" stroke-linecap="round"/>
<path d="M187.454 159.797C190.401 164.828 190.169 171.53 186.354 176.78C182.539 182.031 176.237 184.322 170.547 183.068" stroke="#1A1A18" stroke-width="1.5" stroke-miterlimit="10" stroke-linecap="round"/>
<path d="M182.116 161.565C183.644 165.216 183.252 169.435 180.82 172.729C178.364 176.056 174.403 177.693 170.584 177.438" stroke="#1A1A18" stroke-width="1.5" stroke-miterlimit="10" stroke-linecap="round"/>
<path d="M176.772 163.34C177.015 167.97 174.437 170.354 170.61 171.821" stroke="#1A1A18" stroke-width="1.5" stroke-miterlimit="10" stroke-linecap="round"/>
</g>
<defs>
<filter id="filter0_d_1533_5236" x="-5" y="0" width="330" height="304" filterUnits="userSpaceOnUse" color-interpolation-filters="sRGB">
<feFlood flood-opacity="0" result="BackgroundImageFix"/>
<feColorMatrix in="SourceAlpha" type="matrix" values="0 0 0 0 0 0 0 0 0 0 0 0 0 0 0 0 0 0 127 0" result="hardAlpha"/>
<feOffset/>
<feGaussianBlur stdDeviation="2.5"/>
<feComposite in2="hardAlpha" operator="out"/>
<feColorMatrix type="matrix" values="0 0 0 0 0 0 0 0 0 0 0 0 0 0 0 0 0 0 0.25 0"/>
<feBlend mode="normal" in2="BackgroundImageFix" result="effect1_dropShadow_1533_5236"/>
<feBlend mode="normal" in="SourceGraphic" in2="effect1_dropShadow_1533_5236" result="shape"/>
</filter>
</defs>
</svg>
