<svg width="234" height="263" viewBox="0 0 234 263" fill="none" xmlns="http://www.w3.org/2000/svg">
<path d="M106.415 261.704C53.1805 261.704 10.0251 247.004 10.0251 228.87C10.0251 210.736 53.1805 196.036 106.415 196.036C159.65 196.036 202.806 210.736 202.806 228.87C202.806 247.004 159.65 261.704 106.415 261.704Z" fill="#EA0000" fill-opacity="0.6"/>
<path d="M106.415 261.704C53.1805 261.704 10.0251 247.004 10.0251 228.87C10.0251 210.736 53.1805 196.036 106.415 196.036C159.65 196.036 202.806 210.736 202.806 228.87C202.806 247.004 159.65 261.704 106.415 261.704Z" stroke="black" stroke-miterlimit="10"/>
<path d="M137.206 224.903H39.2598C34.9674 224.903 30.6749 223.147 27.5531 220.025C24.8215 217.294 23.0655 213.782 22.6753 210.074L0.822743 15.3527C0.432519 11.8407 1.21299 8.32869 3.16411 5.79223C5.70057 2.28022 9.60282 0.329102 14.0904 0.329102H112.037C116.524 0.329102 121.012 2.28022 124.134 5.79223C126.67 8.5238 128.231 11.8407 128.621 15.3527L150.474 210.074C150.864 213.782 149.888 217.489 147.742 220.22C145.401 222.952 141.498 224.903 137.206 224.903Z" fill="#FFFFF6"/>
<mask id="mask0_1538_2235" style="mask-type:alpha" maskUnits="userSpaceOnUse" x="0" y="0" width="151" height="225">
<path d="M137.206 224.903H39.2599C34.9674 224.903 30.675 223.147 27.5532 220.025C24.8216 217.294 23.0656 213.782 22.6754 210.074L0.822804 15.3527C0.432581 11.8407 1.21305 8.32869 3.16417 5.79223C5.70063 2.28022 9.60288 0.329102 14.0905 0.329102H112.037C116.524 0.329102 121.012 2.28022 124.134 5.79223C126.67 8.5238 128.231 11.8407 128.621 15.3527L150.474 210.074C150.864 213.782 149.888 217.489 147.742 220.22C145.401 222.952 141.499 224.903 137.206 224.903Z" fill="#240100"/>
</mask>
<g mask="url(#mask0_1538_2235)">
<path fill-rule="evenodd" clip-rule="evenodd" d="M101.983 39.8829C101.731 39.0548 100.974 38.4834 100.108 38.4671L55.4651 37.6254C54.1678 37.6009 53.191 38.7992 53.4764 40.065L57.2515 56.806C57.5258 58.0224 58.835 58.6872 60.0339 58.3446C60.4178 58.2349 60.8069 58.1365 61.201 58.0495C73.8139 55.2666 86.765 65.3673 90.1281 80.61C90.1695 80.7976 90.2093 80.985 90.2474 81.1724C90.4431 82.1346 91.2677 82.8558 92.2495 82.8639L112.436 83.0307C113.787 83.0419 114.76 81.7387 114.366 80.4469L101.983 39.8829ZM73.3621 113.276C73.3593 113.264 73.3673 113.251 73.38 113.248C83.0536 111.114 89.7187 102.021 90.7825 91.022C90.8876 89.9352 91.7873 89.0746 92.879 89.0952L136.302 89.9139C137.168 89.9302 137.925 90.5016 138.178 91.3297L156.518 151.411C156.912 152.703 155.939 154.006 154.588 153.995L83.9953 153.412C83.0664 153.404 82.2651 152.758 82.0608 151.852L73.3621 113.276ZM53.0801 60.5009C53.2428 61.2555 52.9514 62.0301 52.3688 62.5365C45.3801 68.6103 41.9796 79.4787 44.4528 90.6877C46.9732 102.111 54.8784 110.646 63.9906 113.035C64.2578 113.105 64.4658 113.317 64.524 113.587C64.6173 114.02 64.3003 114.433 63.858 114.455L-10.2533 118.182C-11.3959 118.239 -12.3537 117.328 -12.3537 116.184V40.53C-12.3537 39.4255 -11.4583 38.53 -10.3537 38.53H46.729C47.6712 38.53 48.4856 39.1876 48.6841 40.1086L53.0801 60.5009Z" fill="#C4C4C4"/>
<path d="M46.1918 34.3454L-14.5058 35.6372L-33.0164 -16.0203L37.1519 -21.6172L46.1918 34.3454Z" fill="#C4C4C4"/>
<path d="M80.8166 161.979C80.4976 160.756 81.3783 159.548 82.6399 159.477L124.853 157.111C125.697 157.064 126.48 157.553 126.808 158.332L138.857 186.945C139.414 188.269 138.434 189.733 136.997 189.721L89.48 189.328C88.5761 189.321 87.7895 188.708 87.5613 187.833L80.8166 161.979Z" fill="#66EC5A"/>
<path d="M44.1386 -5.00629C43.9728 -6.09688 44.7213 -7.1158 45.8116 -7.28363L86.8292 -13.5976C87.8287 -13.7515 88.7858 -13.135 89.0591 -12.1614L101.463 32.0314C101.823 33.3136 100.852 34.5828 99.5207 34.5718L51.7984 34.1774C50.8162 34.1693 49.9853 33.4492 49.8377 32.4781L44.1386 -5.00629Z" fill="#C4C4C4"/>
<path d="M104.329 -9.35329C103.953 -11.2324 105.411 -12.9775 107.327 -12.9414L181.209 -11.5483C182.55 -11.523 183.712 -10.6101 184.054 -9.31264L206.711 76.7487C207.215 78.661 205.763 80.5288 203.785 80.5124L124.614 79.8581C123.194 79.8464 121.976 78.8399 121.697 77.4469L104.329 -9.35329Z" fill="#C4C4C4"/>
<path d="M0.93281 124.362C0.819184 122.684 2.10697 121.24 3.787 121.162L63.2396 118.405C64.6823 118.339 65.9679 119.309 66.2988 120.715L81.9079 187.037C82.337 188.861 81.009 190.627 79.1383 190.721L8.62108 194.266C6.98661 194.349 5.58785 193.106 5.47728 191.473L0.93281 124.362Z" fill="#C4C4C4"/>
</g>
<ellipse cx="67.6564" cy="85.4468" rx="13.8756" ry="16.7687" transform="rotate(-12.4424 67.6564 85.4468)" fill="#C4C4C4"/>
<path d="M123.743 5.79244H3.5542C5.89554 2.67065 9.60272 0.524414 14.0903 0.524414H112.036C116.524 0.719526 120.817 2.67065 123.743 5.79244Z" fill="#240100"/>
<path d="M137.206 224.903H39.2597C34.9673 224.903 30.6748 223.147 27.553 220.025C24.8214 217.294 23.0654 213.782 22.6752 210.074L0.822652 15.3527C0.432428 11.8407 1.2129 8.32869 3.16402 5.79223C5.70047 2.28022 9.60273 0.329102 14.0903 0.329102H112.036C116.524 0.329102 121.012 2.28022 124.133 5.79223C126.67 8.5238 128.231 11.8407 128.621 15.3527L150.474 210.074C150.864 213.782 149.888 217.489 147.742 220.22C145.401 222.952 141.498 224.903 137.206 224.903ZM14.0903 1.10954C9.99295 1.10954 6.2858 2.86556 3.94446 6.18246C2.18845 8.71892 1.40799 11.8407 1.79821 15.1576L23.6508 209.879C24.041 213.391 25.797 216.708 28.3335 219.245C31.2601 222.171 35.3575 223.927 39.2597 223.927H137.206C141.108 223.927 144.815 222.171 147.157 219.245C149.303 216.708 150.083 213.391 149.693 209.879L127.841 15.1576C127.45 11.8407 125.889 8.71892 123.548 6.18246C120.426 2.86556 116.329 1.10954 112.232 1.10954H14.0903Z" fill="#240100"/>
<path d="M147.352 219.635C145.011 222.561 141.304 224.513 137.011 224.513H39.0649C34.7724 224.513 30.6751 222.561 27.7484 219.635H147.352Z" fill="#240100"/>
<path d="M135.84 214.952H37.8941C35.1625 214.952 32.8212 212.806 32.6261 210.075L31.8456 204.026C31.6505 202.66 32.0407 201.49 32.8212 200.514C33.6016 199.539 34.7723 199.148 36.1381 199.148H134.084C136.816 199.148 139.157 201.295 139.352 204.026L140.133 210.075C140.328 211.44 139.938 212.611 139.157 213.587C138.182 214.562 137.011 214.952 135.84 214.952ZM36.1381 200.124C35.1625 200.124 34.187 200.514 33.6017 201.295C33.0163 202.075 32.6261 203.051 32.8212 204.026L33.6017 210.075C33.7968 212.221 35.7479 213.977 37.8941 213.977H135.84C136.816 213.977 137.791 213.587 138.377 212.806C138.962 212.026 139.352 211.05 139.157 210.075L138.377 204.026C138.182 201.88 136.231 200.124 134.084 200.124H36.1381Z" fill="#240100"/>
<path d="M119.256 13.5978C119.061 13.5978 119.061 13.5979 118.866 13.4027C117.89 12.6223 115.549 10.4761 111.841 10.2809C107.744 10.0858 105.403 12.4272 104.818 13.0125C104.622 13.2076 104.427 13.2076 104.037 13.0125C103.842 12.8174 103.842 12.4272 104.037 12.2321C104.817 11.4516 107.354 8.91516 111.841 9.11028C115.744 9.30539 118.475 11.4516 119.451 12.4272C119.646 12.6223 119.646 13.0125 119.451 13.2076C119.646 13.5978 119.451 13.5978 119.256 13.5978Z" fill="#240100"/>
<path d="M116.134 15.1573H115.939C115.158 14.5719 113.988 13.9866 112.427 13.9866C110.476 13.7915 109.305 14.5719 108.72 14.9621C108.525 15.1573 108.134 15.1573 108.134 14.767C107.939 14.5719 107.939 14.1817 108.33 14.1817C109.11 13.5964 110.671 12.8159 112.817 13.011C114.573 13.2061 115.939 13.7915 116.914 14.3768C117.11 14.5719 117.11 14.767 117.11 14.9621C116.524 15.1573 116.329 15.1573 116.134 15.1573Z" fill="#240100"/>
<path d="M114.573 17.8904C114.378 17.8904 114.378 17.8904 114.183 17.6953C113.988 17.5001 113.402 16.9148 112.427 16.9148C111.451 16.9148 110.866 17.305 110.671 17.5001C110.476 17.6953 110.086 17.6953 109.89 17.5001C109.695 17.305 109.695 16.9148 109.89 16.7197C110.086 16.5246 111.061 15.7441 112.427 15.9393C113.598 16.1344 114.378 16.7197 114.768 17.1099C114.963 17.305 114.963 17.6953 114.768 17.8904C114.768 17.8904 114.768 17.8904 114.573 17.8904Z" fill="#240100"/>
<path d="M114.378 20.815C114.378 21.5955 113.988 22.1808 113.207 22.1808C112.427 22.1808 111.842 21.5955 111.647 20.815C111.647 20.0346 112.037 19.4492 112.817 19.4492C113.598 19.4492 114.183 20.0346 114.378 20.815Z" fill="#240100"/>
<path d="M30.8355 120.937C36.7949 135.899 51.8475 143.878 64.412 138.873C76.9766 133.869 82.4219 117.726 76.4625 102.764C70.503 87.8014 55.4505 79.8228 42.8859 84.8272C30.3214 89.8315 24.876 105.974 30.8355 120.937Z" fill="#2078DF" fill-opacity="0.6" stroke="black" stroke-width="0.5"/>
<path d="M145.04 147.274C143.829 144.739 142.595 142.205 141.384 139.671C143.425 138.908 145.534 138.303 147.575 137.563C149.325 136.979 151.075 136.374 152.825 135.791C153.767 135.454 154.575 135.208 155.517 134.871C159.802 133.436 164.02 131.844 168.327 130.386C168.776 130.52 170.503 131.26 171.333 133.055C172.231 135.006 172.208 137.675 170.885 139.716C168.776 140.702 166.69 141.667 164.132 142.519C163.84 142.676 163.549 142.833 163.19 142.855C161.732 143.282 160.363 143.865 159.039 144.223C157.222 144.672 155.383 145.121 153.565 145.569C150.469 146.511 147.688 146.937 145.04 147.274Z" fill="#F7A39C"/>
<path d="M153.7 145.861C151.726 142.99 149.684 140.344 147.71 137.473C149.46 136.89 151.21 136.284 152.96 135.701L156.302 137.63C155.383 140.389 154.463 143.147 153.7 145.861Z" fill="#240100"/>
<path d="M167.699 127.762C169.696 127.672 171.58 127.784 173.33 128.076C173.083 129.309 172.994 130.498 172.994 132.023C173.038 136.239 174.25 139.514 175.259 141.824C168.058 143.685 161.036 145.524 153.992 147.363C152.623 143.259 151.389 139.132 150.021 135.051C152.892 132.763 159.039 128.255 167.699 127.762Z" fill="#4C4C4A"/>
<path d="M146.184 144.92C146.184 144.92 146.05 145.01 146.184 144.92C145.983 145.234 145.915 145.459 146.14 145.503L148.136 147.051C148.361 147.118 148.585 147.186 148.652 146.961C148.72 146.737 148.787 146.513 148.563 146.445L146.566 144.898C146.476 144.763 146.342 144.853 146.184 144.92Z" fill="#240100"/>
<path d="M216.965 133.772C216.808 136.576 216.629 139.379 216.471 142.183C214.318 141.846 212.187 141.353 210.033 141.039C208.216 140.702 206.398 140.389 204.581 140.052C203.594 139.895 202.764 139.716 201.777 139.559C197.313 138.729 192.87 138.078 188.406 137.249C188.07 136.912 186.925 135.432 187.082 133.458C187.239 131.305 188.563 128.995 190.717 127.852C193.028 128.009 195.338 128.188 197.986 128.681C198.322 128.681 198.636 128.681 198.973 128.838C200.453 129.175 201.934 129.332 203.258 129.668C205.075 130.162 206.892 130.655 208.709 131.148C211.828 131.799 214.475 132.786 216.965 133.772Z" fill="#F7A39C"/>
<path d="M208.709 130.813C209.046 134.267 209.539 137.587 209.853 141.04C208.036 140.704 206.219 140.39 204.402 140.054L202.428 136.757C204.581 134.783 206.713 132.787 208.709 130.813Z" fill="#240100"/>
<path d="M208.373 130.813C207.879 135.096 207.543 139.402 207.049 143.686C199.78 143.35 192.534 143.036 185.108 142.699C185.602 140.232 186.095 136.756 185.265 132.629C184.929 131.149 184.615 129.983 184.121 128.839C185.781 128.189 187.576 127.695 189.573 127.359C198.143 126.036 205.075 129.153 208.373 130.813Z" fill="#4C4C4A"/>
<path d="M204.29 221.711C204.918 223.213 205.681 224.895 206.623 226.734C207.094 227.744 207.722 228.753 208.193 229.919C208.821 231.085 209.45 232.274 210.235 233.597C212.052 233.485 213.869 233.194 215.709 232.924C215.103 231.085 214.654 229.089 214.228 227.116C213.061 221.643 212.411 215.521 212.59 208.905C212.635 207.088 212.86 205.271 212.904 203.477C213.084 202.984 213.106 202.333 213.286 201.504C213.286 201.504 213.308 201.01 213.465 200.674C213.667 199.351 213.398 197.534 213.42 196.704V196.547V196.39C210.953 196.166 208.642 195.919 206.174 195.695C205.187 195.673 204.2 195.471 203.213 195.448C203.213 195.605 203.213 195.785 203.19 195.942C203.19 196.099 203.168 196.435 203.168 196.592C203.123 198.252 203.056 200.225 202.495 202.513C201.934 204.8 201.418 205.944 201.059 206.931C200.7 208.411 199.937 211.529 204.29 221.711Z" fill="#F7A39C"/>
<path d="M232.265 237.545L213.039 245.035C212.344 244.609 211.356 243.914 210.796 242.905C210.1 241.582 210.347 240.415 210.437 239.675C210.661 237.993 210.594 235.549 209.651 232.184C211.312 230.996 212.882 230.031 214.565 228.865C218.648 232.05 222.192 232.969 224.772 233.216C227.711 233.485 230.942 233.126 232.019 234.988C232.445 235.706 232.333 236.805 232.265 237.545Z" fill="#F7A39C"/>
<path d="M174.901 174.345C183.112 180.064 191.569 185.761 199.803 191.48C200.386 191.816 200.88 192.265 201.351 192.489C201.822 192.713 202.293 193.162 202.787 193.386C203.033 193.61 203.146 193.722 203.504 193.834C203.617 193.947 203.751 194.059 203.863 194.171C203.976 194.283 203.976 194.283 204.11 194.395C204.222 194.507 204.335 194.395 204.581 194.373C205.524 194.35 207.251 194.171 209.091 192.96C211.267 191.39 212.142 189.259 212.344 188.542C212.344 188.542 212.344 188.542 212.231 188.429L212.119 188.317C211.514 187.757 210.683 186.949 210.19 185.805C210.078 185.693 210.055 185.469 210.055 185.469C207.094 180.176 201.62 172.057 191.637 166.047C188.182 163.939 184.772 162.503 181.698 161.427C179.208 165.688 177.122 170.061 174.901 174.345Z" fill="#F7A39C"/>
<path d="M169.763 167.279C166.308 176.676 162.831 186.253 159.376 195.65C159.219 196.3 158.882 196.794 158.725 197.467C158.568 197.96 158.389 198.453 158.075 199.126C158.075 199.283 157.918 199.62 157.738 199.956C157.738 200.113 157.581 200.292 157.581 200.449C157.581 200.606 157.581 200.606 157.581 200.606C157.581 200.763 157.581 200.943 157.738 201.1C158.075 202.087 158.725 203.746 160.206 205.07C162.18 206.886 164.491 207.043 165.321 207.043C165.321 207.043 165.321 206.886 165.478 206.886C165.815 206.056 166.465 205.227 167.295 204.419C167.452 204.262 167.632 204.262 167.632 204.262C172.096 200.136 178.535 192.712 181.833 181.498C182.977 177.529 183.493 173.918 183.807 170.599C179.163 169.253 174.542 168.266 169.763 167.279Z" fill="#F7A39C"/>
<path d="M168.597 170.734C178.176 169.904 187.576 168.917 197.156 168.087L196.168 139.537C195.832 131.284 189.079 124.847 180.823 125.184C172.567 125.52 166.129 132.271 166.465 140.524C167.116 150.616 167.946 160.686 168.597 170.734Z" fill="#F7A39C"/>
<path d="M188.227 123.882C187.89 122.559 187.733 121.236 187.576 119.913L187.419 118.433C187.082 116.279 186.925 114.306 186.925 112.489L185.108 112.646L181.137 112.983L179.657 113.14L177.009 113.297C177.009 115.764 177.009 118.074 177.009 120.563C177.009 120.72 177.009 120.9 177.009 121.057C177.009 123.21 177.009 125.34 177.009 127.65C177.009 128.794 177.009 130.117 177.166 131.283C181.294 130.633 185.243 129.96 189.371 129.31C189.034 127.83 188.541 126.349 188.384 124.69L188.227 123.882Z" fill="#F7A39C"/>
<path d="M168.103 151.11C168.439 151.11 168.596 150.773 168.439 150.616L167.116 144.336C167.116 144.179 166.779 144 166.622 144C166.465 144 166.286 144.336 166.286 144.493L167.609 150.773C167.766 150.953 167.946 151.11 168.103 151.11Z" fill="#240100"/>
<path d="M213.286 245.642L233.275 237.859C233.252 237.343 233.252 236.446 232.893 235.527C232.422 234.293 231.749 233.486 231.346 232.948C227.464 232.522 223.404 232.14 219.523 231.714C219.567 229.561 219.186 229.023 218.962 228.911C218.177 228.686 216.404 230.974 216.673 233.508C216.808 235.235 217.975 236.379 218.446 236.715C215.888 237.882 212.747 239.182 210.19 240.349C210.212 240.865 209.831 242.098 210.526 243.421C210.953 244.857 212.86 245.462 213.286 245.642Z" fill="#240100"/>
<path d="M128.663 218.751C129.493 220.41 130.323 221.891 131.131 223.528C131.961 222.877 132.791 222.384 133.599 221.711C133.756 221.711 133.756 221.554 133.756 221.554C135.416 220.41 137.211 219.244 139.028 218.1C142.999 215.79 147.441 213.637 152.242 211.821C154.059 211.17 155.697 210.677 157.357 210.161C157.85 210.004 158.501 210.004 159.331 209.825C159.331 209.825 159.825 209.668 160.161 209.668C161.485 209.331 163.122 208.524 163.795 208.187H163.953C163.953 208.187 163.953 208.187 164.11 208.187C164.446 208.03 164.94 207.694 165.276 207.044C164.289 205.563 163.122 203.59 162.315 201.1C161.978 200.113 161.664 199.127 161.485 198.297C161.328 198.297 161.148 198.454 160.991 198.454C160.834 198.611 160.498 198.611 160.341 198.79C158.86 199.441 156.886 199.934 154.575 200.27C152.264 200.607 150.941 200.427 149.796 200.607C148.316 200.607 145.175 201.1 137.256 208.86C135.775 210.34 134.115 212.157 132.298 214.31C131.647 215.14 130.974 215.97 130.323 216.777C129.807 217.27 129.157 217.921 128.663 218.751Z" fill="#F7A39C"/>
<path d="M117.76 219.579L124.849 238.889C125.679 239.046 126.667 239.226 127.497 238.732C129.314 237.589 128.977 234.449 129.314 231.466C129.65 228.999 130.637 225.702 133.778 221.732C133.778 221.575 133.935 221.575 133.935 221.575C133.778 221.239 133.442 220.746 133.285 220.432C132.455 219.108 131.625 217.785 130.817 216.462C130.66 216.462 130.48 216.619 130.323 216.619C127.183 217.449 124.872 217.269 123.234 217.112C122.583 216.955 121.26 216.776 119.936 217.449C118.927 217.92 118.097 218.75 117.76 219.579Z" fill="#F7A39C"/>
<path d="M117.109 219.737L124.378 239.877C124.872 239.877 125.702 239.877 126.689 239.541C128.013 239.204 128.843 238.554 129.336 238.061C129.83 234.091 130.323 230.144 130.996 226.174C133.15 226.174 133.801 225.838 133.801 225.681C133.958 224.851 131.647 223.034 129.336 223.214C127.676 223.371 126.532 224.357 126.195 224.873C125.051 222.227 123.885 219.603 122.898 216.956C122.404 216.956 121.237 216.799 119.936 217.293C118.097 218.1 117.267 219.423 117.109 219.737Z" fill="#240100"/>
<path d="M206.623 226.734C207.094 227.744 207.722 228.753 208.193 229.919C211.02 229.493 213.039 228.08 214.206 227.116C211.738 226.869 209.248 226.802 206.623 226.734Z" fill="#240100"/>
<path d="M199.332 230.301C201.844 230.436 205.299 230.122 209.023 229.247C213.061 228.328 216.359 226.87 218.85 225.681C217.1 214.602 215.484 203.321 213.734 192.242C214.093 187.218 204.357 174.277 200.498 171.766C195.114 164.858 189.281 161.696 185.041 158.646C182.708 163.58 180.128 168.491 177.795 173.425C183.852 183.832 195.944 189.371 199.04 197.983C196.213 207.896 199.309 219.648 199.332 230.301Z" fill="#5A78EC"/>
<path d="M132.455 214.13C132.455 215.947 132.612 218.1 133.285 220.41C133.442 220.903 133.621 221.239 133.778 221.733C133.778 221.733 133.778 221.733 133.778 221.89C133.778 221.733 133.935 221.733 133.935 221.733C135.595 220.589 137.39 219.423 139.207 218.279C139.05 217.449 139.05 216.619 138.871 215.812C136.74 215.117 134.608 214.623 132.455 214.13Z" fill="#240100"/>
<path d="M157.693 199.283C156.863 199.283 155.54 199.283 154.059 199.44C154.059 199.44 150.918 199.776 148.45 200.427C144.995 201.257 138.557 205.54 132.118 212.627C133.778 217.584 136.089 223.191 139.387 228.798C140.217 230.278 141.204 231.601 142.034 232.924C150.11 224.514 158.366 215.924 166.465 207.514C169.606 204.867 174.385 200.427 178.355 193.497C183.134 185.086 184.301 177.17 184.458 172.706C188.743 169.746 193.05 166.763 197.335 163.803C187.755 164.633 178.198 165.462 168.619 166.27C164.805 177.349 161.171 188.226 157.693 199.283Z" fill="#5A78EC"/>
<path d="M159.196 166.943C161.844 168.759 170.1 174.209 181.81 173.716C191.053 173.379 197.649 169.432 200.453 167.436C198.793 155.729 197.155 143.843 195.675 132.135C195.024 131.485 194.194 130.655 193.207 129.982C191.39 128.659 189.752 127.672 188.249 127.179C188.743 128.502 188.743 129.489 188.249 129.825C187.105 130.969 183.47 129.489 176.852 125.362C175.372 125.699 172.881 126.349 170.257 128.323C168.933 129.467 167.946 130.633 167.452 131.463C164.626 143.349 162.001 155.056 159.196 166.943Z" fill="#4C4C4A"/>
<path d="M182.955 181.296C183.112 181.296 183.291 181.139 183.291 180.96L183.785 176.833C183.785 176.676 183.628 176.34 183.448 176.34C183.291 176.34 182.955 176.497 182.955 176.676L182.461 180.803C182.618 181.139 182.618 181.296 182.955 181.296Z" fill="#240100"/>
<path d="M157.693 201.929C157.85 201.929 158.187 201.772 158.187 201.436V199.283C158.187 199.126 158.03 198.946 157.693 198.946C157.536 198.946 157.2 199.103 157.2 199.44V201.593C157.2 201.75 157.379 201.929 157.693 201.929Z" fill="#240100"/>
<path d="M200.408 200.046C200.723 199.844 200.857 199.664 200.678 199.507L199.78 197.803C199.758 197.646 199.421 197.511 199.242 197.534C199.085 197.556 198.95 197.893 198.973 198.072L199.87 199.776C200.072 200.09 200.251 200.068 200.408 200.046Z" fill="#240100"/>
<path d="M182.124 122.066C183.785 124.039 186.252 125.026 188.406 124.869L188.249 123.882C187.912 122.559 187.755 121.236 187.598 119.913L187.441 118.433C187.105 116.28 186.948 114.306 186.948 112.489L185.131 112.646L181.16 112.983C179.32 115.472 179.657 119.262 182.124 122.066Z" fill="#240100"/>
<path d="M193.185 94.009L196.482 104.909C198.457 111.682 194.665 118.926 187.733 120.922C186.073 121.079 183.762 121.079 180.958 120.092C175.192 118.119 172.365 113.655 171.558 112.175L167.946 99.7953C166.802 95.8256 168.282 91.542 171.737 89.4114C173.218 88.4246 174.878 87.5947 177.009 86.9443C178.333 86.6079 179.477 86.294 180.644 86.1145C186.252 85.1053 191.547 88.5816 193.185 94.009Z" fill="#F7A39C"/>
<path d="M192.197 109.529C192.04 109.686 191.704 110.359 190.717 110.673C189.573 111.009 188.743 110.516 188.563 110.516L192.197 109.529Z" fill="#240100"/>
<path d="M180.98 107.869C181.137 107.869 181.317 107.712 181.317 107.532C181.81 106.209 182.797 105.222 183.964 105.222C184.458 105.222 184.951 105.559 185.288 105.716C185.445 105.873 185.781 105.873 185.938 105.716C186.095 105.559 186.095 105.222 185.938 105.065C185.445 104.572 184.794 104.415 184.121 104.235C184.121 104.235 184.121 104.235 183.964 104.235C182.483 104.235 181.16 105.379 180.666 107.196C180.644 107.555 180.644 107.712 180.98 107.869Z" fill="#240100"/>
<path d="M184.817 108.25C184.143 108.541 183.291 108.025 182.887 107.128C182.483 106.209 182.708 105.222 183.358 104.93C184.031 104.639 184.884 105.132 185.288 106.052C185.714 106.971 185.49 107.958 184.817 108.25Z" fill="#240100"/>
<path d="M185.602 105.896C185.759 105.896 185.938 105.739 185.938 105.739L186.432 104.596C186.589 104.439 186.432 104.102 186.275 104.102C186.118 103.945 185.781 104.102 185.781 104.259L185.265 105.403C185.108 105.56 185.265 105.896 185.422 105.896H185.602Z" fill="#240100"/>
<path d="M191.21 105.245C191.367 105.245 191.547 105.088 191.547 104.908C192.04 103.585 193.027 102.441 194.194 102.598C194.688 102.598 195.181 102.935 195.518 103.092C195.675 103.249 196.011 103.249 196.168 103.092C196.325 102.935 196.325 102.598 196.168 102.441C195.832 102.105 195.181 101.791 194.351 101.611C192.87 101.611 191.547 102.755 190.896 104.572C190.717 104.908 190.874 105.065 191.21 105.245Z" fill="#240100"/>
<path d="M195.047 105.581C194.374 105.872 193.521 105.356 193.117 104.459C192.713 103.54 192.938 102.553 193.588 102.261C194.261 101.97 195.114 102.463 195.518 103.383C195.944 104.325 195.72 105.289 195.047 105.581Z" fill="#240100"/>
<path d="M195.832 103.249C195.989 103.249 196.168 103.092 196.168 103.092L196.662 101.948C196.819 101.791 196.662 101.455 196.505 101.455C196.348 101.298 196.011 101.455 196.011 101.612L195.518 102.755C195.361 102.912 195.518 103.249 195.675 103.249C195.675 103.249 195.675 103.249 195.832 103.249Z" fill="#240100"/>
<path d="M178.49 103.743C178.647 103.9 179.634 103.407 181.631 102.42C183.942 101.276 183.942 101.097 183.942 100.94C183.942 100.603 182.461 100.446 181.294 100.94C179.5 101.613 178.176 103.429 178.49 103.743Z" fill="#240100"/>
<path d="M189.55 99.6384C189.55 99.7954 190.694 99.7954 193.005 99.4814C195.652 99.145 195.652 98.988 195.652 98.988C195.652 98.6516 194.508 98.1582 193.185 98.0012C191.21 97.8218 189.393 99.1226 189.55 99.6384Z" fill="#240100"/>
<path d="M186.432 112.825C186.095 113.318 188.406 117.288 190.896 116.615C193.05 116.122 193.858 112.646 193.207 112.152C192.871 111.816 192.063 112.982 190.246 113.296C188.227 113.655 186.746 112.489 186.432 112.825Z" fill="white"/>
<path d="M164.468 146.333C164.626 146.333 164.805 146.176 164.805 145.996L168.596 134.11C168.596 133.953 168.596 133.616 168.26 133.616C168.103 133.616 167.766 133.616 167.766 133.953L163.975 145.839C163.975 145.996 164.132 146.153 164.468 146.333Z" fill="#240100"/>
<path d="M197.405 143.404C197.531 143.309 197.579 143.076 197.47 142.933L194.9 135.489C194.805 135.364 194.602 135.096 194.334 135.299C194.209 135.394 193.94 135.597 194.144 135.865L196.714 143.309C196.809 143.434 197.029 143.465 197.405 143.404Z" fill="#240100"/>
<path d="M213.981 112.332C214.968 111.838 216.135 111.345 217.122 110.852C219.769 114.485 222.731 120.092 223.404 128.009C223.74 131.148 223.561 134.109 223.247 136.755C223.247 136.912 223.404 137.249 223.247 137.742C223.247 137.742 223.247 138.572 222.91 139.402C221.923 141.712 219.949 142.362 219.949 142.362C218.468 142.856 216.987 142.362 216.651 142.205C216.157 141.218 215.821 140.389 215.507 139.738C215.013 138.078 214.52 135.275 214.52 134.782C214.52 134.782 214.363 134.445 214.363 134.131C214.363 133.795 214.206 133.481 214.206 133.301C213.218 126.528 216.359 121.908 215.036 115.472C214.475 113.812 214.138 112.825 213.981 112.332Z" fill="#F7A39C"/>
<path d="M217.055 101.589C215.821 100.445 214.52 100.042 213.645 99.8848C212.658 101.791 211.603 103.854 210.616 105.761C210.504 105.761 210.392 105.761 210.28 105.761C209.27 105.716 208.664 106.86 209.248 107.69C210.055 108.878 210.885 110.022 211.715 111.278L215.776 113.767C217.257 111.973 218.625 110.089 220.106 108.295C220.083 107.69 219.949 104.124 217.055 101.589Z" fill="#F7A39C"/>
<path d="M214.811 135.275C214.811 135.275 214.968 135.275 214.811 135.275C215.148 135.118 215.305 134.938 215.148 134.781L214.161 132.471C214.004 132.314 213.824 132.135 213.667 132.314C213.51 132.471 213.331 132.651 213.51 132.808L214.497 135.118C214.475 135.275 214.654 135.275 214.811 135.275Z" fill="#240100"/>
<path d="M172.051 92.7082C172.545 95.848 178.827 97.3283 182.954 97.3283C188.227 97.4852 195.002 95.3546 195.338 92.3718C195.675 89.075 187.262 84.1185 180.15 85.7781C176.179 86.7649 171.737 90.0618 172.051 92.7082Z" fill="#240100"/>
<path d="M165.299 99.459C165.792 104.572 171.244 109.529 174.542 108.542C175.035 108.385 176.359 107.712 179.006 97.9788C180.98 90.5553 181.967 86.765 180.823 85.9352C177.996 83.7822 164.626 91.0487 165.299 99.459Z" fill="#240100"/>
<path d="M172.926 113.161C171.087 113.699 169.045 112.309 168.372 110.044C167.699 107.778 168.641 105.491 170.459 104.953C172.298 104.414 174.34 105.805 175.013 108.07C175.708 110.335 174.766 112.623 172.926 113.161Z" fill="#F7A39C"/>
<path d="M172.231 111.346H172.388C172.545 111.189 172.724 111.009 172.545 110.852L170.391 107.062C170.234 106.905 170.055 106.726 169.898 106.905C169.741 107.062 169.561 107.241 169.741 107.398L171.894 111.189C171.894 111.346 172.051 111.346 172.231 111.346Z" fill="#240100"/>
<path d="M171.244 109.372C171.401 109.372 171.58 109.215 171.58 109.035L172.074 106.882C172.074 106.725 171.917 106.389 171.737 106.389C171.58 106.389 171.244 106.546 171.244 106.725L170.75 108.878C170.75 109.192 170.907 109.372 171.244 109.372C171.244 109.372 171.064 109.372 171.244 109.372Z" fill="#240100"/>
<path d="M157.088 164.185C155.54 164.746 154.71 165.979 154.306 166.899C155.136 172.214 158.075 175.534 160.318 175.444C161.373 175.354 162.651 174.614 163.526 173.605C164.401 172.596 164.895 171.541 165.029 171.048C165.164 170.555 165.343 169.68 165.254 168.626C164.738 165.508 160.385 162.795 157.088 164.185Z" fill="#F7A39C"/>
<path d="M158.052 164.566C157.424 165.486 156.661 166.473 156.033 167.392C151.95 165.508 146.633 162.055 142.214 155.438C140.396 152.859 139.095 150.19 138.108 147.723C138.018 147.589 137.727 147.365 137.637 146.849C137.637 146.849 137.233 146.131 137.121 145.256C136.874 142.767 138.265 141.22 138.265 141.22C139.32 140.076 140.867 139.784 141.226 139.762C142.146 140.39 142.819 140.95 143.447 141.354C144.681 142.565 146.476 144.763 146.723 145.189C146.723 145.189 147.037 145.391 147.194 145.683C147.351 145.974 147.665 146.176 147.732 146.333C151.883 151.76 151.389 157.322 155.674 162.301C156.908 163.512 157.671 164.208 158.052 164.566Z" fill="#F7A39C"/>
<path d="M213.782 101.922C213.255 101.782 213.3 99.8931 213.882 97.7023C214.464 95.5115 215.363 93.849 215.89 93.9889C216.417 94.1288 216.372 96.0182 215.79 98.2089C215.208 100.4 214.309 102.062 213.782 101.922Z" fill="#F7A39C"/>
<path d="M209.952 108.574C209.408 108.616 208.824 106.819 208.647 104.559C208.469 102.3 208.766 100.433 209.31 100.391C209.853 100.348 210.438 102.145 210.615 104.405C210.792 106.665 210.495 108.531 209.952 108.574Z" fill="#F7A39C"/>
<path d="M215.884 102.867C215.336 102.529 216.025 100.417 217.424 98.1509C218.823 95.8846 220.402 94.3217 220.95 94.66C221.499 94.9982 220.809 97.1096 219.41 99.3759C218.011 101.642 216.432 103.205 215.884 102.867Z" fill="#F7A39C"/>
<path d="M220.33 100.871C218.715 102.666 217.75 104.437 218.199 104.841C218.648 105.245 220.33 104.123 221.946 102.329C223.561 100.535 224.526 98.7633 224.077 98.3596C223.628 97.9559 221.968 99.0773 220.33 100.871Z" fill="#F7A39C"/>
<path d="M218.486 108.276C218.149 107.801 219.374 106.353 221.223 105.04C223.072 103.728 224.843 103.049 225.181 103.523C225.518 103.998 224.293 105.447 222.444 106.759C220.595 108.072 218.823 108.751 218.486 108.276Z" fill="#F7A39C"/>
<path d="M216.763 106.053C216.763 106.053 216.696 106.075 216.584 106.12C216.516 106.142 216.472 106.165 216.382 106.21C216.292 106.255 216.202 106.299 216.113 106.344C215.911 106.456 215.709 106.569 215.462 106.726C215.238 106.883 214.991 107.062 214.767 107.264C214.318 107.645 213.892 108.138 213.69 108.654C213.667 108.722 213.645 108.789 213.622 108.856C213.6 108.923 213.6 108.991 213.577 109.058C213.555 109.17 213.555 109.305 213.555 109.417C213.555 109.529 213.577 109.619 213.6 109.664C213.622 109.731 213.622 109.753 213.622 109.753L213.959 110.179L214.789 109.327C214.789 109.327 214.609 109.574 214.609 109.551C214.609 109.529 214.744 109.26 214.767 109.215C214.767 109.193 214.767 109.17 214.767 109.148C214.767 109.125 214.789 109.08 214.789 109.058C214.789 109.036 214.811 108.991 214.811 108.946C214.834 108.901 214.834 108.856 214.856 108.811C214.879 108.766 214.901 108.722 214.924 108.677C214.946 108.632 214.968 108.587 214.991 108.542C215.036 108.452 215.103 108.34 215.17 108.251C215.238 108.161 215.327 108.049 215.395 107.959C215.552 107.757 215.754 107.578 215.933 107.398C216.113 107.241 216.292 107.084 216.449 106.972C216.539 106.905 216.606 106.86 216.673 106.815C216.741 106.77 216.808 106.726 216.853 106.703C216.965 106.636 217.01 106.322 217.01 106.322L216.763 106.053Z" fill="#240100"/>
<path d="M40.6755 100.623L40.8208 100.827L40.6693 100.935L40.5222 100.821L40.6755 100.623ZM40.6755 100.623C40.5222 100.821 40.522 100.82 40.5218 100.82L40.521 100.82L40.5179 100.817L40.5061 100.808L40.4604 100.772C40.4202 100.74 40.3608 100.693 40.2835 100.631C40.129 100.506 39.9029 100.321 39.6154 100.08C39.0405 99.5965 38.22 98.886 37.2358 97.9754C35.2677 96.1544 32.6433 93.5314 30.0182 90.3232C24.7751 83.9151 19.4979 75.1341 19.4979 65.7254C19.4979 54.0294 28.9795 44.5479 40.6755 44.5479C52.3716 44.5479 61.8531 54.0294 61.8531 65.7254C61.8531 75.7861 56.5782 84.5668 51.3308 90.8161C48.7046 93.9436 46.079 96.4447 44.1099 98.1641C43.1252 99.0239 42.3042 99.6886 41.7288 100.139C41.4411 100.364 41.2148 100.535 41.06 100.651C40.9827 100.709 40.9232 100.752 40.8829 100.782L40.837 100.815L40.8251 100.824L40.822 100.826L40.8212 100.826C40.821 100.826 40.8208 100.827 40.6755 100.623Z" stroke="#DF2025" stroke-width="0.5"/>
<g filter="url(#filter0_d_1538_2235)">
<mask id="mask1_1538_2235" style="mask-type:alpha" maskUnits="userSpaceOnUse" x="19" y="44" width="43" height="57">
<path d="M19.7477 65.7284C19.7477 84.3698 40.6753 100.626 40.6753 100.626C40.6753 100.626 61.6029 85.6778 61.6029 65.7284C61.6029 54.1704 52.2333 44.8008 40.6753 44.8008C29.1173 44.8008 19.7477 54.1704 19.7477 65.7284Z" fill="#C4C4C4"/>
</mask>
<g mask="url(#mask1_1538_2235)">
<rect width="44.1658" height="55.8254" transform="matrix(-1 0 0 1 62.7583 44.8008)" fill="#DF2025"/>
<path d="M56.5904 88.0381C55.6078 89.1844 54.6252 90.3307 53.6426 91.477C52.8323 90.6384 52.0757 89.7292 51.2654 88.8906C50.5962 88.1593 49.9271 87.428 49.258 86.6967C48.8881 86.3042 48.5889 85.9654 48.219 85.5729C46.5815 83.7715 44.8903 82.0406 43.2527 80.2392C43.2189 79.9907 43.2076 78.9799 43.922 78.1865C44.69 77.3226 46.0058 76.7636 47.2989 76.9669C48.2334 77.7886 49.168 78.6103 50.1364 79.6804C50.2775 79.7877 50.4187 79.895 50.5062 80.0729C51.0342 80.6969 51.6158 81.2503 52.0732 81.8207C52.6886 82.6226 53.3041 83.4244 53.9196 84.2263C55.0461 85.528 55.8536 86.8099 56.5904 88.0381Z" fill="#F7A39C"/>
<path d="M54.0263 84.0844C53.0409 85.674 52.1797 87.2466 51.1942 88.8362C50.5251 88.1049 49.856 87.3736 49.1869 86.6423L49.4128 84.5868C50.9742 84.4372 52.5356 84.2876 54.0263 84.0844Z" fill="#240100"/>
<path d="M53.8854 83.9779C52.2788 85.6522 50.7427 87.38 49.1361 89.0543C46.1377 86.5526 43.1393 84.0509 40.0703 81.4955C41.0868 80.5977 42.4252 79.2764 43.4135 77.2435C43.7551 76.501 43.5558 76.2445 43.7196 75.5895C44.6401 75.8436 46.0111 75.8771 46.9654 76.3797C51.065 78.6048 53.0102 82.1991 53.8854 83.9779Z" fill="#4C4C4A"/>
<path d="M40.533 98.7821C41.3309 104.102 42.2175 109.51 43.0154 114.829C43.1041 115.184 43.1041 115.539 43.1928 115.805C43.2814 116.07 43.2814 116.425 43.3701 116.691C43.3701 116.868 43.3701 116.957 43.4587 117.134C43.4587 117.223 43.4587 117.312 43.4587 117.4C43.4587 117.489 43.4587 117.489 43.4587 117.578C43.4587 117.666 43.5474 117.666 43.6361 117.755C43.9907 118.11 44.7 118.73 45.8525 118.996C47.2711 119.262 48.4236 118.819 48.7782 118.642C48.7782 118.642 48.7782 118.642 48.7782 118.553V118.464C48.7782 118.021 48.7782 117.4 49.0442 116.78C49.0442 116.691 49.1329 116.602 49.1329 116.602C50.1081 113.499 51.2607 108.357 49.9308 102.24C49.4875 100.112 48.7782 98.2501 48.069 96.6543C45.4979 97.2749 43.0155 98.0728 40.533 98.7821Z" fill="#F7A39C"/>
<path d="M33.8835 97.7188C32.0217 102.772 30.1599 107.914 28.298 112.968C28.2094 113.323 28.0321 113.589 27.9434 113.943C27.8547 114.209 27.7661 114.475 27.5888 114.83C27.5888 114.918 27.5001 115.096 27.4114 115.273C27.4114 115.362 27.3228 115.45 27.3228 115.539C27.3228 115.628 27.3228 115.628 27.3228 115.628C27.3228 115.716 27.3228 115.805 27.4114 115.894C27.5888 116.426 27.9434 117.312 28.7413 118.022C29.8052 118.997 31.0464 119.085 31.4897 119.085C31.4897 119.085 31.4897 118.997 31.5784 118.997C31.7557 118.553 32.1104 118.11 32.5537 117.667C32.6423 117.578 32.731 117.578 32.731 117.578C35.1247 115.362 38.5824 111.372 40.3556 105.343C40.9762 103.216 41.2422 101.265 41.4195 99.4919C38.9371 98.7827 36.4546 98.2507 33.8835 97.7188Z" fill="#F7A39C"/>
<path d="M33.2629 99.5817C38.4051 99.1384 43.4586 98.6065 48.6008 98.1632L48.0689 82.8253C47.8916 78.3924 44.2566 74.9347 39.8237 75.112C35.3907 75.2893 31.9331 78.9243 32.1104 83.3572C32.465 88.7654 32.9083 94.1736 33.2629 99.5817Z" fill="#F7A39C"/>
<path d="M43.8134 74.4036C43.6361 73.6943 43.5474 72.985 43.4587 72.2758L43.3701 71.4778C43.1928 70.3253 43.1041 69.2614 43.1041 68.2861L42.1289 68.3748L40.0011 68.5521L39.2031 68.6408L37.7846 68.7294C37.7846 70.0593 37.7846 71.3005 37.7846 72.6304C37.7846 72.7191 37.7846 72.8077 37.7846 72.8964C37.7846 74.0489 37.7846 75.2015 37.7846 76.4427C37.7846 77.0633 37.7846 77.7726 37.8733 78.3932C40.0897 78.0386 42.2175 77.6839 44.434 77.3293C44.2567 76.5314 43.9907 75.7334 43.902 74.8469L43.8134 74.4036Z" fill="#F7A39C"/>
<path d="M32.9971 89.0311C33.1744 89.0311 33.263 88.8537 33.1744 88.7651L32.4651 85.3961C32.4651 85.3074 32.2878 85.2188 32.1991 85.2188C32.1104 85.2188 32.0218 85.3961 32.0218 85.4847L32.7311 88.8537C32.8197 88.9424 32.9084 89.0311 32.9971 89.0311Z" fill="#240100"/>
<path d="M39.2919 134.956C40.6218 135.222 42.4836 135.31 44.5228 135.133C46.7392 134.956 48.601 134.424 50.0196 133.981C49.9309 127.952 49.9309 121.834 49.8423 115.806C50.3742 113.5 50.7289 110.486 50.6402 107.028C50.4629 102.329 49.4876 98.5172 48.601 95.8574C46.0299 97.276 43.3702 98.6058 40.7991 100.024C41.0651 105.964 41.3311 111.816 41.597 117.756C40.7991 123.519 40.0898 129.282 39.2919 134.956Z" fill="#5A78EC"/>
<path d="M27.4116 114.919C26.9683 114.919 26.2591 114.919 25.4611 115.008C25.4611 115.008 23.7766 115.185 22.4467 115.54C20.5849 115.983 17.1272 118.288 13.6696 122.1C14.5561 124.76 15.7974 127.774 17.5705 130.789C18.0138 131.587 18.5458 132.296 18.9891 133.005C23.3333 128.484 27.7663 123.873 32.1105 119.352C33.795 117.933 36.3661 115.54 38.4939 111.816C41.065 107.294 41.6856 103.039 41.7743 100.645C44.0794 99.0491 46.3845 97.4533 48.6896 95.8574C43.5474 96.3007 38.4053 96.744 33.2631 97.1873C31.2239 103.127 29.2734 108.979 27.4116 114.919Z" fill="#5A78EC"/>
<path d="M32.1102 100.378C37.6957 99.2256 43.3698 98.1617 48.9553 97.0092C48.778 95.6793 48.6007 94.3494 48.4234 93.0195C43.2812 93.7288 38.139 94.3494 32.9968 95.0587C32.6422 96.8318 32.3762 98.605 32.1102 100.378Z" fill="#FFCE33"/>
<path d="M28.2095 97.5421C29.6281 98.5174 34.061 101.443 40.3558 101.177C45.3206 101 48.867 98.872 50.3741 97.8081C49.4876 91.5133 48.601 85.1299 47.8031 78.8352C47.4484 78.4806 47.0051 78.0373 46.4732 77.6826C45.4979 76.9734 44.8484 75.9507 44.0504 75.6847C44.3164 76.394 44.0794 77.4167 43.8134 77.594C43.1928 78.2146 41.2423 77.4167 37.696 75.2002C36.8981 75.3775 35.5682 75.7321 34.1497 76.796C33.4404 77.4167 32.9084 78.0373 32.6425 78.4806C31.1353 84.864 29.7167 91.1587 28.2095 97.5421Z" fill="#4C4C4A"/>
<path d="M24.3969 85.3077C25.2835 86.5489 26.0814 87.7901 26.8793 89.0313C27.7659 88.3221 28.6525 87.5241 29.5391 86.8149C30.337 86.1943 31.0463 85.485 31.8442 84.8644C32.1988 84.5098 32.6421 84.2438 32.9968 83.8891C34.8586 82.2933 36.7204 80.7861 38.5822 79.1902C38.6709 78.9243 38.7596 77.949 38.1389 77.0624C37.5183 76.0872 36.2771 75.4666 34.9472 75.3779C33.8833 76.0872 32.9081 76.7965 31.8442 77.6831C31.6669 77.7717 31.5782 77.8604 31.4009 78.0377C30.7803 78.5696 30.1597 79.1016 29.6277 79.6335C28.8298 80.3428 28.1205 81.0521 27.4999 81.7613C26.2587 82.9139 25.2835 84.1551 24.3969 85.3077Z" fill="#F7A39C"/>
<path d="M27.4114 81.6729C28.1206 83.3574 28.8299 85.0419 29.6278 86.7264C30.4258 86.1058 31.135 85.3965 31.933 84.7759V82.7368C30.4258 82.3821 28.9186 82.0275 27.4114 81.6729Z" fill="#240100"/>
<path d="M27.4114 81.6725C29.6279 84.1549 31.8443 86.6373 33.9721 89.2084C35.8339 85.5734 37.7844 82.0271 39.6463 78.3921C39.2916 77.6828 38.937 76.9735 38.5824 76.2643C38.3164 75.821 38.0504 75.3777 37.7844 74.9344C36.7205 74.7571 35.834 74.8457 35.1247 74.9344C30.2485 75.9096 27.8547 80.8745 27.4114 81.6725Z" fill="#4C4C4A"/>
<path d="M40.5329 73.4283C41.4195 74.4922 42.7494 75.0242 43.9019 74.9355L43.8133 74.4036C43.6359 73.6943 43.5473 72.985 43.4586 72.2758L43.37 71.4778C43.1926 70.3253 43.104 69.2614 43.104 68.2861L42.1287 68.3748L40.001 68.5521C39.0257 69.882 39.203 71.9211 40.5329 73.4283Z" fill="#240100"/>
<path d="M46.4732 58.355L48.2463 64.2064C49.3102 67.8414 47.2711 71.7424 43.5475 72.8063C42.6609 72.895 41.4197 72.895 39.9125 72.363C36.8094 71.2991 35.3022 68.9053 34.8589 68.1074L32.9085 61.458C32.2878 59.3302 33.0858 57.0251 34.9476 55.8725C35.7455 55.3406 36.6321 54.8973 37.7847 54.5427C38.4939 54.3653 39.1145 54.188 39.7351 54.0994C42.7495 53.5674 45.5866 55.4292 46.4732 58.355Z" fill="#F7A39C"/>
<path d="M45.9411 66.6895C45.8525 66.7781 45.6752 67.1327 45.1432 67.3101C44.5226 67.4874 44.0793 67.2214 43.9907 67.2214L45.9411 66.6895Z" fill="#240100"/>
<path d="M39.9123 65.8021C40.0009 65.8021 40.0896 65.7134 40.0896 65.6247C40.3556 64.9155 40.8875 64.3835 41.5081 64.3835C41.7741 64.3835 42.0401 64.5608 42.2174 64.6495C42.3061 64.7381 42.4834 64.7381 42.572 64.6495C42.6607 64.5608 42.6607 64.3835 42.572 64.2949C42.3061 64.0289 41.9514 63.9402 41.5968 63.8516C41.5968 63.8516 41.5968 63.8516 41.5081 63.8516C40.7102 63.8516 40.0009 64.4722 39.7349 65.4474C39.7349 65.6247 39.735 65.7134 39.9123 65.8021Z" fill="#240100"/>
<path d="M41.9791 66.0038C41.6205 66.1613 41.1541 65.8892 40.9375 65.3961C40.7209 64.9029 40.836 64.3754 41.1947 64.2179C41.5533 64.0603 42.0197 64.3324 42.2363 64.8255C42.453 65.3187 42.3378 65.8462 41.9791 66.0038Z" fill="#240100"/>
<path d="M42.3944 64.7395C42.483 64.7395 42.5717 64.6508 42.5717 64.6508L42.8377 64.0302C42.9263 63.9416 42.8377 63.7643 42.749 63.7643C42.6604 63.6756 42.483 63.7643 42.483 63.8529L42.2171 64.4735C42.1284 64.5622 42.2171 64.7395 42.3057 64.7395H42.3944Z" fill="#240100"/>
<path d="M45.4094 64.3831C45.498 64.3831 45.5867 64.2944 45.5867 64.2058C45.8526 63.4965 46.3846 62.8759 47.0052 62.9646C47.2712 62.9646 47.5372 63.1419 47.7145 63.2305C47.8031 63.3192 47.9805 63.3192 48.0691 63.2305C48.1578 63.1419 48.1578 62.9646 48.0691 62.8759C47.8918 62.6986 47.5372 62.5213 47.0939 62.4326C46.296 62.4326 45.5867 63.0532 45.232 64.0285C45.1434 64.2058 45.2321 64.2944 45.4094 64.3831Z" fill="#240100"/>
<path d="M47.4741 64.5721C47.1155 64.7297 46.6491 64.4576 46.4325 63.9644C46.2158 63.4713 46.331 62.9438 46.6897 62.7862C47.0483 62.6287 47.5147 62.9008 47.7313 63.3939C47.9479 63.8871 47.8328 64.4146 47.4741 64.5721Z" fill="#240100"/>
<path d="M47.8916 63.3196C47.9802 63.3196 48.0689 63.2309 48.0689 63.2309L48.3349 62.6103C48.4235 62.5217 48.3349 62.3443 48.2462 62.3443C48.1575 62.2557 47.9802 62.3443 47.9802 62.433L47.7142 63.0536C47.6256 63.1423 47.7142 63.3196 47.8029 63.3196C47.8029 63.3196 47.8029 63.3196 47.8916 63.3196Z" fill="#240100"/>
<path d="M38.5825 63.5862C38.6712 63.6749 39.2031 63.4089 40.267 62.8769C41.5082 62.2563 41.5082 62.1677 41.5082 62.079C41.5082 61.9017 40.7103 61.813 40.0897 62.079C39.1145 62.4336 38.4052 63.4089 38.5825 63.5862Z" fill="#240100"/>
<path d="M44.5226 61.3688C44.5226 61.4575 45.1432 61.4575 46.3844 61.2802C47.803 61.1028 47.803 61.0142 47.803 61.0142C47.803 60.8369 47.1824 60.5709 46.4731 60.4822C45.4092 60.3936 44.434 61.1028 44.5226 61.3688Z" fill="#240100"/>
<path d="M42.838 68.4623C42.6607 68.7283 43.9019 70.8561 45.2318 70.5015C46.3843 70.2355 46.8276 68.3737 46.473 68.1077C46.2957 67.9304 45.8524 68.551 44.8771 68.7283C43.8132 68.9056 43.0153 68.285 42.838 68.4623Z" fill="white"/>
<path d="M31.0465 86.4605C31.1352 86.4605 31.2238 86.3718 31.2238 86.2832L33.263 79.8998C33.263 79.8111 33.263 79.6338 33.0856 79.6338C32.997 79.6338 32.8197 79.6338 32.8197 79.8111L30.7805 86.1945C30.7805 86.2832 30.8692 86.3718 31.0465 86.4605Z" fill="#240100"/>
<path d="M49.1085 89.1094C49.2858 89.0208 49.3745 88.9321 49.2858 88.8435L48.02 84.2475C47.9314 84.1588 47.8427 84.0701 47.754 84.1588C47.6654 84.2475 47.5767 84.3361 47.6654 84.4248L48.9312 89.0208C48.9312 89.1094 49.0199 89.1094 49.1085 89.1094Z" fill="#240100"/>
<path d="M27.5888 86.9902C27.6775 86.9902 27.7661 86.9902 27.7661 86.9015L28.2981 85.749C28.3867 85.6603 28.2981 85.483 28.2094 85.483C28.1207 85.3944 27.9434 85.483 27.9434 85.5717L27.4115 86.7242C27.3228 86.8129 27.4115 86.9902 27.5001 86.9902H27.5888Z" fill="#240100"/>
<path d="M35.1249 57.6458C35.3909 59.3304 38.7599 60.1283 40.9764 60.1283C43.8134 60.2169 47.4484 59.0644 47.6257 57.4685C47.8031 55.6954 43.2815 53.0356 39.4692 53.9222C37.3414 54.4541 34.9476 56.2273 35.1249 57.6458Z" fill="#240100"/>
<path d="M31.4899 61.2799C31.7559 64.0283 34.6816 66.6881 36.4548 66.1561C36.7208 66.0675 37.43 65.7128 38.8486 60.482C39.9125 56.4924 40.4444 54.4532 39.8238 54.0099C38.3166 52.8574 31.1353 56.7583 31.4899 61.2799Z" fill="#240100"/>
<path d="M35.5925 68.6406C34.607 68.9343 33.5133 68.1833 33.1497 66.9631C32.7861 65.743 33.2903 64.5158 34.2758 64.2222C35.2613 63.9285 36.3549 64.6795 36.7185 65.8997C37.0821 67.1198 36.5779 68.3469 35.5925 68.6406Z" fill="#F7A39C"/>
<path d="M35.2135 67.6639H35.3021C35.3908 67.5752 35.4795 67.4866 35.3908 67.3979L34.2382 65.3588C34.1496 65.2701 34.0609 65.1815 33.9723 65.2701C33.8836 65.3588 33.795 65.4474 33.8836 65.5361L35.0362 67.5752C35.0362 67.6639 35.1248 67.6639 35.2135 67.6639Z" fill="#240100"/>
<path d="M34.681 66.5968C34.7697 66.5968 34.8583 66.5082 34.8583 66.4195L35.1243 65.267C35.1243 65.1783 35.0357 65.001 34.947 65.001C34.8583 65.001 34.681 65.0896 34.681 65.1783L34.415 66.3309C34.415 66.5082 34.5037 66.5968 34.681 66.5968C34.5924 66.5968 34.681 66.5968 34.681 66.5968Z" fill="#240100"/>
</g>
</g>
<path d="M174.601 75.1011C175.49 76.3173 177.186 76.5968 178.434 75.741L211.307 53.209C213.448 51.7452 213.967 48.7777 212.433 46.7023C210.903 44.6174 207.951 44.2656 205.938 45.917L175.108 71.2148C173.936 72.1758 173.713 73.8848 174.601 75.1011Z" fill="#DF2025"/>
<path d="M167.987 82.3711C166.15 81.5049 165.371 79.2958 166.247 77.4369C167.123 75.5781 169.323 74.7734 171.161 75.6396C172.998 76.5058 173.777 78.7149 172.901 80.5738C172.024 82.4326 169.824 83.2373 167.987 82.3711Z" fill="#DF2025"/>
<path d="M170.381 54.075C171.719 54.7673 173.362 54.2613 174.098 52.9385L193.473 18.1117C194.736 15.8469 193.878 12.9591 191.579 11.7857C189.28 10.6019 186.481 11.6035 185.416 13.9789L169.102 50.3703C168.481 51.7534 169.044 53.3826 170.381 54.075Z" fill="#DF2025"/>
<path d="M167.704 63.5298C165.673 63.5738 163.99 61.9439 163.946 59.8893C163.901 57.8347 165.511 56.1335 167.542 56.0895C169.573 56.0454 171.255 57.6753 171.3 59.7299C171.345 61.7845 169.734 63.4858 167.704 63.5298Z" fill="#DF2025"/>
<path d="M148.703 62.4765C150.171 62.8141 151.636 61.9151 152.02 60.4507L162.115 21.8969C162.775 19.389 161.224 16.8057 158.706 16.2416C156.184 15.6674 153.723 17.3343 153.283 19.9L146.542 59.2069C146.285 60.701 147.235 62.139 148.703 62.4765Z" fill="#DF2025"/>
<path d="M148.464 72.3011C146.508 72.8493 144.473 71.6896 143.918 69.7108C143.364 67.7319 144.499 65.6834 146.455 65.1352C148.411 64.587 150.446 65.7467 151.001 67.7256C151.556 69.7044 150.42 71.7529 148.464 72.3011Z" fill="#DF2025"/>
<defs>
<filter id="filter0_d_1538_2235" x="14.7477" y="39.8008" width="51.8552" height="65.8252" filterUnits="userSpaceOnUse" color-interpolation-filters="sRGB">
<feFlood flood-opacity="0" result="BackgroundImageFix"/>
<feColorMatrix in="SourceAlpha" type="matrix" values="0 0 0 0 0 0 0 0 0 0 0 0 0 0 0 0 0 0 127 0" result="hardAlpha"/>
<feOffset/>
<feGaussianBlur stdDeviation="2.5"/>
<feComposite in2="hardAlpha" operator="out"/>
<feColorMatrix type="matrix" values="0 0 0 0 0 0 0 0 0 0 0 0 0 0 0 0 0 0 0.25 0"/>
<feBlend mode="normal" in2="BackgroundImageFix" result="effect1_dropShadow_1538_2235"/>
<feBlend mode="normal" in="SourceGraphic" in2="effect1_dropShadow_1538_2235" result="shape"/>
</filter>
</defs>
</svg>
