<svg width="338" height="310" viewBox="0 0 338 310" fill="none" xmlns="http://www.w3.org/2000/svg">
<g filter="url(#filter0_d_1543_2251)">
<path d="M216.054 9.44208C287.689 32.6648 296.621 160.673 265.329 214.464C260.135 223.4 245.541 248.491 221.137 252.565C209.393 254.531 202.35 250.454 191.781 247.858C146.565 236.679 120.97 271.6 96.6094 263.777C60.5746 252.278 34.5203 150.22 79.609 78.3439C107.247 34.3461 166.498 -6.5448 216.054 9.44208Z" fill="#FAD44D"/>
<path d="M177.011 134.879C186.981 134.879 195.062 130.487 195.062 125.069C195.062 119.651 186.981 115.259 177.011 115.259C167.042 115.259 158.96 119.651 158.96 125.069C158.96 130.487 167.042 134.879 177.011 134.879Z" fill="#FFCE33"/>
<path d="M212.721 161.564C207.619 158.425 201.929 154.501 196.24 149.4C194.67 148.026 193.296 146.653 191.727 145.083C191.334 144.691 190.942 144.298 190.746 143.906C188.195 141.355 185.841 138.805 183.879 136.254C183.682 132.722 185.056 129.387 187.41 127.425C189.765 125.463 192.316 125.659 192.904 125.659C197.417 130.171 202.126 134.684 206.835 139.197C211.936 144.102 217.037 149.007 222.139 154.109C218.999 156.463 215.86 159.014 212.721 161.564Z" fill="#F7A39C"/>
<path d="M231.557 122.519C233.126 122.911 234.696 123.107 236.462 123.5C236.462 129.974 235.284 138.804 229.398 148.614C227.24 152.342 224.493 155.677 221.943 158.62C221.746 158.816 221.55 159.209 221.158 159.798C221.158 159.798 220.569 160.582 219.392 161.367C216.253 163.133 213.309 162.348 213.309 162.348C211.151 161.76 209.778 159.994 209.385 159.405C209.582 157.835 209.974 156.462 210.17 155.481C210.955 153.323 212.721 149.595 213.113 148.81C213.113 148.614 213.31 148.418 213.506 147.829C213.702 147.437 213.898 147.044 214.094 146.652C218.607 138.019 226.063 135.076 229.987 126.639C230.968 124.873 231.36 123.303 231.557 122.519Z" fill="#F7A39C"/>
<path d="M193.296 154.696C195.847 156.462 198.986 158.228 203.107 159.994C208.797 162.152 213.898 162.937 217.626 163.133C218.999 163.133 220.177 162.937 221.158 162.544C233.911 158.62 236.069 135.468 236.265 133.114C233.518 131.544 230.968 129.974 228.221 128.405C223.708 131.544 218.411 136.449 215.664 143.512C215.468 144.101 215.271 144.69 215.075 145.278C209.385 140.373 205.069 136.057 202.322 132.917C198.202 128.208 195.651 125.069 190.942 123.892C187.607 122.911 184.271 123.499 182.309 124.088C186.037 134.291 189.765 144.493 193.296 154.696Z" fill="#1A1A18"/>
<path d="M156.41 271.83C154.448 276.146 151.505 281.836 147.385 288.507C144.834 288.115 142.283 287.722 139.733 287.526C142.872 277.716 145.03 266.14 145.03 253.19C145.03 250.443 144.834 247.893 144.638 245.342C144.441 244.557 144.245 243.576 144.245 242.595C144.245 242.595 144.245 242.006 144.049 241.222C143.853 239.259 144.245 236.709 144.442 235.532V235.335C144.442 235.335 144.442 235.139 144.442 234.943C147.973 234.747 151.309 234.551 154.84 234.158C156.214 234.158 157.587 233.962 158.961 233.962C158.961 234.158 158.961 234.551 158.961 234.747C158.961 235.139 158.961 235.335 158.961 235.728C158.961 237.886 158.961 240.829 159.745 244.165C160.334 247.304 161.119 249.07 161.708 250.639C162.1 253.19 163.081 257.507 156.41 271.83Z" fill="#F7A39C"/>
<path d="M122.074 303.616H151.505C152.29 302.635 153.074 301.262 153.271 299.496C153.467 297.338 152.486 295.768 152.093 294.983C150.916 292.825 149.739 289.686 149.15 284.584C146.403 283.996 143.657 283.407 140.91 282.818C137.182 289.293 132.865 292.432 129.726 294.002C125.998 295.964 121.485 296.945 120.897 300.084C120.701 301.458 121.289 302.635 122.074 303.616Z" fill="#F7A39C"/>
<path d="M206.05 231.806C205.461 236.711 204.48 241.223 203.303 244.559C203.107 245.344 202.911 245.932 202.714 246.717C201.733 246.913 200.556 247.11 199.379 247.306C196.632 247.698 196.436 247.698 196.043 247.894C194.67 248.287 192.512 248.875 189.961 250.445C189.765 249.464 189.372 247.698 189.176 246.717C188.587 243.97 187.999 241.224 187.41 238.477C187.018 236.711 186.625 235.141 186.429 233.375C184.075 222.192 181.916 210.812 179.562 199.628C186.037 197.47 192.708 195.115 199.183 192.957C201.145 197.077 203.107 201.982 204.48 207.672C206.835 216.502 206.835 224.742 206.05 231.806Z" fill="#F7A39C"/>
<path d="M212.132 259.666C215.86 270.261 215.86 279.286 216.056 283.995C216.056 287.919 215.86 291.058 215.664 293.217L209.581 295.179C203.107 280.267 196.828 265.159 190.353 250.248C190.942 249.267 191.727 248.089 193.1 247.108C193.296 246.912 193.493 246.716 193.689 246.52C198.005 243.381 202.91 243.773 204.088 243.969C204.676 244.754 205.069 245.539 205.657 246.324C208.993 251.425 210.759 256.134 212.132 259.666Z" fill="#F7A39C"/>
<path d="M175.246 187.659C170.537 201.393 165.828 214.932 161.119 228.666C160.726 229.451 160.53 230.432 160.138 231.217C159.942 232.001 159.549 232.786 159.353 233.571C159.157 233.964 159.157 234.356 158.96 234.748C158.96 234.945 158.764 235.141 158.764 235.337C158.764 235.533 158.764 235.533 158.568 235.729C158.372 235.926 158.176 235.926 157.979 236.122C156.802 236.907 154.644 238.084 151.701 238.28C147.777 238.476 145.03 236.514 144.245 235.926C144.245 235.926 144.245 235.926 144.245 235.729C144.245 235.729 144.245 235.533 144.245 235.337C144.638 234.16 144.638 232.59 144.441 230.824C144.441 230.628 144.441 230.432 144.441 230.236C143.264 221.603 142.675 207.476 149.15 192.172C151.505 186.874 154.055 182.165 156.802 178.438C162.885 181.381 168.967 184.52 175.246 187.659Z" fill="#F7A39C"/>
<path d="M198.594 183.343C185.056 184.52 171.322 185.501 157.783 186.678L151.897 146.26C150.131 134.684 158.176 123.893 169.948 122.127C181.524 120.361 192.316 128.405 194.081 140.178C195.455 154.501 197.024 169.02 198.594 183.343Z" fill="#F7A39C"/>
<path d="M202.714 304.204H223.708C224.493 303.223 225.082 301.85 224.689 300.673C224.101 299.496 222.531 299.103 221.354 298.711C219.392 297.926 217.037 295.571 215.86 289.097C213.113 289.097 210.366 289.097 207.423 289.097C207.031 294.59 205.854 297.141 204.676 298.515C204.284 298.907 202.911 300.673 202.714 303.027C202.714 303.616 202.714 304.008 202.714 304.204Z" fill="#F7A39C"/>
<path d="M164.258 122.517V121.536C164.258 119.771 164.258 117.808 164.062 115.846C164.062 115.062 164.062 114.473 163.866 113.688C163.669 110.745 163.277 107.802 162.885 105.251L165.435 105.055L170.929 104.467L173.087 104.27L177.011 103.878C177.796 107.213 178.385 110.745 178.973 114.081C178.973 114.277 178.973 114.473 178.973 114.865C179.562 118.005 180.151 120.948 180.739 124.087C181.132 125.853 181.328 127.619 181.72 129.385C175.834 129.581 169.948 129.777 164.062 130.169C164.062 127.423 164.258 125.068 164.258 122.517Z" fill="#F7A39C"/>
<path d="M173.087 115.062C171.125 118.79 167.79 121.34 164.258 121.733C164.258 119.967 164.258 118.005 164.062 116.043C164.062 115.258 164.062 114.669 163.866 113.885C163.669 110.942 163.277 107.998 162.885 105.448L165.435 105.252L170.929 104.663L173.087 104.467C174.853 107.214 174.853 111.334 173.087 115.062Z" fill="#240100"/>
<path d="M156.606 74.2531L150.131 88.9685C146.011 98.3864 150.132 109.178 159.549 113.298C161.708 113.69 165.239 114.279 169.163 113.494C177.6 111.728 182.505 105.842 183.879 104.076L191.335 87.0065C193.689 81.5127 192.316 75.2342 187.803 71.5063C185.841 69.9366 183.683 68.367 180.936 66.9935C179.17 66.2087 177.404 65.6201 175.834 65.0315C167.986 62.8732 159.746 66.9935 156.606 74.2531Z" fill="#F7A39C"/>
<path d="M155.233 98.3857C155.429 98.7782 155.821 99.7592 156.999 100.152C158.568 100.936 159.942 100.348 160.138 100.152L155.233 98.3857Z" fill="#240100"/>
<path d="M158.764 85.6323C158.568 85.8285 156.999 85.4361 153.859 84.4551C151.897 83.8665 151.309 83.6703 151.309 83.2779C151.309 82.6893 152.878 81.7082 154.644 81.9044C157.195 82.1006 159.157 85.0437 158.764 85.6323Z" fill="#240100"/>
<path d="M174.068 92.6938C173.872 92.89 172.303 92.4976 169.163 91.5166C167.201 90.928 166.613 90.7318 166.613 90.3394C166.613 89.7508 168.182 88.7697 169.948 88.9659C172.499 89.3584 174.461 92.1052 174.068 92.6938Z" fill="#240100"/>
<path d="M171.322 97.2084C171.125 97.2084 170.929 97.2084 170.929 97.0122C169.556 94.6577 167.398 93.8729 166.417 94.4615C166.024 94.6577 165.632 95.0501 165.435 95.6387C165.239 95.8349 165.043 96.0312 164.847 95.8349C164.651 95.6387 164.454 95.4425 164.651 95.2463C165.043 94.4615 165.632 93.8729 166.22 93.4805C167.986 92.6957 170.537 94.0691 172.106 96.4236C172.303 96.6198 172.106 97.0122 171.91 97.0122C171.518 97.2084 171.322 97.2084 171.322 97.2084Z" fill="#240100"/>
<path d="M166.369 97.1587C167.389 97.5247 168.483 97.0774 168.813 96.1595C169.142 95.2416 168.582 94.2007 167.563 93.8347C166.543 93.4686 165.449 93.916 165.119 94.8339C164.79 95.7518 165.35 96.7926 166.369 97.1587Z" fill="#240100"/>
<path d="M156.999 91.7142C156.802 91.7142 156.606 91.7143 156.606 91.5181C155.233 89.1636 153.074 88.3788 152.093 88.9674C151.897 89.1636 151.309 89.3598 151.112 90.1446C150.916 90.3408 150.72 90.537 150.524 90.3408C150.328 90.1446 150.131 89.9484 150.328 89.7522C150.72 88.7712 151.505 88.1826 151.897 87.9864C153.663 87.2015 156.214 88.575 157.783 90.9294C157.98 91.1256 157.783 91.5181 157.587 91.5181C157.195 91.7143 157.195 91.7142 156.999 91.7142Z" fill="#240100"/>
<path d="M152.112 91.6256C153.132 91.9916 154.226 91.544 154.555 90.626C154.885 89.708 154.325 88.6672 153.305 88.3013C152.285 87.9353 151.191 88.3828 150.862 89.3009C150.532 90.2189 151.092 91.2597 152.112 91.6256Z" fill="#240100"/>
<path d="M155.036 103.88C154.644 104.468 159.353 108.589 161.707 107.215C162.688 106.627 163.277 105.253 162.885 104.665C162.492 104.076 161.511 104.468 159.353 104.468C156.606 104.468 155.233 103.487 155.036 103.88Z" fill="white"/>
<path d="M206.05 231.806C199.967 233.964 193.689 236.122 187.607 238.28C187.214 236.515 186.822 234.945 186.626 233.179C192.904 232.591 199.379 232.198 206.05 231.806Z" fill="#240100"/>
<path d="M160.138 231.216C159.942 232 159.549 232.785 159.353 233.57C159.157 233.963 159.157 234.355 158.961 234.747C158.961 234.944 158.764 235.14 158.764 235.336C158.764 235.728 158.764 235.925 158.764 236.317C158.568 236.317 158.372 236.121 158.176 236.121C156.999 235.728 155.821 235.14 154.644 234.747C151.309 233.374 147.973 232.197 144.638 230.823C149.739 230.823 154.84 231.019 160.138 231.216Z" fill="#240100"/>
<path d="M167.398 236.318C158.372 234.16 149.543 232.002 140.517 229.844C140.714 224.35 141.302 217.875 142.48 211.204C145.423 195.704 150.916 183.539 156.018 174.71C163.277 177.457 170.341 180.4 177.6 183.147C174.265 200.805 170.929 218.66 167.398 236.318Z" fill="white"/>
<path d="M206.835 231.806C198.398 232.394 189.765 232.983 181.328 233.375C177.404 217.679 173.676 202.179 169.752 186.482C179.17 182.558 188.391 178.634 197.809 174.71C200.949 182.362 204.284 192.565 206.05 205.122C207.423 215.521 207.423 224.546 206.835 231.806Z" fill="white"/>
<path d="M199.967 180.596C198.986 181.969 191.138 191.779 177.6 191.976C161.511 192.368 152.682 178.634 152.29 178.045C151.505 165.684 150.916 153.323 150.131 140.766C150.131 139.196 150.327 134.488 153.859 129.975C157.391 125.658 161.707 124.089 163.277 123.696C163.473 124.089 165.435 128.994 170.144 130.367C174.657 131.544 179.954 128.994 182.309 124.089C183.879 124.481 188.784 126.051 192.708 130.956C195.651 134.88 196.436 138.804 196.632 140.57C197.613 153.912 198.79 167.254 199.967 180.596Z" fill="#1A1A18"/>
<path d="M129.137 120.165C128.941 119.772 128.353 119.576 127.96 119.576C127.764 119.576 126.979 119.38 125.213 120.361C124.625 120.753 123.644 121.342 122.859 122.127C122.074 122.519 121.485 122.323 121.093 122.127C120.701 121.931 119.916 120.95 121.682 112.905C121.682 112.905 122.27 110.354 122.663 108C122.859 107.608 124.428 104.076 123.251 103.291C123.055 103.291 122.859 103.095 122.663 103.095C121.682 103.88 121.289 104.665 120.897 106.038C120.504 107.215 120.308 108.785 119.523 110.551C119.131 111.335 118.739 112.513 117.758 113.886C117.561 113.886 117.365 113.886 116.973 113.69C115.992 112.905 116.973 110.551 117.365 106.43C117.561 104.665 117.954 100.937 116.973 100.544C116.58 100.348 116.188 100.74 115.992 100.74C114.226 101.918 114.618 104.272 114.618 106.627C114.618 108.392 114.422 110.747 113.833 113.69C113.637 111.728 113.245 109.57 113.049 107.411C112.852 105.646 112.656 103.88 112.656 102.114C112.068 101.918 111.675 101.918 111.479 101.918C110.694 102.114 110.106 103.487 110.498 105.057C110.694 108.196 110.694 111.335 110.89 114.475C110.302 114.671 109.909 114.671 109.321 114.867C108.536 112.513 108.34 110.551 107.947 109.177C107.751 107.804 107.555 106.234 106.966 106.234C106.574 106.234 105.985 106.823 105.985 106.823C105.397 107.608 105.397 108.589 105.593 110.158C106.574 113.494 107.162 115.848 107.162 116.437C107.162 117.025 107.359 117.418 107.359 117.418C107.359 117.614 107.359 117.614 107.359 117.81C107.359 118.006 107.359 118.203 107.359 118.791C107.359 119.38 107.359 119.576 107.162 119.968C107.162 119.968 107.162 120.361 107.162 121.146C107.359 127.424 115.403 131.152 115.599 129.975C117.561 128.602 123.84 124.874 123.84 124.874C128.353 122.715 129.334 120.557 129.137 120.165Z" fill="#F7A39C"/>
<path d="M219.196 118.595C219.392 118.203 219.98 118.007 220.373 118.007C220.569 118.007 221.354 117.811 223.12 118.792C223.708 119.184 224.689 119.773 225.474 120.557C226.259 120.95 226.848 120.754 227.24 120.557C227.632 120.361 228.417 119.38 226.651 111.336C226.651 111.336 226.063 108.785 225.67 106.431C225.474 106.038 223.905 102.507 225.082 101.722C225.278 101.722 225.474 101.526 225.67 101.526C226.651 102.31 227.044 103.095 227.436 104.469C227.829 105.646 228.025 107.215 228.81 108.981C229.202 109.766 229.594 110.943 230.575 112.317C230.772 112.317 230.968 112.317 231.36 112.121C232.341 111.336 231.36 108.981 230.968 104.861C230.772 103.095 230.379 99.3673 231.36 98.9749C231.753 98.7787 232.145 99.171 232.341 99.171C234.107 100.348 233.715 102.703 233.715 105.057C233.715 106.823 233.911 109.178 234.5 112.121C234.696 110.159 235.088 108 235.284 105.842C235.481 104.076 235.677 102.31 235.677 100.544C236.265 100.348 236.658 100.348 236.854 100.348C237.639 100.544 238.227 101.918 237.835 103.488C237.639 106.627 237.639 109.766 237.443 112.905C238.031 113.102 238.424 113.102 239.012 113.298C239.797 110.943 239.993 108.981 240.386 107.608C240.582 106.234 240.778 104.665 241.367 104.665C241.759 104.665 242.348 105.253 242.348 105.253C242.936 106.038 242.936 107.019 242.74 108.589C241.759 111.924 241.171 114.279 241.171 114.867C241.171 115.456 240.974 115.848 240.974 115.848C240.974 116.045 240.974 116.045 240.974 116.241C240.974 116.437 240.974 116.633 240.974 117.222C240.974 117.811 240.974 118.007 241.171 118.399C241.171 118.399 241.171 118.792 241.171 119.576C240.974 125.855 232.93 129.583 232.734 128.406C230.772 127.032 224.493 123.304 224.493 123.304C219.784 121.342 218.999 119.184 219.196 118.595Z" fill="#F7A39C"/>
<path d="M115.599 122.519C114.03 122.911 112.46 123.107 110.694 123.5C110.694 129.974 111.871 138.804 117.757 148.614C119.916 152.342 122.663 155.677 125.213 158.62C125.409 158.816 125.606 159.209 125.998 159.798C125.998 159.798 126.587 160.582 127.764 161.367C130.903 163.133 133.846 162.348 133.846 162.348C136.005 161.76 137.378 159.994 137.77 159.405C137.574 157.835 137.182 156.462 136.986 155.481C136.201 153.323 134.435 149.595 134.042 148.81C134.042 148.614 133.846 148.418 133.65 147.829C133.454 147.437 133.258 147.044 133.061 146.652C128.549 138.019 121.093 135.076 117.169 126.639C116.188 124.873 115.795 123.303 115.599 122.519Z" fill="#F7A39C"/>
<path d="M153.859 154.696C151.309 156.462 148.169 158.228 144.049 159.993C138.359 162.152 133.258 162.936 129.53 163.133C128.156 163.133 126.979 162.936 125.998 162.544C113.245 158.62 111.087 135.468 110.89 133.113C113.637 131.544 116.188 129.974 118.935 128.404C123.251 131.347 128.549 136.056 131.296 143.12C131.492 143.905 131.884 144.493 132.081 145.278C137.967 140.373 142.087 136.056 144.834 132.917C148.562 128.601 151.309 124.873 156.214 123.892C158.568 123.499 160.726 123.695 162.1 124.088C159.353 134.291 156.606 144.493 153.859 154.696Z" fill="#1A1A18"/>
<path d="M169.163 135.666C167.201 135.47 165.632 134.881 164.062 133.9C160.53 131.742 158.765 128.602 158.176 126.837C158.176 126.64 158.176 126.248 158.372 126.248C158.568 126.248 158.961 126.248 158.961 126.444C159.549 128.014 161.119 131.153 164.454 133.115C165.828 133.9 167.397 134.489 169.163 134.685C169.36 134.685 169.556 134.881 169.556 135.273C169.556 135.47 169.36 135.666 169.163 135.666Z" fill="#AFAFAF"/>
<path d="M178.189 136.254C177.993 136.254 177.797 136.057 177.797 135.861C177.797 135.665 177.993 135.273 178.189 135.273C180.936 135.076 185.252 134.292 189.176 131.349C190.746 130.171 192.316 128.798 193.493 127.228C193.689 127.032 193.885 127.032 194.278 127.228C194.474 127.424 194.474 127.621 194.278 128.013C192.904 129.583 191.531 131.152 189.765 132.33C185.448 135.273 181.132 136.057 178.189 136.254Z" fill="#AFAFAF"/>
<path d="M165.632 155.48C165.239 155.48 165.043 155.284 165.239 154.892L167.594 132.72C167.594 132.524 167.79 132.328 168.182 132.328C168.378 132.328 168.575 132.524 168.575 132.917L166.22 155.088C166.22 155.284 166.024 155.48 165.632 155.48Z" fill="#AFAFAF"/>
<path d="M177.404 163.722C177.011 163.722 176.815 163.526 177.011 163.133L179.366 132.525C179.366 132.329 179.562 132.133 179.954 132.133C180.151 132.133 180.347 132.329 180.347 132.721L177.992 163.329C177.992 163.526 177.796 163.722 177.404 163.722Z" fill="#AFAFAF"/>
<path d="M177.6 166.272C178.034 166.272 178.385 165.393 178.385 164.31C178.385 163.226 178.034 162.348 177.6 162.348C177.167 162.348 176.815 163.226 176.815 164.31C176.815 165.393 177.167 166.272 177.6 166.272Z" fill="#AFAFAF"/>
<path d="M165.632 157.835C166.065 157.835 166.416 156.957 166.416 155.873C166.416 154.79 166.065 153.911 165.632 153.911C165.198 153.911 164.847 154.79 164.847 155.873C164.847 156.957 165.198 157.835 165.632 157.835Z" fill="#AFAFAF"/>
<path d="M151.112 156.853C150.916 156.853 150.72 156.657 150.524 156.461L150.131 145.866C150.131 145.67 150.328 145.277 150.524 145.277C150.72 145.277 151.112 145.474 151.112 145.67L151.505 156.265C151.701 156.657 151.505 156.853 151.112 156.853Z" fill="#AFAFAF"/>
<path d="M198.005 158.817C197.613 158.817 197.417 158.425 197.613 158.228L199.379 149.399C199.379 149.203 199.771 149.007 199.967 149.007C200.164 149.007 200.36 149.399 200.36 149.595L198.594 158.425C198.594 158.817 198.398 158.817 198.005 158.817Z" fill="#AFAFAF"/>
<path d="M215.272 150.379C215.075 150.379 214.683 150.182 214.683 149.79V145.866C214.683 145.67 214.879 145.277 215.272 145.277C215.664 145.277 215.86 145.474 215.86 145.866V149.986C215.664 150.182 215.468 150.379 215.272 150.379Z" fill="#AFAFAF"/>
<path d="M217.43 148.418C217.234 148.418 217.037 148.222 217.037 148.025L216.449 146.063C216.449 145.867 216.449 145.475 216.841 145.475C217.037 145.475 217.43 145.475 217.43 145.867L218.018 147.829C218.018 148.025 217.822 148.221 217.43 148.418C217.626 148.418 217.43 148.418 217.43 148.418Z" fill="#AFAFAF"/>
<path d="M129.726 150.378C129.334 150.378 129.137 149.986 129.334 149.79L129.922 146.847C129.922 146.65 130.315 146.454 130.511 146.454C130.707 146.454 130.903 146.847 130.903 147.043L130.315 149.986C130.315 150.182 130.118 150.378 129.726 150.378Z" fill="#AFAFAF"/>
<path d="M132.669 150.38C132.473 150.38 132.081 150.184 132.081 149.791L132.277 146.456C132.277 146.26 132.473 146.063 132.865 146.063C133.062 146.063 133.258 146.26 133.258 146.652L133.062 149.988C133.062 150.184 132.865 150.38 132.669 150.38Z" fill="#AFAFAF"/>
<path d="M154.252 303.615H118.738C118.738 302.438 118.738 300.476 119.719 298.318C120.897 295.963 122.663 294.786 124.625 293.413C126.194 292.432 128.549 291.058 131.884 290.273C131.884 289.685 131.884 286.153 133.258 285.761C134.435 285.368 136.593 287.526 138.359 291.254C138.751 291.843 141.302 295.963 146.403 296.356C149.15 296.552 151.308 295.571 152.289 294.982C152.878 295.571 153.663 296.552 154.252 297.925C155.036 300.476 154.448 302.83 154.252 303.615Z" fill="#1A1A18"/>
<path d="M154.252 304.204H118.935C118.346 304.204 117.954 303.812 117.954 303.223C117.954 302.635 118.346 302.242 118.935 302.242H154.252C154.84 302.242 155.233 302.635 155.233 303.223C155.233 303.812 154.84 304.204 154.252 304.204Z" fill="#AFAFAF"/>
<path d="M135.024 295.376C134.827 295.573 134.435 295.573 134.239 295.376L130.315 290.864C130.119 290.667 130.119 290.275 130.315 290.079C130.511 289.883 130.903 289.883 131.1 290.079L135.024 294.591C135.416 294.788 135.416 295.18 135.024 295.376Z" fill="#AFAFAF"/>
<path d="M133.258 296.161C133.062 296.357 132.669 296.357 132.473 296.161L128.549 291.648C128.353 291.452 128.353 291.059 128.549 290.863C128.745 290.667 129.137 290.667 129.334 290.863L133.258 295.376C133.454 295.572 133.454 295.964 133.258 296.161Z" fill="#AFAFAF"/>
<path d="M225.67 303.027C217.822 303.027 209.974 303.027 202.322 303.027C202.322 301.85 202.715 299.888 203.696 297.73C204.48 296.16 205.265 295.179 206.05 294.394C207.423 294.394 209.386 294.394 211.151 293.217C213.898 291.647 214.291 289.097 215.86 289.097C216.645 289.097 217.822 289.882 219.196 293.021C220.569 293.609 223.12 295.179 224.886 297.926C225.278 298.515 225.474 299.299 225.67 299.888C225.67 300.869 225.67 302.046 225.67 303.027Z" fill="#1A1A18"/>
<path d="M220.373 292.041C220.373 292.433 220.177 292.629 219.981 292.825L214.094 294.199C213.702 294.199 213.506 294.003 213.31 293.807C213.31 293.414 213.506 293.218 213.702 293.022L219.588 291.648C220.177 291.452 220.373 291.648 220.373 292.041Z" fill="#AFAFAF"/>
<path d="M221.354 293.805C221.354 294.198 221.158 294.394 220.962 294.59L215.075 295.964C214.683 295.964 214.487 295.767 214.291 295.571C214.291 295.179 214.487 294.983 214.683 294.786L220.569 293.413C220.962 293.217 221.354 293.413 221.354 293.805Z" fill="#AFAFAF"/>
<path d="M225.474 304.204H202.714C202.322 304.204 201.929 303.812 201.929 303.419V303.027C201.929 302.635 202.322 302.242 202.714 302.242H225.474C225.866 302.242 226.259 302.635 226.259 303.027V303.419C226.259 304.008 225.866 304.204 225.474 304.204Z" fill="#AFAFAF"/>
<path d="M149.15 249.464C148.954 249.464 148.954 249.464 148.758 249.267C148.562 249.071 148.562 248.679 148.758 248.483L152.878 245.147C153.074 244.951 153.467 244.951 153.663 245.147C153.859 245.343 153.859 245.736 153.663 245.932L149.543 249.267C149.347 249.267 149.347 249.464 149.15 249.464Z" fill="#240100"/>
<path d="M193.1 252.212C192.904 252.212 192.904 252.212 192.708 252.212L190.746 250.642C190.55 250.446 190.55 250.25 190.746 249.857C190.942 249.661 191.138 249.661 191.531 249.857L193.493 251.427C193.689 251.623 193.689 251.819 193.493 252.212C193.297 252.212 193.1 252.212 193.1 252.212Z" fill="#240100"/>
<path d="M199.967 251.427C199.771 251.427 199.771 251.427 199.967 251.427C199.575 251.23 199.379 251.034 199.575 250.838L200.36 248.68C200.36 248.484 200.752 248.287 200.948 248.484C201.145 248.484 201.341 248.876 201.145 249.072L200.36 251.231C200.36 251.427 200.164 251.427 199.967 251.427Z" fill="#240100"/>
<path d="M176.03 131.347C175.834 131.347 175.638 131.151 175.638 130.954C175.638 130.758 175.834 130.366 176.03 130.366C176.815 130.366 180.347 129.777 182.505 126.638C184.075 124.48 184.075 122.125 183.878 120.948C183.878 120.752 184.075 120.359 184.271 120.359C184.467 120.359 184.859 120.556 184.859 120.752C185.056 122.125 185.056 124.676 183.29 127.227C180.935 130.758 177.011 131.151 176.03 131.347C176.226 131.347 176.03 131.347 176.03 131.347Z" fill="#AFAFAF"/>
<path d="M192.316 80.7269C192.904 85.632 191.531 92.4992 187.214 95.246C186.43 95.6385 185.252 96.6195 184.075 96.2271C181.721 95.4422 182.309 91.1257 180.151 86.4168C178.974 83.8661 175.834 80.9231 169.556 75.2331C162.689 69.1508 160.727 67.9735 161.119 66.4039C161.708 63.657 168.771 62.0874 174.657 63.2646C182.702 64.8342 191.335 71.7014 192.316 80.7269Z" fill="#1A1A18"/>
<path d="M181.857 105.144C184.433 106.285 187.624 104.719 188.984 101.648C190.345 98.5761 189.359 95.1613 186.783 94.0206C184.206 92.8798 181.015 94.4451 179.655 97.5168C178.295 100.588 179.281 104.003 181.857 105.144Z" fill="#F7A39C"/>
<path d="M183.29 102.702C183.094 102.702 183.094 102.702 182.898 102.506C182.702 102.31 182.702 102.114 182.898 101.721L186.626 96.8161C186.822 96.6199 187.018 96.6199 187.411 96.8161C187.607 97.0123 187.607 97.2085 187.411 97.6009L183.683 102.506C183.487 102.506 183.29 102.702 183.29 102.702Z" fill="#240100"/>
<path d="M184.86 100.151C184.664 100.151 184.468 99.9544 184.468 99.7582L184.271 96.6189C184.271 96.4227 184.468 96.0303 184.664 96.0303C185.056 96.0303 185.252 96.2265 185.252 96.4227L185.449 99.5619C185.449 99.7581 185.252 100.151 184.86 100.151C185.056 100.151 184.86 100.151 184.86 100.151Z" fill="#240100"/>
<path d="M180.543 99.7603C179.366 102.507 176.03 103.684 173.284 102.115C169.36 99.7603 164.847 97.4059 159.745 95.2476C154.84 93.2856 150.328 91.7159 146.011 90.7349C143.068 89.9501 141.302 86.8108 142.676 83.8677L146.207 75.2347C147.188 72.684 150.131 71.5068 152.878 72.4878L181.524 84.4563C184.075 85.4374 185.252 88.3804 184.271 91.1273L180.543 99.7603Z" fill="#EFEFEF"/>
<path d="M184.467 88.1842C179.366 90.9311 174.265 93.6779 169.163 96.621C160.53 93.8741 151.701 91.1273 143.068 88.5766C141.891 85.2411 140.713 81.7094 139.536 78.374C149.347 79.1588 159.353 79.7474 169.163 80.5322C172.891 79.7474 176.619 78.9626 180.151 78.1777C181.524 81.317 183.094 84.8487 184.467 88.1842Z" fill="#EFEFEF"/>
<path d="M177.796 92.107C176.619 94.8539 173.284 96.0311 170.537 94.4615C166.613 92.107 162.1 89.7526 156.999 87.5943C152.093 85.6323 147.581 84.0626 143.264 83.0816C140.321 82.2968 138.555 79.1575 139.929 76.2144L143.46 67.5814C144.441 65.0307 147.384 63.8535 150.131 64.8345L178.777 76.803C181.328 77.7841 182.505 80.7271 181.524 83.474L177.796 92.107Z" fill="#240100"/>
<path d="M190.583 93.6644L182.618 87.6074L180.599 90.2625L188.564 96.3194L190.583 93.6644Z" fill="#240100"/>
<path d="M193.296 79.3543C200.448 79.3543 206.246 75.1377 206.246 69.9364C206.246 64.7351 200.448 60.5186 193.296 60.5186C186.145 60.5186 180.347 64.7351 180.347 69.9364C180.347 75.1377 186.145 79.3543 193.296 79.3543Z" fill="#1A1A18"/>
<path d="M224.667 60.1267L236.803 72.211L252.247 56.8309L250.041 54.6338L236.803 67.8167L226.874 57.9295H234.596V54.6338H221.358V67.8167H224.667V60.1267ZM262.639 84.6688C255.67 78.0719 246.418 74.3979 236.803 74.4081C226.786 74.4081 217.695 78.319 210.966 84.6688C210.569 85.0643 210.326 85.6135 210.326 86.2287C210.326 86.8439 210.569 87.3932 210.966 87.7887L216.438 93.2376C216.835 93.6331 217.386 93.8748 218.004 93.8748C218.6 93.8748 219.151 93.6331 219.549 93.2596C221.292 91.6337 223.277 90.2715 225.418 89.1949C226.146 88.8433 226.653 88.0963 226.653 87.2175V80.4063C229.852 79.3517 233.272 78.8024 236.803 78.8024C240.333 78.8024 243.753 79.3517 246.952 80.3843V87.1955C246.952 88.0524 247.459 88.8214 248.188 89.1729C250.35 90.2495 252.313 91.6337 254.079 93.2376C254.476 93.6331 255.027 93.8528 255.623 93.8528C256.241 93.8528 256.792 93.6112 257.19 93.2157L262.661 87.7667C263.059 87.3713 263.301 86.822 263.301 86.2068C263.301 85.5916 263.037 85.0643 262.639 84.6688Z" fill="#DF2025"/>
<path d="M264.742 65.6574L306.758 36.1329M275.992 75.3436L331.868 58.4362M273.723 90.4987C273.723 90.4987 301.983 99.7622 320.091 105.698" stroke="black" stroke-linecap="round"/>
<path d="M101.432 190.995L112.223 201.786L125.958 188.052L123.996 186.09L112.223 197.862L103.394 189.033H110.261V186.09H98.4891V197.862H101.432V190.995ZM135.199 212.911C129.001 207.02 120.774 203.739 112.223 203.748C103.316 203.748 95.2321 207.241 89.2478 212.911C88.8947 213.264 88.6788 213.755 88.6788 214.304C88.6788 214.854 88.8947 215.344 89.2478 215.697L94.1137 220.563C94.4669 220.916 94.9574 221.132 95.5068 221.132C96.0365 221.132 96.527 220.916 96.8802 220.583C98.4302 219.131 100.196 217.914 102.099 216.953C102.747 216.639 103.198 215.972 103.198 215.187V209.105C106.043 208.163 109.084 207.672 112.223 207.672C115.363 207.672 118.404 208.163 121.249 209.085V215.167C121.249 215.933 121.7 216.619 122.348 216.933C124.27 217.895 126.017 219.131 127.586 220.563C127.939 220.916 128.43 221.112 128.96 221.112C129.509 221.112 130 220.897 130.353 220.543L135.219 215.678C135.572 215.324 135.788 214.834 135.788 214.285C135.788 213.735 135.552 213.264 135.199 212.911Z" fill="#DF2025"/>
<path d="M110.261 229.255L104.375 280.268M95.546 231.217L71.0204 284.192M85.7357 219.444C85.7357 219.444 60.0256 234.392 43.5516 243.97" stroke="black" stroke-linecap="round"/>
<path d="M67.3779 101.642L75.9175 110.101L86.786 99.3349L85.2334 97.7969L75.9175 107.025L68.9306 100.104H74.3648V97.7969H65.049V107.025H67.3779V101.642ZM94.0989 118.821C89.1943 114.204 82.6842 111.632 75.9175 111.639C68.8685 111.639 62.4716 114.377 57.736 118.821C57.4566 119.098 57.2858 119.483 57.2858 119.913C57.2858 120.344 57.4566 120.728 57.736 121.005L61.5866 124.82C61.8661 125.096 62.2542 125.266 62.689 125.266C63.1082 125.266 63.4963 125.096 63.7758 124.835C65.0024 123.697 66.3998 122.743 67.9058 121.99C68.4182 121.744 68.7753 121.221 68.7753 120.605V115.838C71.0267 115.099 73.4333 114.715 75.9175 114.715C78.4017 114.715 80.8083 115.099 83.0597 115.822V120.59C83.0597 121.19 83.4168 121.728 83.9291 121.974C85.4507 122.728 86.8326 123.697 88.0747 124.82C88.3542 125.096 88.7423 125.25 89.1615 125.25C89.5963 125.25 89.9844 125.081 90.2639 124.804L94.1145 120.99C94.3939 120.713 94.5647 120.329 94.5647 119.898C94.5647 119.467 94.3784 119.098 94.0989 118.821Z" fill="#DF2025"/>
<path d="M50.4543 106.647L6.38544 80.2858M54.7231 92.4289L16.5382 48.2722M69.4899 88.3337C69.4899 88.3337 66.4494 58.7498 64.5013 39.7938" stroke="black" stroke-linecap="round"/>
</g>
<defs>
<filter id="filter0_d_1543_2251" x="0.885376" y="0.905273" width="337.115" height="308.799" filterUnits="userSpaceOnUse" color-interpolation-filters="sRGB">
<feFlood flood-opacity="0" result="BackgroundImageFix"/>
<feColorMatrix in="SourceAlpha" type="matrix" values="0 0 0 0 0 0 0 0 0 0 0 0 0 0 0 0 0 0 127 0" result="hardAlpha"/>
<feOffset/>
<feGaussianBlur stdDeviation="2.5"/>
<feComposite in2="hardAlpha" operator="out"/>
<feColorMatrix type="matrix" values="0 0 0 0 0 0 0 0 0 0 0 0 0 0 0 0 0 0 0.25 0"/>
<feBlend mode="normal" in2="BackgroundImageFix" result="effect1_dropShadow_1543_2251"/>
<feBlend mode="normal" in="SourceGraphic" in2="effect1_dropShadow_1543_2251" result="shape"/>
</filter>
</defs>
</svg>
