<svg width="294" height="312" viewBox="0 0 294 312" fill="none" xmlns="http://www.w3.org/2000/svg">
<g filter="url(#filter0_d_1511_3240)">
<path d="M126.622 284.99C119.621 284.99 112.081 280.951 106.156 273.949L109.388 271.257C115.582 278.527 123.391 282.028 130.123 280.412C138.471 278.258 141.972 268.294 143.588 263.447C151.128 241.635 139.01 219.283 132.547 207.165C126.084 195.047 117.736 184.006 107.503 174.312L110.465 171.35C120.967 181.313 129.585 192.893 136.317 205.28C142.511 217.129 155.706 241.365 147.627 265.063C146.011 270.179 141.703 282.028 131.2 284.721C129.585 284.99 127.969 284.99 126.622 284.99Z" fill="#EFEFEF"/>
<path d="M113.697 180.236L109.658 178.89C111.543 172.966 110.466 166.772 106.695 163.002C103.733 160.04 98.6168 158.424 93.7695 158.963C89.9995 159.501 87.0372 161.117 85.4214 163.54C83.2671 167.041 83.5364 172.696 86.7679 177.544L83.2671 179.698C79.497 173.504 78.9585 166.233 81.9207 161.386C84.075 157.885 88.3836 155.462 93.5001 154.923C99.6938 154.385 105.888 156.27 109.658 160.309C114.505 164.887 116.121 172.696 113.697 180.236Z" fill="#EFEFEF"/>
<path d="M44.7588 282.568C42.3352 272.066 36.4108 237.866 56.0691 205.82C66.3021 189.124 89.7303 163.542 106.965 168.927C130.932 176.198 130.932 238.405 130.932 249.984C130.932 265.064 129.047 277.99 127.162 287.685C99.6941 286.069 72.2265 284.453 44.7588 282.568Z" fill="#FFCE33"/>
<path d="M47.7206 212.284C44.4891 212.015 40.1805 225.749 36.6797 239.213C33.7175 250.793 29.6782 267.489 25.9081 287.955C53.3758 288.763 80.8435 289.301 108.58 290.109C114.774 289.301 120.968 288.493 127.161 287.686C129.585 277.452 131.739 263.988 132.009 248.369C132.278 231.942 130.124 217.939 127.7 207.167C122.583 206.629 113.966 206.09 103.733 207.706C77.3425 211.745 59.8387 227.634 52.2986 220.632C49.0671 217.67 49.8749 212.284 47.7206 212.284Z" fill="#EFEFEF"/>
<path d="M111.812 227.093H71.6873C70.0715 227.093 68.725 225.746 68.725 224.13V193.7C68.725 192.085 70.0715 190.738 71.6873 190.738H111.812C113.427 190.738 114.774 192.085 114.774 193.7V224.13C114.774 225.746 113.427 227.093 111.812 227.093Z" fill="#240100"/>
<path d="M101.579 210.935H81.9203C81.1124 210.935 80.5739 210.397 80.5739 209.589V200.971C80.5739 200.164 81.1124 199.625 81.9203 199.625H101.579C102.386 199.625 102.925 200.164 102.925 200.971V209.589C102.925 210.397 102.386 210.935 101.579 210.935Z" fill="white"/>
<path d="M103.464 226.287L64.4164 235.712C62.8006 235.982 61.1849 235.174 60.9156 233.558L53.9139 203.936C53.6446 202.32 54.4527 200.704 56.0684 200.435L95.1156 191.01C96.7313 190.741 98.347 191.549 98.6163 193.164L105.618 222.786C106.156 224.133 105.079 225.749 103.464 226.287Z" fill="#5A78EC"/>
<path d="M90.5376 212.824L71.4178 217.402C70.61 217.671 70.0715 217.133 69.8022 216.325L67.9171 207.977C67.6478 207.169 68.1864 206.63 68.9943 206.361L88.1139 201.783C88.9218 201.514 89.4605 202.052 89.7297 202.86L91.6147 211.208C91.8839 212.016 91.3455 212.824 90.5376 212.824Z" fill="white"/>
<path d="M126.892 203.666C131.47 210.129 107.234 249.715 78.689 246.214C58.2229 243.791 42.0655 219.824 46.1049 212.822C48.5285 208.514 58.2229 216.054 78.1504 212.822C88.3835 211.207 91.615 208.244 108.042 205.013C119.621 202.859 125.546 201.781 126.892 203.666Z" fill="#FFCE33"/>
<path d="M127.161 205.55C126.892 205.281 126.892 205.012 126.623 204.742C126.623 204.473 126.623 204.204 126.623 204.204C126.892 203.935 126.892 203.935 127.431 203.935C127.7 203.935 128.239 204.204 128.508 204.742C128.777 205.012 128.777 205.281 128.777 205.55C128.777 205.82 128.777 206.089 128.777 206.089C128.777 206.627 128.508 206.897 128.508 206.897C127.969 206.897 127.431 206.358 127.161 205.55Z" fill="#240100"/>
<path d="M126.084 205.281C126.084 205.012 126.354 204.742 126.354 204.473C126.623 204.204 126.623 203.935 126.892 203.935C127.161 203.935 127.431 203.935 127.7 204.204C127.969 204.473 127.969 205.012 127.969 205.55C127.7 206.358 127.161 206.897 126.623 206.897C126.084 206.627 126.084 205.82 126.084 205.281Z" fill="#240100"/>
<path d="M126.623 208.512C126.353 207.705 126.623 206.897 127.161 206.897C127.7 206.627 128.238 207.166 128.508 208.243C128.777 209.051 128.508 210.128 127.969 210.128C127.431 210.128 126.892 209.32 126.623 208.512Z" fill="#240100"/>
<path d="M126.084 207.974C126.353 207.166 127.161 206.896 127.431 206.896C127.969 207.166 127.969 207.974 127.7 208.781C127.161 209.589 126.623 209.859 126.084 209.589C125.545 209.32 125.545 208.512 126.084 207.974Z" fill="#240100"/>
<path d="M125.815 211.474C125.815 210.666 126.084 209.858 126.623 209.858C127.161 209.858 127.7 210.397 127.7 211.205C127.7 212.013 127.431 212.821 126.892 212.821C126.354 213.09 125.815 212.282 125.815 211.474Z" fill="#240100"/>
<path d="M125.277 210.665C125.815 209.857 126.354 209.588 126.892 209.857C127.431 210.126 127.162 210.934 126.892 211.742C126.354 212.55 125.546 212.819 125.277 212.55C124.469 212.011 124.738 211.473 125.277 210.665Z" fill="#240100"/>
<path d="M124.469 214.436C124.469 213.628 124.738 212.82 125.277 212.82C125.816 212.82 126.354 213.359 126.354 214.436C126.354 215.244 125.816 216.052 125.546 216.052C125.008 215.783 124.469 215.244 124.469 214.436Z" fill="#240100"/>
<path d="M123.931 213.358C124.469 212.82 125.277 212.281 125.546 212.82C125.816 213.089 125.816 213.897 125.277 214.705C124.738 215.513 123.931 215.513 123.661 215.243C123.392 214.974 123.392 214.166 123.931 213.358Z" fill="#240100"/>
<path d="M123.122 217.128C123.122 216.321 123.661 215.513 124.199 215.513C124.738 215.513 125.007 216.321 125.007 217.128C125.007 217.936 124.468 218.744 123.93 218.744C123.391 218.744 123.122 217.936 123.122 217.128Z" fill="#240100"/>
<path d="M122.583 216.051C123.122 215.512 123.93 215.243 124.468 215.512C124.738 215.781 124.738 216.589 123.93 217.397C123.391 217.936 122.583 218.205 122.045 217.935C121.776 217.397 122.045 216.858 122.583 216.051Z" fill="#240100"/>
<path d="M121.507 219.824C121.507 219.016 122.045 218.208 122.584 218.208C123.122 218.208 123.392 219.016 123.392 219.824C123.392 220.632 122.853 221.44 122.315 221.44C121.776 221.44 121.507 220.632 121.507 219.824Z" fill="#240100"/>
<path d="M121.237 218.747C121.776 218.208 122.584 217.939 123.122 218.208C123.392 218.477 123.392 219.285 122.584 220.093C122.045 220.632 121.237 220.901 120.699 220.363C120.16 220.093 120.429 219.285 121.237 218.747Z" fill="#240100"/>
<path d="M119.89 222.245C119.89 221.437 120.429 220.629 120.967 220.899C121.506 220.899 121.775 221.706 121.775 222.514C121.775 223.322 121.237 224.13 120.698 223.861C119.89 223.861 119.621 223.053 119.89 222.245Z" fill="#240100"/>
<path d="M119.352 221.437C119.89 220.898 120.698 220.629 121.236 221.168C121.506 221.437 121.237 222.245 120.698 222.783C120.159 223.322 119.082 223.591 118.813 223.053C118.544 222.514 118.813 221.975 119.352 221.437Z" fill="#240100"/>
<path d="M118.006 224.671C118.275 223.863 118.813 223.055 119.083 223.324C119.621 223.324 119.891 224.132 119.621 224.94C119.352 225.748 118.813 226.556 118.275 226.287C118.006 226.556 117.736 225.748 118.006 224.671Z" fill="#240100"/>
<path d="M117.736 223.862C118.544 223.324 119.352 223.324 119.621 223.593C119.891 223.862 119.621 224.67 118.813 225.209C118.006 225.747 117.198 225.747 116.928 225.478C116.659 224.939 116.928 224.401 117.736 223.862Z" fill="#240100"/>
<path d="M116.121 227.095C116.39 226.287 116.928 225.748 117.467 225.748C118.006 225.748 118.275 226.556 118.006 227.633C117.736 228.441 117.198 228.979 116.659 228.979C116.121 228.979 115.851 228.172 116.121 227.095Z" fill="#240100"/>
<path d="M115.851 226.286C116.659 225.747 117.467 225.747 117.736 226.017C118.006 226.286 117.736 227.094 116.929 227.632C116.121 228.171 115.313 228.171 115.043 227.902C114.774 227.363 115.043 226.555 115.851 226.286Z" fill="#240100"/>
<path d="M113.966 229.517C114.235 228.709 114.774 228.171 115.313 228.171C115.851 228.171 116.12 229.248 115.851 230.056C115.582 230.864 115.043 231.402 114.505 231.402C113.966 231.133 113.697 230.325 113.966 229.517Z" fill="#240100"/>
<path d="M113.697 228.44C114.505 227.901 115.313 227.901 115.582 228.44C115.851 228.979 115.582 229.517 114.774 230.056C113.966 230.594 113.158 230.594 112.889 230.056C112.62 229.786 113.158 228.979 113.697 228.44Z" fill="#240100"/>
<path d="M111.812 231.672C112.081 230.864 112.62 230.325 113.158 230.594C113.697 230.864 113.697 231.672 113.428 232.48C113.158 233.287 112.62 233.826 112.081 233.826C111.812 233.287 111.543 232.479 111.812 231.672Z" fill="#240100"/>
<path d="M111.812 230.593C112.62 230.055 113.427 230.055 113.697 230.593C113.966 231.132 113.427 231.671 112.889 232.209C112.081 232.748 111.273 232.748 111.004 232.209C110.465 231.94 111.004 231.132 111.812 230.593Z" fill="#240100"/>
<path d="M109.657 233.825C109.927 233.017 110.465 232.478 111.004 232.748C111.542 233.017 111.543 233.825 111.273 234.633C111.004 235.441 110.196 235.979 109.927 235.71C109.388 235.441 109.388 234.633 109.657 233.825Z" fill="#240100"/>
<path d="M109.388 232.748C110.196 232.479 111.004 232.479 111.273 232.748C111.543 233.286 111.004 233.825 110.196 234.364C109.388 234.902 108.58 234.633 108.311 234.364C108.311 233.825 108.85 233.286 109.388 232.748Z" fill="#240100"/>
<path d="M107.234 235.979C107.503 235.171 108.311 234.633 108.58 234.902C109.119 235.171 109.119 235.979 108.85 236.787C108.58 237.595 107.772 238.134 107.234 237.864C106.965 237.595 106.965 236.787 107.234 235.979Z" fill="#240100"/>
<path d="M107.234 234.902C108.042 234.633 108.849 234.633 109.119 235.172C109.388 235.71 108.85 236.249 108.042 236.787C107.234 237.057 106.426 237.057 106.157 236.518C105.887 235.98 106.426 235.172 107.234 234.902Z" fill="#240100"/>
<path d="M104.81 237.864C105.349 237.056 105.887 236.518 106.426 236.787C106.965 237.056 106.965 237.864 106.426 238.672C105.887 239.48 105.349 240.018 104.81 239.749C104.541 239.48 104.541 238.672 104.81 237.864Z" fill="#240100"/>
<path d="M104.81 236.787C105.618 236.518 106.426 236.518 106.695 237.057C106.965 237.595 106.426 238.134 105.618 238.403C104.81 238.672 104.002 238.672 103.733 238.134C103.464 237.595 104.002 237.057 104.81 236.787Z" fill="#240100"/>
<path d="M102.387 239.481C102.925 238.673 103.464 238.404 104.003 238.673C104.541 238.943 104.541 239.75 104.003 240.558C103.464 241.366 102.925 241.635 102.387 241.366C101.848 241.097 101.848 240.289 102.387 239.481Z" fill="#240100"/>
<path d="M102.387 238.402C103.195 238.133 104.003 238.133 104.272 238.672C104.541 239.21 104.003 239.749 103.195 240.018C102.387 240.287 101.579 240.018 101.31 239.749C101.041 239.48 101.579 238.672 102.387 238.402Z" fill="#240100"/>
<path d="M99.6936 241.097C100.232 240.289 101.04 240.02 101.309 240.289C101.848 240.559 101.579 241.367 101.309 242.174C100.771 242.982 99.9629 243.252 99.6936 242.982C99.155 242.713 99.155 241.905 99.6936 241.097Z" fill="#240100"/>
<path d="M99.6937 240.021C100.502 239.751 101.31 240.021 101.579 240.559C101.848 241.098 101.04 241.636 100.232 241.906C99.4245 242.175 98.6166 241.906 98.3473 241.367C98.3473 240.829 98.8859 240.29 99.6937 240.021Z" fill="#240100"/>
<path d="M97.0014 242.712C97.5399 241.904 98.3479 241.634 98.6172 241.904C99.1558 242.173 98.8864 242.981 98.3478 243.789C97.8092 244.597 97.0014 244.866 96.7321 244.597C96.1935 244.058 96.4628 243.25 97.0014 242.712Z" fill="#240100"/>
<path d="M97.0011 241.634C97.809 241.365 98.617 241.634 98.617 242.173C98.617 242.711 98.0784 243.25 97.2705 243.519C96.4626 243.788 95.6547 243.25 95.6547 242.98C95.6547 242.173 96.1932 241.634 97.0011 241.634Z" fill="#240100"/>
<path d="M94.039 243.788C94.5776 243.249 95.3854 242.98 95.6547 243.249C95.924 243.519 95.924 244.326 95.3854 245.134C94.8469 245.942 94.039 245.942 93.5004 245.673C93.2311 245.134 93.5004 244.596 94.039 243.788Z" fill="#240100"/>
<path d="M94.308 242.712C95.1159 242.712 95.9239 242.981 95.9239 243.52C95.9239 244.058 95.3853 244.597 94.5774 244.597C93.7695 244.597 92.9615 244.328 92.9615 243.789C92.9615 243.25 93.5001 242.981 94.308 242.712Z" fill="#240100"/>
<path d="M91.3463 244.865C91.8849 244.326 92.6928 244.057 93.2313 244.326C93.5006 244.596 93.5006 245.403 92.6927 246.211C92.1541 246.75 91.0769 247.019 90.8077 246.481C90.2691 246.211 90.5384 245.403 91.3463 244.865Z" fill="#240100"/>
<path d="M91.6151 243.789C92.4229 243.789 93.2309 244.058 93.2309 244.597C93.2309 245.136 92.6922 245.674 91.6151 245.674C90.8072 245.674 89.9994 245.135 89.9994 244.866C89.9994 244.328 90.8072 243.789 91.6151 243.789Z" fill="#240100"/>
<path d="M88.3834 245.674C89.1913 245.135 89.7297 245.135 90.2683 245.404C90.5376 245.674 90.2684 246.482 89.7299 247.289C88.922 247.828 88.1141 247.828 87.8448 247.559C87.3062 246.751 87.5755 245.943 88.3834 245.674Z" fill="#240100"/>
<path d="M88.6531 244.597C89.461 244.597 90.2688 245.135 90.2688 245.674C90.2688 246.212 89.461 246.751 88.6531 246.482C87.8453 246.482 87.0375 245.943 87.0375 245.405C87.0375 244.866 87.8453 244.597 88.6531 244.597Z" fill="#240100"/>
<path d="M85.1518 245.944C85.9597 245.405 86.7676 245.405 87.0369 245.944C87.3062 246.213 87.0368 247.021 86.2289 247.56C85.421 248.098 84.6133 248.098 84.344 247.56C84.0747 247.29 84.6132 246.483 85.1518 245.944Z" fill="#240100"/>
<path d="M85.6905 245.136C86.4984 245.405 87.3063 245.675 87.037 246.213C87.037 246.752 86.229 247.021 85.4211 247.021C84.6133 246.752 83.8054 246.483 84.0747 245.944C84.0747 245.136 84.8826 244.867 85.6905 245.136Z" fill="#240100"/>
<path d="M82.1902 246.214C82.9981 245.944 83.806 245.944 84.0753 246.214C84.3446 246.752 83.8061 247.291 82.9982 247.829C82.1903 248.099 81.3824 248.099 81.1131 247.829C80.8439 247.291 81.3823 246.483 82.1902 246.214Z" fill="#240100"/>
<path d="M82.7287 245.138C83.5366 245.407 84.0751 245.946 84.0751 246.484C84.0751 247.023 83.2672 247.292 82.1901 247.023C81.3822 246.753 80.8436 246.215 80.8436 245.676C81.1129 245.138 81.9208 245.138 82.7287 245.138Z" fill="#240100"/>
<path d="M79.2278 245.944C80.0357 245.675 80.8436 245.675 81.1129 246.214C81.3821 246.752 80.8435 247.291 80.0356 247.56C79.2278 247.829 78.4199 247.83 78.1506 247.291C77.612 246.752 78.4199 246.214 79.2278 245.944Z" fill="#240100"/>
<path d="M79.7665 245.137C80.5744 245.406 81.1129 245.945 80.8436 246.483C80.5743 247.022 79.7666 247.022 78.9587 246.753C78.1508 246.483 77.6122 245.675 77.8814 245.406C78.1507 244.868 78.9586 244.868 79.7665 245.137Z" fill="#240100"/>
<path d="M75.9963 245.404C76.8041 245.135 77.612 245.404 77.8813 245.943C78.1506 246.482 77.3428 247.02 76.5349 247.29C75.727 247.559 74.9191 247.29 74.6498 246.751C74.6498 246.212 75.1884 245.674 75.9963 245.404Z" fill="#240100"/>
<path d="M76.8045 244.866C77.6123 245.135 78.151 245.943 77.8817 246.481C77.6124 247.02 76.8045 247.02 75.9966 246.751C75.1887 246.481 74.6503 245.673 74.9195 245.135C75.1888 244.327 75.9966 244.327 76.8045 244.866Z" fill="#240100"/>
<path d="M73.0337 244.596C73.8416 244.327 74.6494 244.596 74.6494 245.134C74.6494 245.673 74.1108 246.212 73.3029 246.212C72.495 246.481 71.6871 245.942 71.4178 245.404C71.6871 245.404 72.2258 244.865 73.0337 244.596Z" fill="#240100"/>
<path d="M73.8416 244.057C74.6495 244.596 74.9187 245.134 74.6494 245.673C74.3801 246.212 73.5722 246.212 72.7644 245.673C71.9565 245.134 71.6872 244.327 71.9565 244.057C72.4951 243.519 73.303 243.519 73.8416 244.057Z" fill="#240100"/>
<path d="M70.3413 243.519C71.1492 243.519 71.957 243.788 71.957 244.326C71.957 244.865 71.4185 245.404 70.3413 245.404C69.5334 245.404 68.7255 245.134 68.7255 244.596C68.7255 244.057 69.2641 243.788 70.3413 243.519Z" fill="#240100"/>
<path d="M71.1492 242.98C71.6878 243.519 72.2263 244.327 71.9571 244.596C71.6878 245.135 70.8799 244.865 70.072 244.327C69.2641 243.788 68.995 242.98 69.5335 242.711C69.5335 242.442 70.3413 242.442 71.1492 242.98Z" fill="#240100"/>
<path d="M67.3796 242.443C68.1875 242.443 68.9955 242.712 68.9955 243.25C68.9955 243.789 68.1875 244.058 67.3796 244.058C66.5717 244.058 65.7639 243.52 65.7639 242.981C65.7639 242.712 66.5717 242.173 67.3796 242.443Z" fill="#240100"/>
<path d="M68.4566 241.904C68.9952 242.442 69.2645 243.25 68.9953 243.519C68.726 243.789 67.9181 243.789 67.1102 243.25C66.5716 242.712 66.3023 241.904 66.5716 241.365C66.8409 241.096 67.6488 241.096 68.4566 241.904Z" fill="#240100"/>
<path d="M64.6864 240.827C65.4942 240.827 66.3022 241.366 66.3022 241.904C66.3022 242.443 65.4942 242.712 64.6864 242.712C63.8785 242.712 63.0707 242.174 63.0707 241.635C63.0707 241.096 63.8785 240.827 64.6864 240.827Z" fill="#240100"/>
<path d="M65.7638 240.288C66.3024 240.826 66.5717 241.634 66.3024 242.173C66.0331 242.442 65.2252 242.442 64.4174 241.634C63.8788 241.096 63.6096 240.288 64.1481 239.749C64.4174 239.48 65.2252 239.749 65.7638 240.288Z" fill="#240100"/>
<path d="M62.2626 239.212C63.0705 239.482 63.8784 239.751 63.6091 240.289C63.6091 240.828 62.8011 241.097 61.9932 241.097C61.1854 240.828 60.3775 240.289 60.6468 240.02C60.6468 239.212 61.4548 238.943 62.2626 239.212Z" fill="#240100"/>
<path d="M63.0706 238.674C63.6092 239.212 63.8784 240.02 63.3398 240.559C63.0705 240.828 62.2627 240.559 61.7241 240.02C61.1856 239.212 60.9163 238.404 61.4549 238.135C61.9935 237.866 62.532 238.135 63.0706 238.674Z" fill="#240100"/>
<path d="M59.8391 237.324C60.647 237.594 61.1856 238.132 61.1856 238.671C61.1856 239.209 60.3777 239.479 59.3005 239.209C58.4927 238.94 57.6848 238.402 57.9541 237.863C58.2234 237.324 59.0313 237.055 59.8391 237.324Z" fill="#240100"/>
<path d="M60.6472 236.786C61.1858 237.594 61.1859 238.401 60.9166 238.671C60.6473 238.94 59.8393 238.671 59.3007 237.863C58.7622 237.055 58.7622 236.247 59.0315 235.978C59.5701 235.709 60.3779 236.247 60.6472 236.786Z" fill="#240100"/>
<path d="M57.4155 235.171C58.2233 235.44 58.7619 235.979 58.7619 236.518C58.7619 237.056 57.954 237.325 56.8769 237.056C56.069 236.787 55.5304 236.248 55.5304 235.71C55.7997 235.171 56.6076 234.902 57.4155 235.171Z" fill="#240100"/>
<path d="M58.4924 234.902C59.0309 235.71 59.0309 236.518 58.4924 236.787C57.9538 237.056 57.4153 236.787 56.8767 235.979C56.3381 235.171 56.3381 234.363 56.8767 234.094C57.4153 233.825 57.9538 234.094 58.4924 234.902Z" fill="#240100"/>
<path d="M55.261 233.018C56.0689 233.287 56.6075 233.826 56.3382 234.364C56.0689 234.903 55.261 234.903 54.4532 234.633C53.6453 234.364 53.1068 233.556 53.3761 233.287C53.6454 232.748 54.4531 232.748 55.261 233.018Z" fill="#240100"/>
<path d="M56.3383 232.748C56.6076 233.556 56.8769 234.363 56.3383 234.633C55.7998 234.902 55.2612 234.363 54.7227 233.825C54.1841 233.017 54.4534 232.209 54.7227 231.94C55.2612 231.671 55.7998 231.94 56.3383 232.748Z" fill="#240100"/>
<path d="M53.1071 230.595C53.915 230.864 54.4536 231.672 54.1843 231.941C53.915 232.48 53.1071 232.48 52.2992 232.21C51.4914 231.941 50.9527 231.133 51.222 230.595C51.4913 230.325 52.2992 230.325 53.1071 230.595Z" fill="#240100"/>
<path d="M54.1841 230.594C54.4534 231.402 54.4534 232.21 54.1841 232.48C53.6455 232.749 53.1068 232.21 52.5683 231.402C52.299 230.594 52.2991 229.787 52.8377 229.517C53.3762 229.248 53.9148 229.787 54.1841 230.594Z" fill="#240100"/>
<path d="M51.2219 228.172C52.0298 228.71 52.5684 229.249 52.2992 229.787C52.0299 230.326 51.222 230.326 50.4141 229.787C49.6062 229.249 49.0677 228.71 49.337 228.172C49.6063 227.902 50.6833 227.902 51.2219 228.172Z" fill="#240100"/>
<path d="M52.299 228.172C52.5683 228.979 52.5684 229.787 52.0298 230.057C51.4912 230.326 50.9526 229.787 50.6833 228.979C50.414 228.172 50.414 227.364 50.9525 227.094C51.4911 226.825 52.0297 227.364 52.299 228.172Z" fill="#240100"/>
<path d="M49.6063 225.746C50.4142 226.284 50.6835 226.823 50.4142 227.361C50.1449 227.9 49.337 227.9 48.5291 227.361C47.7212 226.823 47.452 226.015 47.7213 225.746C47.9905 225.207 48.7985 225.207 49.6063 225.746Z" fill="#240100"/>
<path d="M50.6832 225.746C50.9525 226.554 50.6831 227.362 50.4138 227.631C49.8752 227.9 49.3367 227.362 49.0674 226.284C48.7981 225.477 49.0674 224.669 49.606 224.399C49.8753 224.399 50.4139 224.938 50.6832 225.746Z" fill="#240100"/>
<path d="M47.9903 223.053C48.7982 223.592 49.0675 224.399 48.7982 224.669C48.5289 225.207 47.721 224.938 46.9131 224.4C46.1052 223.861 45.836 223.053 46.1053 222.784C46.6438 222.245 47.4517 222.515 47.9903 223.053Z" fill="#240100"/>
<path d="M49.0672 223.053C49.3365 223.86 49.0672 224.668 48.5286 224.668C47.99 224.937 47.4515 224.13 47.1822 223.322C46.9129 222.514 47.1822 221.706 47.7208 221.706C48.5287 221.706 49.0672 222.245 49.0672 223.053Z" fill="#240100"/>
<path d="M46.9129 220.092C47.4515 220.63 47.7208 221.438 47.4515 221.707C47.1823 221.977 46.3744 221.977 45.5665 221.438C45.0279 220.899 44.7586 219.822 45.0279 219.553C45.5665 219.284 46.3744 219.553 46.9129 220.092Z" fill="#240100"/>
<path d="M47.9904 220.362C47.9904 221.17 47.721 221.978 47.1824 221.978C46.6438 221.978 46.1053 221.439 46.1053 220.631C46.1053 219.823 46.3746 219.016 46.9132 219.016C47.4518 219.016 47.7211 219.554 47.9904 220.362Z" fill="#240100"/>
<path d="M46.1048 217.129C46.6434 217.937 46.6433 218.475 46.3741 219.014C46.1048 219.283 45.297 219.014 44.7584 218.475C44.2198 217.667 44.2197 216.86 44.489 216.59C44.7583 216.052 45.5662 216.59 46.1048 217.129Z" fill="#240100"/>
<path d="M47.182 217.667C47.182 218.475 46.6435 219.283 46.1049 219.283C45.5664 219.283 45.0278 218.475 45.2971 217.667C45.2971 216.859 45.8356 216.051 46.3742 216.32C46.9127 216.32 47.182 216.859 47.182 217.667Z" fill="#240100"/>
<path d="M46.105 214.437C46.3743 215.245 46.3742 215.784 45.8356 216.053C45.297 216.322 44.7585 215.784 44.2199 214.976C43.9507 213.899 44.4892 212.821 45.0278 212.821C45.5664 212.821 45.8357 213.629 46.105 214.437Z" fill="#240100"/>
<path d="M46.9128 214.977C46.6435 215.516 46.1049 216.324 45.5664 216.054C45.0278 216.054 44.7586 214.977 45.2971 214.169C45.5664 213.631 45.8357 213.361 46.105 213.361C46.3743 213.361 46.6435 213.361 46.9128 213.361C47.1821 213.9 47.1821 214.439 46.9128 214.977Z" fill="#240100"/>
<path d="M83.8056 250.522C74.6497 250.522 61.9931 247.021 52.8372 236.788C46.9128 230.056 44.4892 222.516 43.412 217.399V217.13H43.6812C44.7584 222.246 47.182 229.517 53.1064 236.25C62.2623 246.483 75.1882 249.983 84.0748 249.983C103.464 249.714 121.506 233.557 127.7 210.667C127.7 210.667 127.7 210.667 127.969 210.667C127.969 210.667 127.969 210.667 127.969 210.936C124.738 222.247 118.813 232.21 110.735 239.481C102.925 246.483 93.2307 250.522 84.0748 250.522H83.8056Z" fill="#240100"/>
<path d="M114.774 203.934C114.505 203.665 114.505 203.665 114.774 203.665C116.928 202.588 119.083 202.318 121.506 202.318C121.506 202.318 121.506 202.318 121.775 202.318C123.391 202.318 125.276 202.588 126.892 203.126C126.892 203.126 126.892 203.126 126.892 203.395C126.892 203.395 126.892 203.395 126.623 203.395C125.007 202.857 123.391 202.588 121.775 202.588C121.775 202.588 121.775 202.588 121.506 202.588C119.083 202.588 116.928 203.126 114.774 203.934Z" fill="#240100"/>
<path d="M56.0686 213.09L52.2985 212.551C52.2985 212.551 52.0292 212.551 52.2985 212.282C52.2985 212.282 52.2985 212.013 52.5677 212.282L56.0686 212.82C56.0686 212.551 56.3379 212.82 56.0686 213.09C56.0686 212.82 56.0686 213.09 56.0686 213.09Z" fill="#240100"/>
<path d="M83.2669 187.776L81.6512 183.737V183.468H81.9205L83.2669 187.776C83.5362 187.776 83.5362 187.776 83.2669 187.776Z" fill="#240100"/>
<path d="M85.9595 189.123C85.6902 189.123 85.6902 188.853 85.9595 189.123L85.6903 186.699C85.6903 186.699 85.6902 186.43 85.9595 186.43C85.9595 186.43 86.2288 186.43 86.2288 186.699L85.9595 189.123C85.9595 188.853 85.9595 189.123 85.9595 189.123Z" fill="#240100"/>
<path d="M94.0383 189.932C94.0383 189.932 93.769 189.932 94.0383 189.932L95.654 179.429C95.654 179.429 95.6541 179.16 95.9233 179.429C95.9233 179.429 96.1926 179.429 95.9233 179.699L94.0383 189.932C94.3076 189.932 94.0383 189.932 94.0383 189.932Z" fill="#240100"/>
<path d="M101.04 189.124C101.04 189.124 101.04 188.854 101.04 189.124L101.848 186.7C101.848 186.7 101.848 186.7 102.117 186.7C102.117 186.7 102.117 186.7 102.117 186.969L101.04 189.124C101.309 189.124 101.309 189.124 101.04 189.124Z" fill="#240100"/>
<path d="M111.812 185.893L112.351 183.2C112.351 183.2 112.351 183.2 112.62 183.2C112.62 183.2 112.62 183.2 112.62 183.47L111.812 185.893C112.081 185.893 112.081 185.893 111.812 185.893Z" fill="#240100"/>
<path d="M67.9174 223.591L70.0716 218.475C70.0716 218.475 70.0717 218.475 70.341 218.475C70.341 218.475 70.341 218.475 70.341 218.744L67.9174 223.591C68.1866 223.591 68.1866 223.591 67.9174 223.591Z" fill="#240100"/>
<path d="M75.1881 221.17V216.861C75.1881 216.861 75.188 216.592 75.4573 216.592C75.4573 216.592 75.7267 216.592 75.7267 216.861L75.1881 221.17C75.4574 221.17 75.1881 221.17 75.1881 221.17Z" fill="#240100"/>
<path d="M84.8827 223.056L83.5363 215.785V215.516H83.8056L84.8827 223.056C85.152 223.056 85.152 223.056 84.8827 223.056Z" fill="#240100"/>
<path d="M104.002 224.938C104.002 224.938 104.002 224.668 104.002 224.938L101.309 211.204V210.935H101.578L104.002 224.938C104.271 224.668 104.271 224.938 104.002 224.938Z" fill="#240100"/>
<path d="M91.8844 284.453C72.7648 284.453 53.3758 283.376 34.2561 280.952C33.9868 280.683 42.8735 243.252 42.8735 243.252C42.8735 243.252 42.8734 243.252 43.1427 243.252C51.4907 248.099 64.6861 253.485 81.6514 253.485C82.7286 253.485 83.5364 253.485 84.6136 253.485C101.848 252.946 115.043 246.752 123.122 241.636C123.122 241.636 123.122 241.636 123.392 241.636C123.392 241.636 123.392 241.636 123.392 241.905L118.814 283.914C118.814 283.914 118.813 284.184 118.544 284.184C111.004 284.722 103.464 284.992 95.9238 284.992C94.8466 284.453 93.5002 284.453 91.8844 284.453ZM34.5255 280.683C53.6452 283.107 72.7648 284.184 91.8844 284.184C93.2309 284.184 94.5773 284.184 96.193 284.184C103.733 284.184 111.273 283.914 118.814 283.376L123.122 241.905C115.043 247.022 101.848 252.946 84.6136 253.754C66.3018 254.562 52.0293 248.637 43.1427 243.521L34.5255 280.683Z" fill="#240100"/>
<path d="M41.5268 257.254C40.9882 257.524 40.1803 257.793 38.8339 257.793C36.9488 257.793 35.6024 256.446 35.3331 256.177C36.6796 253.754 38.026 251.33 39.6417 248.906C40.1803 249.176 40.4496 249.714 40.9882 249.983C40.9882 252.138 41.2575 254.831 41.5268 257.254Z" fill="#240100"/>
<path d="M180.75 169.736C175.364 168.121 169.709 166.505 164.323 164.889C157.052 164.351 155.706 163.543 155.706 163.004C155.706 162.466 156.783 161.388 165.4 159.503C164.592 155.733 163.784 151.694 162.976 147.924C165.669 148.462 168.093 148.732 170.786 149.27C174.556 153.04 178.057 156.81 181.827 160.581C190.713 163.004 199.869 165.428 208.756 167.851C203.101 172.699 197.446 177.277 191.791 182.124C188.021 178.084 184.25 173.776 180.75 169.736Z" fill="#F7A39C"/>
<path d="M232.454 280.953C212.257 278.798 192.33 276.375 172.133 274.22C164.054 270.181 155.706 265.872 147.627 261.833C153.013 258.063 159.745 254.293 167.824 251.061C194.215 240.828 218.451 244.329 230.569 247.291C231.377 258.332 231.915 269.642 232.454 280.953Z" fill="#5A78EC"/>
<path d="M221.144 290.918C204.447 261.565 186.674 217.132 185.866 216.324C183.981 214.17 180.75 211.208 176.441 208.246C170.786 204.475 167.824 204.206 167.016 202.052C165.939 199.359 167.824 194.512 180.75 184.548C182.635 184.817 185.597 185.356 189.098 186.702C197.984 189.664 201.754 194.512 213.334 202.052C213.603 202.052 213.873 202.321 214.142 202.59C216.296 203.937 219.259 205.822 223.029 207.976C226.799 210.669 230.838 213.362 234.608 216.593C242.687 223.056 246.726 227.904 252.381 233.02C257.228 237.598 264.23 244.061 274.194 251.332C277.964 264.527 273.924 278.8 263.961 287.686C252.112 297.919 234.877 299.266 221.144 290.918Z" fill="#F7A39C"/>
<path d="M227.876 287.417C227.607 290.648 227.337 293.611 227.068 296.842C226.26 296.842 224.645 296.842 223.029 296.842C218.989 297.111 216.027 297.381 215.219 297.381C213.334 297.65 211.18 297.65 208.487 297.381C204.448 296.842 199.601 295.765 194.753 294.418C187.482 292.533 180.481 290.11 176.441 288.225C175.903 287.955 172.941 286.878 168.632 286.34C166.208 286.07 164.323 286.07 162.977 286.34C154.629 287.955 147.358 283.647 145.204 276.376C143.049 269.374 146.819 262.642 147.358 261.565C149.782 261.296 153.282 261.296 157.86 260.757C162.708 260.488 165.939 260.218 166.747 259.949C180.75 259.68 192.868 263.45 202.832 268.836C209.564 272.337 215.219 276.107 219.528 279.877C220.874 280.954 221.952 282.031 223.029 282.839C223.298 283.108 223.298 283.108 223.567 283.377C225.452 285.262 226.799 286.34 227.876 287.417Z" fill="#F7A39C"/>
<path d="M273.925 251.331C268 254.562 261.268 257.794 253.997 260.756C240.802 266.142 228.415 269.643 217.912 271.797C215.489 233.827 212.796 195.857 210.372 157.887C210.103 157.348 209.834 157.079 209.564 156.54C206.333 150.616 203.101 144.692 199.87 139.037C198.793 135.536 197.715 132.304 196.638 128.803C196.369 127.726 195.83 126.649 195.561 125.572C196.369 125.033 197.177 124.764 197.985 124.226C199.6 123.418 200.678 122.879 200.678 122.879C202.024 122.071 204.178 119.109 207.948 109.953C210.372 113.723 213.604 117.763 217.104 122.071C220.605 126.111 223.837 129.611 227.068 132.843C235.147 140.114 244.033 150.077 252.112 162.734C274.463 198.28 275.002 234.635 273.925 251.331Z" fill="#F7A39C"/>
<path d="M214.142 142.538C214.142 148.463 212.257 153.579 209.564 156.541C206.332 150.617 203.101 144.693 199.869 139.038C198.792 135.537 197.715 132.305 196.638 128.805C198.523 126.381 200.677 125.304 203.37 125.304C209.295 125.304 214.142 133.113 214.142 142.538Z" fill="#240100"/>
<path d="M220.066 97.028C219.528 98.6437 218.989 100.259 218.451 101.337C217.912 102.414 216.027 105.107 214.681 109.146C214.142 110.492 213.873 111.839 213.604 113.455C212.526 117.763 212.796 121.533 212.796 124.226C207.14 130.959 201.755 135.537 197.715 138.768C194.753 140.922 189.906 144.154 183.712 145.5C177.249 146.847 175.364 144.962 174.826 144.423C174.018 143.615 173.748 142.538 173.479 141.73C173.21 140.922 172.402 139.845 171.325 139.576C170.517 139.307 169.978 140.114 169.171 139.845C168.093 139.576 167.285 137.691 167.555 136.883C167.824 136.344 165.939 135.267 165.67 134.998C164.862 134.729 164.323 134.729 164.054 134.19C163.246 133.113 163.785 131.497 164.054 130.959C165.939 124.226 160.822 115.07 159.207 113.724C158.937 113.455 157.86 112.378 156.514 110.492C155.975 109.954 155.706 109.415 155.167 108.608C152.205 104.03 151.667 99.4515 151.128 96.7586C150.859 95.6815 150.859 94.6044 150.859 93.7965C150.589 88.68 151.397 84.102 152.205 81.1398C153.282 76.8311 155.706 69.8296 161.63 63.9052C163.515 62.0202 165.939 60.1351 168.632 58.5194C174.018 55.0186 179.134 53.6721 182.904 52.8643C192.599 53.1335 202.563 56.9036 209.564 63.9052C210.103 64.4438 210.641 64.9823 211.18 65.5209C219.797 74.9461 220.605 86.7949 220.066 97.028Z" fill="#F7A39C"/>
<path d="M165.67 129.073C165.131 128.804 164.323 128.534 163.246 128.804C162.169 128.804 161.9 129.342 161.092 129.073C160.822 129.073 160.015 128.804 159.207 128.265C159.207 128.265 158.129 127.457 158.129 126.38C157.86 125.034 158.937 123.956 159.207 123.418C160.015 122.341 160.822 120.186 161.092 115.608C162.438 117.763 163.785 119.648 165.131 121.802C165.131 124.226 165.4 126.649 165.67 129.073Z" fill="#F7A39C"/>
<path d="M157.861 117.226C157.591 117.226 157.591 117.226 157.591 117.226C157.322 116.956 157.322 116.687 157.322 116.418C158.13 115.341 159.476 113.994 161.361 113.186C163.785 112.109 166.209 112.648 167.286 112.917C167.555 112.917 167.824 113.456 167.824 113.725C167.824 113.994 167.286 114.264 167.016 114.264C165.939 113.994 164.054 113.725 161.9 114.533C160.015 115.341 158.938 116.418 158.399 117.226C158.399 116.956 158.13 117.226 157.861 117.226Z" fill="#240100"/>
<path d="M165.727 118.269C166.511 117.184 165.876 115.386 164.308 114.254C162.741 113.123 160.835 113.085 160.051 114.17C159.268 115.255 159.903 117.052 161.471 118.184C163.038 119.316 164.944 119.354 165.727 118.269Z" fill="#240100"/>
<path d="M168.901 109.685C168.901 110.224 166.747 109.955 160.822 111.301C156.783 112.109 155.437 112.917 155.167 112.378C154.629 111.57 157.052 108.608 160.284 107.531C164.323 106.454 168.901 108.878 168.901 109.685Z" fill="#240100"/>
<path d="M208.756 297.651C204.717 297.112 199.87 296.035 195.023 294.688V272.876C197.715 271.799 200.408 270.452 203.101 269.375C204.986 278.8 206.871 288.225 208.756 297.651Z" fill="#240100"/>
<path d="M205.525 297.65C185.059 293.88 164.862 290.11 144.396 286.34C140.626 278.8 140.895 270.183 145.473 264.258C148.704 259.68 153.282 258.065 155.437 257.257C164.054 256.718 176.441 256.987 190.444 261.565C195.292 263.181 199.6 265.066 203.101 267.22C203.909 277.184 204.717 287.417 205.525 297.65Z" fill="#5A78EC"/>
<path d="M193.137 188.317C192.868 191.01 192.868 195.05 192.598 200.166C192.329 205.821 192.329 209.322 192.329 210.13C190.444 234.635 179.403 253.755 169.439 266.681C168.632 268.027 167.554 269.105 166.477 270.182C166.208 270.72 165.669 270.99 165.4 271.528C164.592 272.605 163.784 273.413 162.976 274.221L162.438 274.76C160.822 276.376 159.476 277.991 158.399 279.068C154.359 277.722 150.589 276.376 146.55 275.029C147.088 272.875 147.627 270.99 148.165 268.835C148.435 267.489 148.973 266.412 149.243 265.065C149.243 264.796 149.243 264.796 149.512 264.527C157.321 235.982 161.091 224.133 162.707 220.363C162.976 219.555 164.592 216.324 165.669 211.476C166.208 208.783 166.477 206.629 166.477 205.013C165.669 195.588 171.055 187.24 178.326 185.086C185.866 183.201 192.329 187.509 193.137 188.317Z" fill="#F7A39C"/>
<path d="M168.093 293.342C167.824 296.035 166.746 298.189 165.669 299.536H123.66C119.351 299.805 116.12 297.381 115.581 294.958C115.312 293.342 116.12 291.726 117.466 290.649C119.351 288.764 122.044 289.303 125.276 288.764C128.776 288.225 130.931 287.148 134.701 284.725C140.895 281.224 144.934 276.107 147.627 272.337C147.627 272.068 147.627 271.799 147.627 271.529C147.627 270.991 147.627 270.721 147.627 270.452C150.858 270.721 154.09 270.991 157.321 271.26C160.284 271.529 162.976 271.799 165.669 271.799C165.669 272.068 165.669 272.337 165.669 272.607C165.4 274.492 165.131 276.377 165.131 277.992C165.131 281.762 165.939 284.725 166.747 286.61C167.016 287.956 168.362 290.38 168.093 293.342Z" fill="#FF6665"/>
<path d="M169.44 266.681C168.632 268.027 167.555 269.105 166.478 270.182C166.208 270.72 165.67 270.99 165.4 271.528C160.014 269.374 154.629 267.489 149.243 265.335C151.128 263.719 153.282 262.103 155.436 260.487H167.824C168.363 262.642 168.901 264.527 169.44 266.681Z" fill="#240100"/>
<path d="M273.924 251.331C279.041 262.911 277.694 275.836 270.423 284.454C260.46 296.033 241.071 297.918 226.529 286.877C221.951 282.838 217.373 278.799 212.526 274.759C204.716 259.41 196.907 243.791 188.828 228.441C185.058 243.252 181.288 258.063 177.518 272.874C167.824 270.181 158.129 267.488 148.435 265.065C150.32 251.062 153.013 234.366 157.052 216.323C158.937 208.244 161.361 198.55 169.439 189.933C172.671 186.432 175.633 184.278 177.787 182.931C179.942 182.662 182.904 182.392 185.866 182.931C194.483 184.278 200.139 189.933 202.293 192.087C226.26 211.745 250.227 231.673 273.924 251.331Z" fill="#5A78EC"/>
<path d="M232.184 269.374C234.608 268.028 237.032 268.028 238.917 268.297C241.071 269.643 243.495 271.528 244.841 274.76C245.918 277.991 244.572 279.069 245.11 282.3C246.187 287.955 253.189 293.072 259.383 294.957C262.614 295.765 265.846 296.034 267.192 298.458C268 299.535 265.576 302.766 263.691 303.574C261.537 304.382 259.921 305.19 259.652 305.19C256.42 306.536 249.957 306.536 241.609 304.651C237.301 303.574 231.376 301.689 224.644 297.65C223.836 297.65 223.028 297.65 222.49 297.65C221.143 296.573 218.181 293.341 217.104 288.224C216.027 283.916 216.835 280.415 217.104 278.799C217.912 279.338 218.989 280.146 220.336 280.146C221.143 280.146 222.759 279.877 227.068 274.221C228.414 272.875 229.491 270.721 232.184 269.374Z" fill="#FF6665"/>
<path d="M209.833 272.066C209.564 272.066 209.295 271.797 209.295 271.797L196.638 244.868C196.369 244.598 196.638 244.06 196.907 244.06C197.177 243.79 197.715 244.06 197.715 244.329L210.372 271.258C210.641 271.528 210.372 272.066 210.103 272.066C210.103 272.066 210.103 272.066 209.833 272.066Z" fill="#240100"/>
<path d="M178.596 273.952L167.824 270.99C167.555 270.99 167.285 270.451 167.285 270.182C167.285 269.913 167.824 269.644 168.093 269.644L178.596 272.606C178.865 272.606 179.134 273.144 179.134 273.414C179.403 273.683 179.134 273.952 178.596 273.952Z" fill="#240100"/>
<path d="M178.596 273.953C178.057 273.953 177.788 273.414 178.057 273.145L183.712 246.754C183.712 246.485 184.251 246.216 184.52 246.216C184.789 246.216 185.058 246.754 185.058 247.024L179.403 273.414C179.403 273.683 179.134 273.953 178.596 273.953Z" fill="#240100"/>
<path d="M203.101 269.375H202.832L184.789 259.681C184.52 259.412 184.25 259.142 184.52 258.873C184.789 258.604 185.058 258.334 185.328 258.604L203.37 268.298C203.639 268.567 203.909 268.837 203.639 269.106C203.639 269.375 203.37 269.375 203.101 269.375Z" fill="#240100"/>
<path d="M189.098 229.25C188.829 229.25 188.56 228.981 188.56 228.712L186.136 217.402C186.136 217.132 186.405 216.594 186.675 216.594C186.944 216.594 187.483 216.863 187.483 217.132L189.906 228.443C189.906 228.712 189.637 229.25 189.098 229.25Z" fill="#240100"/>
<path d="M190.175 225.48C189.906 225.48 189.367 225.211 189.367 224.672V215.785C189.367 215.516 189.637 214.978 190.175 214.978C190.444 214.978 190.983 215.247 190.983 215.785V224.672C190.983 225.211 190.714 225.48 190.175 225.48Z" fill="#240100"/>
<path d="M288.736 262.642C281.734 270.721 275.54 272.875 271.232 273.144C250.766 275.568 225.721 246.754 211.449 199.359C211.18 185.625 210.911 171.622 210.641 157.888C216.296 149.54 221.951 141.192 227.337 132.844C235.685 138.499 244.841 146.039 253.459 155.733C287.928 195.589 289.274 244.33 288.736 262.642Z" fill="#FF6665"/>
<path d="M168.093 137.422C167.824 137.422 167.555 137.153 167.555 136.883C167.555 136.614 167.824 136.075 168.093 136.075C168.901 135.806 169.978 135.537 171.056 134.729C171.594 134.19 172.133 133.921 172.402 133.383C172.671 133.113 172.941 133.113 173.21 133.113C173.479 133.383 173.479 133.652 173.479 133.921C172.941 134.46 172.402 135.268 171.864 135.537C170.786 136.614 169.44 137.153 168.093 137.422Z" fill="#240100"/>
<path d="M232.992 169.735C229.491 174.851 225.452 179.698 221.143 184.815C220.605 185.623 220.066 186.431 219.258 186.969C216.565 189.931 213.872 192.894 211.18 195.587C209.564 197.202 207.948 198.818 206.063 200.165C205.524 200.703 204.717 201.511 204.178 202.05C203.639 202.857 203.101 203.665 202.293 204.473C200.139 206.627 197.176 209.32 193.137 211.744C187.482 214.706 182.096 215.514 179.403 215.514C175.902 216.053 172.132 214.706 169.978 211.744C167.016 207.705 168.632 203.127 168.632 202.588C171.055 199.895 178.595 191.009 182.904 186.161C185.328 183.468 186.405 182.391 186.405 182.391C188.02 180.776 189.636 178.891 191.252 177.275C191.791 176.736 192.329 176.198 192.868 175.39C195.291 172.966 197.446 170.543 199.6 167.85C204.178 164.887 209.025 161.656 213.603 158.694C216.565 156.27 219.258 153.846 222.22 151.423C223.298 151.961 224.644 152.5 225.721 153.308C230.03 157.078 232.992 163.272 232.992 169.735Z" fill="#F7A39C"/>
<path d="M204.178 202.049C203.639 202.857 203.101 203.665 202.293 204.473C196.907 197.202 191.521 189.931 186.135 182.66C191.79 186.969 197.176 191.008 202.831 195.317C203.909 196.933 205.255 198.548 206.332 200.164C205.524 200.972 204.716 201.51 204.178 202.049Z" fill="#240100"/>
<path d="M231.646 143.614C230.838 144.961 228.145 149.808 221.951 151.693C218.72 152.77 216.027 152.501 214.411 152.232C209.564 157.348 204.447 162.734 199.331 168.12C194.753 172.967 190.175 177.545 185.597 182.123C191.791 188.855 197.984 195.318 204.178 202.05V202.32C204.447 202.589 204.717 203.127 205.255 203.397C213.603 197.742 218.989 191.817 222.759 187.778C229.491 179.969 235.416 172.967 236.224 162.734C236.762 154.117 233.531 147.384 231.646 143.614Z" fill="#FF6665"/>
<path d="M174.556 189.125C175.095 189.664 176.172 191.549 178.326 193.973C180.211 196.127 181.827 197.473 183.173 198.551C182.365 204.206 181.827 209.861 181.019 215.516C179.134 216.862 177.518 217.132 176.441 217.401C171.055 217.67 165.669 212.015 160.822 206.36C160.553 206.091 160.014 205.283 158.937 204.206C157.86 203.129 157.322 202.59 155.706 200.974C148.704 192.895 143.588 184.547 137.663 174.853C137.394 174.314 136.855 173.776 136.586 172.968C134.97 170.275 133.624 168.121 132.816 166.505C134.432 164.62 136.047 163.004 137.663 161.119C139.548 161.927 141.703 163.004 144.126 164.351C153.821 169.467 164.862 177.277 174.556 189.125Z" fill="#F7A39C"/>
<path d="M152.743 168.391L125.814 153.849C124.737 153.31 124.199 151.695 124.737 150.618C125.276 149.54 126.892 149.002 127.969 149.54L154.898 164.082C155.975 164.621 156.514 166.236 155.975 167.314C155.436 168.391 153.821 168.929 152.743 168.391Z" fill="#240100"/>
<path d="M149.512 167.314C146.281 171.084 143.049 174.854 139.818 178.624C127.161 165.698 121.775 157.888 123.93 154.926C124.737 153.849 126.353 153.31 129.046 153.58C131.739 154.926 134.432 156.273 137.125 157.35C137.394 155.195 138.741 153.31 140.626 153.041C142.78 152.772 145.473 154.926 145.473 158.427C146.281 161.389 147.896 164.351 149.512 167.314Z" fill="#F7A39C"/>
<path d="M165.131 152.771C162.438 153.04 159.745 153.04 157.321 153.31C154.898 154.656 152.474 155.733 150.051 157.08C148.704 157.618 147.627 157.349 147.088 156.541C146.55 155.733 147.089 153.848 148.974 152.771C151.397 151.425 153.821 150.078 155.975 148.732C158.399 148.462 160.553 148.193 162.977 147.924C164.862 147.385 166.477 148.462 166.747 149.809C167.016 150.886 166.208 152.233 165.131 152.771Z" fill="#F7A39C"/>
<path d="M200.947 74.6771C202.562 86.7952 193.676 97.0283 185.328 101.337C170.247 109.685 147.627 103.491 142.78 90.296C137.394 75.7543 153.821 52.8645 172.94 52.8645C184.789 52.5952 199.062 61.2126 200.947 74.6771Z" fill="#240100"/>
<path d="M222.49 95.6815C221.951 101.067 220.336 116.417 213.873 118.033C207.14 119.648 198.254 105.107 189.367 90.2957C177.518 70.9067 170.786 59.3272 174.825 53.9414C180.481 46.4012 207.14 50.9792 217.643 67.1367C224.375 77.1004 223.298 88.4106 222.49 95.6815Z" fill="#240100"/>
<path d="M196.963 111.639C200.686 110.134 202.033 104.778 199.971 99.6763C197.909 94.574 193.219 91.6577 189.496 93.1623C185.773 94.667 184.426 100.023 186.488 105.125C188.55 110.227 193.239 113.144 196.963 111.639Z" fill="#F7A39C"/>
<path d="M194.754 112.648C194.215 112.648 193.676 112.648 193.407 112.379C193.138 112.379 192.869 111.84 192.869 111.571C192.869 111.301 193.407 111.032 193.676 111.032C194.754 111.301 195.831 111.301 196.638 110.763C198.793 109.955 200.139 107.801 200.139 104.838C200.139 104.569 200.409 104.3 200.947 104.3C201.217 104.3 201.486 104.569 201.486 105.108C201.217 108.339 199.601 111.032 197.177 112.109C196.369 112.648 195.561 112.648 194.754 112.648Z" fill="#240100"/>
<path d="M193.407 108.068C193.138 108.068 192.599 107.798 192.599 107.26V97.2961C192.599 97.0268 192.868 96.4883 193.407 96.4883C193.676 96.4883 194.215 96.7575 194.215 97.2961V107.26C194.215 107.798 193.946 108.068 193.407 108.068Z" fill="#240100"/>
<path d="M193.137 102.414C192.868 102.414 192.868 102.414 192.868 102.414L190.175 100.529C189.906 100.26 189.906 99.9907 189.906 99.7215C190.175 99.4522 190.445 99.4521 190.714 99.4521L193.407 101.337C193.676 101.606 193.676 101.876 193.676 102.145C193.676 102.414 193.407 102.414 193.137 102.414Z" fill="#240100"/>
<path d="M211.449 200.167C211.18 200.167 211.18 200.167 210.91 199.898C210.641 199.629 210.641 199.09 210.91 198.821L225.183 182.932C225.452 182.663 225.99 182.663 226.26 182.932C226.529 183.202 226.529 183.74 226.26 184.01L211.987 199.898C211.718 200.167 211.449 200.167 211.449 200.167Z" fill="#240100"/>
<path d="M130.662 74.4057C129.585 81.9459 133.355 84.1002 137.664 98.1033C145.742 124.763 141.434 148.999 139.549 148.999C138.202 148.999 139.549 136.881 132.816 133.111C123.391 127.725 111.004 147.384 95.3848 143.614C83.8053 140.921 82.1895 127.456 71.4178 127.456C63.6084 127.456 61.9927 134.458 54.9912 136.343C38.8337 140.382 11.0967 113.722 5.98018 82.4845C2.74869 61.2105 9.48103 34.0121 24.5613 28.357C32.64 25.3948 36.6794 30.7806 49.3361 28.357C64.4164 25.3948 68.725 15.7003 79.2273 10.3145C107.234 -4.22724 158.668 24.3176 157.86 42.0908C157.052 54.2089 133.085 56.3632 130.662 74.4057Z" fill="#EFEFEF"/>
<g clip-path="url(#clip0_1511_3240)">
<rect x="57.5629" y="70.8486" width="55.9192" height="55.2909" rx="12.5661" transform="rotate(-8.06185 57.5629 70.8486)" fill="#FDD835"/>
<path d="M115.283 118.516L73.8727 124.381C73.1942 122.336 72.3408 119.277 71.7873 115.369C70.7103 107.766 69.418 98.6418 69.418 98.6418C69.418 98.6418 70.0226 87.0928 72.2637 83.3628C74.3671 79.8694 75.7238 77.4746 81.655 75.1919C86.0799 73.4793 92.4805 73.3017 95.5976 74.7682C99.1827 76.4631 102.174 84.1831 103.841 91.1136C106.049 90.3355 111.83 90.2921 112.505 91.8718C116.147 100.229 115.724 112.729 115.283 118.516Z" fill="#E53935"/>
<path d="M115.817 118.44L74.5898 124.28C73.6791 120.267 72.3392 113.663 71.1026 105.043C73.2689 111.22 75.6544 119.274 83.8576 118.422C89.1913 117.853 96.5898 117.472 98.3231 112.573C100.072 107.672 102.069 98.1592 100.312 88.0617C98.7646 79.222 95.8769 75.9702 95.1896 75.2919C96.2316 76.1681 101.861 81.3118 103.826 92.2176C104.05 93.4732 104.288 94.8202 104.521 96.2453C110.91 95.1077 113.889 97.2452 114.285 98.5075C116.594 105.688 116.339 113.558 115.817 118.44Z" fill="#B71C1C"/>
<path d="M106.491 96.7571C107.282 102.338 108.477 113.849 109.045 119.399L105.995 119.832C105.437 114.357 104.229 102.755 103.441 97.1892C102.248 88.7646 98.4894 78.268 95.0066 76.6362C92.2573 75.3503 86.3142 75.5716 82.2707 77.1216C76.9281 79.1658 75.7289 81.135 73.75 84.4091L73.6495 84.5785C71.9961 87.2946 71.1896 95.6611 71.0037 98.8519L73.3299 115.275C73.8856 119.199 74.7499 122.225 75.4286 124.161L72.3171 124.602C71.6321 122.512 70.8179 119.509 70.2794 115.707L67.9212 98.8386C67.9841 97.6353 68.6419 86.901 71.0118 82.9821L71.1145 82.8279C73.1939 79.3845 74.8473 76.6684 81.1796 74.2513C86.0187 72.387 92.8244 72.2141 96.3246 73.859C101.723 76.3829 105.427 89.2449 106.491 96.7571Z" fill="#212121"/>
<path d="M77.1591 85.5751C85.1045 84.3643 91.5437 83.9766 92.1811 92.7715C92.8185 101.566 80.4418 103.017 79.007 102.916C77.5722 102.815 67.0611 104.542 66.1191 96.463C65.1787 88.3842 71.7982 86.3918 77.1591 85.5751Z" fill="#01579B"/>
<path d="M117.444 111.043C117.446 114.129 117.152 116.56 116.578 118.332L112.872 118.857C113.212 118.514 114.356 116.925 114.364 111.045C114.372 104.839 111.473 93.1657 110.193 91.8114C109.496 91.2896 106.009 91.1631 103.336 91.4021L103.059 88.3544C104.656 88.2057 110.036 87.8471 112.09 89.3866C114.563 91.2544 117.454 105.069 117.444 111.043Z" fill="#212121"/>
<path d="M67.094 91.5271C67.9356 94.6018 67.5168 96.6653 71.7365 96.3701C75.9561 96.0749 84.2745 96.1795 85.9576 93.4964C87.6406 90.8134 87.6866 86.4806 83.4641 85.6795C80.4712 85.1122 70.5215 84.9144 67.094 91.5271Z" fill="#81D4FA"/>
<path d="M80.5149 104.325C79.7492 104.433 79.1769 104.468 78.8955 104.447C78.7602 104.437 78.528 104.445 78.2206 104.45C69.9234 104.572 65.3381 101.956 64.592 96.6774C64.0124 92.5744 64.8175 85.4179 76.7212 83.6047L76.9969 83.5625C82.2416 82.7607 86.7652 82.0734 90.0053 84.54C92.051 86.0978 93.2627 88.7322 93.7085 92.5936C94.005 95.17 93.189 97.5487 91.3467 99.4695C88.3184 102.629 83.2192 103.942 80.5149 104.325ZM77.1871 86.6411C66.5171 88.2672 67.3647 94.2727 67.6442 96.2466C68.3124 100.975 73.9777 101.439 78.1807 101.378C78.6046 101.372 78.9264 101.37 79.1165 101.383C79.997 101.415 86.2622 100.425 89.199 97.2685C90.3672 96.0141 90.8422 94.6004 90.6501 92.9477C90.3061 89.9592 89.4821 88.0081 88.1358 86.9827C85.935 85.3074 82.0176 85.9026 77.4627 86.5989L77.1871 86.6411Z" fill="#212121"/>
<path d="M74.355 88.7027C77.2697 87.7842 82.0533 86.7917 81.4003 89.7276C80.9353 91.8162 70.912 94.6025 70.5818 92.2713C70.2519 89.9416 74.355 88.7027 74.355 88.7027Z" fill="#E1F5FE"/>
</g>
<rect x="107.224" y="5" width="46.6111" height="46.99" rx="11.1791" transform="rotate(20.7691 107.224 5)" fill="black"/>
<g clip-path="url(#clip1_1511_3240)">
<path d="M119.042 30.7284L119.5 29.522C119.109 29.2978 118.702 29.1019 118.283 28.936C114.205 27.3795 109.583 28.6691 106.873 32.1194C104.163 35.5696 103.993 40.38 106.454 43.9946C105.727 42.2065 105.531 40.2434 105.891 38.3422C106.251 36.441 107.151 34.683 108.482 33.2803C109.813 31.8777 111.518 30.8903 113.392 30.4375C115.266 29.9847 117.228 30.0857 119.042 30.7285L119.042 30.7284Z" fill="#25F4EE"/>
<path d="M114.086 44.4796C116.369 45.3418 118.93 44.2452 119.9 41.9904L127.659 21.5314L131.375 22.9408C131.461 22.4845 131.589 22.0372 131.758 21.6044L126.675 19.6767L118.923 40.116C117.965 42.3882 115.393 43.5005 113.099 42.6347C112.416 42.369 111.806 41.944 111.32 41.3946C111.505 42.0922 111.853 42.7353 112.334 43.2715C112.814 43.8076 113.415 44.2216 114.086 44.4796ZM135.684 32.5148L136.115 31.3776C134.747 30.8595 133.564 29.9464 132.713 28.753C133.269 30.2993 134.312 31.6197 135.684 32.5148Z" fill="#25F4EE"/>
<path d="M132.713 28.7526C132.078 27.0419 132.086 25.1552 132.736 23.445L131.379 22.9304C131.195 23.9425 131.219 24.9808 131.449 25.9818C131.678 26.9828 132.108 27.9256 132.713 28.7526ZM116.344 34.0475C115.391 33.6914 114.345 33.6662 113.373 33.9758C112.401 34.2853 111.559 34.9119 110.98 35.7559C110.401 36.6 110.119 37.613 110.179 38.6339C110.239 39.6548 110.637 40.625 111.31 41.3904C111.092 40.5764 111.103 39.717 111.341 38.907C111.579 38.097 112.035 37.368 112.658 36.8005C113.282 36.233 114.049 35.849 114.875 35.6912C115.701 35.5333 116.553 35.6076 117.338 35.9059C117.762 36.0733 118.161 36.3008 118.521 36.5815L120.493 31.3796C120.101 31.1588 119.693 30.9663 119.273 30.8036L119.046 30.7178L117.546 34.673C117.178 34.4069 116.773 34.1962 116.344 34.0475Z" fill="#FE2C55"/>
<path d="M135.684 32.5146L134.184 36.47C131.653 35.5048 129.493 33.7634 128.008 31.4925L124.067 41.8852C122.089 47.0668 116.314 49.6787 111.158 47.7233C109.241 47.0005 107.598 45.6975 106.454 43.994C107.206 45.8584 108.502 47.4499 110.17 48.5611C111.839 49.6723 113.805 50.2517 115.81 50.224C117.816 50.1961 119.769 49.5624 121.416 48.4053C123.062 47.2481 124.325 45.6212 125.04 43.7365L128.97 33.3732C130.466 35.6369 132.634 37.3689 135.167 38.3247L137.099 33.2317C136.603 33.0422 136.129 32.8019 135.684 32.5146Z" fill="#FE2C55"/>
<path d="M124.066 41.8857L128.008 31.4931C129.502 33.7578 131.67 35.4901 134.205 36.4445L135.705 32.4893C134.329 31.6042 133.279 30.293 132.713 28.7533C132.108 27.9263 131.678 26.9835 131.448 25.9825C131.219 24.9815 131.195 23.9433 131.379 22.9311L127.662 21.5218L119.899 41.991C119.525 42.8683 118.889 43.6078 118.078 44.1067C117.268 44.6057 116.324 44.8393 115.377 44.7751C114.431 44.7109 113.529 44.3521 112.797 43.7485C112.065 43.145 111.539 42.3267 111.292 41.4073C110.619 40.642 110.221 39.6717 110.161 38.6507C110.101 37.6297 110.383 36.6166 110.962 35.7725C111.541 34.9284 112.383 34.3017 113.355 33.9922C114.327 33.6827 115.373 33.708 116.327 34.0642C116.752 34.2299 117.151 34.4574 117.51 34.7393L119.01 30.7839C117.19 30.1289 115.217 30.0206 113.333 30.4723C111.448 30.9239 109.733 31.9161 108.397 33.3276C107.06 34.7392 106.16 36.5093 105.806 38.422C105.452 40.3346 105.659 42.3074 106.403 44.0996C107.576 45.7723 109.237 47.0382 111.157 47.7238C116.314 49.6793 122.089 47.0674 124.066 41.8857Z" fill="white"/>
</g>
<path d="M276.348 52.8614C276.348 53.6693 276.618 53.6693 276.618 54.4772C277.156 58.2472 274.463 62.5559 271.771 64.9795C269.616 67.1338 268.27 67.1338 265.846 69.8267C265.038 70.9039 264.5 71.7117 263.961 72.5196C263.961 72.5196 261.537 77.0976 257.498 79.7905C252.382 83.2913 250.497 81.9448 239.186 85.4456C235.416 86.5228 233.531 87.8693 231.108 87.0614C228.684 86.5228 228.145 85.1763 224.645 83.2913C224.106 83.022 222.76 82.2141 217.643 80.5983C207.141 76.8283 205.525 77.3669 204.179 75.2125C202.294 71.4425 204.986 69.0188 203.101 66.0567C200.139 61.748 192.599 65.7874 189.368 61.748C186.944 58.7858 190.445 55.8236 191.252 43.7055C191.791 36.9733 190.714 35.6268 192.33 32.126C193.676 28.8945 196.1 27.0095 200.678 22.9701C207.41 17.315 210.911 14.3528 213.334 14.3528C219.797 14.3528 223.837 22.1622 228.684 20.2772C230.03 19.7386 230.3 18.9308 232.185 18.3922C235.416 17.8536 237.84 20.2772 238.917 19.4694C239.725 18.6615 238.648 17.315 239.456 15.6993C240.263 13.5449 243.226 12.7371 245.38 12.4678C250.766 12.1985 252.112 17.5843 257.498 17.5843C260.999 17.5843 261.268 15.1607 264.5 15.1607C271.232 15.1607 276.348 23.778 277.156 25.1244C278.772 27.8174 279.311 30.241 280.388 34.8189C281.734 40.2047 282.273 42.8977 281.196 45.052C280.388 49.0914 276.348 49.6299 276.348 52.8614Z" fill="#240100"/>
<g clip-path="url(#clip2_1511_3240)">
<path d="M36.0935 72.7029C32.8485 73.5881 30.9397 73.6158 29.6389 73.5375C27.9156 73.4349 26.5953 73.077 25.0764 72.2999C23.5574 71.5227 22.4944 70.6603 21.4079 69.3203C20.5848 68.31 19.4927 66.7442 18.3166 63.593C17.0426 60.1875 16.6763 59.1606 13.8536 50.4022C11.0309 41.6438 10.7323 40.5968 9.7721 37.0866C8.88684 33.8417 8.86337 31.935 8.93744 30.6321C9.04012 28.9088 9.39953 27.588 10.1746 26.068C10.9523 24.5506 11.8142 23.4859 13.1558 22.399C14.1661 21.5759 15.7318 20.4838 18.883 19.3076C22.2906 18.0347 23.3192 17.668 32.0744 14.8463C40.8328 12.0235 41.8798 11.7249 45.3899 10.7648C48.6349 9.87951 50.5415 9.85604 51.8445 9.93011C53.5667 10.0296 54.888 10.3906 56.407 11.1678C57.926 11.945 58.9863 12.81 60.0759 14.149C60.8991 15.1592 61.9912 16.725 63.1673 19.8762C64.4407 23.2854 64.8065 24.3108 67.6292 33.0692C70.4509 41.8244 70.7538 42.8735 71.7107 46.3847C72.596 49.6297 72.6205 51.5395 72.5454 52.8393C72.4427 54.5625 72.0849 55.8828 71.3072 57.4002C70.5295 58.9176 69.665 59.9795 68.326 61.0691C67.3157 61.8923 65.75 62.9844 62.5987 64.1605C59.1927 65.4329 58.1642 65.7997 49.4058 68.6224C40.6506 71.4441 39.602 71.7485 36.0935 72.7029Z" fill="url(#paint0_radial_1511_3240)"/>
<path d="M36.0935 72.7029C32.8485 73.5881 30.9397 73.6158 29.6389 73.5375C27.9156 73.4349 26.5953 73.077 25.0764 72.2999C23.5574 71.5227 22.4944 70.6603 21.4079 69.3203C20.5848 68.31 19.4927 66.7442 18.3166 63.593C17.0426 60.1875 16.6763 59.1606 13.8536 50.4022C11.0309 41.6438 10.7323 40.5968 9.7721 37.0866C8.88684 33.8417 8.86337 31.935 8.93744 30.6321C9.04012 28.9088 9.39953 27.588 10.1746 26.068C10.9523 24.5506 11.8142 23.4859 13.1558 22.399C14.1661 21.5759 15.7318 20.4838 18.883 19.3076C22.2906 18.0347 23.3192 17.668 32.0744 14.8463C40.8328 12.0235 41.8798 11.7249 45.3899 10.7648C48.6349 9.87951 50.5415 9.85604 51.8445 9.93011C53.5667 10.0296 54.888 10.3906 56.407 11.1678C57.926 11.945 58.9863 12.81 60.0759 14.149C60.8991 15.1592 61.9912 16.725 63.1673 19.8762C64.4407 23.2854 64.8065 24.3108 67.6292 33.0692C70.4509 41.8244 70.7538 42.8735 71.7107 46.3847C72.596 49.6297 72.6205 51.5395 72.5454 52.8393C72.4427 54.5625 72.0849 55.8828 71.3072 57.4002C70.5295 58.9176 69.665 59.9795 68.326 61.0691C67.3157 61.8923 65.75 62.9844 62.5987 64.1605C59.1927 65.4329 58.1642 65.7997 49.4058 68.6224C40.6506 71.4441 39.602 71.7485 36.0935 72.7029Z" fill="url(#paint1_radial_1511_3240)"/>
<path d="M34.1754 43.9763C32.9902 40.2985 35.0096 36.3558 38.6873 35.1705C42.365 33.9852 46.3083 36.0063 47.4936 39.684C48.6789 43.3617 46.6579 47.305 42.9801 48.4903C39.3024 49.6755 35.3607 47.654 34.1754 43.9763ZM30.5752 45.1366C32.4013 50.8023 38.4741 53.9149 44.1399 52.0889C49.8057 50.2629 52.9182 44.19 51.0922 38.5242C49.2662 32.8584 43.1933 29.7459 37.5275 31.5719C31.8618 33.3979 28.7493 39.4704 30.5754 45.1365L30.5752 45.1366ZM45.6638 28.5007C45.8165 28.9749 46.1063 29.3932 46.4967 29.7027C46.887 30.0122 47.3604 30.199 47.8569 30.2394C48.3534 30.2799 48.8508 30.1722 49.2861 29.93C49.7215 29.6878 50.0752 29.322 50.3026 28.8787C50.53 28.4355 50.6208 27.9348 50.5637 27.4399C50.5065 26.945 50.3039 26.4782 49.9814 26.0985C49.6589 25.7188 49.2311 25.4432 48.752 25.3066C48.2729 25.1701 47.7641 25.1787 47.2898 25.3313L47.2889 25.3316C46.6534 25.5367 46.1253 25.9857 45.8206 26.5799C45.516 27.1741 45.4596 27.8649 45.6638 28.5007ZM38.0036 60.6934C36.0272 61.2325 34.864 61.2492 34.0721 61.2019C33.0223 61.1394 32.2174 60.9214 31.2925 60.4481C30.3676 59.9749 29.7202 59.4496 29.0581 58.6334C28.5572 58.0185 27.8914 57.0641 27.1751 55.1449C26.3996 53.0702 26.1764 52.4439 24.4569 47.1088C22.7375 41.7737 22.5551 41.1361 21.9711 38.9978C21.4321 37.0214 21.4183 35.8592 21.4627 35.0663C21.5252 34.0165 21.7432 33.2116 22.2164 32.2867C22.6897 31.3618 23.215 30.7144 24.0328 30.0518C24.6476 29.5509 25.6021 28.8851 27.5213 28.1688C29.5959 27.3933 30.2223 27.1701 35.555 25.4514C40.8877 23.7327 41.5276 23.5493 43.6661 22.9659C45.6424 22.4269 46.8047 22.4131 47.5976 22.4575C48.6468 22.5184 49.4522 22.738 50.3771 23.2112C51.302 23.6845 51.9484 24.2119 52.6121 25.0276C53.113 25.6424 53.7787 26.5968 54.495 28.5161C55.2711 30.5925 55.4938 31.2171 57.2132 36.5522C58.9327 41.8873 59.1166 42.5243 59.699 44.6631C60.2381 46.6395 60.2532 47.8033 60.2075 48.5946C60.145 49.6444 59.927 50.4493 59.4532 51.3726C58.9794 52.2959 58.4526 52.9438 57.6369 53.6076C57.022 54.1085 56.0676 54.7742 54.1484 55.4905C52.0737 56.2661 51.4474 56.4893 46.1123 58.2087C40.7772 59.9281 40.1401 60.1121 38.0037 60.6937L38.0036 60.6934ZM26.1975 24.6279C24.1019 25.4101 22.7573 26.2158 21.6473 27.1186C20.4981 28.052 19.6051 29.0951 18.851 30.5636C18.0969 32.0321 17.7733 33.3657 17.6872 34.8452C17.6027 36.2744 17.7335 37.8355 18.3221 39.9935C18.9102 42.1554 19.1071 42.8437 20.8557 48.2691C22.6042 53.6945 22.8462 54.3682 23.6312 56.4666C24.4136 58.5624 25.2189 59.906 26.122 61.0168C27.0554 62.166 28.0976 63.0618 29.5669 63.8131C31.0363 64.5645 32.3686 64.8893 33.8486 64.9769C35.2793 65.0609 36.8389 64.9306 38.9969 64.342C41.1594 63.752 41.847 63.557 47.2724 61.8084C52.6978 60.0599 53.3716 59.8179 55.47 59.0329C57.5657 58.2506 58.9093 57.4453 60.0201 56.5421C61.1689 55.6073 62.0624 54.5657 62.8165 53.0972C63.5706 51.6287 63.8922 50.294 63.9802 48.8155C64.0648 47.3864 63.9355 45.8247 63.3453 43.6672C62.7552 41.5043 62.5587 40.8176 60.8102 35.3922C59.0616 29.9668 58.8196 29.2931 58.0362 27.1941C57.2539 25.0984 56.4484 23.754 55.5455 22.644C54.6107 21.4952 53.569 20.6017 52.1005 19.8476C50.632 19.0935 49.2968 18.7705 47.8205 18.6833C46.3898 18.5993 44.8281 18.7286 42.6722 19.3183C40.5104 19.9075 39.822 20.1033 34.3974 21.8516C28.9728 23.5998 28.2978 23.8423 26.1983 24.6276" fill="white"/>
</g>
</g>
<defs>
<filter id="filter0_d_1511_3240" x="0.187119" y="0" width="293.626" height="311.141" filterUnits="userSpaceOnUse" color-interpolation-filters="sRGB">
<feFlood flood-opacity="0" result="BackgroundImageFix"/>
<feColorMatrix in="SourceAlpha" type="matrix" values="0 0 0 0 0 0 0 0 0 0 0 0 0 0 0 0 0 0 127 0" result="hardAlpha"/>
<feOffset/>
<feGaussianBlur stdDeviation="2.5"/>
<feComposite in2="hardAlpha" operator="out"/>
<feColorMatrix type="matrix" values="0 0 0 0 0 0 0 0 0 0 0 0 0 0 0 0 0 0 0.25 0"/>
<feBlend mode="normal" in2="BackgroundImageFix" result="effect1_dropShadow_1511_3240"/>
<feBlend mode="normal" in="SourceGraphic" in2="effect1_dropShadow_1511_3240" result="shape"/>
</filter>
<radialGradient id="paint0_radial_1511_3240" cx="0" cy="0" r="1" gradientUnits="userSpaceOnUse" gradientTransform="translate(25.6192 74.9881) rotate(-17.8635) scale(71.734)">
<stop offset="0.09" stop-color="#FA8F21"/>
<stop offset="0.78" stop-color="#D82D7E"/>
</radialGradient>
<radialGradient id="paint1_radial_1511_3240" cx="0" cy="0" r="1" gradientUnits="userSpaceOnUse" gradientTransform="translate(58.8312 62.3782) rotate(-17.8635) scale(63.1266)">
<stop offset="0.64" stop-color="#8C3AAA" stop-opacity="0"/>
<stop offset="1" stop-color="#8C3AAA"/>
</radialGradient>
<clipPath id="clip0_1511_3240">
<rect x="57.5629" y="70.8486" width="55.9192" height="55.2909" rx="12.5661" transform="rotate(-8.06185 57.5629 70.8486)" fill="white"/>
</clipPath>
<clipPath id="clip1_1511_3240">
<rect width="32.9688" height="33.1583" fill="white" transform="translate(111.183 13.7959) rotate(20.7691)"/>
</clipPath>
<clipPath id="clip2_1511_3240">
<rect width="56.5" height="56.5" fill="white" transform="translate(5.18712 23.5117) rotate(-17.8635)"/>
</clipPath>
</defs>
</svg>
