<svg width="240" height="258" viewBox="0 0 240 258" fill="none" xmlns="http://www.w3.org/2000/svg">
<path d="M135.247 257.177H46.8557C42.9819 257.177 39.1082 255.592 36.291 252.775C33.8259 250.31 32.2412 247.14 31.889 243.795L12.1682 68.0688C11.8161 64.8994 12.5204 61.7299 14.2812 59.4409C16.5702 56.2715 20.0918 54.5107 24.1416 54.5107H112.533C116.583 54.5107 120.632 56.2715 123.45 59.4409C125.739 61.906 127.147 64.8994 127.499 68.0688L147.22 243.795C147.572 247.14 146.692 250.486 144.755 252.951C142.642 255.416 139.121 257.177 135.247 257.177Z" fill="#FFFFF6"/>
<mask id="mask0_1522_1934" style="mask-type:alpha" maskUnits="userSpaceOnUse" x="12" y="54" width="136" height="204">
<path d="M135.247 257.177H46.8558C42.9821 257.177 39.1083 255.592 36.2911 252.775C33.826 250.31 32.2413 247.14 31.8891 243.795L12.1684 68.0688C11.8162 64.8994 12.5205 61.7299 14.2813 59.4409C16.5703 56.2715 20.0919 54.5107 24.1417 54.5107H112.533C116.583 54.5107 120.633 56.2715 123.45 59.4409C125.739 61.906 127.147 64.8994 127.5 68.0688L147.22 243.795C147.573 247.14 146.692 250.486 144.755 252.951C142.642 255.416 139.121 257.177 135.247 257.177Z" fill="#240100"/>
</mask>
<g mask="url(#mask0_1522_1934)">
<path fill-rule="evenodd" clip-rule="evenodd" d="M103.502 90.3422C103.249 89.5142 102.492 88.9428 101.627 88.9265L61.7291 88.1742C60.4318 88.1497 59.4549 89.348 59.7404 90.6138L63.0412 105.252C63.3155 106.468 64.6251 107.132 65.8285 106.805C66.1017 106.731 66.3777 106.663 66.6565 106.602C78.039 104.09 89.7267 113.206 92.7617 126.961C92.7871 127.076 92.8117 127.191 92.8357 127.306C93.0365 128.267 93.8604 128.988 94.8423 128.996L112.628 129.143C113.979 129.154 114.952 127.851 114.557 126.559L103.502 90.3422ZM77.6315 156.441C77.6289 156.429 77.6361 156.418 77.6474 156.416C86.3215 154.502 92.3152 146.388 93.3332 136.548C93.4456 135.462 94.3445 134.602 95.4362 134.622L134.29 135.355C135.156 135.371 135.913 135.943 136.165 136.771L152.597 190.601C152.992 191.893 152.019 193.196 150.668 193.185L87.382 192.662C86.4531 192.654 85.6518 192.008 85.4475 191.102L77.6315 156.441ZM59.3022 108.693C59.4648 109.448 59.1728 110.222 58.5934 110.732C52.349 116.229 49.3212 125.99 51.5422 136.056C53.8167 146.365 60.951 154.068 69.1745 156.223C69.4156 156.287 69.6031 156.478 69.6556 156.721C69.7398 157.112 69.4539 157.484 69.0549 157.505L2.3779 160.857C1.23533 160.914 0.277466 160.004 0.277466 158.86V90.9859C0.277466 89.8813 1.1729 88.9859 2.27747 88.9859H53.439C54.3812 88.9859 55.1956 89.6434 55.3941 90.5644L59.3022 108.693Z" fill="#C4C4C4"/>
<path d="M53.1116 85.2083L-1.66484 86.3742L-18.3696 39.756L44.9535 34.7051L53.1116 85.2083Z" fill="#C4C4C4"/>
<path d="M84.4187 200.622C84.0998 199.399 84.9804 198.191 86.242 198.12L123.962 196.006C124.806 195.958 125.589 196.447 125.917 197.226L136.622 222.648C137.179 223.973 136.199 225.436 134.762 225.424L92.3263 225.073C91.4223 225.066 90.6358 224.453 90.4076 223.578L84.4187 200.622Z" fill="#66EC5A"/>
<path d="M51.2879 49.8873C51.122 48.7967 51.8706 47.7778 52.9609 47.6099L89.6138 41.9678C90.6133 41.8139 91.5704 42.4304 91.8437 43.4041L102.921 82.8693C103.28 84.1515 102.31 85.4207 100.978 85.4097L58.3375 85.0573C57.3553 85.0492 56.5244 84.3291 56.3767 83.358L51.2879 49.8873Z" fill="#C4C4C4"/>
<path d="M105.649 46.1301C105.273 44.251 106.731 42.5059 108.647 42.542L174.736 43.7882C176.078 43.8134 177.239 44.7264 177.581 46.0238L197.874 123.105C198.378 125.018 196.926 126.885 194.948 126.869L124.121 126.284C122.701 126.272 121.483 125.266 121.205 123.872L105.649 46.1301Z" fill="#C4C4C4"/>
<path d="M12.2879 166.741C12.1742 165.063 13.462 163.62 15.142 163.542L68.2535 161.079C69.6962 161.012 70.9818 161.983 71.3127 163.389L85.263 222.663C85.692 224.486 84.364 226.252 82.4934 226.347L19.4932 229.514C17.8587 229.596 16.4599 228.353 16.3494 226.721L12.2879 166.741Z" fill="#C4C4C4"/>
</g>
<ellipse cx="72.4821" cy="131.325" rx="12.522" ry="15.1329" transform="rotate(-12.4424 72.4821 131.325)" fill="#C4C4C4"/>
<path d="M205.543 40.2462C196.035 71.236 187.935 79.3356 185.47 81.6246C182.125 84.4419 175.082 90.4285 168.039 88.6677C164.165 87.6113 163.285 84.9701 158.354 84.0897C152.192 82.8572 150.255 86.7309 145.148 85.8505C136.873 84.618 130.182 73.1728 132.471 68.4187C133.527 66.1297 136.168 66.834 137.753 63.8407C140.042 59.7909 136.873 56.0933 138.986 53.8043C141.451 50.987 147.614 55.0368 150.079 52.2195C152.192 49.9305 148.846 45.8807 150.959 42.8874C153.072 40.0701 157.474 42.7113 161.524 39.718C164.869 37.0768 163.813 33.9074 166.806 31.7945C169.975 29.6816 173.849 31.4423 176.666 31.9706C190.929 34.6117 203.783 11.5455 208.713 14.1867C212.939 16.1235 207.656 33.3792 205.543 40.2462Z" fill="#240100"/>
<path d="M169.447 87.7883C175.61 87.7883 181.421 82.8581 184.414 80.393C188.288 77.2236 196.035 67.5393 204.663 38.8385L204.311 38.6625L204.663 38.8385C208.361 26.6891 211.53 14.1876 207.832 12.0746C205.543 10.8421 202.374 13.8354 197.972 18.0613C191.985 23.6958 183.886 31.4432 175.61 29.8585C175.082 29.6825 174.554 29.6825 173.849 29.5064C171.384 28.8021 168.215 28.0978 165.574 29.8585C163.813 30.915 163.285 32.3236 162.756 33.7323C162.228 35.1409 161.7 36.5495 160.115 37.606C158.178 39.1907 156.065 39.1907 154.305 39.1907C152.368 39.1907 150.783 39.3668 149.551 40.9515C148.318 42.5362 148.67 44.473 149.022 46.2338C149.374 47.8185 149.551 49.2272 148.67 50.2836C147.614 51.5162 145.677 51.164 143.564 50.9879C141.275 50.6358 138.986 50.4597 137.577 51.8683C136.521 53.1009 136.697 54.6856 136.873 56.2703C137.049 58.0311 137.401 59.9679 136.169 61.9048C135.288 63.3134 134.408 63.8416 133.351 64.3699C132.471 64.8981 131.415 65.2503 130.886 66.4828C129.83 68.4197 130.358 71.7652 132.119 74.9346C134.056 78.8083 138.458 83.7385 143.916 84.4428C146.381 84.7949 148.318 84.0906 150.079 83.5624C152.016 82.8581 153.953 82.1538 157.122 82.682C159.587 83.2102 160.996 84.0906 162.404 85.1471C163.637 86.0275 164.869 86.9079 166.63 87.26C167.511 87.6122 168.391 87.7883 169.447 87.7883ZM206.776 12.779C206.952 12.779 207.304 12.7789 207.48 12.955C211.178 14.8919 205.72 32.6758 203.959 38.6625C195.331 67.011 187.76 76.6954 183.886 79.6887C180.54 82.5059 173.673 88.3165 166.982 86.5557C165.222 86.2036 164.165 85.3232 162.933 84.4428C161.524 83.3863 159.939 82.3298 157.298 81.8016C153.953 81.0973 151.84 81.9777 149.727 82.682C147.966 83.3863 146.381 83.9146 144.092 83.5624C138.986 82.682 134.936 78.104 132.999 74.4063C131.415 71.413 130.886 68.4197 131.767 66.6589C132.295 65.7785 132.999 65.2503 133.88 64.8981C134.936 64.3699 136.169 63.8416 137.049 62.0809C138.282 59.7918 137.929 57.6789 137.753 55.9181C137.577 54.3334 137.401 53.1009 138.282 52.2205C139.338 50.9879 141.275 51.3401 143.388 51.5162C145.677 51.8683 147.966 52.0444 149.198 50.6358C150.431 49.2271 150.079 47.6425 149.727 45.8817C149.375 44.297 149.022 42.7122 150.079 41.3036C150.959 40.0711 152.368 40.0711 154.129 39.895C156.065 39.895 158.354 39.7189 160.467 38.1342C162.228 36.7256 162.756 35.1409 163.285 33.7323C163.813 32.3236 164.341 31.0911 165.75 30.2107C168.039 28.626 170.856 29.3303 173.497 30.0346C174.202 30.2107 174.73 30.3868 175.258 30.3868C184.062 31.9715 192.338 24.224 198.324 18.4135C202.022 15.5962 204.839 12.779 206.776 12.779Z" fill="#240100"/>
<path d="M190.049 177.413C190.401 181.286 193.746 184.104 197.444 184.28C200.261 184.28 202.902 182.871 204.487 180.23C204.311 178.821 204.311 177.413 204.135 176.004C204.135 174.772 203.959 173.539 203.959 172.483C203.607 172.13 201.142 169.137 197.444 169.313C193.57 169.665 189.697 173.187 190.049 177.413Z" fill="#F7A39C"/>
<path d="M190.225 175.3C194.627 174.772 199.029 174.244 203.431 173.892C207.128 165.264 211.178 153.467 212.587 139.38C213.291 133.218 213.291 127.407 213.115 122.301C205.191 124.062 197.092 125.646 189.168 127.407C188.112 136.563 187.76 147.128 188.464 158.925C188.992 164.56 189.52 170.194 190.225 175.3Z" fill="#F7A39C"/>
<path d="M190.401 178.821C193.042 189.914 195.331 201.711 197.444 214.213C198.676 222.489 199.733 230.588 200.613 238.336C200.613 238.864 200.789 239.392 200.789 239.92C200.789 240.096 200.789 240.273 200.789 240.449C200.965 240.449 200.965 240.449 201.142 240.449C202.726 240.625 204.311 240.801 205.896 240.977C206.072 239.744 206.072 238.336 206.248 236.751C206.6 234.286 206.952 231.117 207.304 227.771C209.945 210.163 212.763 204.529 211.178 195.549C210.474 191.851 209.065 186.569 204.663 180.406C204.487 180.23 204.487 180.054 204.311 180.054C199.557 179.526 194.979 179.173 190.401 178.821Z" fill="#F7A39C"/>
<path d="M182.301 254.887H208.537C208.889 253.654 209.065 251.893 208.361 249.956C208.185 249.252 207.833 248.724 207.657 248.548C207.128 247.491 206.424 245.907 205.896 243.442C205.72 242.737 205.544 241.857 205.544 240.976C203.959 240.8 202.374 240.624 200.79 240.448C200.613 240.448 200.613 240.448 200.437 240.448C195.683 248.372 191.457 250.309 188.288 250.661C186.351 250.837 183.006 250.309 181.949 251.893C181.773 252.774 181.949 253.83 182.301 254.887Z" fill="#F7A39C"/>
<path d="M199.909 238.512C200.085 238.864 200.261 239.392 200.437 239.92C200.613 240.096 200.613 240.273 200.789 240.449C201.142 240.977 201.67 241.505 202.374 242.033C203.431 242.914 204.839 243.266 205.896 243.442C205.72 242.738 205.544 241.857 205.544 240.977C205.72 239.744 205.72 238.336 205.896 236.751C203.959 237.279 202.198 237.807 200.261 238.336C200.261 238.336 200.085 238.512 199.909 238.512Z" fill="#240100"/>
<path d="M186.703 173.011C190.577 194.668 194.275 216.326 198.148 237.983C198.853 238.512 203.431 242.033 208.889 240.801C210.826 240.272 212.411 239.216 213.291 238.512C214.7 227.771 215.228 213.332 212.058 196.781C210.65 189.562 208.713 183.223 206.776 177.765C210.122 167.728 211.706 159.1 212.587 153.114C214.523 138.675 216.812 120.539 206.6 104.692C203.254 99.4099 199.381 95.8883 196.74 93.7754C193.746 103.108 190.929 112.616 187.936 121.948C187.055 126.174 186.175 130.752 185.647 135.682C184.062 150.12 185.118 162.798 186.703 173.011Z" fill="#FF6665"/>
<path d="M181.949 255.416H208.361C209.065 255.416 209.769 254.712 209.769 254.007C209.769 253.303 209.065 252.599 208.361 252.599H181.949C181.245 252.599 180.54 253.303 180.54 254.007C180.54 254.712 181.245 255.416 181.949 255.416Z" fill="#FF6665"/>
<path d="M186.175 254.359C189.344 254.359 192.69 254.359 195.859 254.359C195.859 251.718 196.035 249.077 196.035 246.436C195.331 246.612 194.098 246.964 192.514 247.316C185.647 248.901 183.181 249.253 181.597 251.366C181.421 251.718 181.068 252.246 180.892 253.126C182.653 253.479 184.414 253.831 186.175 254.359Z" fill="#FF6665"/>
<path d="M215.228 179.879C215.58 183.752 218.925 186.57 222.623 186.746C225.44 186.746 228.082 185.337 229.666 182.696C229.49 181.287 229.49 179.879 229.314 178.47C229.314 177.237 229.138 176.005 229.138 174.948C228.786 174.596 226.321 171.603 222.623 171.779C218.749 171.955 214.876 175.477 215.228 179.879Z" fill="#F7A39C"/>
<path d="M215.404 177.589C219.806 177.061 224.208 176.533 228.61 176.181C232.307 167.553 236.357 155.756 237.766 141.669C238.47 135.507 238.47 129.696 238.294 124.59C230.37 126.351 222.271 127.935 214.347 129.696C213.291 138.852 212.939 149.417 213.643 161.214C213.995 167.025 214.523 172.483 215.404 177.589Z" fill="#F7A39C"/>
<path d="M215.404 181.11C218.045 192.203 220.334 204.001 222.447 216.502C223.679 224.778 224.736 232.877 225.616 240.625C225.616 241.153 225.792 241.681 225.792 242.21C225.792 242.386 225.792 242.562 225.792 242.738C225.968 242.738 225.968 242.738 226.144 242.738C227.729 242.914 229.314 243.09 230.899 243.266C231.075 242.033 231.075 240.625 231.251 239.04C231.603 236.575 231.955 233.406 232.307 230.06C234.948 212.452 237.766 206.818 236.181 197.838C235.477 194.14 234.068 188.858 229.666 182.695C229.49 182.519 229.49 182.343 229.314 182.343C224.736 181.815 219.982 181.463 215.404 181.11Z" fill="#F7A39C"/>
<path d="M207.304 257.176H233.54C233.892 255.943 234.068 254.182 233.364 252.246C233.188 251.541 232.836 251.013 232.66 250.837C232.131 249.78 231.427 248.196 230.899 245.731C230.723 245.026 230.547 244.146 230.547 243.266C228.962 243.089 227.377 242.913 225.793 242.737C225.616 242.737 225.617 242.737 225.44 242.737C220.686 250.661 216.46 252.598 213.291 252.95C211.354 253.126 208.009 252.598 206.952 254.182C206.776 255.063 206.952 256.295 207.304 257.176Z" fill="#F7A39C"/>
<path d="M225.088 240.801C225.264 241.153 225.44 241.681 225.616 242.209C225.792 242.386 225.792 242.562 225.969 242.738C226.321 243.266 226.849 243.794 227.553 244.322C228.61 245.203 230.018 245.555 231.075 245.731C230.899 245.027 230.723 244.146 230.723 243.266C230.899 242.033 230.899 240.625 231.075 239.04C229.138 239.568 227.377 240.097 225.44 240.625C225.264 240.625 225.088 240.801 225.088 240.801Z" fill="#240100"/>
<path d="M238.47 240.801C237.59 241.505 236.005 242.562 234.068 243.09C228.61 244.498 224.032 240.801 223.327 240.272C219.454 218.615 215.58 196.957 211.882 175.3C212.234 160.157 212.587 144.838 212.939 129.695C212.939 127.935 213.115 125.998 213.115 124.237C216.108 114.905 218.925 105.573 221.919 96.4166C221.919 96.2405 221.919 96.2405 222.095 96.0645C222.975 96.7688 224.208 97.8252 225.44 99.0578C227.553 101.171 229.842 103.636 231.955 106.981C235.477 112.44 237.414 118.25 238.47 123.885C240.407 134.802 238.998 145.895 237.766 155.403C237.061 161.389 235.477 170.017 231.955 180.054C234.068 185.688 235.829 192.027 237.237 199.07C240.407 215.622 239.879 230.06 238.47 240.801Z" fill="#FF6665"/>
<path d="M206.952 257.705H233.364C234.068 257.705 234.772 257.001 234.772 256.296C234.772 255.592 234.068 254.888 233.364 254.888H206.952C206.248 254.888 205.543 255.592 205.543 256.296C205.543 257.001 206.248 257.705 206.952 257.705Z" fill="#FF6665"/>
<path d="M211.178 256.648C214.347 256.648 217.693 256.648 220.862 256.648C220.862 254.007 221.038 251.366 221.038 248.725C220.334 248.901 219.102 249.253 217.517 249.605C211.002 251.014 208.361 251.19 206.776 253.303C206.424 253.655 206.072 254.359 205.72 255.416C207.656 255.768 209.417 256.12 211.178 256.648Z" fill="#FF6665"/>
<path d="M194.451 59.44C190.401 70.8851 186.351 82.3301 182.301 93.7752C179.484 92.0144 176.843 90.0776 174.025 88.3168C174.73 83.5627 175.786 78.1043 177.547 72.2937C177.899 71.2372 178.251 70.1807 178.604 69.1243C178.956 67.7157 179.484 66.307 180.012 64.8984C181.245 61.3768 182.653 58.2074 184.062 55.2141C187.055 49.9317 192.162 48.5231 194.274 49.9317C196.035 50.9882 196.563 55.2141 194.451 59.44Z" fill="#F7A39C"/>
<path d="M183.71 70.7087C181.597 71.237 179.484 71.7652 177.371 72.2934C177.723 71.237 178.075 70.1805 178.427 69.124C180.188 69.4762 181.949 70.1805 183.71 70.7087Z" fill="#240100"/>
<path d="M236.357 124.766C234.244 126.174 233.012 126.35 232.131 125.998C231.427 125.822 231.427 125.47 230.723 125.294C228.962 124.766 227.905 126.703 224.912 128.111C222.271 129.344 222.095 128.463 218.045 130.224C217.165 130.576 216.108 131.104 214.7 131.104C213.291 131.281 212.234 130.928 211.53 130.576C211.354 130.576 211.354 130.576 211.178 130.576C206.6 129.344 205.191 131.281 200.613 129.696C198.676 128.992 198.324 128.639 196.916 128.463C194.979 128.463 194.274 129.168 192.338 129.52C191.457 129.696 190.401 129.696 188.992 129.52C188.992 127.055 188.992 123.709 189.52 119.836C190.225 114.025 191.633 109.271 192.514 106.982C192.866 105.925 192.866 105.749 193.218 105.221C194.098 102.58 194.098 99.9387 193.746 97.1214C193.394 94.1281 192.338 90.9587 191.633 87.261C190.577 82.683 189.873 77.4007 188.992 72.6465C188.288 67.7163 187.407 63.3144 186.175 60.145C185.999 59.4407 185.823 58.7364 185.647 58.032C185.118 55.3909 185.118 52.5736 186.527 50.2846C189.52 47.8195 193.746 48.5238 196.74 45.7066L196.916 45.5305C199.909 44.8262 202.55 44.8262 204.311 44.8262C213.115 44.8262 213.291 47.6434 219.102 46.4109C222.623 45.7066 224.56 45.1783 227.025 46.2348C227.905 46.587 230.371 47.6434 231.779 52.7497V52.9258C230.547 58.3842 229.314 63.8426 227.729 69.6532C225.44 78.4571 222.799 86.9089 220.158 94.8324C219.982 95.5367 219.806 96.0649 219.454 96.7692C219.63 96.9453 219.982 97.1214 220.158 97.2975C221.214 98.0018 222.271 98.8822 223.68 99.9386C225.793 102.052 228.082 104.517 230.194 107.862C233.188 113.145 235.301 118.955 236.357 124.766Z" fill="#F7A39C"/>
<path d="M191.281 74.407C187.489 74.407 184.414 71.3325 184.414 67.5399C184.414 63.7473 187.489 60.6729 191.281 60.6729C195.074 60.6729 198.148 63.7473 198.148 67.5399C198.148 71.3325 195.074 74.407 191.281 74.407Z" fill="#F7A39C"/>
<path d="M191.281 74.7587C191.457 74.7587 191.634 74.7587 191.986 74.7587C194.275 74.5826 196.388 73.3501 197.444 71.4132C197.62 71.2371 197.444 70.885 197.268 70.885C197.092 70.7089 196.74 70.885 196.74 71.061C195.683 72.8218 193.923 73.8783 191.81 74.0544C190.049 74.2305 188.464 73.7022 187.232 72.6457C185.999 71.5893 185.119 70.0046 184.943 68.2438C184.767 66.8352 185.295 65.2504 186.175 64.0179C186.351 63.8418 186.351 63.4897 185.999 63.4897C185.823 63.3136 185.471 63.3136 185.471 63.6657C184.414 65.0744 184.062 66.8352 184.238 68.4199C184.414 70.3567 185.295 72.1175 186.703 73.3501C187.936 74.2304 189.697 74.7587 191.281 74.7587Z" fill="#240100"/>
<path d="M212.411 72.6462C208.618 72.6462 205.544 69.5717 205.544 65.7791C205.544 61.9866 208.618 58.9121 212.411 58.9121C216.203 58.9121 219.278 61.9866 219.278 65.7791C219.278 69.5717 216.203 72.6462 212.411 72.6462Z" fill="#F7A39C"/>
<path d="M212.411 72.9961C212.587 72.9961 212.763 72.9961 212.939 72.9961C215.58 72.8201 217.869 71.2354 218.926 68.7703C219.102 68.5942 218.926 68.242 218.75 68.242C218.573 68.0659 218.221 68.242 218.221 68.4181C217.341 70.531 215.228 71.9397 212.939 72.1157C209.946 72.4679 207.128 70.531 206.248 67.5377C206.248 67.3616 205.896 67.1855 205.72 67.1855C205.544 67.1855 205.368 67.5377 205.368 67.7138C206.248 70.8832 209.241 72.9961 212.411 72.9961Z" fill="#240100"/>
<path d="M231.251 52.7475C215.932 54.5083 200.437 56.2691 185.118 58.0299C184.414 58.0299 183.71 58.206 183.005 58.206C182.829 56.4452 183.005 53.804 184.59 51.515C184.942 50.9868 185.47 50.6346 185.823 50.1064C188.816 47.6413 193.042 48.3456 196.035 45.5283C196.035 45.5283 196.211 45.5283 196.211 45.3523C197.268 44.2958 197.796 43.0632 197.972 42.0068C198.324 40.5981 198.148 39.3656 198.148 39.0134C197.972 37.0766 197.268 35.668 196.563 34.7876C198.676 32.1464 200.261 30.5617 201.317 29.5052C201.494 29.3292 201.846 29.1531 202.022 28.977C203.783 27.7444 205.191 27.5684 206.072 27.5684C206.776 28.977 208.008 30.9139 209.417 33.3789C213.819 41.3025 213.819 42.0068 215.052 42.8872C219.101 45.8805 222.975 42.8872 227.025 46.0566C229.666 48.1695 230.722 50.8107 231.251 52.7475Z" fill="#F7A39C"/>
<path d="M204.663 47.1139C204.311 47.8182 203.607 48.1703 203.079 47.9943C202.198 47.8182 201.67 46.7617 201.67 46.7617L204.663 47.1139Z" fill="#240100"/>
<path d="M201.317 49.4033C201.141 49.5794 200.789 49.7555 200.437 49.9315C199.204 50.6358 198.324 50.6359 197.444 50.6359C194.802 50.4598 192.337 50.1076 191.633 50.1076C193.57 50.1076 195.331 49.9315 197.268 49.9315L201.317 49.4033Z" fill="#240100"/>
<path d="M204.839 49.226C205.192 49.4021 205.544 49.4021 206.072 49.5782C208.009 49.9303 209.593 49.7542 210.65 49.5782C214.524 48.8739 218.045 47.9935 219.278 47.8174C216.461 48.1695 213.643 48.5217 210.826 48.8739L204.839 49.226Z" fill="#240100"/>
<path d="M236.709 126.878C235.653 125.997 234.773 125.821 234.244 125.821C233.364 125.821 232.66 126.349 232.131 125.821C231.955 125.645 231.603 125.469 231.075 125.293C230.899 125.293 230.899 125.117 230.723 125.117C228.962 124.589 227.905 126.525 224.912 127.934C222.271 129.343 222.095 128.286 218.045 130.047C217.165 130.399 216.108 130.927 214.7 130.927C213.291 131.103 212.234 130.751 211.53 130.399C206.6 128.991 205.191 130.927 200.613 129.519C198.853 128.991 198.324 128.462 196.916 128.286C194.979 128.286 194.274 128.991 192.338 129.343C191.457 129.519 190.401 129.519 188.992 129.343C188.464 129.343 187.936 129.167 187.231 128.991C188.112 123.532 188.992 117.898 190.225 111.911C191.281 106.805 192.514 101.875 193.746 97.1204C193.922 96.5922 193.922 96.24 194.098 95.8878C202.726 95.5357 211.53 95.0074 220.158 94.6553C222.623 96.7682 225.616 99.5855 228.258 103.283C234.42 112.439 236.181 121.771 236.709 126.878Z" fill="#FF6665"/>
<path d="M226.145 95.7115C221.567 97.1201 215.404 98.5288 207.833 98.7049C201.142 98.881 195.507 98.0006 191.105 97.1202C190.225 91.1335 189.344 85.1468 188.464 79.1602C187.584 78.2798 184.238 75.2865 183.534 70.3563C183.005 67.1869 183.886 64.7218 184.414 63.3131C183.886 61.7284 183.182 60.1437 182.653 58.3829C182.653 57.1504 182.653 54.8614 183.71 52.7484C186.703 47.1139 193.922 46.9379 194.274 46.9379C194.451 47.8183 195.683 53.6288 199.909 55.2135C204.663 56.9743 212.411 52.5724 215.228 43.2402C215.756 43.2402 216.636 43.2402 217.693 43.2402C220.334 43.4163 228.61 44.1206 231.251 49.2269C231.779 50.1073 232.307 51.692 231.955 54.3331C230.018 68.0672 228.081 81.9774 226.145 95.7115Z" fill="#5A78EC"/>
<path d="M204.839 127.758C205.015 127.758 205.367 127.582 205.367 127.23L204.311 99.0572C204.311 98.8811 204.135 98.7051 203.783 98.7051C203.607 98.7051 203.43 98.8811 203.43 99.2333L204.487 127.406C204.487 127.582 204.663 127.758 204.839 127.758Z" fill="#240100"/>
<path d="M209.593 121.949C209.945 121.949 210.121 121.773 209.945 121.42L207.48 100.643C207.48 100.467 207.304 100.291 206.952 100.291C206.776 100.291 206.6 100.467 206.6 100.819L209.065 121.596C209.241 121.773 209.417 121.949 209.593 121.949Z" fill="#240100"/>
<path d="M210.298 103.283C209.617 103.283 209.065 102.732 209.065 102.051C209.065 101.37 209.617 100.818 210.298 100.818C210.978 100.818 211.53 101.37 211.53 102.051C211.53 102.732 210.978 103.283 210.298 103.283Z" fill="#240100"/>
<path d="M215.932 91.3101C219.278 90.958 222.447 90.6058 225.793 90.2537C228.082 83.7388 230.018 75.8153 231.251 66.6592C231.779 62.9615 231.955 59.44 231.955 56.0945C231.779 50.1078 227.906 46.4102 225.264 46.7624C222.975 47.1145 220.686 50.6361 220.686 55.2141C219.102 67.3635 217.517 79.3368 215.932 91.3101Z" fill="#F7A39C"/>
<path d="M185.118 78.1035C184.59 79.6882 183.886 81.0969 183.358 82.6816C192.338 86.9074 203.078 90.7812 215.58 93.2463C218.573 93.7745 221.567 94.3027 224.56 94.6549C225.264 94.1266 227.201 92.5419 227.905 89.5486C228.434 87.4357 228.081 85.4988 227.905 84.6184C224.56 83.562 221.743 82.8576 220.158 82.5055C210.298 80.0404 201.846 79.3361 191.281 78.4557C188.288 78.2796 186.175 78.1035 185.118 78.1035Z" fill="#F7A39C"/>
<path d="M216.284 77.751C216.636 78.9835 216.989 80.2161 217.341 81.4486C209.769 86.2027 199.381 91.1329 186.527 93.598C183.358 94.1263 180.364 94.4784 177.547 94.8306C174.906 93.9502 172.969 91.4851 172.969 89.02C172.969 86.5549 174.554 84.9702 174.906 84.618C178.075 83.7377 180.716 83.2094 182.301 82.8573C194.627 80.5682 200.613 82.5051 211.178 79.5118C213.643 78.8074 215.404 78.1031 216.284 77.751Z" fill="#F7A39C"/>
<path d="M186.703 29.6828C187.231 31.7958 188.464 33.2044 189.872 34.7891C190.225 35.1413 193.394 38.6628 195.859 38.8389C196.739 38.8389 197.62 38.8389 197.62 38.8389C198.148 38.6628 198.676 38.4868 199.205 38.3107C199.909 37.9585 204.663 35.3174 207.48 30.3872C210.826 24.2244 211.882 12.4272 204.839 7.32091C200.437 4.1515 194.979 5.03189 192.866 5.56012C192.69 5.56012 192.337 5.73621 192.161 5.73621C192.161 5.73621 191.105 6.08837 190.048 6.6166C186.527 8.37739 184.942 11.0186 184.942 11.0186C183.534 13.4837 183.71 16.477 184.238 18.9421C184.414 19.4703 184.414 19.8225 184.59 20.1746C184.766 20.7029 184.766 21.055 184.942 21.4072C185.294 22.4636 185.47 22.9919 185.823 24.5766C186.527 27.2177 186.351 27.9221 186.703 29.6828Z" fill="#F7A39C"/>
<path d="M208.62 16.3431C210.138 16.0008 211.75 17.4151 212.221 19.5021C212.691 21.5891 211.842 23.5584 210.324 23.9007C208.807 24.243 207.195 22.8287 206.724 20.7417C206.253 18.6547 207.102 16.6854 208.62 16.3431Z" fill="#F7A39C"/>
<path d="M209.945 24.4015C210.121 24.4015 210.297 24.4015 210.474 24.4015C211.53 24.2254 212.41 23.169 212.763 21.9364C212.763 21.7604 212.763 21.4082 212.41 21.4082C212.234 21.4082 211.882 21.4082 211.882 21.7604C211.706 22.8168 211.002 23.3451 210.297 23.5211C209.945 23.5211 209.593 23.5212 209.241 23.3451C209.065 23.169 208.713 23.3451 208.713 23.5211C208.537 23.6972 208.713 24.0494 208.889 24.0494C209.241 24.2255 209.593 24.4015 209.945 24.4015Z" fill="#240100"/>
<path d="M212.41 21.5836C212.586 21.5836 212.762 21.4076 212.762 21.2315C212.762 20.7033 212.762 20.175 212.762 19.8229C212.762 19.6468 212.41 19.4707 212.234 19.4707C212.058 19.4707 211.882 19.8228 211.882 19.9989C211.882 20.3511 211.882 20.8793 211.882 21.2315C211.882 21.4076 212.058 21.5836 212.41 21.5836Z" fill="#240100"/>
<path d="M212.234 19.6467C212.586 19.4706 212.763 19.2945 212.586 19.1185C211.882 17.0055 210.297 15.773 208.537 16.1251C208.185 16.1251 207.832 16.3012 207.48 16.6534C207.304 16.8294 207.304 17.0055 207.48 17.3577C207.656 17.5337 207.832 17.5337 208.184 17.3577C208.361 17.1816 208.713 17.0055 208.889 17.0055C210.121 16.6534 211.354 17.8859 211.882 19.4706C211.882 19.4706 212.058 19.6467 212.234 19.6467Z" fill="#240100"/>
<path d="M209.417 22.4657C209.593 22.4657 209.769 22.2897 209.769 22.1136L210.297 18.4159C210.297 18.2399 210.121 17.8877 209.945 17.8877C209.769 17.8877 209.417 18.0638 209.417 18.2398L208.889 21.9375C208.889 22.2897 209.065 22.4657 209.417 22.4657C209.241 22.4657 209.417 22.4657 209.417 22.4657Z" fill="#240100"/>
<path d="M209.593 20.3518C209.769 20.3518 209.769 20.3518 209.945 20.1757C210.121 19.9997 210.121 19.6475 209.945 19.4714L209.065 18.591C208.889 18.415 208.537 18.415 208.361 18.591C208.184 18.7671 208.184 19.1193 208.361 19.2953L209.241 20.1757C209.417 20.3518 209.417 20.3518 209.593 20.3518Z" fill="#240100"/>
<path d="M196.563 22.1113C196.739 22.8156 197.62 23.1678 198.5 22.9917C199.381 22.8156 199.909 21.9352 199.733 21.2309C199.557 20.5266 198.676 20.1745 197.796 20.3505C196.915 20.7027 196.387 21.407 196.563 22.1113Z" fill="#240100"/>
<path d="M201.846 19.9986C199.029 19.2943 197.796 19.6464 197.268 20.3507C196.74 20.879 196.916 21.7594 196.563 21.9354C196.211 21.9354 195.683 21.055 196.035 20.1747C196.211 19.6464 196.74 19.2943 196.74 19.2943C198.324 18.0617 201.494 19.8225 201.846 19.9986Z" fill="#DD706B"/>
<path d="M196.563 22.2882H196.74C196.916 22.2882 196.916 22.1122 196.916 21.9361C196.916 21.76 197.092 21.4079 197.092 21.2318C197.62 20.3514 199.557 19.9992 201.67 20.5275C201.846 20.5275 202.198 20.5275 202.198 20.1753C202.198 19.9992 202.198 19.6471 201.846 19.6471C199.205 18.9428 197.092 19.2949 196.211 20.7036C196.211 20.8796 196.035 20.8796 196.035 21.0557L195.331 20.7036C195.155 20.5275 194.803 20.7035 194.803 20.8796C194.627 21.0557 194.803 21.4079 194.979 21.4079L196.211 22.1122C196.387 22.2883 196.387 22.2882 196.563 22.2882Z" fill="#240100"/>
<path d="M185.647 24.5776C185.647 25.2819 186.351 25.9862 187.231 25.9862C188.112 25.9862 188.816 25.458 188.816 24.5776C188.816 23.8733 188.112 23.1689 187.231 23.1689C186.351 23.345 185.647 23.8733 185.647 24.5776Z" fill="#240100"/>
<path d="M191.105 24.0493C188.464 22.6407 187.231 22.6407 186.527 23.1689C185.823 23.6971 185.647 24.5775 185.471 24.4014C185.119 24.4014 184.942 23.345 185.295 22.6407C185.647 22.1124 186.175 21.9364 186.351 21.9364C188.288 21.4081 190.753 23.8732 191.105 24.0493Z" fill="#DD706B"/>
<path d="M185.471 24.7528C185.647 24.7528 185.823 24.5767 185.823 24.4006C185.999 24.2246 185.999 24.0485 186.175 23.8724C187.055 23.1681 188.816 23.3442 190.753 24.5767C190.929 24.7528 191.281 24.5767 191.281 24.4006C191.457 24.2246 191.281 23.8724 191.105 23.8724C188.816 22.4638 186.527 22.2877 185.471 23.3442C185.294 23.5203 185.294 23.5203 185.118 23.6963L184.59 23.1681C184.414 22.992 184.062 22.992 183.886 23.1681C183.71 23.3442 183.71 23.6964 183.886 23.8724L184.766 24.9289C185.294 24.7528 185.294 24.7528 185.471 24.7528Z" fill="#240100"/>
<path d="M202.374 16.6518C201.318 16.4757 199.909 16.4757 198.148 16.6518C196.74 16.8279 195.331 17.18 194.451 17.5322C194.451 17.3561 194.451 17.18 194.451 16.8279C194.627 16.1236 194.803 15.7714 194.979 15.4193C196.211 15.2432 197.092 15.2432 197.972 15.2432C199.733 15.2432 200.261 15.4193 200.613 15.4193C201.494 15.7714 202.022 16.2996 202.374 16.6518Z" fill="#240100"/>
<path d="M194.451 15.4189C194.275 15.595 194.275 15.9472 194.099 16.2993C193.922 17.0036 194.099 17.5319 194.099 17.5319C194.099 17.5319 194.275 16.8276 194.275 16.6515C194.275 16.2993 194.275 16.1232 194.451 15.595C194.451 15.4189 194.451 15.4189 194.627 15.4189H194.451Z" fill="#240100"/>
<path d="M183.886 18.4137C183.886 18.9419 183.886 19.2941 184.062 19.6462C184.59 19.6462 184.942 19.6462 185.47 19.6462C187.055 19.6462 188.288 19.9984 189.168 20.1745C189.168 19.9984 189.168 19.8223 189.168 19.4702C188.992 18.9419 188.816 18.4137 188.464 18.0615C187.231 18.0615 186.351 18.0615 185.47 18.0615C184.766 18.4137 184.238 18.4137 183.886 18.4137Z" fill="#240100"/>
<path d="M188.992 18.4141C189.168 18.5901 189.168 18.9423 189.344 19.2945C189.52 19.8227 189.52 20.527 189.344 20.527C189.344 20.527 189.168 19.8227 188.992 19.6466C188.992 19.2944 188.816 19.1184 188.64 18.5902C188.64 18.4141 188.464 18.4141 188.464 18.4141H188.992Z" fill="#240100"/>
<path d="M193.922 27.5705C193.394 27.3945 193.042 27.3945 192.69 27.5705C192.338 27.7466 191.985 27.7466 191.633 28.0988C192.161 28.2749 192.514 28.2749 192.866 28.0988C193.218 28.0988 193.57 27.9227 193.922 27.5705Z" fill="#240100"/>
<path d="M193.922 34.4366C194.274 34.4366 194.626 34.4366 194.803 34.2605C195.507 34.0844 196.211 33.9083 196.739 33.3801C196.916 33.204 196.916 33.0279 196.916 32.8518C196.739 32.6758 196.563 32.6758 196.387 32.6758C195.859 33.0279 195.331 33.204 194.627 33.3801C194.45 33.3801 194.098 33.3801 193.746 33.3801C193.57 33.3801 193.394 33.5562 193.394 33.9083C193.394 34.2605 193.57 34.4366 193.922 34.4366Z" fill="#240100"/>
<path d="M194.111 29.7364C195.748 29.5106 197.184 30.1085 197.317 31.0718C197.449 32.0351 196.23 32.9991 194.592 33.2249C192.954 33.4507 191.519 32.8529 191.386 31.8896C191.253 30.9262 192.473 29.9623 194.111 29.7364Z" fill="#DD706B"/>
<path d="M190.577 33.2036C192.161 33.0275 193.57 32.6753 194.979 32.1471C196.387 31.795 197.972 31.2667 199.204 30.5624C199.381 30.3863 199.557 30.2103 199.381 30.0342C199.204 29.8581 199.028 29.682 198.852 29.8581C197.444 30.3863 196.035 30.9145 194.626 31.4428C193.218 31.7949 191.809 32.1471 190.401 32.3232C190.224 32.3232 190.048 32.6753 190.048 32.8514C190.225 33.0275 190.401 33.2036 190.577 33.2036Z" fill="#240100"/>
<path d="M231.075 67.8911C230.371 67.539 229.842 67.3629 229.138 67.0107C225.793 67.3629 222.447 67.8911 219.102 68.2433C222.975 69.1237 226.849 70.1801 230.723 71.0605L231.075 67.8911Z" fill="#240100"/>
<path d="M234.42 68.5962C228.61 68.4202 222.623 68.2441 216.812 68.068C217.341 62.2574 218.045 56.4468 218.573 50.6363C219.806 46.7625 223.679 44.4735 227.025 45.3539C229.49 46.0582 231.427 48.1712 231.955 50.9884C232.659 56.799 233.54 62.7857 234.42 68.5962Z" fill="#5A78EC"/>
<path d="M191.281 71.4125C186.527 70.8843 181.773 70.356 176.843 69.8278C177.723 66.3062 179.132 62.4325 181.245 58.3827C182.125 56.6219 183.005 55.2133 183.71 53.8047C186.175 55.0372 188.64 56.4459 191.105 57.6784V71.4125H191.281Z" fill="#5A78EC"/>
<path d="M215.932 83.9149C214.171 83.5627 212.587 83.3867 210.826 83.0345C210.826 82.1541 211.002 81.2737 211.002 80.3933C211.53 79.3369 212.235 77.7521 213.819 76.3435C216.637 73.7023 219.806 73.1741 221.039 72.998C224.56 73.5263 226.321 73.8784 226.321 74.4067C226.321 74.5828 225.969 74.7588 225.441 74.9349C224.032 74.9349 222.447 75.111 221.039 75.111C220.158 75.6392 219.278 76.1675 218.397 76.6957C219.278 76.3435 220.334 75.8153 221.215 75.4631C223.504 75.6392 226.321 75.8153 226.321 76.3435C226.321 76.8718 223.328 77.4 221.039 77.7522C220.334 78.2804 219.63 78.9847 218.926 79.5129C219.982 79.1608 220.862 78.8086 221.919 78.4565C224.736 78.4565 226.145 78.8086 226.145 79.1608C226.145 79.3369 225.969 79.5129 225.441 79.8651C224.208 80.0412 223.152 80.2172 221.919 80.3933C221.039 80.7455 219.982 80.9216 219.102 81.2737C223.504 81.6259 225.793 82.1541 225.617 82.5063C225.617 82.8584 223.504 83.2106 219.454 83.3867C218.926 83.3867 218.221 83.3867 217.341 83.5627C216.813 83.3867 216.284 83.7388 215.932 83.9149Z" fill="#F7A39C"/>
<path d="M210.826 80.9213C211.002 80.9213 211.178 80.7452 211.178 80.7452C211.882 79.3365 212.763 77.9279 213.819 76.8715C215.052 75.6389 216.636 74.7585 218.397 74.0542C218.573 74.0542 218.749 73.7021 218.749 73.526C218.749 73.3499 218.397 73.1738 218.221 73.1738C216.284 73.8781 214.7 74.7585 213.291 76.1672C212.058 77.3997 211.002 78.8083 210.298 80.393C210.122 80.5691 210.298 80.9213 210.474 80.9213C210.826 80.9213 210.826 80.9213 210.826 80.9213Z" fill="#240100"/>
<path d="M216.989 83.9142C216.989 83.9142 217.165 83.9142 216.989 83.9142C217.341 83.9142 217.517 83.7382 217.693 83.7382C218.397 83.5621 218.925 83.5621 219.63 83.5621C226.145 83.0338 226.145 82.6817 226.145 82.1534C226.145 81.6252 226.145 81.273 221.214 80.7448L222.095 80.5687L225.44 80.0405C226.145 79.6884 226.673 79.5123 226.673 78.984C226.673 78.4558 225.969 78.1037 222.623 77.9276C226.673 77.2233 226.673 76.8711 226.673 76.3429C226.673 75.9907 226.497 75.6385 224.736 75.4625H225.264C225.969 75.2864 226.497 75.1103 226.497 74.5821C226.497 74.0538 226.145 73.5256 220.862 72.8213C220.862 72.8213 220.862 72.8213 220.686 72.8213C219.806 72.9974 219.102 73.1735 218.221 73.3495C218.045 73.3495 217.869 73.7017 217.869 73.8778C217.869 74.0538 218.221 74.2299 218.397 74.2299C219.102 74.0538 219.806 73.8778 220.686 73.7017C223.68 74.0538 224.736 74.406 225.264 74.5821H225.088L220.862 74.7582H220.686L218.045 76.3429C217.869 76.5189 217.869 76.695 217.869 76.8711C218.045 77.0472 218.221 77.2233 218.397 77.0472L221.214 75.8146C223.68 75.9907 224.736 76.1668 225.44 76.1668C224.912 76.3429 223.68 76.695 221.038 77.0472C221.038 77.0472 220.862 77.0472 220.862 77.2232L218.749 78.984C218.573 79.1601 218.573 79.3362 218.573 79.5123C218.749 79.6883 218.925 79.8644 219.102 79.6884L221.919 78.6319C224.208 78.6319 225.088 78.8079 225.44 78.984C225.44 78.984 225.264 79.1601 225.088 79.1601L221.391 79.8644L218.749 80.5687C218.573 80.5687 218.397 80.7448 218.397 81.097C218.397 81.2731 218.573 81.4491 218.749 81.4491C221.919 81.8013 223.503 81.9774 224.208 82.1534C223.503 82.3295 221.919 82.5056 219.278 82.6817C218.573 82.6817 217.869 82.6817 217.165 82.8578C216.989 82.8578 216.812 83.0338 216.46 83.0338C216.284 83.0338 216.108 83.386 216.108 83.5621C216.636 83.7381 216.812 83.9142 216.989 83.9142Z" fill="#240100"/>
<path d="M186.703 83.209C188.288 83.0329 189.696 82.6808 191.281 82.5047C191.281 81.6243 191.105 80.92 191.105 80.0396C190.753 79.1592 189.872 77.7506 188.64 76.342C186.175 74.0529 183.358 73.5247 182.301 73.3486C179.132 73.7008 177.547 74.229 177.547 74.5812C177.547 74.7573 177.723 74.9334 178.251 74.9334C179.484 74.9334 180.892 75.1094 182.125 75.1094C182.829 75.6376 183.71 76.1659 184.414 76.518C183.534 76.1659 182.653 75.8137 181.949 75.2855C179.836 75.4616 177.371 75.6376 177.371 75.9898C177.371 76.342 180.012 76.8702 182.125 77.2223C182.653 77.7506 183.358 78.2788 183.886 78.8071C183.005 78.4549 182.125 78.1027 181.245 77.7506C178.779 77.7506 177.371 77.9267 177.371 78.2788C177.371 78.4549 177.547 78.631 178.075 78.8071C179.132 78.9831 180.188 79.1592 181.245 79.3353C182.125 79.6875 183.005 79.8635 183.886 80.2157C180.012 80.5679 178.075 80.92 178.075 81.2722C178.075 81.6243 179.836 81.8004 183.534 82.1525C184.062 82.1525 184.59 82.1526 185.294 82.3286C185.823 82.6808 186.351 83.0329 186.703 83.209Z" fill="#F7A39C"/>
<path d="M185.823 83.2116C185.999 83.2116 186.175 83.0355 186.175 82.8594C186.175 82.6833 186.175 82.3312 185.823 82.3312C185.647 82.3312 185.471 82.1551 185.295 82.1551C184.59 81.979 184.062 81.979 183.358 81.979C181.245 81.8029 180.012 81.6268 179.308 81.6268C180.012 81.4508 181.421 81.2747 183.886 81.0986C184.062 81.0986 184.238 80.9225 184.238 80.7465C184.238 80.5704 184.062 80.3943 183.886 80.2182L181.245 79.3378L178.075 78.8096C178.427 78.6335 179.308 78.6335 181.069 78.4575L183.534 79.3378C183.71 79.3378 183.886 79.3378 184.062 79.1618C184.238 78.9857 184.062 78.8096 183.886 78.6335L182.125 77.0488C182.125 77.0488 181.949 77.0488 181.949 76.8727C179.836 76.5206 178.78 76.3445 178.251 76.1684C178.78 75.9924 179.836 75.9924 181.773 75.8163L184.238 76.8727C184.414 77.0488 184.766 76.8728 184.766 76.6967C184.942 76.5206 184.766 76.1684 184.59 76.1684L182.301 74.7598H182.125L178.251 74.5837C178.78 74.4076 179.836 74.2316 182.301 73.8794C183.006 74.0555 183.71 74.0555 184.238 74.4077C184.414 74.4077 184.766 74.4077 184.766 74.0555C184.766 73.8794 184.766 73.5273 184.414 73.5273C183.71 73.3512 183.006 73.1751 182.301 72.999C182.301 72.999 182.301 72.999 182.125 72.999C177.371 73.7033 177.019 74.0555 177.019 74.5837C177.019 75.112 177.547 75.288 178.075 75.4641H178.251C177.019 75.6402 176.843 75.9923 176.843 76.3445C176.843 76.8727 177.019 77.2249 180.012 77.7531C177.371 77.9292 176.843 78.1053 176.843 78.6335C176.843 79.1618 177.371 79.3378 177.723 79.69L180.893 80.2182L181.421 80.3943C177.195 80.9225 177.195 81.2747 177.195 81.6268C177.195 82.1551 177.195 82.5073 183.006 82.8594C183.71 82.8594 184.238 82.8594 184.766 83.0355C185.295 83.0355 185.471 83.0355 185.823 83.2116C185.647 83.2116 185.647 83.2116 185.823 83.2116Z" fill="#240100"/>
<path d="M205.896 91.4855C206.072 91.4855 206.248 91.3095 206.248 91.3095C206.424 91.1334 206.248 90.7812 206.072 90.7812L187.055 82.5055C186.879 82.3295 186.527 82.5056 186.527 82.6816C186.351 82.8577 186.527 83.2099 186.703 83.2099L205.72 91.4855C205.72 91.4855 205.72 91.4855 205.896 91.4855Z" fill="#240100"/>
<path d="M216.989 83.9144C217.165 83.9144 217.341 83.7384 217.341 83.5623C217.341 83.3862 217.341 83.034 216.989 83.034L208.537 80.2168C208.361 80.2168 208.009 80.2168 208.009 80.5689C208.009 80.745 208.009 81.0972 208.361 81.0972L216.989 83.9144Z" fill="#240100"/>
<path d="M211.002 16.4766C210.65 17.8852 209.769 19.4699 208.537 19.646C207.48 19.646 206.952 18.5895 205.896 17.5331C203.431 14.8919 200.789 15.5962 194.451 13.8354C189.696 12.6029 186.527 11.7225 186.351 10.1378C185.999 8.02485 190.929 5.20761 195.331 4.50329C200.437 3.79898 205.544 6.08799 208.537 9.60955C209.417 10.4899 211.706 13.3072 211.002 16.4766Z" fill="#240100"/>
<path d="M190.224 12.9558C189.168 15.9491 185.823 18.4142 184.062 17.7099C182.653 17.0056 182.301 14.3644 182.829 12.4276C183.71 8.90602 187.935 6.26485 189.696 7.14524C191.105 7.84956 190.929 10.8429 190.224 12.9558Z" fill="#240100"/>
<path d="M212.235 156.459C212.411 156.459 212.587 156.283 212.763 156.107L213.291 134.977C213.291 134.801 213.115 134.449 212.939 134.449C212.763 134.449 212.411 134.625 212.411 134.801L211.882 155.931C211.706 156.283 212.059 156.459 212.235 156.459Z" fill="#240100"/>
<path d="M197.268 30.21C197.444 30.386 196.035 31.9707 193.922 32.499C192.866 32.8511 191.633 32.6751 191.633 32.499C191.633 32.3229 192.161 32.1468 193.922 31.4425C196.916 30.386 197.268 30.21 197.268 30.21Z" fill="white"/>
<path d="M198.324 39.192C199.205 38.8399 199.909 38.6638 200.613 38.3116C201.67 37.7834 202.726 36.903 203.606 36.1987C203.783 36.0226 203.783 35.6704 203.606 35.4944C203.43 35.3183 203.078 35.3183 202.902 35.4944C202.022 36.3748 201.141 36.903 200.085 37.6073C199.381 37.9595 198.852 38.3116 198.148 38.4877C197.972 38.4877 197.796 38.8398 197.796 39.0159C197.972 39.0159 197.972 39.192 198.324 39.192Z" fill="#240100"/>
<path d="M123.097 59.4416H14.6333C16.7462 56.6244 20.0918 54.6875 24.1416 54.6875H112.533C116.583 54.8636 120.456 56.6244 123.097 59.4416Z" fill="#240100"/>
<path d="M135.247 257.177H46.8557C42.9819 257.177 39.1082 255.592 36.291 252.775C33.8259 250.31 32.2412 247.14 31.889 243.795L12.1682 68.0688C11.8161 64.8994 12.5204 61.7299 14.2812 59.4409C16.5702 56.2715 20.0918 54.5107 24.1416 54.5107H112.533C116.583 54.5107 120.632 56.2715 123.45 59.4409C125.739 61.906 127.147 64.8994 127.499 68.0688L147.22 243.795C147.572 247.14 146.692 250.486 144.755 252.951C142.642 255.416 139.121 257.177 135.247 257.177ZM24.1416 55.2151C20.4439 55.2151 17.0984 56.7998 14.9855 59.7931C13.4008 62.0821 12.6965 64.8994 13.0486 67.8927L32.7694 243.619C33.1216 246.788 34.7063 249.781 36.9953 252.07C39.6364 254.712 43.3341 256.296 46.8557 256.296H135.247C138.768 256.296 142.114 254.712 144.227 252.07C146.164 249.781 146.868 246.788 146.516 243.619L126.795 67.8927C126.443 64.8994 125.034 62.0821 122.921 59.7931C120.104 56.7998 116.407 55.2151 112.709 55.2151H24.1416Z" fill="#240100"/>
<path d="M144.403 252.423C142.29 255.064 138.945 256.825 135.071 256.825H46.6798C42.8061 256.825 39.1085 255.064 36.4673 252.423H144.403Z" fill="#240100"/>
<path d="M134.015 248.197H45.6233C43.1582 248.197 41.0453 246.26 40.8692 243.795L40.1649 238.337C39.9888 237.104 40.3409 236.048 41.0453 235.167C41.7496 234.287 42.8061 233.935 44.0386 233.935H132.43C134.895 233.935 137.008 235.871 137.184 238.337L137.888 243.795C138.064 245.027 137.712 246.084 137.008 246.964C136.127 247.845 135.071 248.197 134.015 248.197ZM44.0386 234.815C43.1582 234.815 42.2778 235.167 41.7496 235.871C41.2214 236.576 40.8692 237.456 41.0453 238.337L41.7496 243.795C41.9257 245.732 43.6864 247.316 45.6233 247.316H134.015C134.895 247.316 135.775 246.964 136.304 246.26C136.832 245.556 137.184 244.675 137.008 243.795L136.304 238.337C136.128 236.4 134.367 234.815 132.43 234.815H44.0386Z" fill="#240100"/>
<path d="M119.048 66.4852C118.872 66.4852 118.872 66.4852 118.696 66.3091C117.815 65.6048 115.702 63.668 112.357 63.4919C108.659 63.3158 106.546 65.4287 106.018 65.957C105.842 66.133 105.666 66.133 105.314 65.957C105.138 65.7809 105.138 65.4287 105.314 65.2527C106.018 64.5483 108.307 62.2593 112.357 62.4354C115.878 62.6115 118.344 64.5483 119.224 65.4287C119.4 65.6048 119.4 65.957 119.224 66.133C119.4 66.4852 119.224 66.4852 119.048 66.4852Z" fill="#240100"/>
<path d="M116.231 67.8922H116.055C115.35 67.3639 114.294 66.8357 112.885 66.8357C111.124 66.6596 110.068 67.3639 109.54 67.7161C109.364 67.8922 109.011 67.8922 109.011 67.54C108.835 67.3639 108.835 67.0118 109.187 67.0118C109.892 66.4835 111.3 65.7792 113.237 65.9553C114.822 66.1314 116.055 66.6596 116.935 67.1879C117.111 67.3639 117.111 67.54 117.111 67.7161C116.583 67.8922 116.407 67.8922 116.231 67.8922Z" fill="#240100"/>
<path d="M114.822 70.3581C114.646 70.3581 114.646 70.3581 114.47 70.1821C114.294 70.006 113.765 69.4777 112.885 69.4777C112.005 69.4777 111.476 69.8299 111.3 70.006C111.124 70.1821 110.772 70.1821 110.596 70.006C110.42 69.8299 110.42 69.4777 110.596 69.3017C110.772 69.1256 111.653 68.4213 112.885 68.5974C113.942 68.7734 114.646 69.3017 114.998 69.6538C115.174 69.8299 115.174 70.1821 114.998 70.3581C114.998 70.3581 114.998 70.3581 114.822 70.3581Z" fill="#240100"/>
<path d="M114.646 72.9982C114.646 73.7025 114.294 74.2307 113.59 74.2307C112.885 74.2307 112.357 73.7025 112.181 72.9982C112.181 72.2939 112.533 71.7656 113.237 71.7656C113.942 71.7656 114.47 72.2939 114.646 72.9982Z" fill="#240100"/>
<ellipse opacity="0.5" cx="43.92" cy="113.848" rx="10.9867" ry="4.35811" fill="#240100"/>
<path d="M44.1126 113.677L44.6939 114.491L44.0876 114.924L43.4992 114.467L44.1126 113.677ZM44.1126 113.677C43.4992 114.467 43.4988 114.467 43.4983 114.466L43.4964 114.465L43.4899 114.46L43.4656 114.441C43.4445 114.424 43.4135 114.4 43.373 114.368C43.2919 114.304 43.1728 114.209 43.0181 114.084C42.7087 113.835 42.257 113.465 41.6834 112.983C40.5361 112.019 38.9005 110.603 36.9393 108.788C33.0182 105.16 27.7889 99.934 22.5573 93.5401C12.1215 80.7858 1.54987 63.2322 1.54987 44.3694C1.54987 20.8626 20.6059 1.80664 44.1126 1.80664C67.6194 1.80664 86.6754 20.8626 86.6754 44.3694C86.6754 64.5235 76.1129 82.0753 65.6598 94.524C60.4237 100.76 55.1897 105.746 51.2645 109.173C49.3013 110.887 47.6638 112.213 46.5147 113.112C45.9402 113.561 45.4876 113.904 45.1774 114.136C45.0223 114.251 44.9027 114.339 44.8213 114.399C44.7806 114.428 44.7494 114.451 44.7281 114.466L44.7035 114.484L44.6968 114.489L44.6949 114.49C44.6943 114.491 44.6939 114.491 44.1126 113.677Z" fill="#C4C4C4" stroke="#DF2025" stroke-width="2"/>
<mask id="mask1_1522_1934" style="mask-type:alpha" maskUnits="userSpaceOnUse" x="2" y="2" width="84" height="112">
<path d="M2.54987 44.3694C2.54987 81.3919 44.1126 113.677 44.1126 113.677C44.1126 113.677 85.6754 83.9896 85.6754 44.3694C85.6754 21.4149 67.0671 2.80664 44.1126 2.80664C21.1582 2.80664 2.54987 21.4149 2.54987 44.3694Z" fill="#C4C4C4"/>
</mask>
<g mask="url(#mask1_1522_1934)">
<rect width="87.7145" height="110.871" transform="matrix(-1 0 0 1 87.9701 2.80664)" fill="#DF2025"/>
<path d="M80.9822 72.1572C80.8061 75.1505 80.63 78.1438 80.454 81.1372C78.1649 80.785 75.8759 80.2568 73.5869 79.9046C71.6501 79.5525 69.7132 79.2003 67.7763 78.8481C66.7198 78.6721 65.8395 78.496 64.783 78.3199C60.0289 77.4395 55.2748 76.7352 50.5207 75.8548C50.1685 75.5027 48.936 73.918 49.1121 71.805C49.2881 69.516 50.6967 67.0509 52.9858 65.8184C55.4508 65.9944 57.9159 66.1705 60.7332 66.6988C61.0853 66.6988 61.4375 66.6987 61.7897 66.8748C63.3744 67.227 64.9591 67.4031 66.3677 67.7552C68.3046 68.2835 70.2414 68.8117 72.1783 69.3399C75.5238 70.0442 78.341 71.1007 80.9822 72.1572Z" fill="#F7A39C"/>
<path d="M72.1782 68.9893C72.5304 72.6869 73.0586 76.2085 73.4108 79.9061C71.4739 79.5539 69.5371 79.2018 67.6002 78.8496L65.4872 75.3281C67.7763 73.2151 70.0653 71.1022 72.1782 68.9893Z" fill="#240100"/>
<path d="M43.8296 110.014C45.4143 120.579 47.1751 131.319 48.7598 141.884C48.9359 142.588 48.9359 143.293 49.112 143.821C49.2881 144.349 49.288 145.054 49.4641 145.582C49.4641 145.934 49.4641 146.11 49.6402 146.462C49.6402 146.638 49.6402 146.814 49.6402 146.99C49.6402 147.166 49.6402 147.166 49.6402 147.343C49.6402 147.519 49.8163 147.519 49.9924 147.695C50.6967 148.399 52.1053 149.632 54.3943 150.16C57.2116 150.688 59.5006 149.808 60.2049 149.455C60.2049 149.455 60.2049 149.455 60.2049 149.279V149.103C60.2049 148.223 60.2049 146.99 60.7331 145.758C60.7331 145.582 60.9092 145.406 60.9092 145.406C62.846 139.243 65.1351 129.03 62.4939 116.881C61.6135 112.655 60.2049 108.957 58.7963 105.788C53.69 107.021 48.7598 108.605 43.8296 110.014Z" fill="#F7A39C"/>
<path d="M30.6236 107.901C26.9259 117.938 23.2282 128.15 19.5306 138.187C19.3545 138.891 19.0024 139.419 18.8263 140.124C18.6502 140.652 18.4742 141.18 18.122 141.884C18.122 142.061 17.9459 142.413 17.7698 142.765C17.7698 142.941 17.5937 143.117 17.5937 143.293C17.5937 143.469 17.5937 143.469 17.5937 143.469C17.5937 143.645 17.5937 143.821 17.7698 143.997C18.122 145.054 18.8263 146.815 20.411 148.223C22.5239 150.16 24.989 150.336 25.8694 150.336C25.8694 150.336 25.8694 150.16 26.0455 150.16C26.3977 149.28 27.102 148.399 27.9824 147.519C28.1585 147.343 28.3345 147.343 28.3345 147.343C33.0886 142.941 39.9557 135.017 43.4772 123.044C44.7098 118.818 45.2381 114.944 45.5902 111.423C40.66 110.014 35.7298 108.958 30.6236 107.901Z" fill="#F7A39C"/>
<path d="M29.3911 111.599C39.6037 110.718 49.6401 109.662 59.8527 108.782L58.7962 78.32C58.4441 69.5161 51.2248 62.6491 42.4209 63.0012C33.617 63.3534 26.75 70.5726 27.1022 79.3765C27.8065 90.1173 28.6868 100.858 29.3911 111.599Z" fill="#F7A39C"/>
<path d="M50.3446 61.5928C49.9924 60.1841 49.8164 58.7755 49.6403 57.3669L49.4642 55.7822C49.112 53.4932 48.936 51.3802 48.936 49.4434L46.9991 49.6194L42.7732 49.9716L41.1885 50.1477L38.3713 50.3238C38.3713 52.9649 38.3713 55.43 38.3713 58.0712C38.3713 58.2473 38.3713 58.4234 38.3713 58.5994C38.3713 60.8885 38.3713 63.1775 38.3713 65.6426C38.3713 66.8751 38.3713 68.2837 38.5474 69.5163C42.9493 68.812 47.1752 68.1077 51.5771 67.4033C51.225 65.8186 50.6967 64.2339 50.5207 62.4732L50.3446 61.5928Z" fill="#F7A39C"/>
<path d="M28.8629 90.6475C29.215 90.6475 29.3911 90.2954 29.215 90.1193L27.8064 83.4283C27.8064 83.2522 27.4542 83.0762 27.2781 83.0762C27.102 83.0762 26.926 83.4283 26.926 83.6044L28.3346 90.2954C28.5107 90.4715 28.6868 90.6475 28.8629 90.6475Z" fill="#240100"/>
<path d="M41.3647 181.856C44.0059 182.384 47.7035 182.56 51.7533 182.208C56.1553 181.856 59.8529 180.799 62.6702 179.919C62.4941 167.945 62.4941 155.796 62.318 143.823C63.3745 139.245 64.0788 133.258 63.9027 126.391C63.5506 117.059 61.6137 109.487 59.8529 104.205C54.7466 107.022 49.4643 109.663 44.358 112.481C44.8863 124.278 45.4145 135.899 45.9427 147.696C44.358 159.141 42.9494 170.587 41.3647 181.856Z" fill="#5A78EC"/>
<path d="M17.7702 142.062C16.8898 142.062 15.4812 142.062 13.8965 142.238C13.8965 142.238 10.5509 142.59 7.90977 143.294C4.21213 144.175 -2.65491 148.753 -9.52197 156.324C-7.76118 161.607 -5.2961 167.593 -1.77453 173.58C-0.894142 175.165 0.162338 176.573 1.04273 177.982C9.67056 169.002 18.4745 159.846 27.1023 150.866C30.4478 148.049 35.5541 143.294 39.7799 135.899C44.8862 126.919 46.1188 118.467 46.2949 113.713C50.8729 110.544 55.4509 107.374 60.0289 104.205C49.8164 105.085 39.6039 105.966 29.3913 106.846C25.3415 118.643 21.4678 130.265 17.7702 142.062Z" fill="#5A78EC"/>
<path d="M27.102 113.185C38.195 110.896 49.464 108.783 60.5569 106.494C60.2047 103.853 59.8526 101.211 59.5004 98.5703C49.2879 99.9789 39.0753 101.211 28.8628 102.62C28.1585 106.142 27.6303 109.663 27.102 113.185Z" fill="#FFCE33"/>
<path d="M19.3547 107.548C22.172 109.485 30.9759 115.296 43.4775 114.768C53.3378 114.416 60.3809 110.19 63.3743 108.077C61.6135 95.5751 59.8527 82.8975 58.268 70.396C57.5637 69.6916 56.6833 68.8113 55.6268 68.107C53.69 66.6983 51.9292 65.6419 50.3445 65.1136C50.8727 66.5222 50.8727 67.5787 50.3445 67.9309C49.1119 69.1634 45.2382 67.5787 38.1951 63.1768C36.6104 63.5289 33.9692 64.2332 31.152 66.3462C29.7434 67.5787 28.6869 68.8113 28.1586 69.6916C25.1653 82.3693 22.348 94.8708 19.3547 107.548Z" fill="#4C4C4A"/>
<path d="M11.7829 83.251C13.5437 85.7161 15.1284 88.1812 16.7131 90.6463C18.4739 89.2377 20.2347 87.653 21.9954 86.2444C23.5802 85.0118 24.9888 83.6032 26.5735 82.3707C27.2778 81.6663 28.1582 81.1381 28.8625 80.4338C32.5602 77.2644 36.2578 74.2711 39.9554 71.1016C40.1315 70.5734 40.3076 68.6365 39.0751 66.8758C37.8425 64.9389 35.3774 63.7064 32.7362 63.5303C30.6233 64.9389 28.6864 66.3475 26.5735 68.1083C26.2213 68.2844 26.0453 68.4605 25.6931 68.8126C24.4606 69.8691 23.228 70.9256 22.1715 71.982C20.5868 73.3907 19.1782 74.7993 17.9457 76.2079C15.4806 78.4969 13.5437 80.962 11.7829 83.251Z" fill="#F7A39C"/>
<path d="M17.7699 76.0332C19.1785 79.3787 20.5871 82.7242 22.1718 86.0697C23.7565 84.8371 25.1652 83.4285 26.7499 82.1959V78.1461C23.7565 77.4418 20.7632 76.7375 17.7699 76.0332Z" fill="#240100"/>
<path d="M21.8196 58.7754C20.7631 58.2472 19.7066 57.5429 18.6501 57.0146C15.6568 60.7123 12.1353 66.5229 10.9027 74.7985C10.3745 78.144 10.3745 81.1374 10.5505 84.1307C10.5505 84.3068 10.3745 84.6589 10.3745 85.1872C10.3745 85.1872 10.3745 86.0676 10.7266 86.9479C11.7831 89.413 13.72 90.2934 13.72 90.2934C15.3047 90.9977 16.8894 90.6456 17.2415 90.4695C17.9458 89.413 18.298 88.5326 18.6501 87.8283C19.3545 86.2436 19.8827 83.2503 20.0588 82.7221C20.0588 82.7221 20.2348 82.3699 20.2348 82.0177C20.4109 81.6656 20.4109 81.3134 20.4109 81.1374C21.8195 73.9182 19.0023 68.8119 20.7631 62.1209C21.1153 60.3601 21.4674 59.3037 21.8196 58.7754Z" fill="#F7A39C"/>
<path d="M43.8296 59.6559C45.5903 61.7688 48.2315 62.8253 50.5205 62.6492L50.3444 61.5928C49.9923 60.1841 49.8162 58.7755 49.6401 57.3669L49.464 55.7822C49.1119 53.4932 48.9358 51.3802 48.9358 49.4434L46.9989 49.6194L42.7731 49.9716C40.8362 52.6128 41.1884 56.6626 43.8296 59.6559Z" fill="#240100"/>
<path d="M55.627 29.7234L59.1486 41.3446C61.2615 48.5638 57.2118 56.3113 49.8165 58.4242C48.0557 58.6003 45.5906 58.6003 42.5973 57.5438C36.4345 55.4309 33.4412 50.6767 32.5608 49.092L28.6871 35.8862C27.4545 31.6603 29.0392 27.0823 32.7369 24.7932C34.3216 23.7368 36.0824 22.8564 38.3714 22.1521C39.78 21.7999 41.0125 21.4478 42.2451 21.2717C48.2317 20.2152 53.8663 23.9129 55.627 29.7234Z" fill="#F7A39C"/>
<path d="M54.5703 46.2744C54.3942 46.4505 54.0421 47.1548 52.9856 47.507C51.7531 47.8591 50.8727 47.3309 50.6966 47.3309L54.5703 46.2744Z" fill="#240100"/>
<path d="M42.5973 44.5134C42.7734 44.5134 42.9495 44.3373 42.9495 44.1612C43.4777 42.7526 44.5342 41.6961 45.7667 41.6961C46.2949 41.6961 46.8232 42.0483 47.1754 42.2244C47.3514 42.4004 47.7036 42.4004 47.8797 42.2244C48.0557 42.0483 48.0557 41.6961 47.8797 41.52C47.3514 40.9918 46.6471 40.8157 45.9428 40.6396C45.9428 40.6396 45.9428 40.6396 45.7667 40.6396C44.182 40.6396 42.7734 41.8722 42.2451 43.8091C42.2451 44.1612 42.2452 44.3373 42.5973 44.5134Z" fill="#240100"/>
<path d="M46.7022 44.9112C45.9899 45.2241 45.0637 44.6838 44.6335 43.7043C44.2032 42.7249 44.4319 41.6773 45.1442 41.3644C45.8565 41.0515 46.7827 41.5918 47.213 42.5712C47.6432 43.5507 47.4145 44.5983 46.7022 44.9112Z" fill="#240100"/>
<path d="M47.5273 42.3994C47.7033 42.3994 47.8794 42.2234 47.8794 42.2234L48.4076 40.9908C48.5837 40.8147 48.4077 40.4626 48.2316 40.4626C48.0555 40.2865 47.7033 40.4626 47.7033 40.6387L47.1751 41.8712C46.9991 42.0473 47.1751 42.3994 47.3512 42.3994H47.5273Z" fill="#240100"/>
<path d="M53.5141 41.697C53.6901 41.697 53.8662 41.5209 53.8662 41.3448C54.3944 39.9362 55.4509 38.7036 56.6834 38.8797C57.2117 38.8797 57.7399 39.2319 58.0921 39.4079C58.2681 39.584 58.6203 39.584 58.7964 39.4079C58.9725 39.2319 58.9725 38.8797 58.7964 38.7036C58.4443 38.3515 57.7399 37.9993 56.8595 37.8232C55.2748 37.8232 53.8662 39.0558 53.1619 40.9927C52.9858 41.3448 53.1619 41.5209 53.5141 41.697Z" fill="#240100"/>
<path d="M57.6147 42.0723C56.9024 42.3852 55.9762 41.8449 55.546 40.8655C55.1157 39.8861 55.3444 38.8384 56.0567 38.5255C56.769 38.2126 57.6952 38.753 58.1254 39.7324C58.5557 40.7118 58.327 41.7594 57.6147 42.0723Z" fill="#240100"/>
<path d="M58.444 39.583C58.6201 39.583 58.7962 39.407 58.7962 39.407L59.3244 38.1744C59.5005 37.9983 59.3244 37.6462 59.1483 37.6462C58.9722 37.4701 58.6201 37.6462 58.6201 37.8223L58.0918 39.0548C57.9158 39.2309 58.0918 39.583 58.2679 39.583C58.2679 39.583 58.2679 39.583 58.444 39.583Z" fill="#240100"/>
<path d="M39.9559 40.1109C40.132 40.287 41.1885 39.7587 43.3014 38.7023C45.7665 37.4697 45.7665 37.2936 45.7665 37.1176C45.7665 36.7654 44.1818 36.5893 42.9493 37.1176C41.0124 37.8219 39.6038 39.7587 39.9559 40.1109Z" fill="#240100"/>
<path d="M51.7533 35.7095C51.7533 35.8856 52.9858 35.8856 55.4509 35.5334C58.2682 35.1813 58.2682 35.0052 58.2682 35.0052C58.2682 34.653 57.0356 34.1248 55.627 33.9487C53.5141 33.7726 51.5772 35.1813 51.7533 35.7095Z" fill="#240100"/>
<path d="M48.4074 49.7962C48.0553 50.3245 50.5204 54.5503 53.1616 53.846C55.4506 53.3178 56.331 49.6201 55.6267 49.0919C55.2745 48.7397 54.3941 49.9723 52.4573 50.3244C50.3443 50.6766 48.7596 49.4441 48.4074 49.7962Z" fill="white"/>
<path d="M24.989 85.5385C25.1651 85.5385 25.3412 85.3624 25.3412 85.1863L29.391 72.5087C29.391 72.3326 29.391 71.9805 29.0388 71.9805C28.8627 71.9805 28.5106 71.9805 28.5106 72.3326L24.4608 85.0103C24.4608 85.1863 24.6369 85.3624 24.989 85.5385Z" fill="#240100"/>
<path d="M76.756 56.6628L83.6231 56.4867C84.3274 56.4867 84.5035 55.7824 84.1513 54.902L76.0517 36.2377C75.6996 35.3573 74.8192 34.8291 74.1148 34.8291L67.2478 35.0052C66.5435 35.0052 66.3674 35.7095 66.7196 36.5899L74.8191 55.2542C75.1713 55.9585 76.0517 56.6628 76.756 56.6628Z" fill="#240100"/>
<path d="M77.8127 49.2673C78.8692 48.7391 80.1017 48.2109 81.1582 47.6826C83.9754 51.5563 87.1449 57.543 87.8492 65.9948C88.2013 69.3402 88.0253 72.5097 87.6731 75.3269C87.6731 75.503 87.8492 75.8551 87.6731 76.3834C87.6731 76.3834 87.6731 77.2638 87.3209 78.1442C86.2644 80.6092 84.1515 81.3136 84.1515 81.3136C82.5668 81.8418 80.9821 81.3136 80.63 81.1375C80.1017 80.081 79.7496 79.2006 79.3974 78.4963C78.8692 76.7355 78.3409 73.7422 78.3409 73.214C78.3409 73.214 78.1649 72.8618 78.1649 72.5097C78.1649 72.1575 77.9888 71.8053 77.9888 71.6293C76.9323 64.4101 80.2778 59.4799 78.8692 52.6128C78.341 50.852 77.9888 49.7956 77.8127 49.2673Z" fill="#F7A39C"/>
<path d="M73.5868 53.6698C76.0519 53.3177 78.517 53.1416 80.9821 52.7894C80.9821 51.0286 80.9821 49.2679 80.9821 47.6832C79.9256 45.3941 79.0452 43.2812 77.9888 40.9922C77.4605 41.8726 77.1083 42.753 76.5801 43.6334C74.2911 43.4573 71.826 43.2812 69.537 43.1051C69.1848 43.9855 68.8327 45.3941 69.1848 47.1549C69.8892 51.2047 73.0586 53.3177 73.5868 53.6698Z" fill="#F7A39C"/>
<path d="M78.693 73.7423C78.693 73.7423 78.8691 73.7423 78.693 73.7423C79.0452 73.5663 79.2213 73.3902 79.0452 73.2141L77.9887 70.749C77.8126 70.5729 77.6365 70.3969 77.4604 70.5729C77.2844 70.749 77.1083 70.9251 77.2844 71.1012L78.3408 73.5663C78.3408 73.7423 78.5169 73.7423 78.693 73.7423Z" fill="#240100"/>
<path d="M18.1221 86.5956C18.2982 86.5956 18.4742 86.5956 18.4742 86.4195L19.5307 84.1305C19.7068 83.9544 19.5307 83.6022 19.3546 83.6022C19.1785 83.4262 18.8264 83.6022 18.8264 83.7783L17.7699 86.0673C17.5938 86.2434 17.7699 86.5956 17.946 86.5956H18.1221Z" fill="#240100"/>
<path d="M33.0889 28.3144C33.6172 31.6598 40.3082 33.2446 44.7101 33.2446C50.3446 33.4206 57.5638 31.1316 57.916 27.9622C58.2681 24.4406 49.2881 19.1583 41.7168 20.9191C37.4909 21.9755 32.7368 25.4971 33.0889 28.3144Z" fill="#240100"/>
<path d="M25.8698 35.5336C26.3981 40.992 32.2086 46.2743 35.7302 45.2179C36.2584 45.0418 37.667 44.3375 40.4843 33.9489C42.5972 26.0253 43.6537 21.9755 42.4212 21.0951C39.4278 18.8061 25.1655 26.5536 25.8698 35.5336Z" fill="#240100"/>
<path d="M34.0179 50.1525C32.0607 50.7357 29.8887 49.2442 29.1666 46.821C28.4445 44.3978 29.4457 41.9606 31.4029 41.3773C33.3601 40.7941 35.5322 42.2857 36.2543 44.7089C36.9764 47.1321 35.9751 49.5693 34.0179 50.1525Z" fill="#F7A39C"/>
<path d="M33.2649 48.2108H33.4409C33.617 48.0348 33.7931 47.8587 33.617 47.6826L31.328 43.6328C31.1519 43.4567 30.9758 43.2806 30.7997 43.4567C30.6237 43.6328 30.4476 43.8089 30.6237 43.985L32.9127 48.0348C32.9127 48.2108 33.0888 48.2108 33.2649 48.2108Z" fill="#240100"/>
<path d="M32.2081 46.0971C32.3842 46.0971 32.5602 45.9211 32.5602 45.745L33.0885 43.456C33.0885 43.2799 32.9124 42.9277 32.7363 42.9277C32.5602 42.9277 32.2081 43.1038 32.2081 43.2799L31.6798 45.5689C31.6798 45.9211 31.856 46.0971 32.2081 46.0971C32.032 46.0971 32.2081 46.0971 32.2081 46.0971Z" fill="#240100"/>
<path d="M20.6322 51.7964C19.7738 51.6257 19.6159 48.7812 20.2796 45.443C20.9433 42.1047 22.1773 39.5369 23.0357 39.7076C23.8941 39.8783 24.0519 42.7228 23.3882 46.061C22.7245 49.3993 21.4906 51.9671 20.6322 51.7964Z" fill="#F7A39C"/>
<path d="M18.378 51.8683C17.507 51.9538 16.5314 49.2772 16.199 45.89C15.8666 42.5027 16.3032 39.6875 17.1743 39.602C18.0453 39.5166 19.0208 42.1932 19.3532 45.5804C19.6856 48.9677 19.249 51.7829 18.378 51.8683Z" fill="#F7A39C"/>
<path d="M15.481 61.0656C16.8897 62.122 18.4743 62.122 19.5308 61.946C23.7567 58.0722 24.9893 53.4942 23.5806 51.5573C22.8763 50.677 21.4677 49.9726 20.0591 49.7966C18.6504 49.6205 17.4179 49.7966 16.8896 49.9726C16.3614 50.1487 15.481 50.5009 14.6006 51.2052C12.1355 53.4942 12.3116 58.9526 15.481 61.0656Z" fill="#F7A39C"/>
<path d="M18.1221 55.4308C18.4743 55.4308 19.0025 55.2547 19.1786 54.9026C19.8829 53.8461 18.4743 51.9092 17.4178 50.8528C17.2417 50.6767 17.0656 50.6767 16.7134 50.8528C16.5374 51.0288 16.5374 51.2049 16.7134 51.5571C17.946 52.9657 18.6504 54.1982 18.2982 54.3743C18.1221 54.5504 17.5939 54.5504 16.8895 54.3743C15.657 54.0222 15.1287 52.7896 14.9527 52.4375C14.9527 52.2614 14.6005 52.0853 14.4245 52.2614C14.2484 52.2614 14.0723 52.6135 14.2484 52.7896C14.4244 53.3179 15.1287 54.7265 16.7134 55.2547C17.0656 55.2547 17.5939 55.4308 18.1221 55.4308Z" fill="#240100"/>
<path d="M16.5376 58.0724C16.8897 58.0724 17.4179 57.8963 17.594 57.5442C18.2983 56.4877 16.8897 54.5508 15.8332 53.4944C15.6571 53.3183 15.4811 53.3183 15.1289 53.4944C14.9528 53.6704 14.9528 53.8465 15.1289 54.1987C16.3615 55.6073 17.0658 56.8398 16.7136 57.0159C16.5375 57.192 16.0093 57.192 15.305 57.0159C14.0724 56.6638 13.5442 55.4312 13.3681 55.0791C13.3681 54.903 13.016 54.7269 12.8399 54.903C12.6638 54.903 12.4877 55.2551 12.6638 55.4312C12.8399 55.9595 13.5442 57.3681 15.1289 57.8963C15.305 57.8963 16.0093 58.0724 16.5376 58.0724Z" fill="#240100"/>
<path d="M20.4111 57.7186C20.9393 57.7186 21.8197 57.5425 23.2284 56.6622C23.4044 56.4861 23.5805 56.31 23.4044 56.1339C23.2284 55.9578 23.0523 55.7818 22.8762 55.9578C21.4675 56.8382 20.5872 57.0143 20.4111 57.0143C20.4111 56.8382 21.1154 55.6057 21.4676 54.9014C21.9958 54.021 22.7001 53.1406 23.4044 52.2602C23.5805 52.0841 23.5805 51.732 23.4044 51.5559C23.2284 51.3798 22.8762 51.3798 22.7001 51.5559C21.9958 52.4363 21.2915 53.3167 20.5872 54.3731C19.7068 55.7818 19.0025 57.0143 19.5307 57.5425C19.8829 57.5425 19.8829 57.7186 20.4111 57.7186Z" fill="#240100"/>
<path d="M68.6566 31.3075C69.0088 31.3075 69.1849 30.9553 69.0088 30.7792L66.8958 20.7428C66.8958 20.5667 66.5437 20.3906 66.3676 20.3906C66.1916 20.3906 66.0155 20.7428 66.0155 20.9189L68.1284 30.9553C68.3045 31.1314 68.4806 31.3075 68.6566 31.3075Z" fill="#240100"/>
<path d="M71.4736 30.6031C71.6496 30.6031 72.0018 30.427 72.0018 30.0749V22.6796C72.0018 22.5035 71.8257 22.1514 71.4736 22.1514C71.2975 22.1514 70.9454 22.3275 70.9454 22.6796V30.0749C71.1214 30.427 71.2975 30.6031 71.4736 30.6031Z" fill="#240100"/>
<path d="M65.1351 32.0107C65.1351 32.0107 65.3112 32.0107 65.1351 32.0107C65.4873 31.8347 65.6634 31.6586 65.4873 31.4825L64.0787 27.9609C63.9026 27.7848 63.7265 27.6088 63.5505 27.7848C63.3744 27.9609 63.1983 28.137 63.3744 28.3131L64.783 31.8346C64.783 31.8346 64.9591 32.0107 65.1351 32.0107Z" fill="#240100"/>
</g>
<path d="M80.9109 72.0761C80.7348 75.0694 80.5588 78.0628 80.3827 81.0561C78.0937 80.7039 75.8047 80.1757 73.5156 79.8236C71.5788 79.4714 69.6419 79.1193 67.705 78.7671C66.6486 78.591 65.7682 78.4149 64.7117 78.2389C59.9576 77.3585 55.2035 76.6541 50.4494 75.7738C50.0972 75.4216 48.8647 73.8369 49.0408 71.724C49.2169 69.4349 50.6254 66.9699 52.9145 65.7373C55.3796 65.9134 57.8446 66.0895 60.6619 66.6177C61.0141 66.6177 61.3662 66.6177 61.7184 66.7938C63.3031 67.1459 64.8878 67.322 66.2964 67.6742C68.2333 68.2024 70.1701 68.7306 72.107 69.2589C75.4525 69.9632 78.2697 71.0196 80.9109 72.0761Z" fill="#F7A39C"/>
<path d="M72.1069 68.9082C72.4591 72.6058 72.9873 76.1274 73.3395 79.825C71.4026 79.4729 69.4658 79.1207 67.5289 78.7686L65.416 75.247C67.705 73.1341 69.994 71.0211 72.1069 68.9082Z" fill="#240100"/>
<path d="M71.7549 68.9072C71.2266 73.4852 70.8745 78.0633 70.3462 82.6413C62.5988 82.2891 54.8514 81.937 46.9278 81.5848C47.4561 78.9437 47.9843 75.246 47.1039 70.8441C46.7518 69.2594 46.3996 68.0268 45.8714 66.7943C47.6321 66.0899 49.569 65.5617 51.682 65.2096C60.838 63.8009 68.2333 67.1464 71.7549 68.9072Z" fill="#4C4C4A"/>
<path d="M50.2734 61.5117C49.9213 60.1031 49.7452 58.6945 49.5691 57.2858L49.393 55.7011C49.0409 53.4121 48.8648 51.2992 48.8648 49.3623L46.9279 49.5384L42.7021 49.8905L41.1174 50.0666L38.3001 50.2427C38.3001 52.8839 38.3001 55.349 38.3001 57.9901C38.3001 58.1662 38.3001 58.3423 38.3001 58.5184C38.3001 60.8074 38.3001 63.0964 38.3001 65.5615C38.3001 66.7941 38.3001 68.2027 38.4762 69.4352C42.8782 68.7309 47.104 68.0266 51.506 67.3223C51.1538 65.7376 50.6256 64.1529 50.4495 62.3921L50.2734 61.5117Z" fill="#F7A39C"/>
<path d="M28.7916 90.5655C29.1437 90.5655 29.3198 90.2133 29.1437 90.0373L27.7351 83.3463C27.7351 83.1702 27.3829 82.9941 27.2068 82.9941C27.0307 82.9941 26.8547 83.3463 26.8547 83.5224L28.2633 90.2133C28.4394 90.3894 28.6155 90.5655 28.7916 90.5655Z" fill="#240100"/>
<path d="M11.7123 83.169C13.473 85.6341 15.0577 88.0992 16.6424 90.5643C18.4032 89.1557 20.164 87.571 21.9248 86.1623C23.5095 84.9298 24.9181 83.5212 26.5028 82.2886C27.2071 81.5843 28.0876 81.0561 28.7919 80.3518C32.4895 77.1824 36.1871 74.189 39.8848 71.0196C40.0608 70.4914 40.2369 68.5545 39.0044 66.7937C37.7718 64.8569 35.3067 63.6243 32.6656 63.4482C30.5526 64.8569 28.6158 66.2655 26.5028 68.0263C26.1507 68.2024 25.9746 68.3784 25.6224 68.7306C24.3899 69.7871 23.1573 70.8435 22.1009 71.9C20.5162 73.3086 19.1075 74.7173 17.875 76.1259C15.4099 78.4149 13.473 80.88 11.7123 83.169Z" fill="#F7A39C"/>
<path d="M17.6992 75.9512C19.1078 79.2967 20.5165 82.6421 22.1012 85.9876C23.6859 84.7551 25.0945 83.3465 26.6792 82.1139V78.0641C23.6859 77.3598 20.6925 76.6555 17.6992 75.9512Z" fill="#240100"/>
<path d="M17.6991 75.9505C22.1011 80.8807 26.503 85.8109 30.7289 90.9172C34.4265 83.698 38.3003 76.6548 41.9979 69.4356C41.2936 68.027 40.5893 66.6184 39.885 65.2097C39.3567 64.3293 38.8285 63.4489 38.3003 62.5686C36.1873 62.2164 34.4266 62.3925 33.0179 62.5686C23.3336 64.5054 18.5795 74.3658 17.6991 75.9505Z" fill="#4C4C4A"/>
<path d="M21.7489 58.6944C20.6924 58.1661 19.6359 57.4618 18.5795 56.9336C15.5861 60.6312 12.0646 66.4418 10.832 74.7175C10.3038 78.063 10.3038 81.0563 10.4799 84.0496C10.4799 84.2257 10.3038 84.5779 10.3038 85.1061C10.3038 85.1061 10.3038 85.9865 10.6559 86.8669C11.7124 89.332 13.6493 90.2124 13.6493 90.2124C15.234 90.9167 16.8187 90.5645 17.1709 90.3885C17.8752 89.332 18.2273 88.4516 18.5795 87.7473C19.2838 86.1626 19.812 83.1692 19.9881 82.641C19.9881 82.641 20.1642 82.2889 20.1642 81.9367C20.3402 81.5845 20.3402 81.2324 20.3402 81.0563C21.7489 73.8371 18.9316 68.7308 20.6924 62.0399C21.0446 60.2791 21.3967 59.2226 21.7489 58.6944Z" fill="#F7A39C"/>
<path d="M43.7584 59.5748C45.5192 61.6878 48.1603 62.7442 50.4493 62.5682L50.2733 61.5117C49.9211 60.1031 49.745 58.6945 49.5689 57.2858L49.3929 55.7011C49.0407 53.4121 48.8646 51.2992 48.8646 49.3623L46.9278 49.5384L42.7019 49.8905C40.765 52.5317 41.1172 56.5815 43.7584 59.5748Z" fill="#240100"/>
<path d="M55.5559 29.6424L59.0774 41.2635C61.1904 48.4827 57.1406 56.2302 49.7453 58.3431C47.9845 58.5192 45.5194 58.5192 42.5261 57.4627C36.3634 55.3498 33.37 50.5957 32.4896 49.011L28.6159 35.8051C27.3834 31.5792 28.9681 27.0012 32.6657 24.7122C34.2504 23.6557 36.0112 22.7753 38.3002 22.071C39.7089 21.7189 40.9414 21.3667 42.1739 21.1906C48.1606 20.1342 53.7951 23.8318 55.5559 29.6424Z" fill="#F7A39C"/>
<path d="M54.4993 46.1934C54.3232 46.3694 53.971 47.0737 52.9146 47.4259C51.682 47.7781 50.8017 47.2498 50.6256 47.2498L54.4993 46.1934Z" fill="#240100"/>
<path d="M42.5261 44.4333C42.7022 44.4333 42.8783 44.2572 42.8783 44.0811C43.4066 42.6725 44.463 41.6161 45.6955 41.6161C46.2238 41.6161 46.752 41.9682 47.1042 42.1443C47.2803 42.3204 47.6324 42.3204 47.8085 42.1443C47.9846 41.9682 47.9846 41.616 47.8085 41.44C47.2803 40.9117 46.5759 40.7356 45.8716 40.5596C45.8716 40.5596 45.8716 40.5596 45.6955 40.5596C44.1108 40.5596 42.7022 41.7921 42.174 43.729C42.174 44.0811 42.174 44.2572 42.5261 44.4333Z" fill="#240100"/>
<path d="M46.6312 44.8301C45.9189 45.143 44.9927 44.6027 44.5624 43.6233C44.1322 42.6439 44.3608 41.5963 45.0731 41.2834C45.7855 40.9705 46.7117 41.5108 47.1419 42.4902C47.5722 43.4696 47.3435 44.5172 46.6312 44.8301Z" fill="#240100"/>
<path d="M47.4562 42.3194C47.6323 42.3194 47.8084 42.1433 47.8084 42.1433L48.3366 40.9107C48.5127 40.7347 48.3366 40.3825 48.1606 40.3825C47.9845 40.2064 47.6323 40.3825 47.6323 40.5586L47.1041 41.7911C46.928 41.9672 47.1041 42.3194 47.2802 42.3194H47.4562Z" fill="#240100"/>
<path d="M53.443 41.6159C53.6191 41.6159 53.7951 41.4398 53.7951 41.2638C54.3234 39.8551 55.3799 38.6226 56.6124 38.7987C57.1406 38.7987 57.6689 39.1508 58.021 39.3269C58.1971 39.503 58.5493 39.503 58.7254 39.3269C58.9014 39.1508 58.9014 38.7987 58.7254 38.6226C58.3732 38.2704 57.6689 37.9183 56.7885 37.7422C55.2038 37.7422 53.7952 38.9747 53.0908 40.9116C52.9148 41.2638 53.0909 41.4398 53.443 41.6159Z" fill="#240100"/>
<path d="M57.5437 41.9912C56.8314 42.3041 55.9051 41.7638 55.4749 40.7844C55.0447 39.805 55.2734 38.7574 55.9857 38.4445C56.698 38.1316 57.6242 38.6719 58.0544 39.6513C58.4846 40.6307 58.256 41.6783 57.5437 41.9912Z" fill="#240100"/>
<path d="M58.3731 39.502C58.5492 39.502 58.7253 39.3259 58.7253 39.3259L59.2535 38.0934C59.4296 37.9173 59.2535 37.5651 59.0774 37.5651C58.9013 37.389 58.5492 37.5651 58.5492 37.7412L58.0209 38.9738C57.8448 39.1498 58.0209 39.502 58.197 39.502C58.197 39.502 58.197 39.502 58.3731 39.502Z" fill="#240100"/>
<path d="M39.8848 40.0298C40.0608 40.2059 41.1173 39.6777 43.2302 38.6212C45.6953 37.3887 45.6953 37.2126 45.6953 37.0365C45.6953 36.6844 44.1107 36.5083 42.8781 37.0365C40.9412 37.7408 39.5326 39.6777 39.8848 40.0298Z" fill="#240100"/>
<path d="M51.6822 35.6284C51.6822 35.8045 52.9147 35.8045 55.3798 35.4524C58.197 35.1002 58.197 34.9241 58.197 34.9241C58.197 34.572 56.9645 34.0437 55.5558 33.8677C53.4429 33.6916 51.5061 35.1002 51.6822 35.6284Z" fill="#240100"/>
<path d="M48.3363 49.7152C47.9841 50.2434 50.4492 54.4693 53.0904 53.765C55.3794 53.2367 56.2598 49.5391 55.5555 49.0109C55.2033 48.6587 54.323 49.8912 52.3861 50.2434C50.2732 50.5955 48.6884 49.363 48.3363 49.7152Z" fill="white"/>
<path d="M24.918 85.4584C25.0941 85.4584 25.2702 85.2823 25.2702 85.1063L29.3199 72.4286C29.3199 72.2526 29.3199 71.9004 28.9678 71.9004C28.7917 71.9004 28.4396 71.9004 28.4396 72.2525L24.3898 84.9302C24.3898 85.1063 24.5658 85.2823 24.918 85.4584Z" fill="#240100"/>
<path d="M76.6853 56.5817L83.5524 56.4057C84.2567 56.4057 84.4328 55.7014 84.0806 54.821L75.981 36.1567C75.6289 35.2763 74.7485 34.748 74.0442 34.748L67.1771 34.9241C66.4728 34.9241 66.2968 35.6284 66.6489 36.5088L74.7485 55.1731C75.1006 55.8774 75.981 56.5817 76.6853 56.5817Z" fill="#240100"/>
<path d="M77.7415 49.1863C78.798 48.658 80.0305 48.1298 81.087 47.6016C83.9043 51.4753 87.0737 57.4619 87.778 65.9137C88.1302 69.2592 87.9541 72.4286 87.6019 75.2459C87.6019 75.4219 87.778 75.7741 87.6019 76.3023C87.6019 76.3023 87.6019 77.1827 87.2498 78.0631C86.1933 80.5282 84.0804 81.2325 84.0804 81.2325C82.4957 81.7607 80.911 81.2325 80.5588 81.0564C80.0306 80 79.6784 79.1196 79.3262 78.4153C78.798 76.6545 78.2698 73.6611 78.2698 73.1329C78.2698 73.1329 78.0937 72.7808 78.0937 72.4286C78.0937 72.0764 77.9176 71.7243 77.9176 71.5482C76.8612 64.329 80.2066 59.3988 78.798 52.5318C78.2698 50.771 77.9176 49.7145 77.7415 49.1863Z" fill="#F7A39C"/>
<path d="M73.5156 53.5888C75.9807 53.2366 78.4458 53.0605 80.9109 52.7084C80.9109 50.9476 80.9109 49.1868 80.9109 47.6021C79.8544 45.3131 78.9741 43.2001 77.9176 40.9111C77.3894 41.7915 77.0372 42.6719 76.5089 43.5523C74.2199 43.3762 71.7548 43.2001 69.4658 43.0241C69.1136 43.9045 68.7615 45.3131 69.1137 47.0739C69.818 51.1237 72.9874 53.2366 73.5156 53.5888Z" fill="#F7A39C"/>
<path d="M78.6218 73.6623C78.6218 73.6623 78.7979 73.6623 78.6218 73.6623C78.974 73.4862 79.1501 73.3101 78.974 73.134L77.9175 70.6689C77.7415 70.4929 77.5653 70.3168 77.3893 70.4929C77.2132 70.6689 77.0372 70.845 77.2132 71.0211L78.2697 73.4862C78.2697 73.6623 78.4458 73.6623 78.6218 73.6623Z" fill="#240100"/>
<path d="M18.0508 86.5155C18.2269 86.5155 18.4029 86.5155 18.4029 86.3394L19.4594 84.0504C19.6355 83.8743 19.4594 83.5222 19.2833 83.5222C19.1072 83.3461 18.7551 83.5222 18.7551 83.6982L17.6986 85.9873C17.5226 86.1633 17.6986 86.5155 17.8747 86.5155H18.0508Z" fill="#240100"/>
<path d="M33.0178 28.2333C33.546 31.5788 40.237 33.1635 44.639 33.1635C50.2735 33.3396 57.4927 31.0506 57.8448 27.8812C58.197 24.3596 49.217 19.0772 41.6456 20.838C37.4197 21.8945 32.6656 25.4161 33.0178 28.2333Z" fill="#240100"/>
<path d="M25.7987 35.4525C26.3269 40.9109 32.1375 46.1933 35.659 45.1368C36.1873 44.9607 37.5959 44.2564 40.4131 33.8678C42.5261 25.9443 43.5825 21.8945 42.35 21.0141C39.3567 18.7251 25.0943 26.4725 25.7987 35.4525Z" fill="#240100"/>
<path d="M33.9469 50.0715C31.9897 50.6547 29.8177 49.1631 29.0956 46.7399C28.3735 44.3167 29.3747 41.8795 31.3319 41.2963C33.2891 40.713 35.4611 42.2046 36.1832 44.6278C36.9053 47.051 35.9041 49.4882 33.9469 50.0715Z" fill="#F7A39C"/>
<path d="M33.1937 48.1288H33.3698C33.5458 47.9527 33.7219 47.7766 33.5458 47.6006L31.2568 43.5508C31.0808 43.3747 30.9047 43.1986 30.7286 43.3747C30.5525 43.5508 30.3765 43.7268 30.5525 43.9029L32.8415 47.9527C32.8415 48.1288 33.0176 48.1288 33.1937 48.1288Z" fill="#240100"/>
<path d="M32.1369 46.0161C32.313 46.0161 32.4891 45.84 32.4891 45.6639L33.0173 43.3749C33.0173 43.1988 32.8412 42.8467 32.6652 42.8467C32.4891 42.8467 32.1369 43.0228 32.1369 43.1988L31.6087 45.4879C31.6087 45.84 31.7848 46.0161 32.1369 46.0161C31.9609 46.0161 32.1369 46.0161 32.1369 46.0161Z" fill="#240100"/>
<path d="M20.5608 51.7154C19.7024 51.5447 19.5445 48.7002 20.2082 45.3619C20.8719 42.0237 22.1059 39.4559 22.9643 39.6265C23.8227 39.7972 23.9805 42.6417 23.3168 45.98C22.6531 49.3182 21.4192 51.886 20.5608 51.7154Z" fill="#F7A39C"/>
<path d="M18.3066 51.7873C17.4356 51.8728 16.46 49.1961 16.1276 45.8089C15.7952 42.4217 16.2318 39.6065 17.1028 39.521C17.9739 39.4355 18.9494 42.1121 19.2818 45.4994C19.6142 48.8866 19.1776 51.7018 18.3066 51.7873Z" fill="#F7A39C"/>
<path d="M15.4099 60.9845C16.8185 62.041 18.4032 62.041 19.4596 61.8649C23.6855 57.9912 24.9181 53.4132 23.5095 51.4763C22.8052 50.5959 21.3965 49.8916 19.9879 49.7155C18.5793 49.5394 17.3467 49.7155 16.8185 49.8916C16.2902 50.0677 15.4099 50.4198 14.5295 51.1241C12.0644 53.4131 12.2405 58.8716 15.4099 60.9845Z" fill="#F7A39C"/>
<path d="M18.0507 55.3497C18.4029 55.3497 18.9311 55.1737 19.1072 54.8215C19.8115 53.765 18.4029 51.8282 17.3464 50.7717C17.1703 50.5956 16.9942 50.5956 16.642 50.7717C16.466 50.9478 16.466 51.1239 16.642 51.476C17.8746 52.8846 18.5789 54.1172 18.2268 54.2933C18.0507 54.4693 17.5224 54.4693 16.8181 54.2933C15.5856 53.9411 15.0573 52.7086 14.8813 52.3564C14.8813 52.1803 14.5291 52.0043 14.353 52.1803C14.177 52.1803 14.0009 52.5325 14.177 52.7086C14.353 53.2368 15.0573 54.6454 16.642 55.1737C16.9942 55.1737 17.5225 55.3497 18.0507 55.3497Z" fill="#240100"/>
<path d="M16.4664 57.9913C16.8186 57.9913 17.3467 57.8153 17.5228 57.4631C18.2271 56.4066 16.8185 54.4698 15.762 53.4133C15.586 53.2372 15.4099 53.2372 15.0577 53.4133C14.8817 53.5894 14.8817 53.7655 15.0577 54.1176C16.2903 55.5262 16.9946 56.7588 16.6424 56.9349C16.4664 57.111 15.9381 57.111 15.2338 56.9349C14.0013 56.5827 13.473 55.3502 13.297 54.998C13.297 54.8219 12.9448 54.6459 12.7687 54.8219C12.5927 54.8219 12.4166 55.1741 12.5927 55.3502C12.7687 55.8784 13.473 57.287 15.0577 57.8153C15.2338 57.8153 15.9382 57.9913 16.4664 57.9913Z" fill="#240100"/>
<path d="M20.3399 57.6376C20.8682 57.6376 21.7486 57.4615 23.1572 56.5811C23.3333 56.405 23.5094 56.2289 23.3333 56.0529C23.1572 55.8768 22.9811 55.7007 22.805 55.8768C21.3964 56.7572 20.516 56.9333 20.3399 56.9333C20.3399 56.7572 21.0442 55.5246 21.3964 54.8203C21.9246 53.9399 22.629 53.0595 23.3333 52.1791C23.5094 52.0031 23.5094 51.6509 23.3333 51.4748C23.1572 51.2988 22.805 51.2988 22.629 51.4748C21.9247 52.3552 21.2203 53.2356 20.516 54.2921C19.6356 55.7007 18.9313 56.9333 19.4595 57.4615C19.8117 57.4615 19.8117 57.6376 20.3399 57.6376Z" fill="#240100"/>
<path d="M68.5856 31.2264C68.9377 31.2264 69.1138 30.8743 68.9378 30.6982L66.8248 20.6617C66.8248 20.4857 66.4727 20.3096 66.2966 20.3096C66.1205 20.3096 65.9444 20.6617 65.9444 20.8378L68.0574 30.8743C68.2335 31.0503 68.4095 31.2264 68.5856 31.2264Z" fill="#240100"/>
<path d="M71.403 30.5221C71.5791 30.5221 71.9313 30.346 71.9313 29.9938V22.5986C71.9313 22.4225 71.7552 22.0703 71.403 22.0703C71.2269 22.0703 70.8748 22.2464 70.8748 22.5986V29.9938C71.0509 30.346 71.2269 30.5221 71.403 30.5221Z" fill="#240100"/>
<path d="M65.064 31.9297C65.064 31.9297 65.2401 31.9297 65.064 31.9297C65.4161 31.7536 65.5922 31.5775 65.4162 31.4014L64.0076 27.8799C63.8315 27.7038 63.6554 27.5277 63.4793 27.7038C63.3032 27.8799 63.1271 28.0559 63.3032 28.232L64.7119 31.7536C64.7119 31.7536 64.8879 31.9297 65.064 31.9297Z" fill="#240100"/>
</svg>
