<svg width="314" height="268" viewBox="0 0 314 268" fill="none" xmlns="http://www.w3.org/2000/svg">
<path d="M145.055 106.089C158.228 119.461 115.316 197.7 80.1888 196.902C75.3986 196.702 68.413 195.106 57.8348 197.7C41.0693 201.692 37.0775 211.073 31.2894 208.877C18.7153 204.087 29.8923 159.379 33.4849 149.001C34.2832 146.805 35.6804 143.213 38.4746 142.614C42.8656 141.616 45.8594 148.801 49.0528 148.202C55.2401 146.805 49.0528 117.066 59.4315 111.877C66.4171 108.284 74.4007 119.062 82.5839 114.871C89.3699 111.478 86.376 102.895 93.9604 96.5086C103.142 88.9242 119.109 91.1197 120.506 95.1115C121.304 97.7062 116.115 100.301 116.913 102.895C118.51 107.486 138.668 99.702 145.055 106.089Z" fill="#FFCE33"/>
<path d="M31.8884 207.68C31.2896 207.68 30.6908 207.481 29.8925 207.281C17.1188 202.491 27.8966 158.182 31.8884 146.806C32.8863 144.211 34.2834 140.818 37.2772 140.02C39.8719 139.421 42.0674 141.417 43.8637 143.213C45.2608 144.61 46.658 145.808 47.8555 145.608C50.2506 145.009 50.4502 138.822 50.8493 132.435C51.4481 123.055 52.0468 112.476 58.0345 109.283C61.6271 107.487 65.4193 109.083 69.2115 110.68C73.2033 112.476 77.1951 114.273 81.1869 112.277C84.3803 110.68 85.1787 107.886 86.3762 104.493C87.3742 101.1 88.5717 97.3076 92.5635 93.9146C99.5491 87.9269 109.928 88.1265 115.117 89.5236C117.712 90.322 119.508 91.3199 119.907 92.717C120.506 94.3138 119.109 95.7109 117.911 97.108C116.913 98.3055 115.915 99.5031 116.115 100.501C116.714 102.297 121.304 101.898 126.294 101.499C132.881 100.9 140.465 100.102 144.058 103.894C148.449 108.485 147.251 119.861 140.665 135.03C129.687 160.178 103.741 195.506 79.3906 195.506C79.191 195.506 78.9914 195.506 78.7919 195.506C77.5943 195.506 76.3967 195.306 75.1992 195.306C70.8082 194.907 64.621 194.308 56.6374 196.304C48.0551 198.3 42.6662 201.892 38.874 204.487C36.2793 206.084 34.0838 207.68 31.8884 207.68ZM38.2752 140.818C38.0756 140.818 37.876 140.818 37.4768 140.818C35.0818 141.417 33.6847 144.61 32.8863 146.806C29.0941 157.584 18.3163 201.693 30.2916 206.084C32.8863 207.082 35.0818 205.485 38.6744 203.29C42.4666 200.695 47.8555 197.102 56.6374 194.907C64.8206 192.911 71.0078 193.51 75.3988 193.909C76.7959 194.108 77.9935 194.108 78.9914 194.108C79.191 194.108 79.3906 194.108 79.5902 194.108C100.946 194.108 127.492 163.172 139.866 134.232C146.253 119.462 147.65 108.285 143.459 104.094C140.066 100.701 132.881 101.499 126.494 102.098C120.706 102.697 116.115 103.096 115.117 100.501C114.718 98.9043 115.915 97.5072 117.113 96.1101C118.111 94.9125 119.109 93.715 118.909 92.717C118.51 91.7191 117.113 90.7211 114.917 90.1224C108.93 88.3261 99.1499 89.324 93.1623 94.3137C89.3701 97.5072 88.3721 101.1 87.1746 104.293C86.1766 107.686 85.1787 110.88 81.5861 112.676C77.1951 114.871 72.8042 113.075 68.8124 111.279C65.2198 109.682 61.6272 108.085 58.6333 109.682C53.0448 112.476 52.446 123.254 52.0468 132.036C51.6477 139.621 51.2485 145.608 48.2547 146.207C46.6579 146.606 45.0612 145.209 43.4645 143.612C41.6682 142.415 40.0715 140.818 38.2752 140.818Z" fill="#FFCE33"/>
<path d="M75.199 49.4062H0.353027V87.5278H54.0425C59.2319 91.7192 64.4212 95.711 69.4109 99.9023C69.4109 99.9023 69.8101 100.302 70.2093 100.302C70.6085 100.302 70.8081 99.9023 71.0076 99.9023V87.5278H74.9994V49.4062H75.199Z" fill="#EFEFEF"/>
<path d="M33.6847 58.7862H67.0161C67.6148 58.7862 68.2136 58.1874 68.2136 57.5887V56.7903C68.2136 56.1915 67.6148 55.5928 67.0161 55.5928H33.6847C33.0859 55.5928 32.4871 56.1915 32.4871 56.7903V57.5887C32.4871 58.1874 33.0859 58.7862 33.6847 58.7862Z" fill="white"/>
<path d="M8.5364 58.7866H29.2937C29.8924 58.7866 30.2916 58.3874 30.2916 57.7886V56.3915C30.2916 55.7927 29.8924 55.3936 29.2937 55.3936H8.5364C7.93763 55.3936 7.53845 55.7927 7.53845 56.3915V57.7886C7.53845 58.3874 8.13722 58.7866 8.5364 58.7866Z" fill="white"/>
<path d="M22.5073 64.7735H67.0157C67.814 64.7735 68.4128 64.1747 68.4128 63.3764V62.9772C68.4128 62.1788 67.814 61.5801 67.0157 61.5801H22.5073C21.7089 61.5801 21.1101 62.1788 21.1101 62.9772V63.3764C21.1101 64.1747 21.7089 64.7735 22.5073 64.7735Z" fill="white"/>
<path d="M123.899 14.4775H198.745V52.5991H145.055C139.866 56.7905 134.677 60.7823 129.687 64.9736C129.687 64.9736 129.288 65.3728 128.889 65.3728C128.489 65.3728 128.29 64.9736 128.09 64.9736V52.5991H124.098V14.4775H123.899Z" fill="#EFEFEF"/>
<path d="M165.413 23.8575H132.082C131.483 23.8575 130.884 23.2587 130.884 22.66V21.8616C130.884 21.2628 131.483 20.6641 132.082 20.6641H165.413C166.012 20.6641 166.611 21.2628 166.611 21.8616V22.66C166.611 23.2587 166.212 23.8575 165.413 23.8575Z" fill="white"/>
<path d="M190.562 23.8579H169.804C169.206 23.8579 168.806 23.4587 168.806 22.8599V21.4628C168.806 20.864 169.206 20.4648 169.804 20.4648H190.562C191.16 20.4648 191.56 20.864 191.56 21.4628V22.8599C191.56 23.4587 191.16 23.8579 190.562 23.8579Z" fill="white"/>
<path d="M176.59 30.046H132.282C131.483 30.046 130.884 29.4472 130.884 28.6488V28.2497C130.884 27.4513 131.483 26.8525 132.282 26.8525H176.79C177.588 26.8525 178.187 27.4513 178.187 28.2497V28.6488C178.187 29.2476 177.389 30.046 176.59 30.046Z" fill="white"/>
<path d="M142.461 185.527C140.664 189.918 138.269 193.909 135.874 198.3C135.475 198.899 135.275 199.498 134.876 200.097C133.28 202.691 131.683 205.286 130.086 207.481C128.489 209.677 127.092 211.872 125.496 213.868C123.699 216.064 122.103 218.259 120.306 220.255C117.512 223.648 114.718 226.442 111.924 229.237C106.535 226.243 101.146 223.449 95.7568 220.654C100.148 213.27 104.738 205.885 109.129 198.7C109.728 197.502 110.526 196.504 111.125 195.307C115.716 187.722 120.506 179.938 125.096 172.354C126.094 172.154 129.487 171.356 133.679 173.551C138.07 175.946 141.263 180.537 142.461 185.527Z" fill="#F7A39C"/>
<path d="M122.302 206.684L125.496 213.869C123.699 216.064 122.103 218.26 120.306 220.256C116.714 213.071 112.921 205.885 109.129 198.7C113.52 201.295 117.911 204.089 122.302 206.684Z" fill="#240100"/>
<path d="M184.375 166.765L192.358 238.418C181.78 243.208 171.202 247.998 160.424 252.788L136.274 213.07L131.484 205.286L127.691 199.099C125.296 198.101 120.706 195.706 118.71 191.315C117.512 188.92 117.313 186.525 117.712 184.329C118.311 180.337 120.506 176.346 122.502 172.753C123.3 171.356 124.298 169.56 125.695 167.763C127.492 165.368 129.687 162.574 132.881 160.179C134.078 159.181 135.475 158.383 137.072 157.385C137.272 157.185 137.471 157.185 137.471 157.185C140.265 155.588 143.658 154.391 147.051 153.592C148.449 153.193 149.846 152.994 151.243 152.794C159.626 151.596 168.607 152.794 175.992 157.983C179.784 160.378 182.179 163.173 184.375 166.765Z" fill="#F7A39C"/>
<path d="M158.029 163.571C151.243 166.565 144.457 169.559 137.671 172.753C136.872 170.557 135.874 168.362 135.076 165.967C133.679 161.975 132.082 157.983 130.685 154.191C130.485 153.792 130.485 153.592 130.286 153.392C128.689 149.001 126.893 144.61 125.296 140.219L132.481 137.625L139.068 135.23L142.062 134.032C143.658 138.224 145.854 142.615 148.249 147.205C151.642 153.193 154.835 158.781 158.029 163.571Z" fill="#F7A39C"/>
<path d="M146.652 145.408C149.047 150.597 147.451 156.186 143.259 157.583C139.068 158.98 133.679 155.986 131.284 150.597C128.889 145.408 130.486 139.82 134.677 138.422C139.068 137.025 144.257 140.219 146.652 145.408Z" fill="#240100"/>
<path d="M115.317 94.5138C113.321 95.1126 111.524 95.911 109.928 96.7093C101.345 100.901 97.9524 111.479 102.144 121.059L110.726 140.619C112.323 142.814 117.911 150.598 127.891 153.991C133.679 155.987 138.669 155.588 141.263 155.189C141.463 155.189 141.662 154.989 141.662 154.989C141.862 154.989 142.062 154.989 142.062 154.79C144.457 153.393 148.249 150.798 151.043 145.808C155.833 137.426 154.037 128.444 153.438 125.849L144.856 106.29C140.664 96.7093 130.086 90.9212 120.506 93.1167C118.909 93.3163 117.113 93.7155 115.317 94.5138Z" fill="#F7A39C"/>
<path d="M111.924 132.635C113.72 136.626 112.722 140.419 110.127 141.417C107.333 142.415 103.74 140.019 101.944 136.028C100.148 132.036 101.146 128.244 103.741 127.246C106.335 126.248 110.127 128.643 111.924 132.635Z" fill="#F7A39C"/>
<path d="M157.23 117.067C159.027 121.059 158.029 124.851 155.434 125.849C152.64 126.847 149.047 124.452 147.251 120.46C145.455 116.469 146.453 112.676 149.047 111.678C151.642 110.68 155.434 113.075 157.23 117.067Z" fill="#F7A39C"/>
<path d="M133.28 139.021C133.878 138.422 134.477 138.023 135.276 137.624C136.074 137.424 136.872 137.225 137.671 137.424C137.072 138.023 136.473 138.422 135.675 138.822C134.876 139.021 134.078 139.221 133.28 139.021Z" fill="#240100"/>
<path d="M138.868 124.252C139.667 125.849 141.463 126.847 143.06 126.248C144.656 125.65 145.455 124.053 144.656 122.256C143.858 120.66 142.062 119.662 140.465 120.261C138.868 120.859 138.07 122.656 138.868 124.252Z" fill="#240100"/>
<path d="M136.074 126.447C135.875 126.447 135.675 126.248 135.675 126.048C135.675 125.848 135.276 122.455 137.87 120.859C140.266 119.262 144.058 120.26 146.453 123.054C146.652 123.254 146.652 123.653 146.453 123.853C146.253 124.052 145.854 124.052 145.654 123.853C143.659 121.457 140.465 120.46 138.27 121.857C136.274 123.254 136.473 126.248 136.673 126.248C136.473 126.248 136.274 126.447 136.074 126.447Z" fill="#240100"/>
<path d="M123.3 130.041C124.098 131.637 123.3 133.434 121.903 134.032C120.306 134.631 118.51 133.833 117.712 132.037C116.913 130.44 117.712 128.644 119.109 128.045C120.705 127.446 122.502 128.444 123.3 130.041Z" fill="#240100"/>
<path d="M114.318 134.632C114.119 134.632 113.919 134.432 113.919 134.233C113.72 132.437 114.119 130.64 115.117 129.243C115.915 128.245 117.113 127.447 118.51 127.247C121.504 127.048 123.899 129.642 124.098 129.842C124.298 130.042 124.298 130.441 124.098 130.64C123.899 130.84 123.5 130.84 123.3 130.64C123.3 130.64 121.105 128.245 118.709 128.445C117.712 128.644 116.714 129.044 115.915 130.042C115.117 131.239 114.718 132.636 114.917 134.233C114.917 134.432 114.718 134.632 114.318 134.632C114.518 134.632 114.318 134.632 114.318 134.632Z" fill="#240100"/>
<path d="M144.457 136.227C146.054 141.416 143.858 146.406 140.066 147.803C136.074 149.2 132.082 146.605 131.484 146.406C133.48 145.208 135.475 144.011 137.471 142.414C140.266 140.218 142.461 138.222 144.457 136.227Z" fill="white"/>
<path d="M145.455 115.471C145.455 116.069 143.259 115.67 139.267 116.469C135.475 117.467 133.878 118.464 133.479 118.065C132.88 117.467 134.677 114.273 137.671 113.475C141.263 112.277 145.455 114.672 145.455 115.471Z" fill="#FFCE33"/>
<path d="M120.506 122.456C120.706 123.055 118.51 123.055 114.918 125.05C111.525 126.847 110.327 128.443 109.928 128.044C109.329 127.445 110.128 124.052 112.722 122.456C115.716 120.26 120.307 121.657 120.506 122.456Z" fill="#FFCE33"/>
<path d="M135.675 93.5157C141.263 96.5095 144.457 101.1 145.255 102.298V102.497C148.249 107.088 149.247 112.477 148.049 112.876C147.251 113.275 146.053 111.08 140.664 106.888C138.669 105.291 137.471 104.693 136.473 104.892C134.876 105.291 135.076 107.686 133.28 108.684C131.084 109.882 128.889 107.487 127.292 108.485C125.496 109.682 127.691 113.674 125.895 115.67C123.3 118.664 115.716 114.672 113.919 117.067C113.121 118.265 114.718 119.662 113.72 121.458C112.722 123.654 110.127 123.254 108.531 124.652C103.74 128.643 111.325 142.814 107.932 144.611C105.736 145.808 101.545 142.215 99.1498 140.22C96.9543 138.224 88.5716 131.038 89.7692 122.656C90.3679 118.863 92.3638 118.664 97.7527 110.68C103.94 101.499 102.343 100.302 105.736 96.9087C113.72 89.5239 128.09 89.5239 135.675 93.5157Z" fill="#FFCE33"/>
<path d="M184.374 165.767L192.957 242.609C193.955 250.792 187.967 257.578 179.784 257.578H154.236C147.051 244.206 139.666 231.033 132.481 217.66C131.084 215.066 129.687 212.671 128.29 210.076C124.099 202.492 120.107 194.907 115.915 187.323C115.516 186.724 115.117 185.926 114.718 185.327C115.317 182.134 116.714 177.144 120.107 171.955C120.705 170.957 121.504 169.959 122.302 168.961C123.101 167.963 123.899 167.164 124.697 166.366C127.691 163.372 130.485 161.576 132.681 160.378C132.681 160.578 132.681 160.578 132.88 160.778C134.876 165.967 139.467 169.36 143.459 170.158C145.455 170.557 147.251 170.557 148.848 169.759C150.444 169.16 151.642 167.763 152.44 166.166C154.037 163.173 154.236 158.782 152.041 154.59C152.041 154.391 151.841 154.391 151.841 154.191C151.642 153.792 151.442 153.393 151.043 152.994C153.438 152.195 160.424 150.399 168.806 153.393C175.193 155.588 179.584 159.38 181.58 161.376C182.778 162.773 183.576 164.171 184.374 165.767Z" fill="#FF6665"/>
<path d="M142.661 205.486C137.471 211.673 132.481 217.86 127.292 224.048C120.506 214.667 113.72 205.286 106.934 195.905C108.531 191.914 110.527 187.523 113.121 182.932C116.913 176.146 121.105 170.558 124.897 166.366C130.885 179.34 136.673 192.313 142.661 205.486Z" fill="#FF6665"/>
<path d="M105.936 161.177C105.537 160.578 104.539 160.778 103.94 160.778C103.541 160.778 102.543 160.977 100.547 162.973C99.7487 163.772 98.9503 164.77 97.9524 166.366C96.9544 167.165 96.1561 167.165 95.7569 167.165C95.1582 166.965 93.3618 165.767 91.9647 153.792C91.9647 153.792 91.5655 150 90.9668 146.407C90.9668 146.008 91.366 140.22 89.3701 139.422C89.1705 139.422 88.7713 139.422 88.3721 139.422C87.3742 140.819 87.3742 142.216 87.5738 144.012C87.7734 145.809 88.1725 148.004 87.9729 150.798C87.9729 151.996 87.7734 153.992 87.3742 156.187C87.1746 156.187 86.7754 156.187 86.1766 155.988C84.3803 154.99 84.5799 151.397 82.9832 145.609C82.3844 143.014 80.9873 137.625 79.3906 137.426C78.7918 137.426 78.3926 138.025 78.1931 138.224C76.3967 140.42 77.9935 143.813 79.191 147.206C79.9894 149.601 80.9873 152.994 81.5861 157.584C80.189 154.79 78.7918 151.796 77.3947 148.802C76.1972 146.407 75.1992 143.813 74.2013 141.418C73.4029 141.218 72.8042 141.418 72.6046 141.617C71.6066 142.216 71.407 144.212 73.0037 146.208C74.8 150.599 76.3967 154.99 78.1931 159.381C77.3947 159.78 76.7959 160.179 76.1972 160.578C74.0017 157.584 72.6046 154.79 71.6066 152.994C70.6087 150.998 69.6107 149.002 68.6128 149.002C68.014 149.002 67.6148 150.199 67.6148 150.199C67.2157 151.397 67.8144 152.994 68.8124 154.99C71.8062 159.381 73.8021 162.574 74.2013 163.173C74.6004 163.772 74.8001 164.57 74.8001 164.57C74.8001 164.77 74.9996 164.969 74.9996 165.169C74.9996 165.368 75.1992 165.767 75.3988 166.566C75.5984 167.364 75.5984 167.564 75.798 168.362C75.9976 169.16 76.1972 169.759 76.3968 170.158C78.7918 175.747 84.7795 178.94 89.7693 181.735C90.368 181.934 90.7672 182.333 90.9668 182.333C94.3598 178.142 97.9524 173.951 101.345 169.759C106.335 164.969 106.535 161.776 105.936 161.177Z" fill="#F7A39C"/>
<path d="M88.3723 168.761C85.9772 168.562 83.5821 168.562 81.1871 168.362C79.9895 177.543 79.9896 190.716 86.576 206.484C89.1707 212.671 92.3641 218.26 95.5575 223.249C95.7571 223.649 95.9567 224.247 96.3559 225.046C96.3559 225.046 97.1543 226.443 98.751 227.84C99.5493 228.439 102.942 231.632 107.333 231.233C111.525 230.834 113.72 227.84 114.119 227.241C113.72 225.245 113.321 223.649 113.121 222.651C112.323 219.058 110.527 213.27 110.128 212.272C110.128 212.072 109.928 211.474 109.728 210.675C109.529 210.076 109.329 209.278 109.13 208.879C104.14 194.908 93.9608 188.321 89.969 174.749C88.7715 171.955 88.5719 169.759 88.3723 168.761Z" fill="#F7A39C"/>
<path d="M61.4274 92.5178C64.4212 94.1146 66.2175 96.7092 65.4191 98.3059C64.6208 99.9026 61.627 99.9026 58.6331 98.3059C55.6393 96.7092 53.843 94.1146 54.6413 92.5178C55.4397 90.9211 58.4335 90.9211 61.4274 92.5178Z" fill="#FF6665"/>
<path d="M65.6189 92.7167C66.8165 95.7106 66.2177 98.7044 64.621 99.1036C62.8247 99.5028 60.4296 97.5069 59.2321 94.3134C58.0345 91.3196 58.6333 88.3258 60.23 87.9266C62.0263 87.5274 64.4214 89.5233 65.6189 92.7167Z" fill="#FF6665"/>
<path d="M80.7875 62.7796C83.1826 66.7714 83.3821 70.7632 81.1866 71.9607C78.9912 73.1583 75.3986 70.7632 72.8039 66.971C70.4089 62.9792 70.2092 58.9874 72.4047 57.7899C74.7998 56.5924 78.3924 58.9874 80.7875 62.7796Z" fill="#FF6665"/>
<path d="M85.7772 66.1726C84.7793 70.364 81.985 73.1582 79.5899 72.1603C76.9953 71.3619 75.7977 67.3701 76.5961 63.1788C77.594 58.9874 80.3883 56.1931 82.7834 57.1911C85.378 57.9894 86.7752 61.9812 85.7772 66.1726Z" fill="#FF6665"/>
<path d="M88.372 101.698C92.5634 105.091 94.7589 109.482 92.9626 111.877C91.3659 114.073 86.3761 113.275 82.1848 110.081C77.9934 106.688 75.7979 102.297 77.5942 99.9021C79.3905 97.507 84.1807 98.3054 88.372 101.698Z" fill="#FF6665"/>
<path d="M94.9582 103.096C95.9562 108.285 94.3595 112.476 91.3657 112.676C88.3718 112.875 85.1784 108.884 84.1804 103.894C83.1825 98.7046 84.7792 94.5132 87.7731 94.3137C90.7669 93.9145 93.9603 97.9063 94.9582 103.096Z" fill="#FF6665"/>
<path d="M111.125 69.1652C113.52 71.5603 114.518 74.3545 113.321 75.7517C112.123 76.9492 109.129 76.1509 106.734 73.7558C104.339 71.3607 103.341 68.5665 104.539 67.1693C105.736 65.9718 108.73 66.7701 111.125 69.1652Z" fill="#FF6665"/>
<path d="M115.117 70.5629C115.317 73.7564 113.92 76.351 112.123 76.1514C110.327 76.1514 108.531 73.3572 108.331 70.1637C108.132 66.9703 109.529 64.3757 111.325 64.5752C113.321 64.7748 114.918 67.3695 115.117 70.5629Z" fill="#FF6665"/>
<path d="M108.73 211.872C108.531 211.872 108.331 211.672 108.331 211.473L106.335 204.088C106.335 203.888 106.335 203.489 106.735 203.489C106.934 203.489 107.333 203.489 107.333 203.888L109.329 211.273C109.329 211.473 109.13 211.672 108.73 211.872Z" fill="#240100"/>
<path d="M174.196 246.202C173.597 244.006 172.799 241.811 172.2 239.615C170.204 238.418 168.208 237.22 166.212 236.022C170.004 236.022 173.996 236.022 177.788 236.222C176.591 239.615 175.393 242.809 174.196 246.202Z" fill="white"/>
<path d="M166.012 34.0393H43.0651C45.4601 30.8459 49.2524 28.6504 53.8429 28.6504H154.037C158.627 28.85 163.018 30.8459 166.012 34.0393Z" fill="#240100"/>
<path d="M179.784 258.178H79.59C75.199 258.178 70.8081 256.381 67.6146 253.188C64.8204 250.394 63.0241 246.801 62.6249 243.009L40.2709 43.8186C39.8717 40.226 40.6701 36.6334 42.666 34.0387C45.2606 30.4461 49.2524 28.4502 53.843 28.4502H154.037C158.627 28.4502 163.218 30.4461 166.411 34.0387C169.006 36.8329 170.603 40.226 171.002 43.8186L193.356 243.009C193.755 246.801 192.757 250.593 190.562 253.387C188.167 256.182 184.175 258.178 179.784 258.178ZM53.843 29.2485C49.6516 29.2485 45.8594 31.0449 43.4643 34.4379C41.668 37.0325 40.8696 40.226 41.2688 43.619L63.6229 242.809C64.022 246.402 65.8183 249.795 68.413 252.389C71.4068 255.383 75.5982 257.18 79.59 257.18H179.784C183.776 257.18 187.568 255.383 189.963 252.389C192.158 249.795 192.957 246.402 192.558 242.809L170.204 43.619C169.804 40.226 168.208 37.0325 165.813 34.4379C162.619 31.0449 158.428 29.2485 154.236 29.2485H53.843Z" fill="#240100"/>
<path d="M190.163 252.789C187.768 255.783 183.975 257.779 179.584 257.779H79.3905C74.9996 257.779 70.8082 255.783 67.8144 252.789H190.163Z" fill="#240100"/>
<path d="M178.387 247.999H78.193C75.3987 247.999 73.0037 245.803 72.8041 243.009L72.0057 236.822C71.8061 235.425 72.2053 234.227 73.0036 233.229C73.802 232.231 74.9996 231.832 76.3967 231.832H176.591C179.385 231.832 181.78 234.028 181.979 236.822L182.778 243.009C182.977 244.406 182.578 245.604 181.78 246.602C180.782 247.6 179.584 247.999 178.387 247.999ZM76.3967 232.83C75.3987 232.83 74.4008 233.229 73.802 234.027C73.2033 234.826 72.8041 235.824 73.0036 236.822L73.802 243.009C74.0016 245.204 75.9975 247.001 78.193 247.001H178.387C179.385 247.001 180.383 246.602 180.981 245.803C181.58 245.005 181.979 244.007 181.78 243.009L180.981 236.822C180.782 234.626 178.786 232.83 176.591 232.83H76.3967Z" fill="#240100"/>
<path d="M161.422 42.0233C161.222 42.0233 161.222 42.0233 161.022 41.8238C160.025 41.0254 157.629 38.8299 153.837 38.6303C149.646 38.4307 147.251 40.8258 146.652 41.4246C146.452 41.6242 146.253 41.6242 145.854 41.4246C145.654 41.225 145.654 40.8258 145.854 40.6262C146.652 39.8279 149.247 37.2332 153.837 37.4328C157.829 37.6324 160.623 39.8279 161.621 40.8258C161.821 41.0254 161.821 41.4246 161.621 41.6242C161.821 42.0233 161.621 42.0233 161.422 42.0233Z" fill="#240100"/>
<path d="M158.228 43.6183H158.029C157.23 43.0196 156.033 42.4208 154.436 42.4208C152.44 42.2212 151.243 43.0196 150.644 43.4188C150.444 43.6183 150.045 43.6183 150.045 43.2192C149.846 43.0196 149.846 42.6204 150.245 42.6204C151.043 42.0216 152.64 41.2233 154.835 41.4229C156.632 41.6224 158.029 42.2212 159.027 42.82C159.226 43.0196 159.226 43.2192 159.226 43.4188C158.628 43.6183 158.428 43.6183 158.228 43.6183Z" fill="#240100"/>
<path d="M156.632 46.4134C156.432 46.4134 156.432 46.4134 156.232 46.2138C156.033 46.0142 155.434 45.4155 154.436 45.4155C153.438 45.4155 152.839 45.8146 152.64 46.0142C152.44 46.2138 152.041 46.2138 151.841 46.0142C151.642 45.8146 151.642 45.4154 151.841 45.2159C152.041 45.0163 153.039 44.2179 154.436 44.4175C155.634 44.6171 156.432 45.2159 156.831 45.615C157.031 45.8146 157.031 46.2138 156.831 46.4134C156.831 46.4134 156.831 46.4134 156.632 46.4134Z" fill="#240100"/>
<path d="M156.432 49.4059C156.432 50.2043 156.033 50.803 155.235 50.803C154.436 50.803 153.837 50.2043 153.638 49.4059C153.638 48.6076 154.037 48.0088 154.835 48.0088C155.634 48.0088 156.232 48.6076 156.432 49.4059Z" fill="#240100"/>
<path d="M176.59 123.054C176.79 126.447 176.99 129.84 177.189 133.233C179.784 132.834 182.378 132.235 184.973 131.836C187.169 131.437 189.364 131.038 191.56 130.639C192.757 130.439 193.755 130.24 194.953 130.04C200.341 129.042 205.73 128.244 211.119 127.246C211.519 126.847 212.916 125.05 212.716 122.655C212.516 120.061 210.92 117.266 208.325 115.869C205.531 116.069 202.737 116.268 199.543 116.867C199.144 116.867 198.745 116.867 198.346 117.067C196.549 117.466 194.753 117.665 193.156 118.065C190.961 118.663 188.765 119.262 186.57 119.861C182.778 120.659 179.584 121.857 176.59 123.054Z" fill="#F7A39C"/>
<path d="M186.57 119.463C186.171 123.654 185.572 127.646 185.173 131.837C187.368 131.438 189.564 131.039 191.759 130.64L194.154 126.648C191.56 124.253 188.965 121.858 186.57 119.463Z" fill="#240100"/>
<path d="M186.969 119.463C187.568 124.652 187.967 129.841 188.566 135.031C197.348 134.631 206.13 134.232 215.111 133.833C214.512 130.839 213.913 126.648 214.911 121.658C215.311 119.862 215.71 118.465 216.309 117.068C214.313 116.269 212.117 115.67 209.722 115.271C199.343 113.675 190.961 117.467 186.969 119.463Z" fill="#FFCE33"/>
<path d="M210.52 239.616C209.722 241.412 208.724 243.408 207.527 245.603C206.928 246.801 206.129 247.998 205.531 249.395C204.732 250.793 203.934 252.19 202.936 253.786C200.74 253.587 198.545 253.188 196.349 252.788C197.148 250.593 197.747 248.198 198.345 245.803C199.942 239.216 200.94 231.832 200.94 223.848C200.94 221.653 200.74 219.457 200.74 217.262C200.541 216.663 200.541 215.864 200.341 214.866C200.341 214.866 200.341 214.268 200.142 213.869C199.942 212.272 200.341 210.076 200.341 209.078V208.879V208.679C203.335 208.48 206.129 208.28 209.123 208.08C210.321 208.08 211.518 207.881 212.716 207.881C212.716 208.08 212.716 208.28 212.716 208.48C212.716 208.679 212.716 209.078 212.716 209.278C212.716 211.274 212.716 213.669 213.315 216.463C213.913 219.257 214.512 220.655 214.911 221.852C215.31 223.648 216.109 227.441 210.52 239.616Z" fill="#F7A39C"/>
<path d="M181.381 266.361H206.329C206.928 265.562 207.726 264.365 207.926 262.968C208.126 261.171 207.327 259.974 206.928 259.176C205.93 257.379 204.932 254.585 204.533 250.394C202.138 249.795 199.942 249.396 197.547 248.797C194.354 254.186 190.761 256.78 187.967 258.178C184.774 259.774 180.981 260.772 180.582 263.367C180.383 264.365 180.981 265.562 181.381 266.361Z" fill="#F7A39C"/>
<path d="M218.704 165.966C216.907 177.941 214.911 190.116 213.115 202.092C212.916 202.89 212.916 203.688 212.716 204.287C212.516 204.886 212.516 205.684 212.317 206.283C212.317 206.682 212.317 206.882 212.117 207.281C212.117 207.481 212.117 207.68 212.117 207.88C212.117 208.079 212.117 208.079 212.117 208.279C212.117 208.478 211.918 208.478 211.718 208.678C210.92 209.476 209.323 210.874 206.728 211.472C203.535 212.071 200.94 211.073 200.142 210.674C200.142 210.674 200.142 210.674 200.142 210.474V210.275C200.142 209.277 200.142 207.88 199.543 206.483C199.543 206.283 199.344 206.083 199.344 206.083C197.148 199.098 194.553 187.522 197.547 173.75C198.545 168.96 200.142 164.768 201.739 161.176C207.527 162.573 213.115 164.369 218.704 165.966Z" fill="#F7A39C"/>
<path d="M233.673 163.571C237.864 174.948 242.055 186.524 246.247 197.901C246.446 198.699 246.846 199.298 247.045 200.096C247.245 200.695 247.444 201.294 247.843 202.092C247.843 202.292 248.043 202.691 248.243 203.09C248.243 203.29 248.442 203.489 248.442 203.689C248.442 203.888 248.442 203.888 248.442 203.888C248.442 204.088 248.442 204.287 248.243 204.487C247.843 205.685 247.045 207.681 245.249 209.277C242.854 211.473 240.059 211.672 239.062 211.672C239.062 211.672 239.062 211.473 238.862 211.473C238.463 210.475 237.664 209.477 236.666 208.479C236.467 208.279 236.267 208.279 236.267 208.279C230.878 203.29 223.094 194.308 219.103 180.736C217.705 175.946 217.107 171.555 216.708 167.563C222.296 165.966 227.885 164.769 233.673 163.571Z" fill="#F7A39C"/>
<path d="M235.07 167.762C223.494 166.765 212.117 165.567 200.541 164.569L201.739 130.04C202.138 120.061 210.321 112.277 220.3 112.676C230.28 113.075 238.064 121.258 237.665 131.238C236.866 143.413 235.868 155.588 235.07 167.762Z" fill="#F7A39C"/>
<path d="M211.319 111.079C211.718 109.483 211.918 107.886 212.117 106.289L212.317 104.493C212.716 101.898 212.916 99.5031 212.916 97.3076L215.111 97.5072L219.901 97.9064L221.697 98.106L224.891 98.3056C224.891 101.299 224.891 104.094 224.891 107.087C224.891 107.287 224.891 107.487 224.891 107.686C224.891 110.281 224.891 112.876 224.891 115.67C224.891 117.067 224.891 118.664 224.691 120.061C219.702 119.262 214.911 118.464 209.922 117.666C210.321 115.869 210.92 114.073 211.119 112.077L211.319 111.079Z" fill="#F7A39C"/>
<path d="M235.669 144.013C235.27 144.013 235.07 143.614 235.27 143.414L236.866 135.83C236.866 135.63 237.266 135.431 237.465 135.431C237.665 135.431 237.864 135.83 237.864 136.029L236.268 143.614C236.068 143.813 235.869 144.013 235.669 144.013Z" fill="#240100"/>
<path d="M206.329 267.159H180.382C180.183 266.56 179.784 265.562 179.784 264.365C179.784 262.768 180.183 261.57 180.382 260.772C184.574 258.576 188.965 256.381 193.156 254.185C192.158 251.79 192.358 250.992 192.557 250.792C193.356 250.194 196.349 251.99 197.148 254.984C197.747 256.98 196.948 258.776 196.549 259.375C199.942 259.574 203.535 259.774 206.928 259.974C207.127 260.572 207.926 261.77 207.726 263.566C207.926 265.362 206.728 266.76 206.329 267.159Z" fill="#240100"/>
<path d="M283.371 225.843C282.373 227.839 281.375 229.635 280.377 231.631C279.379 230.833 278.381 230.234 277.383 229.435C277.183 229.435 277.183 229.236 277.183 229.236C275.188 227.839 272.992 226.442 270.797 225.044C266.006 222.25 260.618 219.656 254.829 217.46C252.634 216.662 250.638 216.063 248.642 215.464C248.043 215.265 247.245 215.265 246.247 215.065C246.247 215.065 245.648 214.865 245.249 214.865C243.652 214.466 241.657 213.468 240.858 213.069H240.659C240.659 213.069 240.659 213.069 240.459 213.069C240.06 212.87 239.461 212.47 239.062 211.672C240.259 209.876 241.657 207.481 242.654 204.487C243.054 203.289 243.453 202.092 243.652 201.094C243.852 201.094 244.052 201.293 244.251 201.293C244.451 201.493 244.85 201.493 245.05 201.693C246.846 202.491 249.241 203.09 252.035 203.489C254.829 203.888 256.426 203.688 257.823 203.888C259.62 203.888 263.412 204.487 272.992 213.867C274.788 215.664 276.784 217.859 278.98 220.454C279.778 221.452 280.576 222.45 281.375 223.448C281.974 224.047 282.772 224.845 283.371 225.843Z" fill="#F7A39C"/>
<path d="M296.544 226.841L287.961 250.193C286.963 250.393 285.766 250.592 284.768 249.993C282.572 248.596 282.972 244.804 282.572 241.211C282.173 238.218 280.976 234.226 277.183 229.436C277.183 229.236 276.984 229.236 276.984 229.236C277.183 228.837 277.583 228.238 277.782 227.839C278.78 226.242 279.778 224.646 280.776 223.049C280.976 223.049 281.175 223.248 281.375 223.248C285.167 224.246 287.961 224.047 289.957 223.847C290.756 223.648 292.352 223.448 293.949 224.246C295.147 224.845 296.144 225.843 296.544 226.841Z" fill="#F7A39C"/>
<path d="M297.342 227.041L288.56 251.391C287.961 251.391 286.963 251.391 285.766 250.992C284.169 250.593 283.171 249.794 282.572 249.196C281.974 244.405 281.375 239.615 280.576 234.825C277.982 234.825 277.183 234.426 277.183 234.226C276.984 233.228 279.778 231.033 282.572 231.233C284.568 231.432 285.965 232.63 286.365 233.228C287.762 230.035 289.159 226.842 290.356 223.648C290.955 223.648 292.352 223.449 293.949 224.047C296.144 225.045 297.142 226.642 297.342 227.041Z" fill="#240100"/>
<path d="M207.527 245.603C206.928 246.8 206.129 247.998 205.531 249.395C202.138 248.796 199.743 247 198.345 245.802C201.339 245.603 204.333 245.603 207.527 245.603Z" fill="#240100"/>
<path d="M221.498 247.4C218.504 247.999 214.313 248.198 209.722 247.799C204.732 247.4 200.541 246.202 197.347 245.204C197.547 231.632 197.547 217.861 197.747 204.288C196.549 199.099 195.751 192.313 195.95 184.529C196.349 173.951 198.545 165.369 200.541 159.381C206.329 162.574 212.317 165.568 218.105 168.762C217.506 182.134 216.907 195.307 216.308 208.679C218.105 221.653 219.701 234.626 221.498 247.4Z" fill="#5A78EC"/>
<path d="M278.78 220.256C278.78 222.451 278.58 225.046 277.782 227.84C277.582 228.439 277.383 228.838 277.183 229.437C277.183 229.437 277.183 229.437 277.183 229.637C277.183 229.437 276.984 229.437 276.984 229.437C274.988 228.04 272.792 226.643 270.597 225.246C270.796 224.248 270.796 223.25 270.996 222.252C273.59 221.453 276.185 220.855 278.78 220.256Z" fill="#240100"/>
<path d="M248.243 202.293C249.241 202.293 250.837 202.293 252.634 202.492C252.634 202.492 256.426 202.891 259.42 203.69C263.611 204.688 271.395 209.877 279.179 218.459C277.183 224.447 274.389 231.233 270.397 238.019C269.399 239.815 268.202 241.412 267.204 243.009C257.424 232.83 247.444 222.451 237.664 212.272C233.872 209.079 228.084 203.69 223.294 195.307C217.506 185.128 216.109 175.548 215.909 170.159C210.72 166.566 205.531 162.973 200.341 159.381C211.917 160.379 223.494 161.377 235.07 162.375C239.66 175.747 244.051 188.92 248.243 202.293Z" fill="#5A78EC"/>
<path d="M237.664 169.56C225.09 166.965 212.317 164.57 199.742 161.976C200.142 158.982 200.541 155.988 200.94 152.994C212.516 154.591 224.092 155.988 235.669 157.585C236.467 161.576 237.066 165.568 237.664 169.56Z" fill="#FFCE33"/>
<path d="M246.447 163.172C243.253 165.367 233.274 171.953 219.103 171.355C207.926 170.955 199.942 166.165 196.549 163.77C198.545 149.599 200.541 135.229 202.337 121.058C203.136 120.26 204.134 119.262 205.331 118.464C207.527 116.867 209.523 115.669 211.319 115.07C210.72 116.667 210.72 117.865 211.319 118.264C212.716 119.661 217.107 117.865 225.091 112.875C226.887 113.274 229.881 114.073 233.074 116.468C234.671 117.865 235.868 119.262 236.467 120.26C239.86 134.63 243.054 148.801 246.447 163.172Z" fill="#FFCE33"/>
<path d="M217.705 180.537C217.506 180.537 217.306 180.338 217.306 180.138L216.708 175.149C216.708 174.949 216.907 174.55 217.107 174.55C217.306 174.55 217.705 174.749 217.705 174.949L218.304 179.939C218.105 180.338 218.105 180.537 217.705 180.537Z" fill="#240100"/>
<path d="M248.243 205.486C248.043 205.486 247.644 205.287 247.644 204.887V202.293C247.644 202.093 247.844 201.894 248.243 201.894C248.442 201.894 248.841 202.093 248.841 202.492V205.087C248.841 205.287 248.642 205.486 248.243 205.486Z" fill="#240100"/>
<path d="M215.111 211.074C214.712 210.875 214.512 210.675 214.712 210.475L215.51 208.28C215.51 208.08 215.909 207.881 216.109 207.881C216.309 207.881 216.508 208.28 216.508 208.48L215.71 210.675C215.51 211.074 215.311 211.074 215.111 211.074Z" fill="#240100"/>
<path d="M255.029 135.628C253.033 138.423 251.237 141.217 249.44 144.011C247.445 142.414 245.449 140.618 243.453 139.021C241.657 137.624 240.06 136.028 238.263 134.63C237.465 133.832 236.467 133.233 235.669 132.435C231.477 128.842 227.286 125.449 223.095 121.857C222.895 121.258 222.696 119.063 224.093 117.067C225.49 114.871 228.284 113.474 231.278 113.274C233.673 114.871 235.868 116.468 238.263 118.464C238.663 118.663 238.862 118.863 239.261 119.262C240.659 120.46 242.056 121.657 243.253 122.855C245.05 124.451 246.646 126.048 248.043 127.645C250.838 130.24 253.033 133.034 255.029 135.628Z" fill="#F7A39C"/>
<path d="M248.243 127.447C246.646 131.239 245.049 135.032 243.253 138.824C241.457 137.427 239.86 135.83 238.064 134.433V129.842C241.457 129.044 244.85 128.246 248.243 127.447Z" fill="#240100"/>
<path d="M248.243 127.446C243.253 133.035 238.263 138.623 233.473 144.411C229.282 136.228 224.891 128.244 220.699 120.061C221.498 118.465 222.296 116.868 223.094 115.271C223.693 114.273 224.292 113.275 224.891 112.277C227.286 111.878 229.282 112.078 230.878 112.277C241.856 114.473 247.245 125.65 248.243 127.446Z" fill="#FFCE33"/>
<path d="M243.652 107.886C244.85 107.287 246.047 106.488 247.245 105.89C250.638 110.081 254.63 116.667 256.027 126.048C256.625 129.84 256.625 133.233 256.426 136.626C256.426 136.826 256.625 137.225 256.625 137.824C256.625 137.824 256.625 138.822 256.226 139.82C255.029 142.614 252.833 143.612 252.833 143.612C251.037 144.41 249.241 144.011 248.841 143.812C248.043 142.614 247.644 141.616 247.245 140.818C246.446 139.021 245.848 135.628 245.648 135.03C245.648 135.03 245.448 134.631 245.448 134.231C245.249 133.832 245.249 133.433 245.249 133.233C243.652 125.05 246.846 119.262 244.85 111.678C244.45 109.682 244.051 108.484 243.652 107.886Z" fill="#F7A39C"/>
<path d="M218.704 108.884C216.708 111.279 213.714 112.476 211.119 112.277L211.319 111.079C211.718 109.483 211.918 107.886 212.117 106.289L212.317 104.493C212.716 101.898 212.916 99.5031 212.916 97.3076L215.111 97.5072L219.901 97.9064C222.097 100.9 221.698 105.491 218.704 108.884Z" fill="#240100"/>
<path d="M205.331 74.9551L201.339 88.128C198.944 96.3111 203.535 105.093 211.917 107.488C213.913 107.688 216.708 107.688 220.101 106.49C227.086 104.095 230.479 98.7062 231.477 96.9099L235.868 81.9407C237.265 77.1506 235.469 71.9612 231.278 69.3666C229.481 68.169 227.485 67.1711 224.891 66.3727C223.294 65.9736 221.897 65.5744 220.5 65.3748C213.714 64.1773 207.327 68.3686 205.331 74.9551Z" fill="#F7A39C"/>
<path d="M206.529 93.7158C206.728 93.9154 207.128 94.7138 208.325 95.1129C209.722 95.5121 210.72 94.9134 210.92 94.9134L206.529 93.7158Z" fill="#240100"/>
<path d="M220.101 91.7191C219.901 91.7191 219.701 91.5195 219.701 91.3199C219.103 89.7232 217.905 88.5257 216.508 88.5257C215.909 88.5257 215.31 88.9248 214.911 89.1244C214.712 89.324 214.312 89.324 214.113 89.1244C213.913 88.9248 213.913 88.5257 214.113 88.3261C214.712 87.7273 215.51 87.5277 216.308 87.3281C216.308 87.3281 216.308 87.3281 216.508 87.3281C218.304 87.3281 219.901 88.7253 220.5 90.9207C220.5 91.3199 220.5 91.5195 220.101 91.7191Z" fill="#240100"/>
<path d="M215.447 92.1694C216.255 92.5241 217.305 91.9116 217.792 90.8014C218.28 89.6912 218.021 88.5037 217.213 88.149C216.406 87.7944 215.356 88.4068 214.868 89.517C214.381 90.6272 214.64 91.8147 215.447 92.1694Z" fill="#240100"/>
<path d="M214.512 89.3231C214.312 89.3231 214.113 89.1235 214.113 89.1235L213.514 87.7264C213.314 87.5268 213.514 87.1276 213.714 87.1276C213.913 86.928 214.312 87.1276 214.312 87.3272L214.911 88.7243C215.111 88.9239 214.911 89.3231 214.712 89.3231H214.512Z" fill="#240100"/>
<path d="M207.726 88.5267C207.526 88.5267 207.327 88.3271 207.327 88.1275C206.728 86.5308 205.53 85.1337 204.133 85.3333C203.535 85.3333 202.936 85.7325 202.537 85.932C202.337 86.1316 201.938 86.1316 201.738 85.932C201.539 85.7325 201.539 85.3333 201.738 85.1337C202.137 84.7345 202.936 84.3353 203.934 84.1357C205.73 84.1357 207.327 85.5329 208.125 87.7284C208.325 88.1275 208.125 88.3271 207.726 88.5267Z" fill="#240100"/>
<path d="M203.078 88.9516C203.885 89.3063 204.935 88.6938 205.423 87.5836C205.91 86.4735 205.651 85.2859 204.844 84.9313C204.036 84.5766 202.987 85.189 202.499 86.2992C202.011 87.4094 202.27 88.5969 203.078 88.9516Z" fill="#240100"/>
<path d="M202.138 86.1307C201.938 86.1307 201.738 85.9311 201.738 85.9311L201.14 84.534C200.94 84.3344 201.14 83.9352 201.339 83.9352C201.539 83.7356 201.938 83.9352 201.938 84.1348L202.537 85.5319C202.736 85.7315 202.537 86.1307 202.337 86.1307C202.337 86.1307 202.337 86.1307 202.138 86.1307Z" fill="#240100"/>
<path d="M223.095 86.7289C222.895 86.9285 221.698 86.3298 219.302 85.1322C216.508 83.7351 216.508 83.5355 216.508 83.3359C216.508 82.9367 218.304 82.7371 219.702 83.3359C221.897 84.1343 223.494 86.3298 223.095 86.7289Z" fill="#240100"/>
<path d="M209.722 81.7396C209.722 81.9392 208.325 81.9392 205.531 81.54C202.337 81.1408 202.337 80.9412 202.337 80.9412C202.337 80.5421 203.734 79.9433 205.331 79.7437C207.726 79.5441 209.922 81.1408 209.722 81.7396Z" fill="#240100"/>
<path d="M213.515 97.7072C213.914 98.306 211.119 103.096 208.126 102.298C205.531 101.699 204.533 97.5076 205.331 96.9089C205.731 96.5097 206.728 97.9068 208.924 98.306C211.319 98.7052 213.115 97.308 213.515 97.7072Z" fill="white"/>
<path d="M240.06 138.224C239.86 138.224 239.661 138.024 239.661 137.825L235.07 123.454C235.07 123.255 235.07 122.855 235.469 122.855C235.669 122.855 236.068 122.855 236.068 123.255L240.659 137.625C240.659 137.825 240.459 138.024 240.06 138.224Z" fill="#240100"/>
<path d="M181.38 105.491L173.596 105.292C172.798 105.292 172.598 104.493 172.997 103.495L182.179 82.3389C182.578 81.3409 183.576 80.7422 184.374 80.7422L192.158 80.9418C192.956 80.9418 193.156 81.7401 192.757 82.7381L183.576 103.895C183.177 104.693 182.179 105.491 181.38 105.491Z" fill="#240100"/>
<path d="M180.183 97.1078C178.985 96.5091 177.588 95.9103 176.391 95.3115C173.197 99.7025 169.605 106.489 168.806 116.069C168.407 119.861 168.607 123.454 169.006 126.647C169.006 126.847 168.806 127.246 169.006 127.845C169.006 127.845 169.006 128.843 169.405 129.84C170.603 132.635 172.998 133.433 172.998 133.433C174.794 134.032 176.59 133.433 176.99 133.233C177.588 132.036 177.987 131.038 178.387 130.24C178.985 128.244 179.584 124.851 179.584 124.252C179.584 124.252 179.784 123.853 179.784 123.454C179.784 123.054 179.983 122.655 179.983 122.456C181.181 114.273 177.389 108.684 178.985 100.9C179.584 98.9041 179.983 97.7066 180.183 97.1078Z" fill="#F7A39C"/>
<path d="M184.973 102.098C182.179 101.699 179.385 101.499 176.59 101.1C176.59 99.1041 176.59 97.1082 176.59 95.3119C177.788 92.7173 178.786 90.3222 179.983 87.7275C180.582 88.7255 180.981 89.7234 181.58 90.7214C184.175 90.5218 186.969 90.3222 189.564 90.1226C189.963 91.1206 190.362 92.7173 189.963 94.7132C189.164 99.3037 185.572 101.699 184.973 102.098Z" fill="#F7A39C"/>
<path d="M179.185 124.852C179.185 124.852 178.985 124.852 179.185 124.852C178.786 124.652 178.586 124.453 178.786 124.253L179.983 121.459C180.183 121.259 180.383 121.06 180.582 121.259C180.782 121.459 180.981 121.659 180.782 121.858L179.584 124.652C179.584 124.852 179.385 124.852 179.185 124.852Z" fill="#240100"/>
<path d="M247.844 139.42C247.644 139.42 247.445 139.42 247.445 139.22L246.247 136.626C246.048 136.426 246.247 136.027 246.447 136.027C246.646 135.827 247.045 136.027 247.045 136.227L248.243 138.821C248.443 139.021 248.243 139.42 248.043 139.42H247.844Z" fill="#240100"/>
<path d="M230.879 73.3573C230.28 77.1495 222.695 78.9458 217.706 78.9458C211.319 79.1454 203.136 76.5507 202.736 72.9581C202.337 68.9664 212.516 62.9787 221.099 64.9746C225.889 66.1721 231.278 70.1639 230.879 73.3573Z" fill="#240100"/>
<path d="M239.062 81.541C238.463 87.7283 231.876 93.716 227.885 92.5184C227.286 92.3189 225.689 91.5205 222.496 79.7447C220.101 70.7632 218.903 66.1726 220.3 65.1747C223.693 62.58 239.86 71.362 239.062 81.541Z" fill="#240100"/>
<path d="M229.826 98.1117C232.044 98.7728 234.506 97.0821 235.325 94.3353C236.143 91.5886 235.008 88.826 232.79 88.1648C230.571 87.5037 228.109 89.1945 227.291 91.9412C226.472 94.688 227.607 97.4506 229.826 98.1117Z" fill="#F7A39C"/>
<path d="M230.679 95.9101H230.48C230.28 95.7105 230.081 95.5109 230.28 95.3113L232.875 90.7207C233.074 90.5211 233.274 90.3216 233.474 90.5211C233.673 90.7207 233.873 90.9203 233.673 91.1199L231.079 95.7105C231.079 95.9101 230.879 95.9101 230.679 95.9101Z" fill="#240100"/>
<path d="M231.877 93.5155C231.677 93.5155 231.478 93.3159 231.478 93.1163L230.879 90.5216C230.879 90.322 231.079 89.9229 231.278 89.9229C231.478 89.9229 231.877 90.1224 231.877 90.322L232.476 92.9167C232.476 93.3159 232.276 93.5155 231.877 93.5155C232.077 93.5155 231.877 93.5155 231.877 93.5155Z" fill="#240100"/>
<path d="M244.999 99.9758C245.972 99.7823 246.151 96.558 245.399 92.774C244.646 88.99 243.248 86.0793 242.275 86.2728C241.302 86.4662 241.123 89.6906 241.875 93.4745C242.627 97.2585 244.026 100.169 244.999 99.9758Z" fill="#F7A39C"/>
<path d="M247.554 100.058C248.541 100.155 249.647 97.121 250.024 93.2815C250.401 89.4419 249.906 86.2508 248.919 86.1539C247.931 86.0571 246.826 89.0911 246.449 92.9306C246.072 96.7701 246.567 99.9612 247.554 100.058Z" fill="#F7A39C"/>
<path d="M250.838 110.482C249.241 111.68 247.445 111.68 246.247 111.48C241.457 107.089 240.06 101.9 241.657 99.7045C242.455 98.7066 244.052 97.9082 245.648 97.7086C247.245 97.5091 248.642 97.7086 249.241 97.9082C249.84 98.1078 250.838 98.507 251.836 99.3054C254.63 101.9 254.43 108.087 250.838 110.482Z" fill="#F7A39C"/>
<path d="M247.844 104.096C247.445 104.096 246.846 103.896 246.646 103.497C245.848 102.3 247.445 100.104 248.642 98.9065C248.842 98.7069 249.042 98.7069 249.441 98.9065C249.64 99.1061 249.64 99.3057 249.441 99.7049C248.044 101.302 247.245 102.699 247.644 102.898C247.844 103.098 248.443 103.098 249.241 102.898C250.638 102.499 251.237 101.102 251.437 100.703C251.437 100.503 251.836 100.304 252.035 100.503C252.235 100.503 252.435 100.902 252.235 101.102C252.035 101.701 251.237 103.297 249.441 103.896C249.042 103.896 248.443 104.096 247.844 104.096Z" fill="#240100"/>
<path d="M249.64 107.089C249.241 107.089 248.642 106.889 248.443 106.49C247.644 105.293 249.241 103.097 250.439 101.9C250.638 101.7 250.838 101.7 251.237 101.9C251.437 102.099 251.437 102.299 251.237 102.698C249.84 104.295 249.042 105.692 249.441 105.891C249.64 106.091 250.239 106.091 251.037 105.891C252.434 105.492 253.033 104.095 253.233 103.696C253.233 103.496 253.632 103.297 253.832 103.496C254.031 103.496 254.231 103.896 254.031 104.095C253.832 104.694 253.033 106.291 251.237 106.889C251.037 106.889 250.239 107.089 249.64 107.089Z" fill="#240100"/>
<path d="M245.249 106.688C244.651 106.688 243.653 106.488 242.056 105.491C241.856 105.291 241.657 105.091 241.856 104.892C242.056 104.692 242.256 104.493 242.455 104.692C244.052 105.69 245.05 105.89 245.249 105.89C245.249 105.69 244.451 104.293 244.052 103.495C243.453 102.497 242.655 101.499 241.856 100.501C241.657 100.301 241.657 99.902 241.856 99.7024C242.056 99.5028 242.455 99.5028 242.655 99.7024C243.453 100.7 244.251 101.698 245.05 102.896C246.048 104.493 246.846 105.89 246.247 106.488C245.848 106.488 245.848 106.688 245.249 106.688Z" fill="#240100"/>
<path d="M190.562 76.7495C190.163 76.7495 189.963 76.3504 190.163 76.1508L192.558 64.7742C192.558 64.5746 192.957 64.375 193.156 64.375C193.356 64.375 193.556 64.7742 193.556 64.9738L191.161 76.3504C190.961 76.5499 190.761 76.7495 190.562 76.7495Z" fill="#240100"/>
<path d="M187.368 75.9524C187.169 75.9524 186.769 75.7528 186.769 75.3536V66.9708C186.769 66.7713 186.969 66.3721 187.368 66.3721C187.568 66.3721 187.967 66.5717 187.967 66.9708V75.3536C187.767 75.7528 187.568 75.9524 187.368 75.9524Z" fill="#240100"/>
<path d="M194.553 77.5476C194.553 77.5476 194.354 77.5476 194.553 77.5476C194.154 77.348 193.955 77.1484 194.154 76.9489L195.751 72.9571C195.951 72.7575 196.15 72.5579 196.35 72.7575C196.549 72.9571 196.749 73.1566 196.549 73.3562L194.953 77.348C194.953 77.348 194.753 77.5476 194.553 77.5476Z" fill="#240100"/>
<path d="M301.733 50.4045C299.537 52.2008 292.951 57.5897 285.167 56.3922C278.78 55.3942 276.385 50.6041 272.393 51.8016C267.204 53.3983 268.801 61.9807 263.212 64.5753C256.825 67.5692 251.037 57.7893 241.856 59.7852C234.272 61.3819 233.074 69.3655 227.885 68.7667C222.496 68.1679 218.305 58.9868 218.305 51.4024C218.305 48.4086 219.103 45.8139 221.897 39.0279C222.895 36.6328 228.683 23.6595 231.877 18.8694C245.049 0.107972 300.934 -4.283 311.513 16.0751C316.902 26.2542 311.513 42.6205 301.733 50.4045Z" fill="#240100"/>
<path d="M226.089 67.5692C225.889 67.5692 225.69 67.5692 225.49 67.5692C219.901 66.9704 215.51 57.3901 215.51 49.6061C215.51 46.4127 216.309 43.6185 219.303 37.032C221.897 31.2439 226.488 21.0649 229.482 16.8735C237.665 5.09773 262.015 -0.490773 280.577 0.706763C295.346 1.70471 305.924 6.49485 309.916 14.0792C315.106 23.8591 310.116 40.6246 299.737 49.0074C297.542 50.8037 290.756 56.1926 282.972 55.1946C279.778 54.7955 277.583 53.3983 275.786 52.2008C273.791 51.0033 272.393 50.0053 270.398 50.6041C268.002 51.2029 267.204 53.7975 266.206 56.3922C265.208 59.1864 264.21 61.9807 261.216 63.3778C257.823 64.9745 254.83 63.1782 251.437 61.3819C247.844 59.5856 244.251 57.5897 239.86 58.5877C236.068 59.386 234.072 61.7811 232.076 63.9766C230.08 65.7729 228.484 67.5692 226.089 67.5692ZM275.188 1.50512C257.624 1.50512 237.266 7.09363 230.08 17.4723C227.885 20.4661 224.292 27.8509 220.101 37.4312C217.307 43.8181 216.508 46.6123 216.508 49.6061C216.508 56.7914 220.5 65.9725 225.69 66.5713C227.885 66.7708 229.282 65.1741 231.078 63.1782C232.875 60.9827 235.27 58.3881 239.262 57.5897C244.052 56.5918 248.044 58.5877 251.636 60.5836C254.83 62.3799 257.624 63.777 260.618 62.5795C263.212 61.3819 264.011 58.7873 265.009 56.1926C266.007 53.3983 267.005 50.6041 269.799 49.8057C272.194 49.207 273.99 50.2049 275.986 51.602C277.782 52.7996 279.778 53.9971 282.772 54.3963C290.157 55.3942 296.743 50.2049 298.939 48.6082C308.918 40.6246 313.708 24.2583 308.918 14.8776C305.126 7.69239 294.747 2.90225 280.377 1.9043C278.581 1.70471 276.784 1.50512 275.188 1.50512Z" fill="#240100"/>
</svg>
