<svg width="320" height="304" viewBox="0 0 320 304" fill="none" xmlns="http://www.w3.org/2000/svg">
<g filter="url(#filter0_d_1533_3545)">
<path d="M222.247 298.177H133.856C129.982 298.177 126.108 296.592 123.291 293.775C120.826 291.31 119.241 288.14 118.889 284.795L99.1681 109.069C98.816 105.899 99.5203 102.73 101.281 100.441C103.57 97.2715 107.092 95.5107 111.141 95.5107H199.533C203.582 95.5107 207.632 97.2715 210.45 100.441C212.739 102.906 214.147 105.899 214.499 109.069L234.22 284.795C234.572 288.14 233.692 291.486 231.755 293.951C229.642 296.416 226.12 298.177 222.247 298.177Z" fill="#FFFFF6"/>
<mask id="mask0_1533_3545" style="mask-type:alpha" maskUnits="userSpaceOnUse" x="99" y="95" width="136" height="204">
<path d="M222.247 298.177H133.856C129.982 298.177 126.108 296.592 123.291 293.775C120.826 291.31 119.241 288.14 118.889 284.795L99.1682 109.069C98.8161 105.899 99.5204 102.73 101.281 100.441C103.57 97.2715 107.092 95.5107 111.142 95.5107H199.533C203.583 95.5107 207.632 97.2715 210.45 100.441C212.739 102.906 214.147 105.899 214.499 109.069L234.22 284.795C234.572 288.14 233.692 291.486 231.755 293.951C229.642 296.416 226.121 298.177 222.247 298.177Z" fill="#240100"/>
</mask>
<g mask="url(#mask0_1533_3545)">
<path fill-rule="evenodd" clip-rule="evenodd" d="M190.502 131.342C190.249 130.514 189.492 129.943 188.627 129.926L148.729 129.174C147.432 129.15 146.455 130.348 146.74 131.614L150.041 146.252C150.315 147.468 151.625 148.132 152.828 147.805C153.102 147.731 153.378 147.663 153.656 147.602C165.039 145.09 176.727 154.206 179.762 167.961C179.787 168.076 179.812 168.191 179.836 168.306C180.036 169.267 180.86 169.988 181.842 169.996L199.628 170.143C200.978 170.154 201.951 168.851 201.557 167.559L190.502 131.342ZM164.631 197.441C164.629 197.429 164.636 197.418 164.647 197.416C173.321 195.502 179.315 187.388 180.333 177.548C180.445 176.462 181.344 175.602 182.436 175.622L221.29 176.355C222.156 176.371 222.912 176.943 223.165 177.771L239.597 231.601C239.992 232.893 239.018 234.196 237.668 234.185L174.382 233.662C173.453 233.654 172.652 233.008 172.447 232.102L164.631 197.441ZM146.302 149.693C146.465 150.448 146.173 151.222 145.593 151.732C139.349 157.229 136.321 166.99 138.542 177.056C140.817 187.365 147.951 195.068 156.174 197.223C156.415 197.287 156.603 197.478 156.655 197.721C156.74 198.112 156.454 198.484 156.055 198.505L89.3778 201.857C88.2352 201.914 87.2773 201.004 87.2773 199.86V131.986C87.2773 130.881 88.1728 129.986 89.2773 129.986H140.439C141.381 129.986 142.195 130.643 142.394 131.564L146.302 149.693Z" fill="#C4C4C4"/>
<path d="M140.111 126.208L85.335 127.374L68.6302 80.756L131.953 75.7051L140.111 126.208Z" fill="#C4C4C4"/>
<path d="M171.419 241.622C171.1 240.399 171.98 239.191 173.242 239.12L210.962 237.006C211.806 236.958 212.589 237.447 212.917 238.226L223.621 263.648C224.179 264.973 223.199 266.436 221.762 266.424L179.326 266.073C178.422 266.066 177.636 265.453 177.407 264.578L171.419 241.622Z" fill="#66EC5A"/>
<path d="M138.288 90.8873C138.122 89.7967 138.87 88.7778 139.961 88.6099L176.614 82.9678C177.613 82.8139 178.57 83.4304 178.844 84.4041L189.92 123.869C190.28 125.152 189.31 126.421 187.978 126.41L145.337 126.057C144.355 126.049 143.524 125.329 143.377 124.358L138.288 90.8873Z" fill="#C4C4C4"/>
<path d="M192.648 87.1301C192.272 85.251 193.731 83.5059 195.647 83.542L261.736 84.7882C263.078 84.8134 264.239 85.7264 264.581 87.0238L284.874 164.105C285.378 166.018 283.926 167.885 281.948 167.869L211.121 167.284C209.701 167.272 208.483 166.266 208.204 164.872L192.648 87.1301Z" fill="#C4C4C4"/>
<path d="M99.2877 207.741C99.1741 206.063 100.462 204.62 102.142 204.542L155.253 202.079C156.696 202.012 157.982 202.983 158.313 204.389L172.263 263.663C172.692 265.486 171.364 267.252 169.493 267.347L106.493 270.514C104.859 270.596 103.46 269.353 103.349 267.721L99.2877 207.741Z" fill="#C4C4C4"/>
</g>
<ellipse cx="159.482" cy="172.324" rx="12.522" ry="15.1329" transform="rotate(-12.4424 159.482 172.324)" fill="#C4C4C4"/>
<path d="M210.097 100.442H101.633C103.746 97.6244 107.092 95.6875 111.141 95.6875H199.533C203.582 95.8636 207.456 97.6244 210.097 100.442Z" fill="#240100"/>
<path d="M222.247 298.177H133.856C129.982 298.177 126.108 296.592 123.291 293.775C120.826 291.31 119.241 288.14 118.889 284.795L99.1681 109.069C98.816 105.899 99.5203 102.73 101.281 100.441C103.57 97.2715 107.092 95.5107 111.141 95.5107H199.533C203.582 95.5107 207.632 97.2715 210.45 100.441C212.739 102.906 214.147 105.899 214.499 109.069L234.22 284.795C234.572 288.14 233.692 291.486 231.755 293.951C229.642 296.416 226.12 298.177 222.247 298.177ZM111.141 96.2151C107.444 96.2151 104.098 97.7998 101.985 100.793C100.401 103.082 99.6964 105.899 100.049 108.893L119.769 284.619C120.121 287.788 121.706 290.781 123.995 293.07C126.636 295.712 130.334 297.296 133.856 297.296H222.247C225.768 297.296 229.114 295.712 231.227 293.07C233.164 290.781 233.868 287.788 233.516 284.619L213.795 108.893C213.443 105.899 212.034 103.082 209.921 100.793C207.104 97.7998 203.406 96.2151 199.709 96.2151H111.141Z" fill="#240100"/>
<path d="M201 149.5L202.474 149.224L202.477 149.238L202.48 149.253L201 149.5ZM195.848 249.508C196.672 249.424 197.408 250.023 197.492 250.848C197.576 251.672 196.976 252.408 196.152 252.492L195.848 249.508ZM162 204.5L163.434 204.059L163.457 204.135L163.473 204.214L162 204.5ZM122.56 202.999C121.732 203.032 121.034 202.388 121.001 201.56C120.968 200.732 121.612 200.034 122.44 200.001L122.56 202.999ZM147.09 128.997C146.263 129.047 145.552 128.417 145.503 127.59C145.453 126.763 146.083 126.052 146.91 126.003L147.09 128.997ZM201.105 173.424L201.457 174.882L201.105 173.424ZM203.959 167.238L202.495 167.563L203.959 167.238ZM174.866 179.694L173.47 179.148L174.866 179.694ZM181.181 172.959L181.261 174.456L181.181 172.959ZM177.865 252.85L178.017 254.343L177.865 252.85ZM170.282 247.219L171.755 246.933L170.282 247.219ZM191.618 252.955C190.794 253.039 190.058 252.439 189.974 251.615C189.89 250.791 190.49 250.054 191.314 249.97L191.618 252.955ZM182.246 250.895C183.071 250.811 183.807 251.411 183.891 252.235C183.975 253.06 183.375 253.796 182.551 253.88L182.246 250.895ZM174.898 254.083C174.099 253.863 173.63 253.037 173.85 252.238C174.07 251.44 174.896 250.971 175.695 251.191L174.898 254.083ZM172.498 248.817C172.94 249.518 172.729 250.444 172.028 250.885C171.327 251.327 170.401 251.116 169.96 250.415L172.498 248.817ZM167.774 242.164C167.617 241.351 168.148 240.564 168.961 240.406C169.775 240.249 170.562 240.78 170.72 241.593L167.774 242.164ZM168.649 230.914C168.807 231.727 168.275 232.514 167.462 232.672C166.649 232.829 165.862 232.298 165.704 231.485L168.649 230.914ZM163.633 220.805C163.476 219.992 164.007 219.205 164.82 219.047C165.634 218.889 166.421 219.421 166.578 220.234L163.633 220.805ZM164.508 209.554C164.666 210.368 164.134 211.155 163.321 211.312C162.507 211.47 161.72 210.939 161.563 210.125L164.508 209.554ZM159.945 201.949C159.832 201.128 160.406 200.371 161.227 200.259C162.047 200.146 162.804 200.72 162.917 201.541L159.945 201.949ZM163.003 196.452C162.829 197.262 162.031 197.777 161.221 197.603C160.411 197.429 159.895 196.632 160.069 195.822L163.003 196.452ZM164.673 188.95C165.298 188.406 166.246 188.472 166.789 189.097C167.333 189.721 167.268 190.669 166.643 191.213L164.673 188.95ZM173.624 184.63C173.101 185.272 172.156 185.369 171.514 184.845C170.872 184.322 170.775 183.377 171.299 182.735L173.624 184.63ZM174.501 176.784C174.871 176.043 175.771 175.741 176.513 176.111C177.254 176.48 177.556 177.381 177.186 178.122L174.501 176.784ZM179.673 174.962C178.972 175.403 178.046 175.191 177.606 174.489C177.165 173.788 177.377 172.862 178.078 172.421L179.673 174.962ZM186.279 171.543C187.105 171.6 187.729 172.316 187.672 173.143C187.615 173.969 186.899 174.593 186.073 174.536L186.279 171.543ZM196.104 175.346C195.276 175.327 194.62 174.64 194.639 173.811C194.659 172.983 195.346 172.328 196.174 172.347L196.104 175.346ZM201.724 171.45C202.326 170.882 203.275 170.908 203.844 171.511C204.413 172.113 204.386 173.062 203.784 173.631L201.724 171.45ZM205.629 169.178C205.595 170.005 204.897 170.649 204.069 170.616C203.242 170.582 202.598 169.884 202.631 169.056L205.629 169.178ZM201.591 163.104C201.439 162.289 201.977 161.507 202.792 161.355C203.606 161.204 204.389 161.742 204.54 162.557L201.591 163.104ZM203.129 153.739C203.245 154.56 202.674 155.319 201.854 155.435C201.033 155.551 200.274 154.98 200.158 154.16L203.129 153.739ZM198.266 142.66C198.124 141.844 198.669 141.067 199.485 140.924C200.302 140.782 201.079 141.327 201.222 142.143L198.266 142.66ZM194.629 128.51C195.361 128.896 195.642 129.803 195.256 130.536C194.87 131.269 193.962 131.55 193.23 131.164L194.629 128.51ZM181.905 128.982C181.079 128.917 180.462 128.195 180.527 127.369C180.592 126.543 181.314 125.926 182.14 125.991L181.905 128.982ZM172.053 125.522C172.881 125.539 173.538 126.225 173.521 127.053C173.503 127.881 172.818 128.539 171.989 128.521L172.053 125.522ZM162.025 128.488C161.197 128.499 160.517 127.836 160.506 127.007C160.496 126.179 161.159 125.499 161.988 125.488L162.025 128.488ZM151.934 125.755C152.762 125.721 153.46 126.365 153.494 127.192C153.527 128.02 152.884 128.718 152.056 128.752L151.934 125.755ZM156.895 204.122C156.106 203.867 155.673 203.022 155.927 202.234C156.182 201.445 157.027 201.012 157.815 201.266L156.895 204.122ZM147.563 199.809C148.39 199.851 149.026 200.557 148.984 201.384C148.941 202.211 148.236 202.847 147.409 202.805L147.563 199.809ZM137.501 202.623C136.673 202.627 135.998 201.96 135.993 201.131C135.989 200.303 136.656 199.627 137.485 199.623L137.501 202.623ZM127.475 199.82C128.303 199.794 128.995 200.445 129.021 201.273C129.047 202.101 128.397 202.793 127.569 202.819L127.475 199.82ZM196.152 252.492L191.618 252.955L191.314 249.97L195.848 249.508L196.152 252.492ZM182.551 253.88L178.017 254.343L177.713 251.358L182.246 250.895L182.551 253.88ZM178.017 254.343C176.943 254.452 175.889 254.356 174.898 254.083L175.695 251.191C176.333 251.367 177.014 251.429 177.713 251.358L178.017 254.343ZM169.96 250.415C169.412 249.546 169.015 248.565 168.81 247.504L171.755 246.933C171.888 247.623 172.145 248.256 172.498 248.817L169.96 250.415ZM168.81 247.504L167.774 242.164L170.72 241.593L171.755 246.933L168.81 247.504ZM165.704 231.485L163.633 220.805L166.578 220.234L168.649 230.914L165.704 231.485ZM161.563 210.125L160.527 204.785L163.473 204.214L164.508 209.554L161.563 210.125ZM162 204.5C160.566 204.941 160.566 204.941 160.566 204.941C160.566 204.941 160.566 204.94 160.566 204.94C160.566 204.94 160.566 204.94 160.566 204.94C160.566 204.939 160.566 204.938 160.565 204.938C160.565 204.936 160.564 204.935 160.564 204.933C160.563 204.929 160.561 204.924 160.559 204.918C160.556 204.905 160.551 204.889 160.545 204.868C160.533 204.827 160.516 204.769 160.496 204.696C160.456 204.549 160.401 204.341 160.34 204.079C160.216 203.558 160.064 202.821 159.945 201.949L162.917 201.541C163.021 202.302 163.154 202.943 163.259 203.391C163.312 203.614 163.358 203.787 163.389 203.902C163.405 203.96 163.417 204.002 163.425 204.029C163.429 204.042 163.431 204.051 163.433 204.056C163.434 204.059 163.434 204.06 163.434 204.061C163.434 204.061 163.434 204.061 163.434 204.06C163.434 204.06 163.434 204.06 163.434 204.06C163.434 204.06 163.434 204.059 163.434 204.059C163.434 204.059 163.434 204.059 163.434 204.059C163.434 204.059 163.434 204.059 162 204.5ZM160.069 195.822C160.29 194.794 160.643 193.753 161.189 192.771L163.811 194.228C163.436 194.904 163.173 195.656 163.003 196.452L160.069 195.822ZM161.189 192.771C161.939 191.421 163.3 190.145 164.673 188.95L166.643 191.213C165.232 192.441 164.271 193.401 163.811 194.228L161.189 192.771ZM171.299 182.735C172.221 181.604 172.973 180.417 173.47 179.148L176.263 180.241C175.625 181.874 174.686 183.328 173.624 184.63L171.299 182.735ZM173.47 179.148C173.77 178.38 174.109 177.571 174.501 176.784L177.186 178.122C176.849 178.798 176.547 179.516 176.263 180.241L173.47 179.148ZM178.078 172.421C178.953 171.873 179.96 171.521 181.101 171.461L181.261 174.456C180.66 174.488 180.143 174.667 179.673 174.962L178.078 172.421ZM181.101 171.461C182.831 171.369 184.573 171.426 186.279 171.543L186.073 174.536C184.434 174.423 182.824 174.373 181.261 174.456L181.101 171.461ZM196.174 172.347C197.885 172.387 199.415 172.289 200.753 171.966L201.457 174.882C199.765 175.29 197.947 175.389 196.104 175.346L196.174 172.347ZM200.753 171.966C201.161 171.867 201.475 171.686 201.724 171.45L203.784 173.631C203.156 174.225 202.375 174.661 201.457 174.882L200.753 171.966ZM202.631 169.056C202.651 168.569 202.605 168.061 202.495 167.563L205.424 166.913C205.588 167.656 205.66 168.423 205.629 169.178L202.631 169.056ZM202.495 167.563C202.16 166.052 201.86 164.555 201.591 163.104L204.54 162.557C204.804 163.979 205.097 165.442 205.424 166.913L202.495 167.563ZM200.158 154.16C199.886 152.237 199.685 150.732 199.52 149.747L202.48 149.253C202.652 150.287 202.863 151.863 203.129 153.739L200.158 154.16ZM199.526 149.776C199.018 147.071 198.623 144.701 198.266 142.66L201.222 142.143C201.583 144.212 201.972 146.542 202.474 149.224L199.526 149.776ZM193.23 131.164C191.815 130.418 189.81 129.888 186.802 129.487L187.198 126.513C190.314 126.928 192.74 127.514 194.629 128.51L193.23 131.164ZM186.802 129.487C185.289 129.285 183.644 129.118 181.905 128.982L182.14 125.991C183.92 126.13 185.62 126.303 187.198 126.513L186.802 129.487ZM171.989 128.521C168.643 128.45 165.251 128.448 162.025 128.488L161.988 125.488C165.24 125.448 168.667 125.45 172.053 125.522L171.989 128.521ZM152.056 128.752C150.145 128.83 148.461 128.915 147.09 128.997L146.91 126.003C148.303 125.919 150.007 125.833 151.934 125.755L152.056 128.752ZM161.659 205.961C160.592 205.712 159.833 205.373 159.13 205.045C158.44 204.723 157.82 204.42 156.895 204.122L157.815 201.266C158.949 201.632 159.738 202.018 160.398 202.327C161.046 202.629 161.58 202.862 162.341 203.039L161.659 205.961ZM147.409 202.805C144.804 202.671 141.567 202.601 137.501 202.623L137.485 199.623C141.591 199.6 144.888 199.671 147.563 199.809L147.409 202.805ZM127.569 202.819C125.986 202.869 124.318 202.928 122.56 202.999L122.44 200.001C124.206 199.93 125.882 199.87 127.475 199.82L127.569 202.819Z" fill="#DF2025"/>
<path d="M231.403 293.423C229.29 296.064 225.945 297.825 222.071 297.825H133.68C129.806 297.825 126.108 296.064 123.467 293.423H231.403Z" fill="#240100"/>
<path d="M221.014 289.197H132.623C130.158 289.197 128.045 287.26 127.869 284.795L127.165 279.337C126.989 278.104 127.341 277.048 128.045 276.167C128.749 275.287 129.806 274.935 131.038 274.935H219.43C221.895 274.935 224.008 276.871 224.184 279.337L224.888 284.795C225.064 286.027 224.712 287.084 224.008 287.964C223.127 288.845 222.071 289.197 221.014 289.197ZM131.038 275.815C130.158 275.815 129.278 276.167 128.749 276.871C128.221 277.576 127.869 278.456 128.045 279.337L128.749 284.795C128.926 286.732 130.686 288.316 132.623 288.316H221.014C221.895 288.316 222.775 287.964 223.303 287.26C223.832 286.556 224.184 285.675 224.008 284.795L223.303 279.337C223.127 277.4 221.367 275.815 219.43 275.815H131.038Z" fill="#240100"/>
<path d="M206.048 107.485C205.872 107.485 205.872 107.485 205.696 107.309C204.815 106.605 202.702 104.668 199.357 104.492C195.659 104.316 193.546 106.429 193.018 106.957C192.842 107.133 192.666 107.133 192.314 106.957C192.137 106.781 192.137 106.429 192.314 106.253C193.018 105.548 195.307 103.259 199.357 103.435C202.878 103.611 205.343 105.548 206.224 106.429C206.4 106.605 206.4 106.957 206.224 107.133C206.4 107.485 206.224 107.485 206.048 107.485Z" fill="#240100"/>
<path d="M203.231 108.892H203.054C202.35 108.364 201.294 107.836 199.885 107.836C198.124 107.66 197.068 108.364 196.54 108.716C196.363 108.892 196.011 108.892 196.011 108.54C195.835 108.364 195.835 108.012 196.187 108.012C196.892 107.484 198.3 106.779 200.237 106.955C201.822 107.131 203.054 107.66 203.935 108.188C204.111 108.364 204.111 108.54 204.111 108.716C203.583 108.892 203.407 108.892 203.231 108.892Z" fill="#240100"/>
<path d="M201.822 111.358C201.646 111.358 201.646 111.358 201.47 111.182C201.294 111.006 200.765 110.478 199.885 110.478C199.005 110.478 198.476 110.83 198.3 111.006C198.124 111.182 197.772 111.182 197.596 111.006C197.42 110.83 197.42 110.478 197.596 110.302C197.772 110.126 198.652 109.421 199.885 109.597C200.941 109.773 201.646 110.302 201.998 110.654C202.174 110.83 202.174 111.182 201.998 111.358C201.998 111.358 201.998 111.358 201.822 111.358Z" fill="#240100"/>
<path d="M201.646 113.998C201.646 114.702 201.294 115.231 200.589 115.231C199.885 115.231 199.357 114.702 199.181 113.998C199.181 113.294 199.533 112.766 200.237 112.766C200.942 112.766 201.47 113.294 201.646 113.998Z" fill="#240100"/>
<ellipse opacity="0.5" cx="130.92" cy="154.848" rx="10.9867" ry="4.35811" fill="#240100"/>
<path d="M131.113 154.677L131.694 155.491L131.088 155.924L130.499 155.467L131.113 154.677ZM131.113 154.677C130.499 155.467 130.499 155.467 130.498 155.466L130.496 155.465L130.49 155.46L130.466 155.441C130.444 155.424 130.413 155.4 130.373 155.368C130.292 155.304 130.173 155.209 130.018 155.084C129.709 154.835 129.257 154.465 128.683 153.983C127.536 153.019 125.901 151.603 123.939 149.788C120.018 146.16 114.789 140.934 109.557 134.54C99.1215 121.786 88.5499 104.232 88.5499 85.3694C88.5499 61.8626 107.606 42.8066 131.113 42.8066C154.619 42.8066 173.675 61.8626 173.675 85.3694C173.675 105.523 163.113 123.075 152.66 135.524C147.424 141.76 142.19 146.746 138.265 150.173C136.301 151.887 134.664 153.213 133.515 154.112C132.94 154.561 132.488 154.904 132.177 155.136C132.022 155.251 131.903 155.339 131.821 155.399C131.781 155.428 131.749 155.451 131.728 155.466L131.703 155.484L131.697 155.489L131.695 155.49C131.694 155.491 131.694 155.491 131.113 154.677Z" fill="#C4C4C4" stroke="#DF2025" stroke-width="2"/>
<mask id="mask1_1533_3545" style="mask-type:alpha" maskUnits="userSpaceOnUse" x="89" y="43" width="84" height="112">
<path d="M89.5497 85.3694C89.5498 122.392 131.113 154.677 131.113 154.677C131.113 154.677 172.675 124.99 172.675 85.3694C172.675 62.4149 154.067 43.8066 131.113 43.8066C108.158 43.8066 89.5497 62.4149 89.5497 85.3694Z" fill="#C4C4C4"/>
</mask>
<g mask="url(#mask1_1533_3545)">
<rect width="87.7145" height="110.871" transform="matrix(-1 0 0 1 174.97 43.8066)" fill="#DF2025"/>
<path d="M167.982 113.157C167.806 116.151 167.63 119.144 167.454 122.137C165.165 121.785 162.876 121.257 160.587 120.905C158.65 120.552 156.713 120.2 154.776 119.848C153.72 119.672 152.839 119.496 151.783 119.32C147.029 118.44 142.275 117.735 137.521 116.855C137.168 116.503 135.936 114.918 136.112 112.805C136.288 110.516 137.697 108.051 139.986 106.818C142.451 106.994 144.916 107.171 147.733 107.699C148.085 107.699 148.437 107.699 148.79 107.875C150.374 108.227 151.959 108.403 153.368 108.755C155.304 109.283 157.241 109.812 159.178 110.34C162.524 111.044 165.341 112.101 167.982 113.157Z" fill="#F7A39C"/>
<path d="M159.178 109.989C159.53 113.687 160.058 117.208 160.411 120.906C158.474 120.554 156.537 120.202 154.6 119.85L152.487 116.328C154.776 114.215 157.065 112.102 159.178 109.989Z" fill="#240100"/>
<path d="M158.826 109.988C158.298 114.566 157.946 119.144 157.417 123.722C149.67 123.37 141.923 123.018 133.999 122.666C134.527 120.025 135.055 116.327 134.175 111.925C133.823 110.34 133.471 109.108 132.943 107.875C134.703 107.171 136.64 106.643 138.753 106.291C147.909 104.882 155.304 108.227 158.826 109.988Z" fill="#FFCE33"/>
<path d="M130.83 151.014C132.414 161.579 134.175 172.319 135.76 182.884C135.936 183.588 135.936 184.293 136.112 184.821C136.288 185.349 136.288 186.054 136.464 186.582C136.464 186.934 136.464 187.11 136.64 187.462C136.64 187.638 136.64 187.814 136.64 187.99C136.64 188.166 136.64 188.166 136.64 188.343C136.64 188.519 136.816 188.519 136.992 188.695C137.697 189.399 139.105 190.632 141.394 191.16C144.211 191.688 146.5 190.808 147.205 190.455C147.205 190.455 147.205 190.455 147.205 190.279V190.103C147.205 189.223 147.205 187.99 147.733 186.758C147.733 186.582 147.909 186.406 147.909 186.406C149.846 180.243 152.135 170.03 149.494 157.881C148.613 153.655 147.205 149.957 145.796 146.788C140.69 148.021 135.76 149.605 130.83 151.014Z" fill="#F7A39C"/>
<path d="M117.623 148.901C113.926 158.938 110.228 169.15 106.53 179.187C106.354 179.891 106.002 180.419 105.826 181.124C105.65 181.652 105.474 182.18 105.122 182.884C105.122 183.061 104.946 183.413 104.77 183.765C104.77 183.941 104.594 184.117 104.594 184.293C104.594 184.469 104.594 184.469 104.594 184.469C104.594 184.645 104.594 184.821 104.77 184.997C105.122 186.054 105.826 187.815 107.411 189.223C109.524 191.16 111.989 191.336 112.869 191.336C112.869 191.336 112.869 191.16 113.045 191.16C113.398 190.28 114.102 189.399 114.982 188.519C115.158 188.343 115.334 188.343 115.334 188.343C120.089 183.941 126.956 176.017 130.477 164.044C131.71 159.818 132.238 155.944 132.59 152.423C127.66 151.014 122.73 149.958 117.623 148.901Z" fill="#F7A39C"/>
<path d="M116.391 152.599C126.604 151.718 136.64 150.662 146.853 149.782L145.796 119.32C145.444 110.516 138.225 103.649 129.421 104.001C120.617 104.353 113.75 111.573 114.102 120.377C114.806 131.117 115.687 141.858 116.391 152.599Z" fill="#F7A39C"/>
<path d="M137.344 102.593C136.992 101.184 136.816 99.7755 136.64 98.3669L136.464 96.7822C136.112 94.4932 135.936 92.3802 135.936 90.4434L133.999 90.6194L129.773 90.9716L128.188 91.1477L125.371 91.3238C125.371 93.9649 125.371 96.43 125.371 99.0712C125.371 99.2473 125.371 99.4234 125.371 99.5994C125.371 101.888 125.371 104.177 125.371 106.643C125.371 107.875 125.371 109.284 125.547 110.516C129.949 109.812 134.175 109.108 138.577 108.403C138.225 106.819 137.697 105.234 137.521 103.473L137.344 102.593Z" fill="#F7A39C"/>
<path d="M115.863 131.648C116.215 131.648 116.391 131.295 116.215 131.119L114.806 124.428C114.806 124.252 114.454 124.076 114.278 124.076C114.102 124.076 113.926 124.428 113.926 124.604L115.334 131.295C115.511 131.471 115.687 131.648 115.863 131.648Z" fill="#240100"/>
<path d="M128.365 222.856C131.006 223.384 134.703 223.56 138.753 223.208C143.155 222.856 146.853 221.799 149.67 220.919C149.494 208.945 149.494 196.796 149.318 184.823C150.374 180.245 151.079 174.258 150.903 167.391C150.55 158.059 148.614 150.487 146.853 145.205C141.747 148.022 136.464 150.663 131.358 153.481C131.886 165.278 132.414 176.899 132.943 188.696C131.358 200.141 129.949 211.587 128.365 222.856Z" fill="#5A78EC"/>
<path d="M104.77 183.062C103.89 183.062 102.481 183.062 100.896 183.238C100.896 183.238 97.5508 183.59 94.9096 184.294C91.212 185.175 84.345 189.753 77.4779 197.324C79.2387 202.607 81.7038 208.593 85.2253 214.58C86.1057 216.165 87.1622 217.573 88.0426 218.982C96.6704 210.002 105.474 200.846 114.102 191.866C117.448 189.049 122.554 184.294 126.78 176.899C131.886 167.919 133.119 159.467 133.295 154.713C137.873 151.544 142.451 148.374 147.029 145.205C136.816 146.085 126.604 146.966 116.391 147.846C112.341 159.643 108.468 171.265 104.77 183.062Z" fill="#5A78EC"/>
<path d="M114.102 154.185C125.195 151.896 136.464 149.783 147.557 147.494C147.205 144.853 146.852 142.211 146.5 139.57C136.288 140.979 126.075 142.211 115.863 143.62C115.158 147.142 114.63 150.663 114.102 154.185Z" fill="#FFCE33"/>
<path d="M106.355 148.548C109.172 150.485 117.976 156.296 130.477 155.768C140.338 155.416 147.381 151.19 150.374 149.077C148.613 136.575 146.853 123.898 145.268 111.396C144.564 110.692 143.683 109.811 142.627 109.107C140.69 107.698 138.929 106.642 137.344 106.114C137.873 107.522 137.873 108.579 137.344 108.931C136.112 110.163 132.238 108.579 125.195 104.177C123.61 104.529 120.969 105.233 118.152 107.346C116.743 108.579 115.687 109.811 115.159 110.692C112.165 123.369 109.348 135.871 106.355 148.548Z" fill="#FFCE33"/>
<path d="M98.7828 124.25C100.544 126.715 102.128 129.18 103.713 131.645C105.474 130.237 107.235 128.652 108.995 127.243C110.58 126.011 111.989 124.602 113.573 123.37C114.278 122.665 115.158 122.137 115.862 121.433C119.56 118.263 123.258 115.27 126.955 112.101C127.131 111.572 127.307 109.636 126.075 107.875C124.842 105.938 122.377 104.705 119.736 104.529C117.623 105.938 115.686 107.347 113.573 109.107C113.221 109.283 113.045 109.459 112.693 109.812C111.46 110.868 110.228 111.925 109.171 112.981C107.587 114.39 106.178 115.798 104.946 117.207C102.48 119.496 100.544 121.961 98.7828 124.25Z" fill="#F7A39C"/>
<path d="M104.77 117.032C106.178 120.378 107.587 123.723 109.172 127.069C110.756 125.836 112.165 124.428 113.75 123.195V119.145C110.756 118.441 107.763 117.737 104.77 117.032Z" fill="#240100"/>
<path d="M104.77 117.032C109.172 121.962 113.574 126.892 117.799 131.998C121.497 124.779 125.371 117.736 129.068 110.517C128.364 109.108 127.66 107.699 126.956 106.291C126.427 105.41 125.899 104.53 125.371 103.65C123.258 103.297 121.497 103.474 120.088 103.65C110.404 105.586 105.65 115.447 104.77 117.032Z" fill="#FFCE33"/>
<path d="M108.819 99.7754C107.763 99.2472 106.706 98.5429 105.65 98.0146C102.657 101.712 99.1351 107.523 97.9026 115.799C97.3744 119.144 97.3743 122.137 97.5504 125.131C97.5504 125.307 97.3744 125.659 97.3744 126.187C97.3744 126.187 97.3743 127.068 97.7265 127.948C98.783 130.413 100.72 131.293 100.72 131.293C102.305 131.998 103.889 131.646 104.241 131.47C104.946 130.413 105.298 129.533 105.65 128.828C106.354 127.244 106.883 124.25 107.059 123.722C107.059 123.722 107.235 123.37 107.235 123.018C107.411 122.666 107.411 122.313 107.411 122.137C108.819 114.918 106.002 109.812 107.763 103.121C108.115 101.36 108.467 100.304 108.819 99.7754Z" fill="#F7A39C"/>
<path d="M130.829 100.656C132.59 102.769 135.231 103.825 137.52 103.649L137.344 102.593C136.992 101.184 136.816 99.7755 136.64 98.3669L136.464 96.7822C136.112 94.4932 135.936 92.3802 135.936 90.4434L133.999 90.6194L129.773 90.9716C127.836 93.6128 128.188 97.6626 130.829 100.656Z" fill="#240100"/>
<path d="M142.627 70.7234L146.148 82.3446C148.261 89.5638 144.212 97.3113 136.816 99.4242C135.055 99.6003 132.59 99.6003 129.597 98.5438C123.434 96.4309 120.441 91.6767 119.561 90.092L115.687 76.8862C114.454 72.6603 116.039 68.0823 119.737 65.7932C121.321 64.7368 123.082 63.8564 125.371 63.1521C126.78 62.7999 128.012 62.4478 129.245 62.2717C135.231 61.2152 140.866 64.9129 142.627 70.7234Z" fill="#F7A39C"/>
<path d="M141.57 87.2744C141.394 87.4505 141.042 88.1548 139.986 88.507C138.753 88.8591 137.873 88.3309 137.697 88.3309L141.57 87.2744Z" fill="#240100"/>
<path d="M129.597 85.5134C129.773 85.5134 129.949 85.3373 129.949 85.1612C130.478 83.7526 131.534 82.6961 132.767 82.6961C133.295 82.6961 133.823 83.0483 134.175 83.2244C134.351 83.4004 134.703 83.4004 134.88 83.2244C135.056 83.0483 135.056 82.6961 134.88 82.52C134.351 81.9918 133.647 81.8157 132.943 81.6396C132.943 81.6396 132.943 81.6396 132.767 81.6396C131.182 81.6396 129.773 82.8722 129.245 84.8091C129.245 85.1612 129.245 85.3373 129.597 85.5134Z" fill="#240100"/>
<path d="M133.702 85.9112C132.99 86.2241 132.064 85.6838 131.633 84.7043C131.203 83.7249 131.432 82.6773 132.144 82.3644C132.856 82.0515 133.783 82.5918 134.213 83.5712C134.643 84.5507 134.415 85.5983 133.702 85.9112Z" fill="#240100"/>
<path d="M134.527 83.3994C134.703 83.3994 134.879 83.2234 134.879 83.2234L135.408 81.9908C135.584 81.8147 135.408 81.4626 135.231 81.4626C135.055 81.2865 134.703 81.4626 134.703 81.6387L134.175 82.8712C133.999 83.0473 134.175 83.3994 134.351 83.3994H134.527Z" fill="#240100"/>
<path d="M140.514 82.697C140.69 82.697 140.866 82.5209 140.866 82.3448C141.394 80.9362 142.451 79.7036 143.683 79.8797C144.211 79.8797 144.74 80.2319 145.092 80.4079C145.268 80.584 145.62 80.584 145.796 80.4079C145.972 80.2319 145.972 79.8797 145.796 79.7036C145.444 79.3515 144.74 78.9993 143.859 78.8232C142.275 78.8232 140.866 80.0558 140.162 81.9927C139.986 82.3448 140.162 82.5209 140.514 82.697Z" fill="#240100"/>
<path d="M144.615 83.0723C143.902 83.3852 142.976 82.8449 142.546 81.8655C142.116 80.8861 142.344 79.8384 143.057 79.5255C143.769 79.2126 144.695 79.753 145.125 80.7324C145.556 81.7118 145.327 82.7594 144.615 83.0723Z" fill="#240100"/>
<path d="M145.444 80.583C145.62 80.583 145.796 80.407 145.796 80.407L146.324 79.1744C146.5 78.9983 146.324 78.6462 146.148 78.6462C145.972 78.4701 145.62 78.6462 145.62 78.8223L145.092 80.0548C144.916 80.2309 145.092 80.583 145.268 80.583C145.268 80.583 145.268 80.583 145.444 80.583Z" fill="#240100"/>
<path d="M126.956 81.1109C127.132 81.287 128.188 80.7587 130.301 79.7023C132.766 78.4697 132.766 78.2936 132.766 78.1176C132.766 77.7654 131.182 77.5893 129.949 78.1176C128.012 78.8219 126.604 80.7587 126.956 81.1109Z" fill="#240100"/>
<path d="M138.753 76.7095C138.753 76.8856 139.986 76.8856 142.451 76.5334C145.268 76.1813 145.268 76.0052 145.268 76.0052C145.268 75.653 144.036 75.1248 142.627 74.9487C140.514 74.7726 138.577 76.1813 138.753 76.7095Z" fill="#240100"/>
<path d="M135.407 90.7962C135.055 91.3245 137.52 95.5503 140.161 94.846C142.45 94.3178 143.331 90.6201 142.627 90.0919C142.274 89.7397 141.394 90.9723 139.457 91.3244C137.344 91.6766 135.759 90.4441 135.407 90.7962Z" fill="white"/>
<path d="M111.989 126.538C112.165 126.538 112.341 126.362 112.341 126.186L116.391 113.509C116.391 113.333 116.391 112.98 116.039 112.98C115.863 112.98 115.51 112.98 115.51 113.333L111.461 126.01C111.461 126.186 111.637 126.362 111.989 126.538Z" fill="#240100"/>
<path d="M163.756 97.6628L170.623 97.4867C171.327 97.4867 171.503 96.7824 171.151 95.902L163.052 77.2377C162.699 76.3573 161.819 75.8291 161.115 75.8291L154.248 76.0052C153.543 76.0052 153.367 76.7095 153.719 77.5899L161.819 96.2542C162.171 96.9585 163.052 97.6628 163.756 97.6628Z" fill="#240100"/>
<path d="M164.813 90.2673C165.869 89.7391 167.102 89.2109 168.158 88.6826C170.975 92.5563 174.145 98.543 174.849 106.995C175.201 110.34 175.025 113.51 174.673 116.327C174.673 116.503 174.849 116.855 174.673 117.383C174.673 117.383 174.673 118.264 174.321 119.144C173.264 121.609 171.151 122.314 171.151 122.314C169.567 122.842 167.982 122.314 167.63 122.137C167.102 121.081 166.749 120.201 166.397 119.496C165.869 117.736 165.341 114.742 165.341 114.214C165.341 114.214 165.165 113.862 165.165 113.51C165.165 113.158 164.989 112.805 164.989 112.629C163.932 105.41 167.278 100.48 165.869 93.6128C165.341 91.852 164.989 90.7956 164.813 90.2673Z" fill="#F7A39C"/>
<path d="M160.587 94.6698C163.052 94.3177 165.517 94.1416 167.982 93.7894C167.982 92.0286 167.982 90.2679 167.982 88.6832C166.925 86.3941 166.045 84.2812 164.989 81.9922C164.46 82.8726 164.108 83.753 163.58 84.6334C161.291 84.4573 158.826 84.2812 156.537 84.1051C156.185 84.9855 155.833 86.3941 156.185 88.1549C156.889 92.2047 160.058 94.3177 160.587 94.6698Z" fill="#F7A39C"/>
<path d="M165.693 114.742C165.693 114.742 165.869 114.742 165.693 114.742C166.045 114.566 166.221 114.39 166.045 114.214L164.988 111.749C164.812 111.573 164.636 111.397 164.46 111.573C164.284 111.749 164.108 111.925 164.284 112.101L165.341 114.566C165.341 114.742 165.517 114.742 165.693 114.742Z" fill="#240100"/>
<path d="M105.122 127.596C105.298 127.596 105.474 127.596 105.474 127.419L106.531 125.13C106.707 124.954 106.531 124.602 106.354 124.602C106.178 124.426 105.826 124.602 105.826 124.778L104.77 127.067C104.594 127.243 104.77 127.596 104.946 127.596H105.122Z" fill="#240100"/>
<path d="M120.089 69.3144C120.617 72.6598 127.308 74.2446 131.71 74.2446C137.345 74.4206 144.564 72.1316 144.916 68.9622C145.268 65.4406 136.288 60.1583 128.717 61.9191C124.491 62.9755 119.737 66.4971 120.089 69.3144Z" fill="#240100"/>
<path d="M112.87 76.5336C113.398 81.992 119.209 87.2743 122.73 86.2179C123.258 86.0418 124.667 85.3375 127.484 74.9489C129.597 67.0253 130.654 62.9755 129.421 62.0951C126.428 59.8061 112.165 67.5536 112.87 76.5336Z" fill="#240100"/>
<path d="M121.018 91.1525C119.061 91.7358 116.889 90.2442 116.166 87.821C115.444 85.3978 116.446 82.9606 118.403 82.3773C120.36 81.7941 122.532 83.2857 123.254 85.7089C123.976 88.1321 122.975 90.5693 121.018 91.1525Z" fill="#F7A39C"/>
<path d="M120.265 89.2108H120.441C120.617 89.0348 120.793 88.8587 120.617 88.6826L118.328 84.6328C118.152 84.4567 117.976 84.2806 117.8 84.4567C117.624 84.6328 117.448 84.8089 117.624 84.985L119.913 89.0348C119.913 89.2108 120.089 89.2108 120.265 89.2108Z" fill="#240100"/>
<path d="M119.208 87.0971C119.384 87.0971 119.56 86.9211 119.56 86.745L120.088 84.456C120.088 84.2799 119.912 83.9277 119.736 83.9277C119.56 83.9277 119.208 84.1038 119.208 84.2799L118.68 86.5689C118.68 86.9211 118.856 87.0971 119.208 87.0971C119.032 87.0971 119.208 87.0971 119.208 87.0971Z" fill="#240100"/>
<path d="M107.632 92.7964C106.774 92.6257 106.616 89.7812 107.28 86.443C107.943 83.1047 109.177 80.5369 110.036 80.7076C110.894 80.8783 111.052 83.7228 110.388 87.061C109.724 90.3992 108.491 92.9671 107.632 92.7964Z" fill="#F7A39C"/>
<path d="M105.378 92.8683C104.507 92.9538 103.531 90.2772 103.199 86.89C102.867 83.5027 103.303 80.6875 104.174 80.602C105.045 80.5166 106.021 83.1932 106.353 86.5804C106.685 89.9677 106.249 92.7829 105.378 92.8683Z" fill="#F7A39C"/>
<path d="M102.481 102.066C103.89 103.122 105.474 103.122 106.531 102.946C110.757 99.0722 111.989 94.4942 110.581 92.5573C109.876 91.677 108.468 90.9726 107.059 90.7966C105.65 90.6205 104.418 90.7966 103.89 90.9726C103.361 91.1487 102.481 91.5009 101.601 92.2052C99.1354 94.4942 99.3115 99.9526 102.481 102.066Z" fill="#F7A39C"/>
<path d="M105.122 96.4308C105.474 96.4308 106.002 96.2547 106.178 95.9026C106.883 94.8461 105.474 92.9092 104.418 91.8528C104.242 91.6767 104.065 91.6767 103.713 91.8528C103.537 92.0288 103.537 92.2049 103.713 92.5571C104.946 93.9657 105.65 95.1982 105.298 95.3743C105.122 95.5504 104.594 95.5504 103.889 95.3743C102.657 95.0222 102.129 93.7896 101.953 93.4375C101.953 93.2614 101.6 93.0853 101.424 93.2614C101.248 93.2614 101.072 93.6135 101.248 93.7896C101.424 94.3179 102.129 95.7265 103.713 96.2547C104.065 96.2547 104.594 96.4308 105.122 96.4308Z" fill="#240100"/>
<path d="M103.537 99.0724C103.89 99.0724 104.418 98.8963 104.594 98.5442C105.298 97.4877 103.89 95.5508 102.833 94.4944C102.657 94.3183 102.481 94.3183 102.129 94.4944C101.953 94.6704 101.953 94.8465 102.129 95.1987C103.361 96.6073 104.066 97.8398 103.713 98.0159C103.537 98.192 103.009 98.192 102.305 98.0159C101.072 97.6638 100.544 96.4312 100.368 96.0791C100.368 95.903 100.016 95.7269 99.8398 95.903C99.6637 95.903 99.4876 96.2551 99.6637 96.4312C99.8398 96.9595 100.544 98.3681 102.129 98.8963C102.305 98.8963 103.009 99.0724 103.537 99.0724Z" fill="#240100"/>
<path d="M107.411 98.7186C107.939 98.7186 108.82 98.5425 110.228 97.6622C110.404 97.4861 110.58 97.31 110.404 97.1339C110.228 96.9578 110.052 96.7818 109.876 96.9578C108.467 97.8382 107.587 98.0143 107.411 98.0143C107.411 97.8382 108.115 96.6057 108.467 95.9014C108.996 95.021 109.7 94.1406 110.404 93.2602C110.58 93.0841 110.58 92.732 110.404 92.5559C110.228 92.3798 109.876 92.3798 109.7 92.5559C108.996 93.4363 108.291 94.3167 107.587 95.3731C106.707 96.7818 106.002 98.0143 106.531 98.5425C106.883 98.5425 106.883 98.7186 107.411 98.7186Z" fill="#240100"/>
<path d="M155.657 72.3075C156.009 72.3075 156.185 71.9553 156.009 71.7792L153.896 61.7428C153.896 61.5667 153.544 61.3906 153.368 61.3906C153.191 61.3906 153.015 61.7428 153.015 61.9189L155.128 71.9553C155.304 72.1314 155.48 72.3075 155.657 72.3075Z" fill="#240100"/>
<path d="M158.473 71.6031C158.65 71.6031 159.002 71.427 159.002 71.0749V63.6796C159.002 63.5035 158.826 63.1514 158.473 63.1514C158.297 63.1514 157.945 63.3275 157.945 63.6796V71.0749C158.121 71.427 158.297 71.6031 158.473 71.6031Z" fill="#240100"/>
<path d="M152.135 73.0107C152.135 73.0107 152.311 73.0107 152.135 73.0107C152.487 72.8347 152.663 72.6586 152.487 72.4825L151.079 68.9609C150.903 68.7848 150.726 68.6088 150.55 68.7848C150.374 68.9609 150.198 69.137 150.374 69.3131L151.783 72.8346C151.783 72.8346 151.959 73.0107 152.135 73.0107Z" fill="#240100"/>
<path d="M57.5811 49.0658C59.518 50.6505 65.3285 55.4046 72.1956 54.3482C77.8301 53.4678 79.943 49.2419 83.4646 50.2984C88.0426 51.707 86.634 59.2784 91.5642 61.5674C97.1987 64.2086 102.305 55.5807 110.405 57.3415C117.096 58.7501 118.152 65.7933 122.73 65.265C127.484 64.7368 131.182 56.6372 131.182 49.9462C131.182 47.305 130.477 45.016 128.012 39.0294C127.132 36.9164 122.026 25.4713 119.208 21.2455C107.587 4.69412 58.2854 0.820393 48.9533 18.7804C44.1992 27.7604 48.9533 42.1988 57.5811 49.0658Z" fill="#240100"/>
<path d="M124.315 64.2075C124.491 64.2075 124.667 64.2075 124.843 64.2075C129.773 63.6792 133.647 55.2275 133.647 48.3604C133.647 45.5432 132.942 43.0781 130.301 37.2675C128.012 32.1612 123.962 23.1812 121.321 19.4836C114.102 9.09497 92.6205 4.16478 76.2453 5.22125C63.2155 6.10164 53.8833 10.3275 50.3617 17.0185C45.7837 25.6463 50.1857 40.4369 59.3418 47.8322C61.2786 49.4169 67.2653 54.171 74.1323 53.2906C76.9496 52.9384 78.8864 51.7059 80.4711 50.6494C82.2319 49.593 83.4644 48.7126 85.2252 49.2408C87.3382 49.769 88.0425 52.0581 88.9229 54.3471C89.8033 56.8122 90.6837 59.2773 93.3248 60.5098C96.3182 61.9184 98.9593 60.3337 101.953 58.749C105.122 57.1643 108.291 55.4035 112.165 56.2839C115.511 56.9882 117.271 59.1012 119.032 61.038C120.793 62.6227 122.202 64.2075 124.315 64.2075ZM80.9994 5.92556C96.4942 5.92556 114.454 10.8558 120.793 20.0118C122.73 22.653 125.899 29.1679 129.597 37.6196C132.062 43.2541 132.766 45.7192 132.766 48.3604C132.766 54.6992 129.245 62.7988 124.667 63.3271C122.73 63.5031 121.497 62.0945 119.913 60.3337C118.328 58.3969 116.215 56.1079 112.693 55.4035C108.468 54.5232 104.946 56.2839 101.777 58.0447C98.9594 59.6294 96.4943 60.862 93.8531 59.8055C91.5641 58.749 90.8597 56.46 89.9794 54.171C89.099 51.7059 88.2186 49.2408 85.7535 48.5365C83.6405 48.0083 82.0558 48.8886 80.295 50.1212C78.7103 51.1777 76.9496 52.2341 74.3084 52.5863C67.7935 53.4667 61.9829 48.8886 60.0461 47.48C51.2421 40.4369 47.0163 25.9985 51.2421 17.7228C54.5876 11.384 63.7437 7.15811 76.4213 6.27772C78.006 6.10164 79.5907 5.92556 80.9994 5.92556Z" fill="#240100"/>
</g>
<path d="M167.911 113.076C167.735 116.069 167.559 119.063 167.383 122.056C165.094 121.704 162.805 121.176 160.516 120.824C158.579 120.471 156.642 120.119 154.705 119.767C153.648 119.591 152.768 119.415 151.712 119.239C146.957 118.358 142.203 117.654 137.449 116.774C137.097 116.422 135.865 114.837 136.041 112.724C136.217 110.435 137.625 107.97 139.914 106.737C142.379 106.913 144.845 107.089 147.662 107.618C148.014 107.618 148.366 107.618 148.718 107.794C150.303 108.146 151.888 108.322 153.296 108.674C155.233 109.202 157.17 109.731 159.107 110.259C162.452 110.963 165.27 112.02 167.911 113.076Z" fill="#F7A39C"/>
<path d="M159.107 109.908C159.459 113.606 159.987 117.127 160.339 120.825C158.402 120.473 156.466 120.121 154.529 119.769L152.416 116.247C154.705 114.134 156.994 112.021 159.107 109.908Z" fill="#240100"/>
<path d="M158.755 109.907C158.227 114.485 157.874 119.063 157.346 123.641C149.599 123.289 141.851 122.937 133.928 122.585C134.456 119.944 134.984 116.246 134.104 111.844C133.752 110.259 133.399 109.027 132.871 107.794C134.632 107.09 136.569 106.562 138.682 106.21C147.838 104.801 155.233 108.146 158.755 109.907Z" fill="#FFCE33"/>
<path d="M137.273 102.512C136.921 101.103 136.745 99.6945 136.569 98.2858L136.393 96.7011C136.041 94.4121 135.865 92.2992 135.865 90.3623L133.928 90.5384L129.702 90.8905L128.117 91.0666L125.3 91.2427C125.3 93.8839 125.3 96.349 125.3 98.9901C125.3 99.1662 125.3 99.3423 125.3 99.5184C125.3 101.807 125.3 104.096 125.3 106.562C125.3 107.794 125.3 109.203 125.476 110.435C129.878 109.731 134.104 109.027 138.506 108.322C138.154 106.738 137.625 105.153 137.449 103.392L137.273 102.512Z" fill="#F7A39C"/>
<path d="M115.791 131.565C116.144 131.565 116.32 131.213 116.144 131.037L114.735 124.346C114.735 124.17 114.383 123.994 114.207 123.994C114.031 123.994 113.855 124.346 113.855 124.522L115.263 131.213C115.439 131.389 115.615 131.565 115.791 131.565Z" fill="#240100"/>
<path d="M98.7121 124.169C100.473 126.634 102.058 129.099 103.642 131.564C105.403 130.156 107.164 128.571 108.925 127.162C110.509 125.93 111.918 124.521 113.503 123.289C114.207 122.584 115.087 122.056 115.792 121.352C119.489 118.182 123.187 115.189 126.885 112.02C127.061 111.491 127.237 109.555 126.004 107.794C124.772 105.857 122.307 104.624 119.665 104.448C117.552 105.857 115.616 107.266 113.503 109.026C113.151 109.202 112.974 109.378 112.622 109.731C111.39 110.787 110.157 111.844 109.101 112.9C107.516 114.309 106.107 115.717 104.875 117.126C102.41 119.415 100.473 121.88 98.7121 124.169Z" fill="#F7A39C"/>
<path d="M104.699 116.951C106.108 120.297 107.516 123.642 109.101 126.988C110.686 125.755 112.094 124.346 113.679 123.114V119.064C110.686 118.36 107.692 117.655 104.699 116.951Z" fill="#240100"/>
<path d="M104.699 116.951C109.101 121.881 113.503 126.811 117.729 131.917C121.426 124.698 125.3 117.655 128.998 110.436C128.293 109.027 127.589 107.618 126.885 106.21C126.357 105.329 125.828 104.449 125.3 103.569C123.187 103.216 121.426 103.392 120.018 103.569C110.334 105.505 105.579 115.366 104.699 116.951Z" fill="#FFCE33"/>
<path d="M108.749 99.6944C107.692 99.1661 106.636 98.4618 105.579 97.9336C102.586 101.631 99.0645 107.442 97.8319 115.717C97.3037 119.063 97.3037 122.056 97.4797 125.05C97.4797 125.226 97.3037 125.578 97.3037 126.106C97.3037 126.106 97.3037 126.986 97.6558 127.867C98.7123 130.332 100.649 131.212 100.649 131.212C102.234 131.917 103.819 131.565 104.171 131.388C104.875 130.332 105.227 129.452 105.579 128.747C106.284 127.163 106.812 124.169 106.988 123.641C106.988 123.641 107.164 123.289 107.164 122.937C107.34 122.585 107.34 122.232 107.34 122.056C108.749 114.837 105.932 109.731 107.692 103.04C108.044 101.279 108.397 100.223 108.749 99.6944Z" fill="#F7A39C"/>
<path d="M130.758 100.575C132.519 102.688 135.16 103.744 137.449 103.568L137.273 102.512C136.921 101.103 136.745 99.6945 136.569 98.2858L136.393 96.7011C136.041 94.4121 135.865 92.2992 135.865 90.3623L133.928 90.5384L129.702 90.8905C127.765 93.5317 128.117 97.5815 130.758 100.575Z" fill="#240100"/>
<path d="M142.556 70.6424L146.077 82.2635C148.19 89.4827 144.14 97.2302 136.745 99.3431C134.984 99.5192 132.519 99.5192 129.526 98.4627C123.363 96.3498 120.37 91.5957 119.489 90.011L115.616 76.8051C114.383 72.5792 115.968 68.0012 119.666 65.7122C121.25 64.6557 123.011 63.7753 125.3 63.071C126.709 62.7189 127.941 62.3667 129.174 62.1906C135.16 61.1342 140.795 64.8318 142.556 70.6424Z" fill="#F7A39C"/>
<path d="M141.499 87.1934C141.323 87.3694 140.971 88.0737 139.914 88.4259C138.682 88.7781 137.801 88.2498 137.625 88.2498L141.499 87.1934Z" fill="#240100"/>
<path d="M129.526 85.4333C129.702 85.4333 129.878 85.2572 129.878 85.0811C130.406 83.6725 131.463 82.6161 132.695 82.6161C133.224 82.6161 133.752 82.9682 134.104 83.1443C134.28 83.3204 134.632 83.3204 134.808 83.1443C134.984 82.9682 134.984 82.616 134.808 82.44C134.28 81.9117 133.576 81.7356 132.871 81.5596C132.871 81.5596 132.871 81.5596 132.695 81.5596C131.111 81.5596 129.702 82.7921 129.174 84.729C129.174 85.0811 129.174 85.2572 129.526 85.4333Z" fill="#240100"/>
<path d="M133.631 85.8301C132.919 86.143 131.993 85.6027 131.562 84.6233C131.132 83.6439 131.361 82.5963 132.073 82.2834C132.785 81.9705 133.712 82.5108 134.142 83.4902C134.572 84.4696 134.343 85.5172 133.631 85.8301Z" fill="#240100"/>
<path d="M134.456 83.3194C134.632 83.3194 134.808 83.1433 134.808 83.1433L135.336 81.9107C135.513 81.7347 135.337 81.3825 135.16 81.3825C134.984 81.2064 134.632 81.3825 134.632 81.5586L134.104 82.7911C133.928 82.9672 134.104 83.3194 134.28 83.3194H134.456Z" fill="#240100"/>
<path d="M140.443 82.6159C140.619 82.6159 140.795 82.4398 140.795 82.2638C141.323 80.8551 142.38 79.6226 143.612 79.7987C144.141 79.7987 144.669 80.1508 145.021 80.3269C145.197 80.503 145.549 80.503 145.725 80.3269C145.901 80.1508 145.901 79.7987 145.725 79.6226C145.373 79.2704 144.669 78.9183 143.788 78.7422C142.204 78.7422 140.795 79.9747 140.091 81.9116C139.915 82.2638 140.091 82.4398 140.443 82.6159Z" fill="#240100"/>
<path d="M144.544 82.9912C143.831 83.3041 142.905 82.7638 142.475 81.7844C142.045 80.805 142.273 79.7574 142.986 79.4445C143.698 79.1316 144.624 79.6719 145.054 80.6513C145.485 81.6307 145.256 82.6784 144.544 82.9912Z" fill="#240100"/>
<path d="M145.373 80.502C145.549 80.502 145.725 80.3259 145.725 80.3259L146.253 79.0934C146.429 78.9173 146.253 78.5651 146.077 78.5651C145.901 78.389 145.549 78.5651 145.549 78.7412L145.021 79.9738C144.845 80.1498 145.021 80.502 145.197 80.502C145.197 80.502 145.197 80.502 145.373 80.502Z" fill="#240100"/>
<path d="M126.885 81.0298C127.061 81.2059 128.117 80.6777 130.23 79.6212C132.695 78.3887 132.695 78.2126 132.695 78.0365C132.695 77.6844 131.111 77.5083 129.878 78.0365C127.941 78.7408 126.532 80.6777 126.885 81.0298Z" fill="#240100"/>
<path d="M138.682 76.6284C138.682 76.8045 139.915 76.8045 142.38 76.4524C145.197 76.1002 145.197 75.9241 145.197 75.9241C145.197 75.572 143.964 75.0437 142.556 74.8677C140.443 74.6916 138.506 76.1002 138.682 76.6284Z" fill="#240100"/>
<path d="M135.336 90.7152C134.984 91.2434 137.449 95.4693 140.09 94.765C142.379 94.2367 143.26 90.5391 142.555 90.0109C142.203 89.6587 141.323 90.8912 139.386 91.2434C137.273 91.5955 135.688 90.363 135.336 90.7152Z" fill="white"/>
<path d="M111.918 126.458C112.094 126.458 112.27 126.282 112.27 126.106L116.32 113.429C116.32 113.253 116.32 112.9 115.968 112.9C115.792 112.9 115.439 112.9 115.439 113.253L111.39 125.93C111.39 126.106 111.566 126.282 111.918 126.458Z" fill="#240100"/>
<path d="M163.685 97.5817L170.552 97.4057C171.257 97.4057 171.433 96.7014 171.081 95.821L162.981 77.1567C162.629 76.2763 161.748 75.748 161.044 75.748L154.177 75.9241C153.473 75.9241 153.297 76.6284 153.649 77.5088L161.748 96.1731C162.101 96.8774 162.981 97.5817 163.685 97.5817Z" fill="#240100"/>
<path d="M164.741 90.1863C165.798 89.658 167.03 89.1298 168.087 88.6016C170.904 92.4753 174.074 98.4619 174.778 106.914C175.13 110.259 174.954 113.429 174.602 116.246C174.602 116.422 174.778 116.774 174.602 117.302C174.602 117.302 174.602 118.183 174.25 119.063C173.193 121.528 171.08 122.233 171.08 122.233C169.496 122.761 167.911 122.233 167.559 122.056C167.03 121 166.678 120.12 166.326 119.415C165.798 117.654 165.27 114.661 165.27 114.133C165.27 114.133 165.094 113.781 165.094 113.429C165.094 113.076 164.918 112.724 164.918 112.548C163.861 105.329 167.207 100.399 165.798 93.5318C165.27 91.771 164.917 90.7145 164.741 90.1863Z" fill="#F7A39C"/>
<path d="M160.516 94.5888C162.981 94.2366 165.446 94.0605 167.911 93.7084C167.911 91.9476 167.911 90.1868 167.911 88.6021C166.854 86.3131 165.974 84.2001 164.918 81.9111C164.389 82.7915 164.037 83.6719 163.509 84.5523C161.22 84.3762 158.755 84.2001 156.466 84.0241C156.114 84.9045 155.762 86.3131 156.114 88.0739C156.818 92.1237 159.987 94.2366 160.516 94.5888Z" fill="#F7A39C"/>
<path d="M165.622 114.662C165.622 114.662 165.798 114.662 165.622 114.662C165.974 114.486 166.15 114.31 165.974 114.134L164.917 111.669C164.741 111.493 164.565 111.317 164.389 111.493C164.213 111.669 164.037 111.845 164.213 112.021L165.27 114.486C165.27 114.662 165.446 114.662 165.622 114.662Z" fill="#240100"/>
<path d="M105.051 127.515C105.227 127.515 105.403 127.515 105.403 127.339L106.459 125.05C106.635 124.874 106.459 124.522 106.283 124.522C106.107 124.346 105.755 124.522 105.755 124.698L104.699 126.987C104.522 127.163 104.699 127.515 104.875 127.515H105.051Z" fill="#240100"/>
<path d="M120.018 69.2333C120.546 72.5788 127.237 74.1635 131.639 74.1635C137.273 74.3396 144.493 72.0506 144.845 68.8812C145.197 65.3596 136.217 60.0772 128.645 61.838C124.42 62.8945 119.666 66.4161 120.018 69.2333Z" fill="#240100"/>
<path d="M112.799 76.4525C113.327 81.9109 119.137 87.1933 122.659 86.1368C123.187 85.9607 124.596 85.2564 127.413 74.8678C129.526 66.9443 130.582 62.8945 129.35 62.0141C126.357 59.7251 112.094 67.4725 112.799 76.4525Z" fill="#240100"/>
<path d="M120.947 91.0715C118.99 91.6547 116.818 90.1631 116.095 87.7399C115.373 85.3167 116.375 82.8795 118.332 82.2963C120.289 81.713 122.461 83.2046 123.183 85.6278C123.905 88.051 122.904 90.4882 120.947 91.0715Z" fill="#F7A39C"/>
<path d="M120.194 89.1288H120.37C120.546 88.9527 120.722 88.7766 120.546 88.6006L118.257 84.5508C118.081 84.3747 117.905 84.1986 117.728 84.3747C117.552 84.5508 117.376 84.7268 117.552 84.9029L119.841 88.9527C119.841 89.1288 120.018 89.1288 120.194 89.1288Z" fill="#240100"/>
<path d="M119.137 87.0161C119.313 87.0161 119.489 86.84 119.489 86.6639L120.017 84.3749C120.017 84.1988 119.841 83.8467 119.665 83.8467C119.489 83.8467 119.137 84.0228 119.137 84.1988L118.608 86.4879C118.608 86.84 118.785 87.0161 119.137 87.0161C118.961 87.0161 119.137 87.0161 119.137 87.0161Z" fill="#240100"/>
<path d="M107.561 92.7154C106.702 92.5447 106.544 89.7002 107.208 86.3619C107.872 83.0237 109.106 80.4559 109.964 80.6265C110.823 80.7972 110.98 83.6417 110.317 86.98C109.653 90.3182 108.419 92.886 107.561 92.7154Z" fill="#F7A39C"/>
<path d="M105.306 92.7873C104.435 92.8728 103.46 90.1961 103.128 86.8089C102.795 83.4217 103.232 80.6065 104.103 80.521C104.974 80.4355 105.949 83.1121 106.282 86.4994C106.614 89.8866 106.177 92.7018 105.306 92.7873Z" fill="#F7A39C"/>
<path d="M102.41 101.985C103.818 103.041 105.403 103.041 106.459 102.865C110.685 98.9912 111.918 94.4132 110.509 92.4763C109.805 91.5959 108.396 90.8916 106.988 90.7155C105.579 90.5394 104.346 90.7155 103.818 90.8916C103.29 91.0677 102.41 91.4198 101.529 92.1241C99.0641 94.4131 99.2402 99.8716 102.41 101.985Z" fill="#F7A39C"/>
<path d="M105.051 96.3497C105.403 96.3497 105.931 96.1737 106.107 95.8215C106.811 94.765 105.403 92.8282 104.346 91.7717C104.17 91.5956 103.994 91.5956 103.642 91.7717C103.466 91.9478 103.466 92.1239 103.642 92.476C104.874 93.8846 105.579 95.1172 105.227 95.2933C105.051 95.4693 104.522 95.4693 103.818 95.2933C102.585 94.9411 102.057 93.7086 101.881 93.3564C101.881 93.1803 101.529 93.0043 101.353 93.1803C101.177 93.1803 101.001 93.5325 101.177 93.7086C101.353 94.2368 102.057 95.6454 103.642 96.1737C103.994 96.1737 104.522 96.3497 105.051 96.3497Z" fill="#240100"/>
<path d="M103.466 98.9913C103.818 98.9913 104.347 98.8153 104.523 98.4631C105.227 97.4066 103.818 95.4698 102.762 94.4133C102.586 94.2372 102.41 94.2372 102.058 94.4133C101.882 94.5894 101.882 94.7655 102.058 95.1176C103.29 96.5262 103.994 97.7588 103.642 97.9349C103.466 98.111 102.938 98.111 102.234 97.9349C101.001 97.5827 100.473 96.3502 100.297 95.998C100.297 95.8219 99.9447 95.6459 99.7686 95.8219C99.5925 95.8219 99.4165 96.1741 99.5925 96.3502C99.7686 96.8784 100.473 98.287 102.058 98.8153C102.234 98.8153 102.938 98.9913 103.466 98.9913Z" fill="#240100"/>
<path d="M107.34 98.6376C107.868 98.6376 108.748 98.4615 110.157 97.5811C110.333 97.405 110.509 97.2289 110.333 97.0529C110.157 96.8768 109.981 96.7007 109.805 96.8768C108.396 97.7572 107.516 97.9333 107.34 97.9333C107.34 97.7572 108.044 96.5246 108.396 95.8203C108.925 94.9399 109.629 94.0595 110.333 93.1791C110.509 93.0031 110.509 92.6509 110.333 92.4748C110.157 92.2988 109.805 92.2988 109.629 92.4748C108.925 93.3552 108.22 94.2356 107.516 95.2921C106.635 96.7007 105.931 97.9333 106.459 98.4615C106.812 98.4615 106.812 98.6376 107.34 98.6376Z" fill="#240100"/>
<path d="M155.586 72.2264C155.938 72.2264 156.114 71.8743 155.938 71.6982L153.825 61.6617C153.825 61.4857 153.473 61.3096 153.297 61.3096C153.121 61.3096 152.944 61.6617 152.944 61.8378L155.057 71.8743C155.233 72.0503 155.41 72.2264 155.586 72.2264Z" fill="#240100"/>
<path d="M158.403 71.5221C158.579 71.5221 158.931 71.346 158.931 70.9938V63.5986C158.931 63.4225 158.755 63.0703 158.403 63.0703C158.227 63.0703 157.875 63.2464 157.875 63.5986V70.9938C158.051 71.346 158.227 71.5221 158.403 71.5221Z" fill="#240100"/>
<path d="M152.064 72.9297C152.064 72.9297 152.24 72.9297 152.064 72.9297C152.416 72.7536 152.592 72.5775 152.416 72.4014L151.007 68.8799C150.831 68.7038 150.655 68.5277 150.479 68.7038C150.303 68.8799 150.127 69.0559 150.303 69.232L151.712 72.7536C151.712 72.7536 151.888 72.9297 152.064 72.9297Z" fill="#240100"/>
<path d="M57.5102 48.9838C59.447 50.5685 65.2576 55.3226 72.1246 54.2661C77.7591 53.3857 79.8721 49.1599 83.3936 50.2163C87.9717 51.625 86.5631 59.1963 91.4932 61.4854C97.1277 64.1265 102.234 55.4987 110.334 57.2595C117.025 58.6681 118.081 65.7112 122.659 65.183C127.413 64.6548 131.111 56.5552 131.111 49.8642C131.111 47.223 130.407 44.934 127.941 38.9473C127.061 36.8344 121.955 25.3893 119.138 21.1634C107.516 4.61209 58.2145 0.738361 48.8823 18.6983C44.1282 27.6783 48.8823 42.1167 57.5102 48.9838Z" fill="#240100"/>
<path d="M124.244 64.1264C124.42 64.1264 124.596 64.1264 124.772 64.1264C129.702 63.5982 133.576 55.1464 133.576 48.2794C133.576 45.4621 132.871 42.997 130.23 37.1864C127.941 32.0802 123.891 23.1002 121.25 19.4025C114.031 9.01392 92.5495 4.08372 76.1742 5.14019C63.1444 6.02058 53.8123 10.2465 50.2907 16.9374C45.7127 25.5653 50.1146 40.3558 59.2707 47.7511C61.2076 49.3358 67.1942 54.0899 74.0613 53.2095C76.8785 52.8574 78.8154 51.6248 80.4001 50.5684C82.1609 49.5119 83.3934 48.6315 85.1542 49.1597C87.2671 49.688 87.9714 51.977 88.8518 54.266C89.7322 56.7311 90.6126 59.1962 93.2538 60.4287C96.2471 61.8374 98.8883 60.2527 101.882 58.668C105.051 57.0833 108.22 55.3225 112.094 56.2029C115.44 56.9072 117.2 59.0201 118.961 60.957C120.722 62.5417 122.131 64.1264 124.244 64.1264ZM80.9283 5.84451C96.4232 5.84451 114.383 10.7747 120.722 19.9308C122.659 22.5719 125.828 29.0868 129.526 37.5386C131.991 43.1731 132.695 45.6382 132.695 48.2794C132.695 54.6182 129.174 62.7178 124.596 63.246C122.659 63.4221 121.426 62.0135 119.842 60.2527C118.257 58.3158 116.144 56.0268 112.622 55.3225C108.397 54.4421 104.875 56.2029 101.706 57.9637C98.8883 59.5484 96.4232 60.7809 93.782 59.7244C91.493 58.668 90.7887 56.3789 89.9083 54.0899C89.0279 51.6248 88.1475 49.1597 85.6824 48.4554C83.5695 47.9272 81.9848 48.8076 80.224 50.0401C78.6393 51.0966 76.8785 52.1531 74.2374 52.5052C67.7225 53.3856 61.9119 48.8076 59.975 47.399C51.1711 40.3558 46.9452 25.9174 51.1711 17.6417C54.5166 11.3029 63.6726 7.07706 76.3503 6.19667C77.935 6.02059 79.5197 5.84451 80.9283 5.84451Z" fill="#240100"/>
<path d="M92.92 216C92.152 216 91.768 215.62 91.768 214.86V208.56C91.768 208.192 91.86 207.912 92.044 207.72C92.236 207.528 92.508 207.432 92.86 207.432C93.58 207.432 93.94 207.808 93.94 208.56V214.2H96.46V208.56C96.46 208.192 96.552 207.912 96.736 207.72C96.928 207.528 97.196 207.432 97.54 207.432C98.26 207.432 98.62 207.808 98.62 208.56V214.2H101.14V208.56C101.14 208.192 101.232 207.912 101.416 207.72C101.608 207.528 101.88 207.432 102.232 207.432C102.952 207.432 103.312 207.808 103.312 208.56V214.86C103.312 215.62 102.928 216 102.16 216H92.92ZM105.866 216.108C105.522 216.108 105.258 216.016 105.074 215.832C104.89 215.648 104.798 215.38 104.798 215.028V211.068C104.798 210.716 104.89 210.448 105.074 210.264C105.258 210.08 105.522 209.988 105.866 209.988C106.21 209.988 106.474 210.08 106.658 210.264C106.842 210.448 106.934 210.716 106.934 211.068V212.184H107.51L108.686 210.48C108.838 210.256 109.01 210.112 109.202 210.048C109.402 209.984 109.594 209.98 109.778 210.036C109.97 210.084 110.13 210.18 110.258 210.324C110.386 210.468 110.458 210.64 110.474 210.84C110.49 211.04 110.422 211.252 110.27 211.476L109.406 212.748C109.558 212.852 109.694 212.98 109.814 213.132C109.942 213.276 110.054 213.436 110.15 213.612L110.726 214.68C110.846 214.92 110.882 215.14 110.834 215.34C110.794 215.54 110.694 215.708 110.534 215.844C110.382 215.972 110.202 216.052 109.994 216.084C109.786 216.116 109.582 216.088 109.382 216C109.182 215.912 109.018 215.752 108.89 215.52L108.254 214.32C108.142 214.128 108.03 213.996 107.918 213.924C107.806 213.852 107.662 213.816 107.486 213.816H106.934V215.028C106.934 215.38 106.842 215.648 106.658 215.832C106.474 216.016 106.21 216.108 105.866 216.108ZM114.982 216.132C114.326 216.132 113.754 216.008 113.266 215.76C112.778 215.512 112.398 215.156 112.126 214.692C111.854 214.228 111.718 213.68 111.718 213.048C111.718 212.408 111.854 211.86 112.126 211.404C112.398 210.94 112.778 210.584 113.266 210.336C113.754 210.088 114.326 209.964 114.982 209.964C115.638 209.964 116.21 210.088 116.698 210.336C117.186 210.584 117.562 210.94 117.826 211.404C118.098 211.86 118.234 212.408 118.234 213.048C118.234 213.68 118.098 214.228 117.826 214.692C117.562 215.156 117.186 215.512 116.698 215.76C116.21 216.008 115.638 216.132 114.982 216.132ZM114.982 214.56C115.302 214.56 115.566 214.44 115.774 214.2C115.982 213.96 116.086 213.576 116.086 213.048C116.086 212.512 115.982 212.128 115.774 211.896C115.566 211.656 115.302 211.536 114.982 211.536C114.654 211.536 114.386 211.656 114.178 211.896C113.97 212.128 113.866 212.512 113.866 213.048C113.866 213.576 113.97 213.96 114.178 214.2C114.386 214.44 114.654 214.56 114.982 214.56ZM124.262 216.108C123.926 216.108 123.666 216.016 123.482 215.832C123.298 215.648 123.206 215.38 123.206 215.028V211.728H121.97V212.364C121.97 213.3 121.822 214.08 121.526 214.704C121.238 215.328 120.782 215.764 120.158 216.012C119.854 216.132 119.586 216.144 119.354 216.048C119.13 215.952 118.966 215.8 118.862 215.592C118.758 215.384 118.734 215.164 118.79 214.932C118.846 214.692 119.01 214.488 119.282 214.32C119.586 214.136 119.786 213.872 119.882 213.528C119.978 213.176 120.026 212.764 120.026 212.292V211.284C120.026 210.9 120.126 210.608 120.326 210.408C120.534 210.2 120.83 210.096 121.214 210.096H124.154C124.538 210.096 124.83 210.2 125.03 210.408C125.238 210.608 125.342 210.9 125.342 211.284V215.028C125.342 215.38 125.246 215.648 125.054 215.832C124.87 216.016 124.606 216.108 124.262 216.108ZM128.847 216.132C128.391 216.132 127.987 216.048 127.635 215.88C127.291 215.712 127.019 215.484 126.819 215.196C126.627 214.9 126.531 214.564 126.531 214.188C126.531 213.764 126.643 213.428 126.867 213.18C127.091 212.924 127.451 212.744 127.947 212.64C128.443 212.528 129.103 212.472 129.927 212.472H130.383V212.304C130.383 212.016 130.307 211.812 130.155 211.692C130.011 211.572 129.759 211.512 129.399 211.512C129.199 211.512 128.979 211.536 128.739 211.584C128.507 211.624 128.243 211.7 127.947 211.812C127.683 211.908 127.463 211.904 127.287 211.8C127.111 211.696 126.995 211.548 126.939 211.356C126.891 211.156 126.911 210.96 126.999 210.768C127.095 210.568 127.275 210.42 127.539 210.324C127.923 210.188 128.275 210.096 128.595 210.048C128.923 209.992 129.223 209.964 129.495 209.964C130.479 209.964 131.207 210.176 131.679 210.6C132.159 211.024 132.398 211.692 132.398 212.604V215.028C132.398 215.748 132.071 216.108 131.415 216.108C130.791 216.108 130.459 215.788 130.419 215.148C130.307 215.452 130.115 215.692 129.843 215.868C129.571 216.044 129.239 216.132 128.847 216.132ZM129.327 214.74C129.623 214.74 129.871 214.644 130.071 214.452C130.279 214.26 130.383 214.008 130.383 213.696V213.48H129.927C129.455 213.48 129.107 213.532 128.883 213.636C128.667 213.732 128.559 213.888 128.559 214.104C128.559 214.288 128.623 214.44 128.751 214.56C128.887 214.68 129.079 214.74 129.327 214.74Z" fill="black"/>
<path d="M195.092 261.208C194.452 261.208 194.132 260.884 194.132 260.236V258.268C194.132 257.668 194.412 257.344 194.972 257.296C195.652 256.456 195.992 254.952 195.992 252.784V251.68C195.992 250.92 196.372 250.54 197.132 250.54H201.272C202.04 250.54 202.424 250.92 202.424 251.68V257.296H202.64C203.296 257.296 203.624 257.62 203.624 258.268V260.236C203.624 260.884 203.308 261.208 202.676 261.208C202.036 261.208 201.716 260.884 201.716 260.236V259H196.04V260.236C196.04 260.884 195.724 261.208 195.092 261.208ZM197.168 257.296H200.216V252.244H198.02V253.024C198.02 254.008 197.948 254.852 197.804 255.556C197.66 256.26 197.448 256.84 197.168 257.296ZM207.611 259.132C206.955 259.132 206.383 259.008 205.895 258.76C205.407 258.512 205.027 258.156 204.755 257.692C204.483 257.228 204.347 256.68 204.347 256.048C204.347 255.408 204.483 254.86 204.755 254.404C205.027 253.94 205.407 253.584 205.895 253.336C206.383 253.088 206.955 252.964 207.611 252.964C208.267 252.964 208.839 253.088 209.327 253.336C209.815 253.584 210.191 253.94 210.455 254.404C210.727 254.86 210.863 255.408 210.863 256.048C210.863 256.68 210.727 257.228 210.455 257.692C210.191 258.156 209.815 258.512 209.327 258.76C208.839 259.008 208.267 259.132 207.611 259.132ZM207.611 257.56C207.931 257.56 208.195 257.44 208.403 257.2C208.611 256.96 208.715 256.576 208.715 256.048C208.715 255.512 208.611 255.128 208.403 254.896C208.195 254.656 207.931 254.536 207.611 254.536C207.283 254.536 207.015 254.656 206.807 254.896C206.599 255.128 206.495 255.512 206.495 256.048C206.495 256.576 206.599 256.96 206.807 257.2C207.015 257.44 207.283 257.56 207.611 257.56ZM212.976 259.108C212.352 259.108 212.04 258.78 212.04 258.124V254.164C212.04 253.78 212.12 253.488 212.28 253.288C212.44 253.088 212.688 252.988 213.024 252.988C213.32 252.988 213.556 253.056 213.732 253.192C213.908 253.328 214.068 253.516 214.212 253.756L215.628 256.036L217.032 253.756C217.144 253.58 217.284 253.408 217.452 253.24C217.62 253.072 217.872 252.988 218.208 252.988C218.544 252.988 218.792 253.092 218.952 253.3C219.112 253.5 219.192 253.788 219.192 254.164V258.124C219.192 258.78 218.88 259.108 218.256 259.108C217.632 259.108 217.32 258.78 217.32 258.124V256.06L216.324 257.668C216.26 257.772 216.176 257.868 216.072 257.956C215.968 258.044 215.816 258.088 215.616 258.088C215.432 258.088 215.288 258.048 215.184 257.968C215.08 257.888 214.992 257.788 214.92 257.668L213.912 256.06V258.124C213.912 258.78 213.6 259.108 212.976 259.108Z" fill="black"/>
<path d="M203.268 121.268C207.282 117.254 213.79 117.254 217.805 121.268C221.819 125.282 221.819 131.79 217.805 135.805L210.536 143.073L203.268 135.805C199.254 131.79 199.254 125.282 203.268 121.268Z" fill="#DF2025"/>
<path d="M198.134 226.134C202.627 221.642 209.91 221.642 214.402 226.134C218.895 230.626 218.895 237.91 214.402 242.402L206.268 250.536L198.134 242.402C193.642 237.91 193.642 230.626 198.134 226.134Z" fill="#DF2025"/>
<path d="M127.268 243.268C131.282 239.254 137.79 239.254 141.805 243.268C145.819 247.282 145.819 253.79 141.805 257.805L134.536 265.073L127.268 257.805C123.254 253.79 123.254 247.282 127.268 243.268Z" fill="#DF2025"/>
<path d="M214.995 232.984C214.995 233.547 214.552 233.988 214.05 233.988H213.106L213.126 238.991C213.126 239.078 213.121 239.159 213.112 239.244V239.75C213.112 240.441 212.583 241 211.931 241H211.459C211.426 241 211.394 240.972 211.361 240.997C211.32 240.972 211.279 241 211.238 241H209.57C208.918 241 208.389 240.441 208.389 239.75V237C208.389 236.447 207.967 236 207.445 236H205.556C205.033 236 204.611 236.447 204.611 237V239.75C204.611 240.441 204.083 241 203.431 241H201.781C201.737 241 201.692 240.997 201.648 240.994C201.613 240.997 201.577 241 201.542 241H201.07C200.418 241 199.889 240.441 199.889 239.75V236.25C199.889 236.222 199.89 236.191 199.892 236.163V233.988H198.946C198.414 233.988 198 233.547 198 232.984C198 232.703 198.089 232.453 198.295 232.234L205.863 225.25C206.069 225.031 206.306 225 206.512 225C206.719 225 206.955 225.063 207.135 225.219L214.67 232.234C214.906 232.453 215.027 232.703 214.995 232.984Z" fill="#1A1A18"/>
<path d="M101.768 169.768C107.715 163.821 117.358 163.821 123.305 169.768C129.252 175.716 129.252 185.358 123.305 191.305L112.537 202.073L101.768 191.305C95.8211 185.358 95.8211 175.716 101.768 169.768Z" fill="#DF2025"/>
<path d="M105 181.18V185.18L112 189L119 185.18V181.18L112 185L105 181.18ZM112 171L101 177L112 183L121 178.09V185H123V177L112 171Z" fill="black"/>
</g>
<defs>
<filter id="filter0_d_1533_3545" x="-5" y="0" width="330" height="304" filterUnits="userSpaceOnUse" color-interpolation-filters="sRGB">
<feFlood flood-opacity="0" result="BackgroundImageFix"/>
<feColorMatrix in="SourceAlpha" type="matrix" values="0 0 0 0 0 0 0 0 0 0 0 0 0 0 0 0 0 0 127 0" result="hardAlpha"/>
<feOffset/>
<feGaussianBlur stdDeviation="2.5"/>
<feComposite in2="hardAlpha" operator="out"/>
<feColorMatrix type="matrix" values="0 0 0 0 0 0 0 0 0 0 0 0 0 0 0 0 0 0 0.25 0"/>
<feBlend mode="normal" in2="BackgroundImageFix" result="effect1_dropShadow_1533_3545"/>
<feBlend mode="normal" in="SourceGraphic" in2="effect1_dropShadow_1533_3545" result="shape"/>
</filter>
</defs>
</svg>
