<svg width="320" height="294" viewBox="0 0 320 294" fill="none" xmlns="http://www.w3.org/2000/svg">
<g clip-path="url(#clip0_1550_1337)">
<path d="M292.347 194.232L259.839 194.032C259.839 194.032 259.032 190.952 259.839 188.633C260.647 186.314 291.054 184.114 291.054 184.114L292.347 194.232Z" fill="#DF2025"/>
<path d="M292.346 193.831V185.313C292.346 185.313 268.319 187.753 267.31 187.633C266.3 187.513 267.31 193.831 267.31 193.831H292.346Z" fill="white"/>
<path d="M193.29 53.8291C194.098 59.3077 191.311 60.8672 188.121 71.0644C182.145 90.4591 185.335 108.094 186.708 108.094C187.717 108.094 186.708 99.2567 191.715 96.5375C198.701 92.6185 207.868 106.935 219.457 104.175C228.018 102.216 229.23 92.4186 237.225 92.4186C243 92.4186 244.211 97.4972 249.38 98.8968C261.333 101.856 281.888 82.4213 285.684 59.7075C288.066 44.2318 283.099 24.4372 271.913 20.3183C265.937 18.1589 262.949 22.0778 253.54 20.3183C242.354 18.1589 239.164 11.1208 231.41 7.20189C210.614 -3.39521 172.534 17.3591 173.139 30.3156C173.705 39.1532 191.473 40.7127 193.29 53.8291Z" fill="#EFEFEF"/>
<path d="M159.208 187.513C159.006 186.073 158.804 184.673 158.602 183.234C163.932 181.194 171.767 179.555 181.418 181.394C185.335 181.994 188.808 183.234 191.917 184.433C192.119 184.433 192.523 184.433 193.169 184.633C194.178 185.033 194.825 185.433 195.026 185.633C195.632 186.233 197.288 186.873 201.609 187.673C201.811 188.072 202.214 190.512 200.801 192.751C199.145 194.991 195.874 195.99 192.765 194.791C189.05 194.591 186.99 194.391 186.385 194.391C186.183 194.391 185.981 194.391 185.375 194.391C184.971 194.391 184.568 194.391 184.366 194.191C175.724 193.191 171.201 187.873 162.963 187.273C161.267 187.313 159.814 187.313 159.208 187.513Z" fill="#F7A39C"/>
<path d="M151.576 181.395C148.708 182.834 146.043 184.434 143.136 185.874C142.934 185.874 139.219 187.713 138.411 186.673C138.209 186.473 138.007 186.074 138.613 184.834C142.53 182.395 146.447 179.955 150.324 177.716C150.97 178.955 151.172 180.155 151.576 181.395Z" fill="#F7A39C"/>
<path d="M152.827 182.194C150.97 184.634 149.112 187.273 147.053 189.712C146.851 189.912 144.388 193.191 143.136 192.552C142.934 192.552 142.53 192.152 142.53 190.712C144.993 186.833 147.659 182.954 150.122 179.115C151.172 180.355 152.02 181.195 152.827 182.194Z" fill="#F7A39C"/>
<path d="M156.745 184.434C154.281 186.474 151.818 188.513 149.355 190.353C149.153 190.552 145.841 192.992 144.832 192.192C144.63 191.992 144.428 191.592 144.63 190.353C147.093 187.313 149.557 184.034 152.02 180.995C153.635 181.995 155.291 183.235 156.745 184.434Z" fill="#F7A39C"/>
<path d="M159.814 187.073C156.946 188.313 154.039 189.712 151.172 190.952C150.97 190.952 147.053 192.592 146.447 191.552C146.245 191.352 146.043 190.952 146.851 189.712C150.122 187.273 153.231 184.834 156.502 182.395C157.35 184.034 158.562 185.674 159.814 187.073Z" fill="#F7A39C"/>
<path d="M165.588 187.713C163.327 187.713 161.065 187.713 158.804 187.713C154.281 187.513 150.768 185.074 149.96 181.795C149.556 180.155 149.96 178.556 150.364 177.516C151.818 177.116 153.433 176.716 154.887 176.276C158.158 177.916 161.671 179.316 164.982 180.955C165.386 183.434 165.588 185.674 165.588 187.713Z" fill="#F7A39C"/>
<path d="M144.59 192.191H144.388C144.186 191.991 144.186 191.791 144.186 191.592L148.507 185.273C148.709 185.073 148.91 185.073 149.112 185.073C149.314 185.273 149.314 185.473 149.314 185.673L144.993 191.991C144.993 191.991 144.792 192.191 144.59 192.191Z" fill="#240100"/>
<path d="M148.103 191.992C147.901 191.992 147.901 191.992 147.699 191.792C147.497 191.592 147.497 191.392 147.699 190.992L152.626 185.074C152.828 184.874 153.029 184.874 153.433 185.074C153.635 185.274 153.635 185.474 153.433 185.874L148.507 191.792C148.507 191.792 148.305 191.992 148.103 191.992Z" fill="#240100"/>
<path d="M147.901 183.634C147.699 183.634 147.497 183.434 147.497 183.234C147.295 183.034 147.497 182.634 147.699 182.634L150.566 181.394C150.768 181.194 151.172 181.394 151.172 181.594C151.374 181.794 151.172 182.194 150.97 182.194L147.901 183.634Z" fill="#240100"/>
<path d="M198.701 250.816C198.499 251.216 198.096 251.616 197.894 252.055C197.086 253.295 196.036 254.895 195.027 256.334C193.169 259.173 190.706 262.253 188.041 265.692C185.577 265.092 183.316 264.452 180.853 263.852C182.508 260.173 184.123 256.094 185.577 251.616C187.637 245.497 189.09 238.779 189.898 231.461C190.1 228.822 190.504 226.382 190.504 223.943C190.504 223.143 190.302 222.304 190.302 221.304C190.302 221.304 190.302 220.704 190.302 220.064C190.302 217.825 191.11 214.986 191.311 214.346C196.036 214.546 200.761 214.946 205.485 215.145C205.082 217.385 204.678 220.864 204.88 225.143C205.082 228.182 205.687 230.021 206.132 231.461C206.495 233.54 206.899 238.019 198.701 250.816Z" fill="#F7A39C"/>
<path d="M248.653 219.064H243.727V267.531H248.653V219.064Z" fill="#FF6665"/>
<path d="M267.35 279.767H268.158C267.552 269.57 262.626 261.452 255.195 258.373C252.732 257.373 249.865 256.934 246.958 257.373V258.173C249.825 257.973 252.49 258.173 254.792 259.173C262.02 262.052 266.745 269.97 267.35 279.767Z" fill="#FF6665"/>
<path d="M266.543 283.807C270.419 283.807 273.529 280.688 273.529 276.889C273.529 273.05 270.379 269.971 266.543 269.971C262.706 269.971 259.557 273.09 259.557 276.889C259.557 280.728 262.666 283.807 266.543 283.807Z" fill="#FF6665"/>
<path d="M226.443 279.767C227.049 269.77 231.774 262.052 239.002 259.213C241.465 258.213 244.131 257.973 246.836 258.213V257.413C243.969 257.213 241.062 257.413 238.598 258.413C231.208 261.252 226.241 269.61 225.636 279.807H226.443V279.767Z" fill="#FF6665"/>
<path d="M227.251 283.807C231.128 283.807 234.237 280.688 234.237 276.889C234.237 273.05 231.087 269.971 227.251 269.971C223.375 269.971 220.265 273.09 220.265 276.889C220.265 280.728 223.415 283.807 227.251 283.807Z" fill="#FF6665"/>
<path d="M268.804 222.943H223.375C221.315 222.943 219.458 221.104 219.458 219.064C219.458 217.025 221.315 215.186 223.375 215.186H268.804C270.864 215.186 272.721 217.025 272.721 219.064C272.721 221.304 271.065 222.943 268.804 222.943Z" fill="#FF6665"/>
<path d="M254.63 217.025C240.658 218.864 226.888 220.504 212.875 222.303C211.219 222.503 209.604 222.703 207.949 222.903C207.545 222.903 207.141 223.103 206.697 223.103C206.293 223.103 206.091 223.103 205.687 223.303C204.88 218.624 204.233 213.946 203.426 209.267C203.628 209.067 203.83 208.867 204.233 208.667C208.352 205.628 239.608 196.43 239.608 196.43C242.273 195.631 246.392 194.391 251.117 192.352C252.772 194.391 256.447 199.87 256.447 207.627C256.487 211.746 255.437 214.985 254.63 217.025Z" fill="#F7A39C"/>
<path d="M243.323 218.025C229.351 219.864 215.581 221.504 201.568 223.303C199.913 223.503 198.297 223.703 196.642 223.903C196.238 223.903 195.834 224.103 195.39 224.103C194.986 224.103 194.784 224.103 194.38 224.303C193.371 221.064 192.321 217.785 191.311 214.546C191.311 213.746 191.513 212.706 191.513 211.906C191.513 211.307 191.917 210.467 192.523 209.867C192.523 209.867 192.725 209.667 192.927 209.667C199.913 204.988 212.068 198.47 228.301 197.43C234.076 197.03 239.204 197.43 243.727 198.23C243.323 204.788 243.323 211.307 243.323 218.025Z" fill="#F7A39C"/>
<path d="M229.714 264.492C227.453 265.492 225.192 266.531 222.93 267.531C221.921 263.452 220.467 259.174 218.609 254.895C216.146 248.976 213.279 242.898 209.16 236.78C207.706 234.54 206.293 232.501 204.839 230.661C204.233 230.061 203.587 229.422 202.982 228.822C202.982 228.822 202.578 228.222 202.174 227.822C200.72 225.983 199.509 223.343 199.307 222.743C203.224 219.904 206.899 217.265 210.614 214.386C211.623 216.425 213.481 219.464 216.59 222.544C218.852 224.783 220.305 225.783 221.517 226.822C222.971 228.062 226.242 231.301 228.099 246.377C228.301 248.416 228.705 250.656 228.907 253.095C228.907 253.895 229.109 254.735 229.109 255.734C229.714 258.374 229.714 261.213 229.714 264.492Z" fill="#F7A39C"/>
<path d="M209.806 282.607L237.145 274.049C237.548 273.049 237.952 271.41 237.548 269.77C237.145 267.731 235.691 266.731 235.085 265.891C233.43 264.252 231.37 261.613 229.311 257.134C226.443 257.934 223.334 258.973 220.467 259.773C218.811 265.691 216.146 269.131 214.087 271.37C211.018 274.609 207.302 276.648 207.706 279.528C207.949 280.967 208.958 282.007 209.806 282.607Z" fill="#5A78EC"/>
<path d="M161.065 267.131L187.798 277.728C188.808 277.128 190.059 276.288 190.867 274.689C191.675 272.849 191.473 271.21 191.473 270.21C191.271 267.971 191.271 264.492 192.725 259.813C189.858 258.573 186.95 257.574 184.083 256.334C178.954 259.813 174.634 260.813 171.726 261.213C167.203 261.812 163.084 261.013 161.631 263.452C160.621 264.692 160.621 266.091 161.065 267.131Z" fill="#5A78EC"/>
<path d="M255.236 217.825C243.323 219.664 231.168 221.504 219.255 223.303C221.315 224.743 223.374 226.782 225.434 229.221C232.42 238.379 231.612 249.176 231.208 252.655C226.686 253.455 221.961 254.295 217.438 255.094C211.462 244.697 205.526 234.34 199.347 223.943C199.347 222.703 199.347 221.104 199.953 219.464C200.761 216.225 202.618 213.986 203.87 212.746C206.939 209.707 212.108 205.228 219.498 201.949C225.474 199.11 231.006 198.07 234.924 197.47C241.304 196.87 247.482 196.031 253.863 195.431C254.872 196.43 258.183 199.909 258.789 205.428C259.153 211.946 256.043 216.625 255.236 217.825Z" fill="#240100"/>
<path d="M199.711 254.894C194.986 253.895 190.261 252.855 185.537 251.855C186.546 241.858 188 231.901 189.454 221.504C190.059 217.625 190.705 213.746 191.311 209.907C192.765 208.907 194.38 207.667 196.238 206.668C201.77 203.428 207.141 200.949 211.866 199.35C216.59 201.189 221.315 203.029 226.04 204.828C220.063 213.786 214.087 222.943 208.352 231.901C207.545 234.94 206.293 238.219 205.283 241.458C203.426 246.137 201.568 250.616 199.711 254.894Z" fill="#240100"/>
<path d="M206.697 237.379C206.697 237.379 206.495 237.379 206.495 237.179L197.853 223.143C197.853 222.943 197.853 222.943 197.853 222.743C198.055 222.743 198.055 222.743 198.257 222.743L206.899 236.779C206.899 236.979 206.899 237.179 206.697 237.379Z" fill="white"/>
<path d="M198.055 221.704C197.853 221.704 197.853 221.504 197.853 221.504C198.055 220.064 198.459 218.665 198.863 217.425C199.67 215.386 200.72 213.546 202.134 211.947L220.063 202.149C220.265 202.149 220.265 202.149 220.467 202.149C220.467 202.349 220.467 202.349 220.467 202.549L202.78 212.147C201.528 213.786 200.518 215.626 199.711 217.625C199.307 218.865 198.903 220.264 198.701 221.704C198.257 221.704 198.257 221.704 198.055 221.704Z" fill="white"/>
<path d="M219.255 223.943H219.054L212.269 220.264C212.068 220.064 211.866 219.865 212.068 219.665C212.269 219.465 212.471 219.265 212.673 219.465L219.457 223.144C219.659 223.344 219.861 223.544 219.659 223.744C219.457 223.744 219.255 223.943 219.255 223.943Z" fill="#240100"/>
<path d="M215.137 165.919C213.885 168.958 212.471 172.037 210.816 175.076C210.614 175.476 210.412 175.876 210.21 176.316C209.402 177.756 208.554 179.355 207.747 180.595C207.545 180.995 207.343 181.195 207.141 181.595C206.535 182.594 205.889 183.634 205.082 184.634L204.88 184.834C204.678 185.034 204.476 185.433 204.274 185.633C204.072 186.033 194.623 195.191 192.967 195.631C191.109 196.43 189.252 196.031 187.637 194.831C185.577 193.191 185.779 190.552 185.779 190.352C186.587 188.713 189.494 183.234 191.109 180.355C191.109 180.155 191.311 180.155 191.311 179.955C192.119 178.515 192.563 178.115 192.563 178.115C192.967 177.116 193.573 176.276 194.219 175.276C194.219 175.076 194.421 175.076 194.421 174.876C194.623 174.476 194.825 174.077 195.027 173.637C195.834 171.997 196.682 170.597 197.692 168.958C199.751 166.918 201.811 164.679 203.87 162.64C205.122 161 206.132 159.401 207.383 157.961C207.989 158.161 208.837 158.161 209.443 158.561C212.068 159.8 214.329 162.64 215.137 165.919Z" fill="#F7A39C"/>
<path d="M206.899 177.315L207.504 180.555C207.302 180.954 207.101 181.154 206.899 181.554C206.293 182.554 205.647 183.594 204.839 184.593L204.637 184.793C200.518 182.554 196.399 180.315 192.523 178.075C197.449 177.915 202.174 177.515 206.899 177.315Z" fill="#240100"/>
<path d="M200.518 194.431C197.651 194.431 194.744 194.431 191.675 194.431C192.079 193.631 192.482 192.192 192.281 190.552C192.079 186.273 188.565 183.634 187.96 183.234C191.473 178.955 193.734 175.076 195.148 172.437C197.611 167.958 199.872 163.479 204.597 159.001C206.253 157.361 207.666 157.161 208.312 157.161C211.583 156.961 215.096 160.2 216.146 165.319C211.018 175.076 205.687 184.834 200.518 194.431Z" fill="#FFCE33"/>
<path d="M252.369 186.873C252.57 186.873 252.57 186.873 252.369 186.873V187.073C252.57 188.712 252.57 190.312 252.369 191.951L215.985 203.548C215.783 202.308 215.379 200.909 215.177 199.469C215.177 199.269 215.177 199.069 214.975 199.069C214.975 198.669 214.773 198.27 214.773 198.07C214.571 197.07 214.369 196.23 214.167 195.23C214.167 194.83 213.965 194.631 213.965 194.231C213.965 193.631 213.764 192.991 213.562 192.391C213.36 191.391 213.158 190.552 213.158 189.552C212.754 187.512 212.552 185.473 212.148 183.234C212.148 182.634 211.946 181.994 211.946 181.394C211.744 179.955 211.543 178.755 211.341 177.315C210.937 174.876 210.735 172.237 210.533 169.557C210.129 165.478 209.927 161.4 209.725 157.561C209.725 157.361 209.725 156.961 209.725 156.561C209.927 156.361 210.331 156.161 210.533 156.161C214.45 153.722 218.367 151.482 222.244 149.043C223.253 149.843 224.909 151.082 226.968 152.522C227.776 153.122 228.826 153.962 229.835 154.761C234.358 158.44 239.931 163.519 244.211 169.437C245.221 170.877 246.271 172.277 247.079 173.716C247.482 174.316 247.886 175.156 248.33 175.756C248.734 176.356 249.138 177.195 249.34 177.795C251.117 180.554 252.167 183.634 252.369 186.873Z" fill="#F7A39C"/>
<path d="M223.374 151.843C222.567 152.643 220.911 153.882 219.256 155.522C215.985 159.001 214.733 161.44 212.673 161.24C212.068 161.24 211.22 160.841 210.008 159.401C209.604 158.401 209.2 157.561 208.999 156.762C208.595 156.162 208.393 155.522 208.191 155.122C207.383 153.683 206.535 152.483 205.122 150.443C204.718 150.044 204.516 149.444 204.112 149.004C202.659 147.164 201.447 145.325 199.993 143.725L199.792 143.525L201.447 142.286L205.162 139.446L209.281 136.407C211.139 138.447 213.198 140.686 215.056 142.725C215.258 142.925 215.258 142.925 215.46 143.125C217.317 144.965 218.973 147.004 220.79 148.844C221.194 149.444 221.8 150.083 222.244 150.483C222.526 151.043 222.93 151.443 223.374 151.843Z" fill="#F7A39C"/>
<path d="M212.673 150.443C212.673 153.082 211.22 155.521 208.958 156.961C208.554 156.361 208.353 155.721 208.151 155.321C207.343 153.882 206.495 152.682 205.082 150.643C204.678 150.243 204.476 149.643 204.072 149.203C202.618 147.363 201.407 145.524 199.953 143.924C201.407 142.685 203.224 142.085 205.082 142.285C209.362 142.085 212.875 145.764 212.673 150.443Z" fill="#240100"/>
<path d="M179.56 130.488L182.831 143.525C184.891 151.683 193.33 156.761 201.77 154.722C203.426 153.922 206.091 152.482 208.151 149.843C212.875 144.365 213.077 138.046 212.875 136.007L208.958 120.931C207.706 116.252 203.426 112.773 198.459 112.573C196.399 112.573 194.138 112.773 191.473 113.173C189.817 113.573 188.404 113.973 187.152 114.613C181.216 117.252 177.905 124.17 179.56 130.488Z" fill="#F7A39C"/>
<path d="M191.069 147.164C191.271 147.364 192.079 147.564 193.33 147.364C194.784 146.964 195.39 145.925 195.39 145.725L191.069 147.164Z" fill="#240100"/>
<path d="M193.532 140.246C193.129 140.246 192.927 140.046 193.129 139.646C193.129 139.046 193.532 137.806 194.582 136.807C196.036 135.567 198.499 135.807 200.115 137.006C200.317 137.206 200.317 137.406 200.317 137.606C200.115 137.806 199.913 137.806 199.711 137.806C198.257 136.807 196.44 136.567 195.39 137.606C194.582 138.206 194.38 139.246 194.38 139.646C193.936 140.046 193.734 140.246 193.532 140.246Z" fill="#240100"/>
<path d="M195.996 140.406C196.884 140.166 197.409 139.286 197.167 138.407C196.924 137.527 196.036 137.007 195.148 137.247C194.259 137.487 193.734 138.367 193.977 139.246C194.219 140.126 195.107 140.646 195.996 140.406Z" fill="#240100"/>
<path d="M182.427 144.325C182.024 144.325 181.822 144.125 182.024 143.725C182.024 143.125 182.427 141.885 183.477 140.886C184.931 139.646 187.394 139.886 189.01 141.086C189.212 141.286 189.212 141.485 189.212 141.685C189.01 141.885 188.808 141.885 188.606 141.885C187.152 140.886 185.335 140.646 184.285 141.685C183.477 142.285 183.275 143.325 183.275 143.725C183.073 144.325 182.831 144.325 182.427 144.325Z" fill="#240100"/>
<path d="M184.971 144.644C185.86 144.404 186.385 143.525 186.142 142.645C185.9 141.765 185.012 141.245 184.123 141.485C183.235 141.725 182.71 142.605 182.952 143.485C183.194 144.364 184.083 144.884 184.971 144.644Z" fill="#240100"/>
<path d="M198.903 151.043C198.701 151.043 198.499 150.843 198.499 150.843C198.297 150.643 198.499 150.243 198.701 150.243C199.105 150.043 199.509 149.843 199.953 149.443C200.155 149.243 200.357 149.043 200.559 148.843C200.761 148.643 200.963 148.643 201.366 148.843C201.568 149.043 201.568 149.243 201.366 149.643C201.164 149.843 200.761 150.243 200.559 150.443C200.155 150.843 199.549 151.043 199.105 151.243C199.105 151.043 199.105 151.043 198.903 151.043Z" fill="#240100"/>
<path d="M254.832 199.11C252.167 201.349 248.451 203.988 243.525 205.628C228.099 210.707 214.127 201.949 211.664 200.549C208.595 187.513 205.485 174.676 202.214 161.64C204.072 159.401 206.131 157.361 207.989 155.122C208.191 155.722 208.595 156.361 208.797 156.761C210.048 160.44 211.26 162.24 212.714 162.48C214.975 162.48 217.034 157.601 219.498 147.804C221.557 148.004 223.617 148.404 225.878 148.803C230.401 149.603 234.52 150.843 238.235 152.282C238.841 154.922 239.689 157.361 240.294 160.04C244.333 174.077 249.461 187.313 254.832 199.11Z" fill="#FFCE33"/>
<path d="M198.055 149.843C197.853 149.843 197.651 149.643 197.651 149.443C197.651 149.244 197.853 148.844 198.055 148.844C198.661 148.644 199.509 148.444 200.316 147.604C200.72 147.204 201.124 146.604 201.326 145.964C201.528 145.764 201.73 145.565 201.932 145.764C202.134 145.964 202.335 146.164 202.134 146.364C201.932 147.164 201.326 147.804 200.882 148.404C199.913 149.204 198.903 149.603 198.055 149.843Z" fill="#240100"/>
<path d="M198.701 131.688C198.701 131.888 198.499 132.088 194.986 134.527C192.321 136.367 191.917 136.567 191.715 136.367C191.311 135.967 192.119 133.927 193.774 132.688C195.794 131.288 198.459 131.088 198.701 131.688Z" fill="#240100"/>
<path d="M187.152 137.607C187.152 137.807 186.748 137.807 182.629 139.046C179.56 139.846 179.116 139.846 178.914 139.646C178.712 139.246 180.166 137.607 181.983 137.007C184.487 135.967 187.152 137.007 187.152 137.607Z" fill="#240100"/>
<path d="M210.614 128.849C210.614 129.649 210.008 134.567 208.352 134.767C206.293 135.167 205.081 128.649 201.164 128.049C197.449 127.449 195.39 132.528 190.867 131.528C190.059 131.328 188.606 130.928 186.748 131.328C185.294 131.728 185.092 132.128 184.083 132.568C181.822 133.368 178.753 132.768 177.299 130.928C175.845 128.889 177.299 125.85 177.905 124.01C180.166 118.932 185.739 113.413 193.33 112.213C195.592 111.813 201.568 110.974 206.293 114.653C211.623 119.092 210.816 126.609 210.614 128.849Z" fill="#240100"/>
<path d="M212.269 137.806C214.571 137.246 215.904 134.567 215.217 131.808C214.531 129.089 212.067 127.329 209.766 127.929C207.464 128.489 206.131 131.168 206.818 133.927C207.545 136.647 209.968 138.406 212.269 137.806Z" fill="#F7A39C"/>
<path d="M211.623 135.768C211.421 135.768 211.219 135.568 211.018 135.368V130.089C211.018 129.889 211.219 129.489 211.421 129.489C211.623 129.489 212.027 129.689 212.027 129.889V135.168C212.269 135.568 212.067 135.768 211.623 135.768Z" fill="#240100"/>
<path d="M211.421 133.128C211.219 133.128 211.219 133.128 211.018 132.928L209.16 130.888C208.958 130.688 208.958 130.288 209.16 130.088C209.362 129.888 209.766 129.888 209.968 130.088L211.825 132.128C212.027 132.328 212.027 132.728 211.825 132.928C211.623 133.128 211.623 133.128 211.421 133.128Z" fill="#240100"/>
<path d="M177.501 129.049C179.076 129.049 180.368 127.769 180.368 126.209C180.368 124.65 179.076 123.37 177.501 123.37C175.926 123.37 174.634 124.65 174.634 126.209C174.634 127.769 175.926 129.049 177.501 129.049Z" fill="#240100"/>
<path d="M179.56 126.21C181.498 126.21 183.073 124.65 183.073 122.731C183.073 120.812 181.498 119.252 179.56 119.252C177.622 119.252 176.047 120.812 176.047 122.731C176.047 124.65 177.622 126.21 179.56 126.21Z" fill="#240100"/>
<path d="M183.477 123.33C185.618 123.33 187.394 121.611 187.394 119.451C187.394 117.332 185.658 115.572 183.477 115.572C181.337 115.572 179.56 117.292 179.56 119.451C179.56 121.611 181.297 123.33 183.477 123.33Z" fill="#240100"/>
<path d="M185.94 122.331C188.323 122.331 190.261 120.412 190.261 118.052C190.261 115.693 188.323 113.773 185.94 113.773C183.558 113.773 181.62 115.693 181.62 118.052C181.62 120.412 183.558 122.331 185.94 122.331Z" fill="#240100"/>
<path d="M176.895 119.291C177.703 119.291 178.349 118.651 178.349 117.852C178.349 117.052 177.703 116.412 176.895 116.412C176.088 116.412 175.441 117.052 175.441 117.852C175.441 118.651 176.088 119.291 176.895 119.291Z" fill="#240100"/>
<path d="M173.382 120.492C173.947 120.492 174.391 120.052 174.391 119.492C174.391 118.932 173.947 118.492 173.382 118.492C172.817 118.492 172.372 118.932 172.372 119.492C172.372 120.052 172.817 120.492 173.382 120.492Z" fill="#240100"/>
<path d="M173.987 126.209C174.795 126.209 175.441 125.569 175.441 124.77C175.441 123.97 174.795 123.33 173.987 123.33C173.18 123.33 172.534 123.97 172.534 124.77C172.534 125.569 173.22 126.209 173.987 126.209Z" fill="#240100"/>
<path d="M176.491 131.888C177.864 131.888 178.954 130.809 178.954 129.449C178.954 128.089 177.864 127.01 176.491 127.01C175.118 127.01 174.028 128.089 174.028 129.449C173.988 130.809 175.118 131.888 176.491 131.888Z" fill="#240100"/>
<path d="M178.308 134.568C178.874 134.568 179.318 134.128 179.318 133.568C179.318 133.008 178.874 132.568 178.308 132.568C177.743 132.568 177.299 133.008 177.299 133.568C177.299 134.088 177.743 134.568 178.308 134.568Z" fill="#240100"/>
<path d="M175.845 133.927C176.168 133.927 176.451 133.647 176.451 133.327C176.451 133.007 176.168 132.728 175.845 132.728C175.522 132.728 175.239 133.007 175.239 133.327C175.239 133.647 175.522 133.927 175.845 133.927Z" fill="#240100"/>
<path d="M177.501 132.728C178.308 132.728 178.954 132.088 178.954 131.288C178.954 130.488 178.308 129.849 177.501 129.849C176.693 129.849 176.047 130.488 176.047 131.288C176.047 132.088 176.693 132.728 177.501 132.728Z" fill="#240100"/>
<path d="M175.441 130.688C176.33 130.688 177.097 129.968 177.097 129.049C177.097 128.169 176.37 127.409 175.441 127.409C174.553 127.409 173.786 128.129 173.786 129.049C173.786 129.968 174.553 130.688 175.441 130.688Z" fill="#240100"/>
<path d="M183.679 133.528C184.689 133.528 185.537 132.688 185.537 131.688C185.537 130.688 184.689 129.849 183.679 129.849C182.67 129.849 181.822 130.688 181.822 131.688C181.822 132.728 182.629 133.528 183.679 133.528Z" fill="#240100"/>
<path d="M187.798 132.328C188.686 132.328 189.454 131.608 189.454 130.688C189.454 129.809 188.727 129.049 187.798 129.049C186.91 129.049 186.142 129.769 186.142 130.688C186.142 131.568 186.869 132.328 187.798 132.328Z" fill="#240100"/>
<path d="M182.024 134.568C183.275 134.568 184.285 133.568 184.285 132.328C184.285 131.089 183.275 130.089 182.024 130.089C180.772 130.089 179.762 131.089 179.762 132.328C179.762 133.568 180.772 134.568 182.024 134.568Z" fill="#240100"/>
<path d="M194.784 131.688C195.471 131.688 196.036 131.128 196.036 130.449C196.036 129.769 195.471 129.209 194.784 129.209C194.098 129.209 193.532 129.769 193.532 130.449C193.532 131.168 194.098 131.688 194.784 131.688Z" fill="#240100"/>
<path d="M190.463 133.128C191.473 133.128 192.321 132.288 192.321 131.289C192.321 130.289 191.473 129.449 190.463 129.449C189.454 129.449 188.606 130.289 188.606 131.289C188.606 132.288 189.454 133.128 190.463 133.128Z" fill="#240100"/>
<path d="M191.271 115.613C192.765 115.613 193.936 114.413 193.936 112.973C193.936 111.494 192.725 110.334 191.271 110.334C189.777 110.334 188.606 111.534 188.606 112.973C188.606 114.413 189.817 115.613 191.271 115.613Z" fill="#240100"/>
<path d="M189.858 118.452C191.675 118.452 193.129 117.012 193.129 115.213C193.129 113.413 191.675 111.974 189.858 111.974C188.04 111.974 186.587 113.413 186.587 115.213C186.546 117.012 188.04 118.452 189.858 118.452Z" fill="#240100"/>
<path d="M182.023 114.613C182.266 114.613 182.427 114.413 182.427 114.213C182.427 113.973 182.225 113.813 182.023 113.813C181.781 113.813 181.62 114.013 181.62 114.213C181.62 114.413 181.781 114.613 182.023 114.613Z" fill="#240100"/>
<path d="M180.57 115.413C180.893 115.413 181.175 115.133 181.175 114.813C181.175 114.493 180.893 114.213 180.57 114.213C180.247 114.213 179.964 114.493 179.964 114.813C179.964 115.133 180.247 115.413 180.57 115.413Z" fill="#240100"/>
<path d="M185.537 114.813C186.667 114.813 187.596 113.894 187.596 112.774C187.596 111.654 186.667 110.734 185.537 110.734C184.406 110.734 183.477 111.654 183.477 112.774C183.477 113.894 184.366 114.813 185.537 114.813Z" fill="#240100"/>
<path d="M182.225 114.613C183.235 114.613 184.083 113.773 184.083 112.773C184.083 111.773 183.235 110.934 182.225 110.934C181.216 110.934 180.368 111.773 180.368 112.773C180.368 113.773 181.216 114.613 182.225 114.613Z" fill="#240100"/>
<path d="M203.426 131.888C205.364 131.888 206.939 130.328 206.939 128.409C206.939 126.489 205.364 124.93 203.426 124.93C201.487 124.93 199.913 126.489 199.913 128.409C199.913 130.368 201.487 131.888 203.426 131.888Z" fill="#240100"/>
<path d="M199.307 129.649C200.195 129.649 200.962 128.929 200.962 128.01C200.962 127.13 200.236 126.37 199.307 126.37C198.418 126.37 197.651 127.09 197.651 128.01C197.651 128.929 198.378 129.649 199.307 129.649Z" fill="#240100"/>
<path d="M204.839 134.767C205.647 134.767 206.293 134.127 206.293 133.327C206.293 132.528 205.647 131.888 204.839 131.888C204.032 131.888 203.385 132.528 203.385 133.327C203.426 134.127 204.072 134.767 204.839 134.767Z" fill="#240100"/>
<path d="M198.701 130.688C199.589 130.688 200.357 129.968 200.357 129.049C200.357 128.169 199.63 127.409 198.701 127.409C197.772 127.409 197.045 128.129 197.045 129.049C197.045 129.968 197.772 130.688 198.701 130.688Z" fill="#240100"/>
<path d="M209.806 125.61C210.614 125.61 211.26 124.97 211.26 124.17C211.26 123.37 210.614 122.73 209.806 122.73C208.999 122.73 208.353 123.37 208.353 124.17C208.353 124.97 208.999 125.61 209.806 125.61Z" fill="#240100"/>
<path d="M210.21 122.931C211.462 122.931 212.472 121.931 212.472 120.692C212.472 119.452 211.462 118.452 210.21 118.452C208.958 118.452 207.949 119.452 207.949 120.692C207.949 121.931 208.958 122.931 210.21 122.931Z" fill="#240100"/>
<path d="M210.412 120.491C211.543 120.491 212.471 119.571 212.471 118.452C212.471 117.332 211.543 116.412 210.412 116.412C209.281 116.412 208.353 117.332 208.353 118.452C208.353 119.571 209.281 120.491 210.412 120.491Z" fill="#240100"/>
<path d="M206.697 118.652C208.191 118.652 209.362 117.452 209.362 116.012C209.362 114.533 208.15 113.373 206.697 113.373C205.203 113.373 204.031 114.573 204.031 116.012C204.031 117.492 205.243 118.652 206.697 118.652Z" fill="#240100"/>
<path d="M205.041 117.252C206.535 117.252 207.706 116.053 207.706 114.613C207.706 113.173 206.495 111.974 205.041 111.974C203.547 111.974 202.376 113.173 202.376 114.613C202.376 116.053 203.587 117.252 205.041 117.252Z" fill="#240100"/>
<path d="M200.518 117.052C202.457 117.052 204.032 115.492 204.032 113.573C204.032 111.653 202.457 110.094 200.518 110.094C198.58 110.094 197.005 111.653 197.005 113.573C197.046 115.492 198.62 117.052 200.518 117.052Z" fill="#240100"/>
<path d="M196.197 113.573C197.086 113.573 197.853 112.853 197.853 111.934C197.853 111.014 197.126 110.294 196.197 110.294C195.309 110.294 194.542 111.014 194.542 111.934C194.582 112.853 195.309 113.573 196.197 113.573Z" fill="#240100"/>
<path d="M194.38 116.212C195.874 116.212 197.045 115.012 197.045 113.573C197.045 112.093 195.834 110.934 194.38 110.934C192.927 110.934 191.715 112.133 191.715 113.573C191.675 115.052 192.886 116.212 194.38 116.212Z" fill="#240100"/>
<path d="M193.128 111.534C193.451 111.534 193.734 111.254 193.734 110.934C193.734 110.614 193.451 110.334 193.128 110.334C192.805 110.334 192.523 110.614 192.523 110.934C192.523 111.254 192.805 111.534 193.128 111.534Z" fill="#240100"/>
<path d="M190.463 112.133C191.271 112.133 191.917 111.493 191.917 110.693C191.917 109.894 191.271 109.254 190.463 109.254C189.656 109.254 189.01 109.894 189.01 110.693C189.01 111.493 189.656 112.133 190.463 112.133Z" fill="#240100"/>
<path d="M187.798 112.973C188.606 112.973 189.252 112.333 189.252 111.533C189.252 110.734 188.606 110.094 187.798 110.094C186.991 110.094 186.344 110.734 186.344 111.533C186.344 112.333 186.991 112.973 187.798 112.973Z" fill="#240100"/>
<path d="M211.422 127.209C213.118 127.209 214.491 125.85 214.491 124.17C214.491 122.49 213.118 121.131 211.422 121.131C209.726 121.131 208.353 122.49 208.353 124.17C208.353 125.85 209.726 127.209 211.422 127.209Z" fill="#240100"/>
<path d="M204.839 132.928C206.091 132.928 207.101 131.928 207.101 130.689C207.101 129.449 206.091 128.449 204.839 128.449C203.587 128.449 202.578 129.449 202.578 130.689C202.578 131.928 203.587 132.928 204.839 132.928Z" fill="#240100"/>
<path d="M179.964 119.891C180.772 119.891 181.418 119.251 181.418 118.451C181.418 117.652 180.772 117.012 179.964 117.012C179.156 117.012 178.51 117.652 178.51 118.451C178.51 119.251 179.156 119.891 179.964 119.891Z" fill="#240100"/>
<path d="M180.57 117.452C181.377 117.452 182.023 116.813 182.023 116.013C182.023 115.213 181.377 114.573 180.57 114.573C179.762 114.573 179.116 115.213 179.116 116.013C179.116 116.813 179.802 117.452 180.57 117.452Z" fill="#240100"/>
<path d="M180.368 118.852C181.175 118.852 181.822 118.212 181.822 117.412C181.822 116.612 181.175 115.973 180.368 115.973C179.56 115.973 178.914 116.612 178.914 117.412C178.954 118.252 179.601 118.852 180.368 118.852Z" fill="#240100"/>
<path d="M215.338 186.673C215.136 185.233 214.935 183.834 214.733 182.394C220.063 180.355 227.897 178.715 237.548 180.554C241.465 181.154 244.938 182.394 248.048 183.594C248.25 183.594 248.653 183.594 249.299 183.794C250.309 184.193 250.955 184.593 251.157 184.793C251.763 185.393 253.418 186.033 257.739 186.833C257.941 187.233 258.345 189.672 256.932 191.911C255.276 194.151 252.005 195.15 248.896 193.951C245.181 193.751 243.121 193.551 242.515 193.551C242.313 193.551 242.112 193.551 241.506 193.551C241.102 193.551 240.698 193.551 240.496 193.351C231.855 192.351 227.332 187.033 219.094 186.433C217.398 186.673 216.146 186.673 215.338 186.673Z" fill="#F7A39C"/>
<path d="M207.747 180.795C204.88 182.235 202.214 183.834 199.307 185.274C199.105 185.274 195.39 187.113 194.582 186.074C194.38 185.874 194.178 185.474 194.784 184.234C198.701 181.795 202.618 179.356 206.495 177.116C207.101 178.316 207.504 179.556 207.747 180.795Z" fill="#F7A39C"/>
<path d="M208.958 181.595C207.101 184.034 205.243 186.673 203.184 189.113C202.982 189.313 200.518 192.592 199.267 191.952C199.065 191.952 198.661 191.552 198.661 190.112C201.124 186.233 203.789 182.355 206.253 178.516C207.303 179.755 208.151 180.555 208.958 181.595Z" fill="#F7A39C"/>
<path d="M212.875 183.834C210.412 185.873 207.949 187.912 205.485 189.752C205.283 189.952 201.972 192.391 200.963 191.591C200.761 191.392 200.559 190.992 200.761 189.752C203.224 186.713 205.687 183.434 208.15 180.395C209.806 181.394 211.421 182.594 212.875 183.834Z" fill="#F7A39C"/>
<path d="M215.944 186.474C213.077 187.713 210.17 189.113 207.302 190.353C207.101 190.353 203.184 191.992 202.578 190.952C202.376 190.752 202.174 190.353 202.982 189.113C206.253 186.674 209.362 184.234 212.633 181.795C213.481 183.434 214.733 184.834 215.944 186.474Z" fill="#F7A39C"/>
<path d="M221.719 187.073C219.457 187.073 217.196 187.073 214.935 187.073C210.412 186.873 206.899 184.433 206.091 181.154C205.687 179.515 206.091 177.915 206.495 176.875C207.949 176.476 209.564 176.076 211.018 175.636C214.289 177.275 217.802 178.675 221.113 180.314C221.517 182.794 221.719 184.833 221.719 187.073Z" fill="#F7A39C"/>
<path d="M200.72 191.552H200.518C200.316 191.352 200.316 191.152 200.316 190.952L204.637 184.634C204.839 184.434 205.041 184.434 205.243 184.434C205.445 184.634 205.445 184.833 205.445 185.033L201.164 191.352C201.164 191.352 200.963 191.552 200.72 191.552Z" fill="#240100"/>
<path d="M204.233 191.152C204.032 191.152 204.032 191.152 203.83 190.952C203.628 190.752 203.628 190.552 203.83 190.152L208.756 184.234C208.958 184.034 209.16 184.034 209.564 184.234C209.766 184.434 209.766 184.634 209.564 185.034L204.637 190.952C204.637 191.152 204.435 191.152 204.233 191.152Z" fill="#240100"/>
<path d="M204.032 183.034C203.83 183.034 203.628 182.834 203.628 182.634C203.426 182.434 203.628 182.034 203.83 182.034L206.697 180.795C206.899 180.595 207.303 180.795 207.303 180.995C207.504 181.195 207.303 181.595 207.101 181.595L204.032 183.034Z" fill="#240100"/>
<path d="M114.99 196.271H109.013V285.886H114.99V196.271Z" fill="#240100"/>
<path d="M281.968 196.271H275.992V285.886H281.968V196.271Z" fill="#240100"/>
<path d="M258.507 185.473C258.507 185.673 259.112 189.952 256.043 192.791C253.782 194.831 250.713 195.43 247.806 194.231C248.007 193.231 248.411 190.992 247.604 188.512C246.15 184.034 242.475 182.194 241.829 181.794C238.76 175.476 235.449 169.358 232.38 163.039C231.128 160.6 231.128 157.761 232.582 155.521C234.439 152.682 237.71 152.482 238.114 152.282C240.779 153.922 243.888 156.161 246.958 159.4C256.043 168.758 258.103 180.355 258.507 185.473Z" fill="#FFCE33"/>
<path d="M185.335 189.313H105.944L84.5417 128.409H163.932L185.335 189.313Z" fill="#EFEFEF"/>
<path d="M170.918 176.076C170.717 176.076 170.515 175.876 170.515 175.676L156.946 137.207H117.049C116.847 137.207 116.443 137.007 116.443 136.607C116.443 136.207 116.645 136.007 117.049 136.007H157.148C157.35 136.007 157.552 136.207 157.552 136.407L171.322 175.316C171.322 175.676 171.322 175.876 170.918 176.076Z" fill="#240100"/>
<path d="M110.871 137.207H106.348C106.146 137.207 105.742 137.007 105.742 136.607C105.742 136.207 105.944 136.007 106.348 136.007H110.871C111.073 136.007 111.476 136.207 111.476 136.607C111.476 137.007 111.073 137.207 110.871 137.207Z" fill="#240100"/>
<path d="M108.811 170.598C108.609 170.598 108.408 170.398 108.408 170.198L96.6968 136.807C96.6968 136.607 96.6968 136.407 96.6968 136.407C96.6968 136.207 96.8987 136.207 97.1006 136.207H102.875C103.077 136.207 103.481 136.407 103.481 136.807C103.481 137.207 103.279 137.407 102.875 137.407H97.9486L109.457 170.198C109.417 170.198 109.417 170.398 108.811 170.598C109.013 170.598 109.013 170.598 108.811 170.598Z" fill="#240100"/>
<path d="M111.275 177.316C111.073 177.316 110.871 177.116 110.871 176.916L109.861 174.277C109.861 174.077 109.861 173.677 110.265 173.677C110.467 173.677 110.871 173.677 110.871 174.077L111.88 176.716C111.921 176.916 111.678 177.316 111.275 177.316C111.477 177.316 111.275 177.316 111.275 177.316Z" fill="#240100"/>
<path d="M171.12 181.395H112.728C112.526 181.395 112.324 181.195 112.324 180.995L111.719 178.955C111.719 178.755 111.719 178.355 112.123 178.355C112.324 178.355 112.728 178.355 112.728 178.755L113.334 180.395H171.322C171.524 180.395 171.928 180.595 171.928 180.995C171.968 181.395 171.322 181.395 171.12 181.395Z" fill="#240100"/>
<path d="M151.576 172.837H121.128C120.926 172.837 120.724 172.638 120.724 172.438L116.201 159.801C116.201 159.601 116.201 159.201 116.605 159.201C116.807 159.201 117.211 159.201 117.211 159.601L121.532 172.038H151.535C151.737 172.038 152.141 172.238 152.141 172.638C152.141 173.037 152.02 172.837 151.576 172.837Z" fill="#240100"/>
<path d="M158.158 172.836H155.896C155.694 172.836 155.291 172.637 155.291 172.237C155.291 171.837 155.493 171.637 155.896 171.637H157.552L148.305 145.564H117.251C117.049 145.564 116.645 145.364 116.645 144.964C116.645 144.764 116.847 144.364 117.251 144.364H148.708C148.91 144.364 149.112 144.564 149.112 144.764L158.764 171.837C158.764 172.037 158.764 172.237 158.764 172.237C158.562 172.836 158.36 172.836 158.158 172.836Z" fill="#240100"/>
<path d="M141.117 194.032H121.976L128.76 165.319H147.901L141.117 194.032Z" fill="#EFEFEF"/>
<path d="M141.117 194.631H121.976C121.774 194.631 121.774 194.631 121.572 194.431C121.572 194.231 121.37 194.231 121.572 194.031L128.356 165.319C128.356 165.119 128.76 164.919 128.962 164.919C129.164 164.919 129.366 165.319 129.366 165.519L122.783 193.631H140.915L147.497 165.319C147.497 165.119 147.901 164.919 148.103 164.919C148.305 164.919 148.507 165.319 148.507 165.519L141.722 194.231C141.52 194.431 141.319 194.631 141.117 194.631Z" fill="#240100"/>
<path d="M170.918 183.234H163.73C163.529 183.234 163.125 183.034 163.125 182.634C163.125 182.234 163.327 182.034 163.73 182.034H170.918C171.12 182.034 171.524 182.234 171.524 182.634C171.524 183.034 171.12 183.234 170.918 183.234Z" fill="#240100"/>
<path d="M170.918 184.234H163.73C163.529 184.234 163.125 184.034 163.125 183.634C163.125 183.234 163.327 183.034 163.73 183.034H170.918C171.12 183.034 171.524 183.234 171.524 183.634C171.524 184.034 171.12 184.234 170.918 184.234Z" fill="#240100"/>
<path d="M170.918 185.274H163.73C163.529 185.274 163.125 185.074 163.125 184.674C163.125 184.274 163.327 184.074 163.73 184.074H170.918C171.12 184.074 171.524 184.274 171.524 184.674C171.524 185.074 171.12 185.274 170.918 185.274Z" fill="#240100"/>
<path d="M170.918 186.473H163.73C163.529 186.473 163.125 186.273 163.125 185.873C163.125 185.473 163.327 185.273 163.73 185.273H170.918C171.12 185.273 171.524 185.473 171.524 185.873C171.524 186.273 171.12 186.473 170.918 186.473Z" fill="#240100"/>
<path d="M124.035 149.404H116.847C116.645 149.404 116.241 149.204 116.241 148.804C116.241 148.604 116.443 148.204 116.847 148.204H124.035C124.237 148.204 124.641 148.404 124.641 148.804C124.439 149.204 124.237 149.404 124.035 149.404Z" fill="#240100"/>
<path d="M124.035 150.443H116.847C116.645 150.443 116.241 150.243 116.241 149.843C116.241 149.443 116.443 149.243 116.847 149.243H124.035C124.237 149.243 124.641 149.443 124.641 149.843C124.641 150.243 124.237 150.443 124.035 150.443Z" fill="#240100"/>
<path d="M124.035 151.643H116.847C116.645 151.643 116.241 151.443 116.241 151.043C116.241 150.643 116.443 150.443 116.847 150.443H124.035C124.237 150.443 124.641 150.643 124.641 151.043C124.641 151.443 124.237 151.643 124.035 151.643Z" fill="#240100"/>
<path d="M124.035 152.682H116.847C116.645 152.682 116.241 152.482 116.241 152.082C116.241 151.882 116.443 151.482 116.847 151.482H124.035C124.237 151.482 124.641 151.682 124.641 152.082C124.439 152.482 124.237 152.682 124.035 152.682Z" fill="#240100"/>
<path d="M155.493 191.352H115.394V194.191H155.493V191.352Z" fill="#240100"/>
<path d="M154.483 193.831H115.394V194.231H154.483V193.831Z" fill="white"/>
<path d="M298 194.031H97.5044V198.51H298V194.031Z" fill="#240100"/>
<path d="M226.645 191.352H167.203V194.191H226.645V191.352Z" fill="#EFEFEF"/>
<path d="M248.653 182.594C248.653 182.594 248.451 182.594 248.653 182.594L243.323 181.354C243.121 181.354 242.919 180.954 242.919 180.754C242.919 180.554 243.323 180.354 243.525 180.354L248.653 181.594C248.855 181.594 249.057 181.994 249.057 182.194C249.057 182.594 248.855 182.594 248.653 182.594Z" fill="#240100"/>
<path d="M244.333 180.595C244.131 180.595 243.929 180.395 243.929 180.195C243.727 179.995 243.929 179.595 244.131 179.595L246.796 178.596C246.998 178.396 247.402 178.596 247.402 178.795C247.604 178.995 247.402 179.395 247.2 179.395L244.333 180.595C244.535 180.595 244.333 180.595 244.333 180.595Z" fill="#240100"/>
<path d="M242.475 179.355C242.273 179.355 242.071 179.155 242.071 179.155L235.691 165.519C235.489 165.319 235.691 164.919 235.893 164.919C236.095 164.719 236.498 164.919 236.498 165.119L242.879 178.755C243.081 178.955 242.879 179.355 242.677 179.355H242.475Z" fill="#240100"/>
<path d="M207.747 176.076C207.545 176.076 207.343 175.876 207.343 175.676L205.485 168.558C205.485 168.358 205.485 167.958 205.889 167.958C206.091 167.958 206.495 167.958 206.495 168.358L208.353 175.476C208.151 175.676 207.949 175.876 207.747 176.076Z" fill="#240100"/>
<path d="M202.174 144.725C202.578 144.925 201.972 147.164 200.317 148.204C199.509 148.804 198.257 149.004 198.055 148.804C197.853 148.404 199.065 147.364 200.317 146.164C201.366 144.925 201.972 144.525 202.174 144.725Z" fill="white"/>
<path d="M144.59 208.467H117.049V285.846H144.59V208.467Z" fill="#EFEFEF"/>
<path d="M134.333 280.367H120.563C120.361 280.367 119.957 280.167 119.957 279.768V224.143C119.957 223.943 120.159 223.543 120.563 223.543H134.333C134.535 223.543 134.938 223.743 134.938 224.143V279.728C134.737 279.968 134.535 280.367 134.333 280.367ZM120.966 279.328H133.727V224.783H120.966V279.328Z" fill="#240100"/>
<path d="M122.985 232.1C123.672 232.1 124.237 231.541 124.237 230.861C124.237 230.181 123.672 229.621 122.985 229.621C122.299 229.621 121.733 230.181 121.733 230.861C121.774 231.541 122.339 232.1 122.985 232.1Z" fill="#240100"/>
<path d="M125.893 232.1C126.579 232.1 127.145 231.541 127.145 230.861C127.145 230.181 126.579 229.621 125.893 229.621C125.206 229.621 124.641 230.181 124.641 230.861C124.641 231.541 125.206 232.1 125.893 232.1Z" fill="#240100"/>
<path d="M128.76 232.1C129.446 232.1 130.012 231.541 130.012 230.861C130.012 230.181 129.446 229.621 128.76 229.621C128.073 229.621 127.508 230.181 127.508 230.861C127.548 231.541 128.073 232.1 128.76 232.1Z" fill="#240100"/>
<path d="M131.627 232.1C132.314 232.1 132.879 231.541 132.879 230.861C132.879 230.181 132.314 229.621 131.627 229.621C130.941 229.621 130.375 230.181 130.375 230.861C130.416 231.541 130.941 232.1 131.627 232.1Z" fill="#240100"/>
<path d="M122.985 234.94C123.672 234.94 124.237 234.38 124.237 233.701C124.237 233.021 123.672 232.461 122.985 232.461C122.299 232.461 121.733 233.021 121.733 233.701C121.774 234.42 122.339 234.94 122.985 234.94Z" fill="#240100"/>
<path d="M125.893 234.94C126.579 234.94 127.145 234.38 127.145 233.701C127.145 233.021 126.579 232.461 125.893 232.461C125.206 232.461 124.641 233.021 124.641 233.701C124.641 234.42 125.206 234.94 125.893 234.94Z" fill="#240100"/>
<path d="M128.76 234.94C129.446 234.94 130.012 234.38 130.012 233.701C130.012 233.021 129.446 232.461 128.76 232.461C128.073 232.461 127.508 233.021 127.508 233.701C127.548 234.42 128.073 234.94 128.76 234.94Z" fill="#240100"/>
<path d="M131.627 234.94C132.314 234.94 132.879 234.38 132.879 233.701C132.879 233.021 132.314 232.461 131.627 232.461C130.941 232.461 130.375 233.021 130.375 233.701C130.416 234.42 130.941 234.94 131.627 234.94Z" fill="#240100"/>
<path d="M122.985 238.419C123.672 238.419 124.237 237.859 124.237 237.179C124.237 236.499 123.672 235.939 122.985 235.939C122.299 235.939 121.733 236.499 121.733 237.179C121.774 237.859 122.339 238.419 122.985 238.419Z" fill="#240100"/>
<path d="M125.893 238.419C126.579 238.419 127.145 237.859 127.145 237.179C127.145 236.499 126.579 235.939 125.893 235.939C125.206 235.939 124.641 236.499 124.641 237.179C124.641 237.859 125.206 238.419 125.893 238.419Z" fill="#240100"/>
<path d="M128.76 238.419C129.446 238.419 130.012 237.859 130.012 237.179C130.012 236.499 129.446 235.939 128.76 235.939C128.073 235.939 127.508 236.499 127.508 237.179C127.548 237.859 128.073 238.419 128.76 238.419Z" fill="#240100"/>
<path d="M131.627 238.419C132.314 238.419 132.879 237.859 132.879 237.179C132.879 236.499 132.314 235.939 131.627 235.939C130.941 235.939 130.375 236.499 130.375 237.179C130.416 237.859 130.941 238.419 131.627 238.419Z" fill="#240100"/>
<path d="M122.985 241.259C123.672 241.259 124.237 240.699 124.237 240.019C124.237 239.339 123.672 238.779 122.985 238.779C122.299 238.779 121.733 239.339 121.733 240.019C121.774 240.699 122.339 241.259 122.985 241.259Z" fill="#240100"/>
<path d="M125.893 241.259C126.579 241.259 127.145 240.699 127.145 240.019C127.145 239.339 126.579 238.779 125.893 238.779C125.206 238.779 124.641 239.339 124.641 240.019C124.641 240.699 125.206 241.259 125.893 241.259Z" fill="#240100"/>
<path d="M128.76 241.259C129.446 241.259 130.012 240.699 130.012 240.019C130.012 239.339 129.446 238.779 128.76 238.779C128.073 238.779 127.508 239.339 127.508 240.019C127.548 240.699 128.073 241.259 128.76 241.259Z" fill="#240100"/>
<path d="M131.627 241.259C132.314 241.259 132.879 240.699 132.879 240.019C132.879 239.339 132.314 238.779 131.627 238.779C130.941 238.779 130.375 239.339 130.375 240.019C130.416 240.699 130.941 241.259 131.627 241.259Z" fill="#240100"/>
<path d="M122.985 247.377C123.672 247.377 124.237 246.817 124.237 246.137C124.237 245.457 123.672 244.897 122.985 244.897C122.299 244.897 121.733 245.457 121.733 246.137C121.774 246.817 122.339 247.377 122.985 247.377Z" fill="#240100"/>
<path d="M125.893 247.377C126.579 247.377 127.145 246.817 127.145 246.137C127.145 245.457 126.579 244.897 125.893 244.897C125.206 244.897 124.641 245.457 124.641 246.137C124.641 246.817 125.206 247.377 125.893 247.377Z" fill="#240100"/>
<path d="M128.76 247.377C129.446 247.377 130.012 246.817 130.012 246.137C130.012 245.457 129.446 244.897 128.76 244.897C128.073 244.897 127.508 245.457 127.508 246.137C127.548 246.817 128.073 247.377 128.76 247.377Z" fill="#240100"/>
<path d="M131.627 247.377C132.314 247.377 132.879 246.817 132.879 246.137C132.879 245.457 132.314 244.897 131.627 244.897C130.941 244.897 130.375 245.457 130.375 246.137C130.416 246.817 130.941 247.377 131.627 247.377Z" fill="#240100"/>
<path d="M122.985 250.216C123.672 250.216 124.237 249.656 124.237 248.976C124.237 248.296 123.672 247.736 122.985 247.736C122.299 247.736 121.733 248.296 121.733 248.976C121.774 249.656 122.339 250.216 122.985 250.216Z" fill="#240100"/>
<path d="M125.893 250.216C126.579 250.216 127.145 249.656 127.145 248.976C127.145 248.296 126.579 247.736 125.893 247.736C125.206 247.736 124.641 248.296 124.641 248.976C124.641 249.656 125.206 250.216 125.893 250.216Z" fill="#240100"/>
<path d="M128.76 250.216C129.446 250.216 130.012 249.656 130.012 248.976C130.012 248.296 129.446 247.736 128.76 247.736C128.073 247.736 127.508 248.296 127.508 248.976C127.548 249.656 128.073 250.216 128.76 250.216Z" fill="#240100"/>
<path d="M131.627 250.216C132.314 250.216 132.879 249.656 132.879 248.976C132.879 248.296 132.314 247.736 131.627 247.736C130.941 247.736 130.375 248.296 130.375 248.976C130.416 249.656 130.941 250.216 131.627 250.216Z" fill="#240100"/>
<path d="M122.985 253.495C123.672 253.495 124.237 252.935 124.237 252.255C124.237 251.575 123.672 251.016 122.985 251.016C122.299 251.016 121.733 251.575 121.733 252.255C121.774 252.935 122.339 253.495 122.985 253.495Z" fill="#240100"/>
<path d="M125.893 253.495C126.579 253.495 127.145 252.935 127.145 252.255C127.145 251.575 126.579 251.016 125.893 251.016C125.206 251.016 124.641 251.575 124.641 252.255C124.641 252.935 125.206 253.495 125.893 253.495Z" fill="#240100"/>
<path d="M128.76 253.495C129.446 253.495 130.012 252.935 130.012 252.255C130.012 251.575 129.446 251.016 128.76 251.016C128.073 251.016 127.508 251.575 127.508 252.255C127.548 252.935 128.073 253.495 128.76 253.495Z" fill="#240100"/>
<path d="M131.627 253.495C132.314 253.495 132.879 252.935 132.879 252.255C132.879 251.575 132.314 251.016 131.627 251.016C130.941 251.016 130.375 251.575 130.375 252.255C130.416 252.935 130.941 253.495 131.627 253.495Z" fill="#240100"/>
<path d="M122.985 256.534C123.672 256.534 124.237 255.974 124.237 255.294C124.237 254.615 123.672 254.055 122.985 254.055C122.299 254.055 121.733 254.615 121.733 255.294C121.774 255.974 122.339 256.534 122.985 256.534Z" fill="#240100"/>
<path d="M125.893 256.534C126.579 256.534 127.145 255.974 127.145 255.294C127.145 254.615 126.579 254.055 125.893 254.055C125.206 254.055 124.641 254.615 124.641 255.294C124.641 255.974 125.206 256.534 125.893 256.534Z" fill="#240100"/>
<path d="M128.76 256.534C129.446 256.534 130.012 255.974 130.012 255.294C130.012 254.615 129.446 254.055 128.76 254.055C128.073 254.055 127.508 254.615 127.508 255.294C127.548 255.974 128.073 256.534 128.76 256.534Z" fill="#240100"/>
<path d="M131.627 256.534C132.314 256.534 132.879 255.974 132.879 255.294C132.879 254.615 132.314 254.055 131.627 254.055C130.941 254.055 130.375 254.615 130.375 255.294C130.416 255.974 130.941 256.534 131.627 256.534Z" fill="#240100"/>
<path d="M122.985 262.652C123.672 262.652 124.237 262.092 124.237 261.413C124.237 260.733 123.672 260.173 122.985 260.173C122.299 260.173 121.733 260.733 121.733 261.413C121.774 262.092 122.339 262.652 122.985 262.652Z" fill="#240100"/>
<path d="M125.893 262.652C126.579 262.652 127.145 262.092 127.145 261.413C127.145 260.733 126.579 260.173 125.893 260.173C125.206 260.173 124.641 260.733 124.641 261.413C124.641 262.092 125.206 262.652 125.893 262.652Z" fill="#240100"/>
<path d="M128.76 262.652C129.446 262.652 130.012 262.092 130.012 261.413C130.012 260.733 129.446 260.173 128.76 260.173C128.073 260.173 127.508 260.733 127.508 261.413C127.548 262.092 128.073 262.652 128.76 262.652Z" fill="#240100"/>
<path d="M131.627 262.652C132.314 262.652 132.879 262.092 132.879 261.413C132.879 260.733 132.314 260.173 131.627 260.173C130.941 260.173 130.375 260.733 130.375 261.413C130.416 262.092 130.941 262.652 131.627 262.652Z" fill="#240100"/>
<path d="M122.985 265.492C123.672 265.492 124.237 264.932 124.237 264.252C124.237 263.573 123.672 263.013 122.985 263.013C122.299 263.013 121.733 263.573 121.733 264.252C121.774 264.932 122.339 265.492 122.985 265.492Z" fill="#240100"/>
<path d="M125.893 265.492C126.579 265.492 127.145 264.932 127.145 264.252C127.145 263.573 126.579 263.013 125.893 263.013C125.206 263.013 124.641 263.573 124.641 264.252C124.641 264.932 125.206 265.492 125.893 265.492Z" fill="#240100"/>
<path d="M128.76 265.492C129.446 265.492 130.012 264.932 130.012 264.252C130.012 263.573 129.446 263.013 128.76 263.013C128.073 263.013 127.508 263.573 127.508 264.252C127.548 264.932 128.073 265.492 128.76 265.492Z" fill="#240100"/>
<path d="M131.627 265.492C132.314 265.492 132.879 264.932 132.879 264.252C132.879 263.573 132.314 263.013 131.627 263.013C130.941 263.013 130.375 263.573 130.375 264.252C130.416 264.932 130.941 265.492 131.627 265.492Z" fill="#240100"/>
<path d="M122.985 268.77C123.672 268.77 124.237 268.21 124.237 267.531C124.237 266.851 123.672 266.291 122.985 266.291C122.299 266.291 121.733 266.851 121.733 267.531C121.774 268.21 122.339 268.77 122.985 268.77Z" fill="#240100"/>
<path d="M125.893 268.77C126.579 268.77 127.145 268.21 127.145 267.531C127.145 266.851 126.579 266.291 125.893 266.291C125.206 266.291 124.641 266.851 124.641 267.531C124.641 268.21 125.206 268.77 125.893 268.77Z" fill="#240100"/>
<path d="M128.76 268.77C129.446 268.77 130.012 268.21 130.012 267.531C130.012 266.851 129.446 266.291 128.76 266.291C128.073 266.291 127.508 266.851 127.508 267.531C127.548 268.21 128.073 268.77 128.76 268.77Z" fill="#240100"/>
<path d="M131.627 268.77C132.314 268.77 132.879 268.21 132.879 267.531C132.879 266.851 132.314 266.291 131.627 266.291C130.941 266.291 130.375 266.851 130.375 267.531C130.416 268.21 130.941 268.77 131.627 268.77Z" fill="#240100"/>
<path d="M122.985 271.61C123.672 271.61 124.237 271.05 124.237 270.371C124.237 269.691 123.672 269.131 122.985 269.131C122.299 269.131 121.733 269.691 121.733 270.371C121.774 271.05 122.339 271.61 122.985 271.61Z" fill="#240100"/>
<path d="M125.893 271.61C126.579 271.61 127.145 271.05 127.145 270.371C127.145 269.691 126.579 269.131 125.893 269.131C125.206 269.131 124.641 269.691 124.641 270.371C124.641 271.05 125.206 271.61 125.893 271.61Z" fill="#240100"/>
<path d="M128.76 271.61C129.446 271.61 130.012 271.05 130.012 270.371C130.012 269.691 129.446 269.131 128.76 269.131C128.073 269.131 127.508 269.691 127.508 270.371C127.548 271.05 128.073 271.61 128.76 271.61Z" fill="#240100"/>
<path d="M131.627 271.61C132.314 271.61 132.879 271.05 132.879 270.371C132.879 269.691 132.314 269.131 131.627 269.131C130.941 269.131 130.375 269.691 130.375 270.371C130.416 271.05 130.941 271.61 131.627 271.61Z" fill="#240100"/>
<path d="M118.059 274.65C111.678 274.65 101.825 273.41 94.8391 266.292C79.8171 251.016 92.1739 224.143 92.7796 222.904C94.0315 220.464 94.8391 219.225 96.2928 217.185C97.1005 216.185 97.9485 214.746 99.1599 212.906C106.146 202.109 111.921 189.913 116.04 176.676C116.04 176.476 116.443 176.276 116.645 176.276C116.847 176.276 117.049 176.676 117.049 176.876C112.93 190.153 107.156 202.549 100.169 213.346C98.9177 215.186 97.9081 216.585 97.3024 217.625C95.8486 219.665 95.041 220.664 94.0315 223.104C93.8295 223.304 81.2708 250.576 95.889 265.252C104.935 274.41 119.109 273.61 123.227 273.21C123.429 273.21 123.833 273.41 123.833 273.61C123.833 273.81 123.631 274.21 123.429 274.21C121.976 274.65 120.32 274.65 118.059 274.65Z" fill="#240100"/>
<path d="M126.095 272.21H121.976V276.289H126.095V272.21Z" fill="#240100"/>
<path d="M62.7356 41.6733C73.8406 77.5035 83.2899 86.9009 86.1974 89.5402C90.1145 92.7793 98.312 99.7374 106.55 97.6979C111.073 96.4583 112.082 93.4191 117.857 92.4194C125.045 90.9798 127.306 95.4585 133.283 94.4588C142.934 93.0192 150.768 79.7828 148.103 74.3043C146.851 71.6651 143.782 72.4648 141.924 69.0258C139.259 64.3471 142.934 60.0682 140.471 57.429C137.603 54.1898 130.375 58.8686 127.508 55.5895C125.045 52.9502 128.962 48.2715 126.498 44.7924C124.035 41.5533 118.907 44.5925 114.142 41.1134C110.225 38.0742 111.476 34.3952 107.963 31.9559C104.248 29.5166 99.7253 31.556 96.4544 32.1559C79.8171 35.195 64.7951 8.52232 59.0205 11.6015C54.1343 13.8009 60.2723 33.7554 62.7356 41.6733Z" fill="#240100"/>
<path d="M104.894 96.658C97.7062 96.658 90.9221 90.9396 87.4089 88.1004C82.8861 84.4214 73.8406 73.2244 63.7452 40.0335L64.149 39.8335L63.7452 40.0335C59.4243 25.9973 55.7092 11.5213 60.03 9.08192C62.6952 7.64231 66.4103 11.1214 71.5388 16C78.5249 22.5182 87.9742 31.4758 97.6658 29.6363C98.2716 29.4364 98.9177 29.4364 99.7253 29.2364C102.592 28.4366 106.308 27.5969 109.377 29.6363C111.436 30.876 112.042 32.4755 112.647 34.1151C113.253 35.7546 113.899 37.3542 115.717 38.5939C117.978 40.4334 120.441 40.4334 122.501 40.4334C124.762 40.4334 126.62 40.6333 128.033 42.4728C129.487 44.3123 129.043 46.5517 128.639 48.5911C128.235 50.4306 128.033 52.0702 129.043 53.2699C130.294 54.7095 132.556 54.2696 135.019 54.0696C137.684 53.6697 140.349 53.4698 142.005 55.0694C143.257 56.509 143.015 58.3085 142.813 60.148C142.611 62.1874 142.207 64.4268 143.62 66.6662C144.63 68.3058 145.68 68.9056 146.891 69.5054C147.901 70.1053 149.153 70.5052 149.758 71.9448C151.01 74.1842 150.364 78.0631 148.305 81.7021C146.043 86.1809 140.915 91.8993 134.534 92.6991C131.667 93.099 129.406 92.2992 127.346 91.6994C125.085 90.8996 122.824 90.0598 119.109 90.6996C116.241 91.2995 114.586 92.3392 112.93 93.5389C111.476 94.5386 110.063 95.5783 108.004 95.9782C107.156 96.4581 106.146 96.658 104.894 96.658ZM61.3222 9.92169C61.1203 9.92169 60.7165 9.92169 60.5146 10.1216C56.1938 12.361 62.5741 32.9154 64.6335 39.8335C74.729 72.6246 83.5726 83.8215 88.0954 87.3006C92.0124 90.5397 100.008 97.2978 107.842 95.2584C109.902 94.8585 111.113 93.8188 112.567 92.8191C114.222 91.5794 116.08 90.3797 119.149 89.7799C123.066 88.9801 125.529 89.9798 127.993 90.7796C130.052 91.5794 131.91 92.2192 134.575 91.7794C140.551 90.7796 145.276 85.4611 147.537 81.1822C149.395 77.7032 150.001 74.2641 148.991 72.2247C148.385 71.225 147.537 70.5851 146.528 70.1852C145.276 69.5854 143.863 68.9456 142.813 66.9461C141.359 64.3068 141.803 61.8675 142.005 59.8281C142.207 57.9886 142.409 56.5889 141.399 55.5492C140.147 54.1096 137.886 54.5495 135.423 54.7495C132.758 55.1493 130.092 55.3493 128.639 53.7497C127.185 52.1102 127.629 50.2707 128.033 48.2712C128.437 46.4317 128.841 44.5922 127.629 42.9927C126.62 41.5531 124.964 41.5531 122.904 41.3531C120.643 41.3531 117.978 41.1532 115.515 39.3137C113.455 37.6741 112.849 35.8346 112.244 34.2351C111.638 32.5955 110.992 31.1959 109.377 30.1562C106.711 28.3167 103.4 29.1564 100.331 29.9562C99.5234 30.1562 98.8773 30.3561 98.2716 30.3561C87.9742 32.1956 78.323 23.2381 71.3369 16.5199C66.8545 13.2008 63.5836 9.92169 61.3222 9.92169Z" fill="#240100"/>
<path d="M80.8671 200.309C80.4633 204.788 76.5463 208.067 72.2254 208.267C68.9545 208.267 65.8451 206.627 63.9875 203.588C64.1895 201.949 64.1895 200.349 64.3914 198.71C64.3914 197.27 64.5933 195.87 64.5933 194.631C64.9971 194.231 67.8642 190.752 72.1851 190.952C76.7482 191.352 81.271 195.43 80.8671 200.309Z" fill="#F7A39C"/>
<path d="M80.6247 197.87C75.4962 197.27 70.3273 196.63 65.1989 196.23C60.878 186.233 56.1533 172.597 54.4977 156.321C53.69 149.203 53.69 142.485 53.892 136.566C63.1394 138.606 72.5887 140.445 81.8765 142.485C83.1284 153.082 83.5322 165.279 82.6842 178.955C82.0784 185.473 81.4727 191.991 80.6247 197.87Z" fill="#F7A39C"/>
<path d="M80.423 201.949C77.354 214.786 74.6484 228.422 72.1851 242.898C70.7314 252.455 69.5199 261.853 68.47 270.81C68.47 271.41 68.2681 272.05 68.2681 272.65C68.2681 272.85 68.2681 273.05 68.2681 273.25C68.0662 273.25 68.0662 273.25 67.8643 273.25C66.0067 273.45 64.1491 273.65 62.332 273.85C62.13 272.41 62.13 270.81 61.9281 268.971C61.5243 266.132 61.1205 262.453 60.6763 258.574C57.6073 238.219 54.296 231.701 56.1535 221.304C56.9612 217.025 58.6168 210.907 63.7453 203.789C63.9472 203.589 63.9472 203.389 64.1491 203.389C69.7622 202.789 75.0926 202.349 80.423 201.949Z" fill="#F7A39C"/>
<path d="M89.9125 289.925H59.2628C58.8589 288.486 58.657 286.446 59.4647 284.207C59.6666 283.407 60.0704 282.767 60.2723 282.567C60.878 281.328 61.7261 279.528 62.3318 276.649C62.5337 275.849 62.7356 274.81 62.7356 273.81C64.5932 273.61 66.4507 273.41 68.2679 273.21C68.4698 273.21 68.4698 273.21 68.6717 273.21C74.204 282.367 79.171 284.607 82.8457 285.007C85.1071 285.207 89.0241 284.607 90.2356 286.446C90.5183 287.486 90.3164 288.726 89.9125 289.925Z" fill="#F7A39C"/>
<path d="M69.3178 271.01C69.1159 271.41 68.914 272.01 68.7121 272.65C68.5102 272.85 68.5102 273.05 68.3083 273.25C67.9045 273.849 67.2987 274.489 66.4507 275.089C65.1989 276.089 63.5836 276.529 62.3318 276.729C62.5337 275.929 62.7356 274.889 62.7356 273.889C62.5337 272.45 62.5337 270.85 62.3318 269.011C64.5932 269.611 66.6526 270.25 68.914 270.85C68.914 270.77 69.1159 271.01 69.3178 271.01Z" fill="#240100"/>
<path d="M84.7437 195.231C80.2209 220.304 75.9001 245.337 71.3773 270.371C70.5697 270.97 65.1989 275.049 58.8186 273.61C56.5572 273.01 54.6996 271.77 53.6901 270.97C52.0344 258.534 51.4287 241.858 55.1438 222.704C56.7995 214.346 59.0608 207.028 61.3222 200.71C57.4052 189.113 55.5476 179.116 54.5381 172.197C52.2767 155.482 49.6115 134.528 61.5241 116.213C65.4412 110.094 69.9639 106.016 73.0329 103.576C76.5462 114.373 79.8171 125.37 83.3303 136.167C84.3398 141.046 85.3898 146.364 85.9955 152.043C87.8531 168.758 86.6012 183.434 84.7437 195.231Z" fill="#FF6665"/>
<path d="M90.3164 290.525H59.4647C58.6571 290.525 57.8091 289.725 57.8091 288.886C57.8091 288.086 58.6167 287.246 59.4647 287.246H90.3164C91.1241 287.246 91.9721 288.046 91.9721 288.886C91.9721 289.725 91.1241 290.525 90.3164 290.525Z" fill="#FF6665"/>
<path d="M85.3899 289.325C81.6748 289.325 77.7981 289.325 74.083 289.325C74.083 286.286 73.8811 283.207 73.8811 280.168C74.6887 280.368 76.1425 280.768 78 281.168C86.036 283.007 88.9031 283.407 90.7607 285.846C90.9626 286.246 91.3664 286.846 91.5683 287.886C89.4685 288.286 87.4494 288.726 85.3899 289.325Z" fill="#FF6665"/>
<path d="M51.4287 203.189C51.0248 207.668 47.1078 210.947 42.787 211.147C39.516 211.147 36.4066 209.507 34.5491 206.468C34.751 204.829 34.751 203.229 34.9529 201.589C34.9529 200.15 35.1548 198.75 35.1548 197.511C35.5586 197.111 38.4257 193.632 42.7466 193.832C47.3097 194.031 51.8729 198.07 51.4287 203.189Z" fill="#F7A39C"/>
<path d="M51.2267 200.549C46.0983 199.95 40.9294 199.31 35.8009 198.91C31.4801 188.913 26.7554 175.276 25.0997 159.001C24.2921 151.883 24.2921 145.164 24.494 139.246C33.7414 141.286 43.1908 143.125 52.4786 145.164C53.7304 155.762 54.1342 167.958 53.2862 181.635C52.8824 188.313 52.2767 194.631 51.2267 200.549Z" fill="#F7A39C"/>
<path d="M51.2269 204.588C48.1579 217.424 45.4524 231.061 42.9891 245.537C41.5353 255.094 40.3239 264.492 39.2739 273.449C39.2739 274.049 39.072 274.689 39.072 275.289C39.072 275.489 39.072 275.688 39.072 275.888C38.8701 275.888 38.8701 275.888 38.6682 275.888C36.8106 276.088 34.9531 276.288 33.1359 276.488C32.934 275.049 32.934 273.449 32.7321 271.61C32.3283 268.77 31.9245 265.091 31.4803 261.212C28.4112 240.858 25.0999 234.34 26.9575 223.943C27.7651 219.664 29.4208 213.545 34.5493 206.427C34.7512 206.227 34.7512 206.028 34.9531 206.028C40.3239 205.428 45.8966 205.028 51.2269 204.588Z" fill="#F7A39C"/>
<path d="M60.6761 292.564H30.0667C29.6629 291.124 29.461 289.085 30.2686 286.846C30.4705 286.046 30.8744 285.406 31.0763 285.206C31.682 283.966 32.53 282.167 33.1357 279.288C33.3376 278.488 33.5396 277.448 33.5396 276.448C35.3971 276.249 37.2547 276.049 39.0719 275.849C39.2738 275.849 39.2738 275.849 39.4757 275.849C45.008 285.006 49.9749 287.246 53.6497 287.645C55.9111 287.845 59.8281 287.246 61.0396 289.085C61.3222 290.125 61.1203 291.564 60.6761 292.564Z" fill="#F7A39C"/>
<path d="M39.9199 273.65C39.718 274.05 39.5161 274.65 39.3142 275.289C39.1123 275.489 39.1123 275.689 38.9103 275.889C38.5065 276.489 37.9008 277.129 37.0528 277.729C35.8009 278.728 34.1857 279.168 32.9338 279.368C33.1357 278.569 33.3377 277.529 33.3377 276.529C33.1357 275.089 33.1357 273.49 32.9338 271.65C35.1952 272.25 37.2547 272.89 39.5161 273.49C39.718 273.45 39.9199 273.65 39.9199 273.65Z" fill="#240100"/>
<path d="M24.2922 273.649C25.3017 274.449 27.1593 275.689 29.4206 276.288C35.801 277.928 41.1314 273.649 41.9794 273.049C46.5021 247.976 51.0249 222.943 55.3458 197.87C54.9419 180.355 54.5381 162.639 54.0939 145.124C54.0939 143.085 53.892 140.845 53.892 138.806C50.3788 128.009 47.1079 117.212 43.5947 106.615C43.5947 106.415 43.5947 106.415 43.3927 106.215C42.3832 107.015 40.9295 108.254 39.4757 109.694C37.0124 112.133 34.3472 114.972 31.8839 118.851C27.765 125.17 25.5036 131.888 24.2922 138.406C22.0308 151.043 23.6864 163.879 25.0998 174.876C25.9074 181.794 27.765 191.791 31.8839 203.388C29.4206 209.907 27.3612 217.225 25.7055 225.382C22.0308 244.537 22.6365 261.213 24.2922 273.649Z" fill="#FF6665"/>
<path d="M61.1204 293.204H30.2687C29.4611 293.204 28.613 292.404 28.613 291.564C28.613 290.725 29.4207 289.925 30.2687 289.925H61.1204C61.928 289.925 62.776 290.725 62.776 291.564C62.776 292.404 61.928 293.204 61.1204 293.204Z" fill="#FF6665"/>
<path d="M56.1533 291.964C52.4382 291.964 48.5616 291.964 44.8464 291.964C44.8464 288.925 44.6445 285.846 44.6445 282.807C45.4522 283.007 46.9059 283.406 48.7635 283.806C56.3552 285.446 59.4646 285.646 61.3222 288.085C61.726 288.485 62.1298 289.325 62.574 290.525C60.2723 290.964 58.2128 291.364 56.1533 291.964Z" fill="#FF6665"/>
<path d="M75.6983 63.9068C80.4229 77.1431 85.1476 90.3795 89.8723 103.616C93.1432 101.576 96.2526 99.3371 99.5235 97.2976C98.7159 91.8191 97.4641 85.5009 95.4046 78.7827C95.0008 77.543 94.5969 76.3434 94.1527 75.1037C93.7489 73.4642 93.1432 71.8646 92.4971 70.225C91.0433 66.1462 89.4281 62.4672 87.7724 59.0281C84.2592 52.9098 78.3231 51.2702 75.8598 52.9098C73.8407 54.1094 73.235 58.9881 75.6983 63.9068Z" fill="#F7A39C"/>
<path d="M88.2571 76.903C90.7204 77.5028 93.1837 78.1426 95.6469 78.7425C95.2431 77.5028 94.8393 76.3031 94.3951 75.0635C92.376 75.5034 90.3166 76.3031 88.2571 76.903Z" fill="#240100"/>
<path d="M26.7556 139.446C29.2189 141.086 30.6726 141.285 31.6822 140.886C32.4898 140.686 32.4898 140.286 33.3378 140.086C35.3973 139.486 36.6088 141.725 40.122 143.325C43.191 144.765 43.3929 143.725 48.158 145.764C49.1675 146.164 50.4193 146.764 52.075 146.764C53.7306 146.964 54.9421 146.564 55.7901 146.164C55.992 146.164 55.992 146.164 56.1939 146.164C61.5243 144.725 63.18 146.964 68.5508 145.164C70.8121 144.365 71.216 143.925 72.8716 143.725C75.133 143.725 75.9406 144.525 78.202 144.964C79.2115 145.164 80.4634 145.164 82.119 144.964C82.119 142.125 82.119 138.246 81.5133 133.768C80.7057 127.049 79.05 121.531 78.0001 118.892C77.5963 117.652 77.5963 117.452 77.1925 116.852C76.1829 113.813 76.1829 110.734 76.5867 107.495C76.9906 104.016 78.2424 100.377 79.05 96.0978C80.3019 90.8193 81.1095 84.701 82.119 79.1825C82.9267 73.464 83.9766 68.3854 85.39 64.7064C85.5919 63.9066 85.7938 63.0669 85.9957 62.2671C86.6014 59.2279 86.6014 55.9488 84.9861 53.3095C81.4729 50.4703 76.5464 51.2701 73.0735 48.031L72.8716 47.831C69.3584 47.0312 66.2894 47.0312 64.2299 47.0312C53.9326 47.0312 53.7306 50.2704 46.9465 48.8707C42.8276 48.071 40.5662 47.4311 37.6991 48.6708C36.6895 49.0707 33.782 50.3104 32.1668 56.1887V56.3887C33.6205 62.707 35.0339 69.0252 36.8914 75.7434C39.5566 85.9406 42.666 95.698 45.7351 104.855C45.937 105.655 46.1389 106.295 46.5427 107.095C46.3408 107.295 45.937 107.495 45.7351 107.695C44.4832 108.494 43.2718 109.534 41.6161 110.734C39.1528 113.173 36.4876 116.012 34.0243 119.891C30.4707 126.01 28.0075 132.728 26.7556 139.446Z" fill="#F7A39C"/>
<path d="M79.4134 81.1823C83.8554 81.1823 87.4494 77.6232 87.4494 73.2244C87.4494 68.8256 83.8554 65.2666 79.4134 65.2666C74.9714 65.2666 71.3774 68.8256 71.3774 73.2244C71.3774 77.6232 74.9714 81.1823 79.4134 81.1823Z" fill="#F7A39C"/>
<path d="M79.4134 81.6219C79.2115 81.6219 79.0096 81.6219 78.6058 81.6219C75.9406 81.422 73.4773 79.9824 72.2255 77.743C72.0236 77.543 72.2255 77.1431 72.4274 77.1431C72.6293 76.9432 73.0331 77.1431 73.0331 77.3431C74.285 79.3825 76.304 80.5822 78.8077 80.8221C80.8672 81.0221 82.7247 80.4222 84.1381 79.1826C85.5515 77.9429 86.6014 76.1434 86.8033 74.104C87.0052 72.4644 86.3995 70.6249 85.3496 69.2253C85.1477 69.0254 85.1477 68.6255 85.5515 68.6255C85.7534 68.4255 86.1572 68.4255 86.1572 68.8254C87.409 70.465 87.8129 72.5044 87.6109 74.3039C87.409 76.5433 86.3591 78.5827 84.7438 80.0224C83.3305 80.9821 81.271 81.6219 79.4134 81.6219Z" fill="#240100"/>
<path d="M54.7401 79.1422C59.1821 79.1422 62.7761 75.5832 62.7761 71.1844C62.7761 66.7856 59.1821 63.2266 54.7401 63.2266C50.2981 63.2266 46.7041 66.7856 46.7041 71.1844C46.7041 75.6232 50.2981 79.1422 54.7401 79.1422Z" fill="#F7A39C"/>
<path d="M54.7401 79.5825C54.5382 79.5825 54.3363 79.5825 54.1344 79.5825C51.0654 79.3825 48.3598 77.543 47.1483 74.7038C46.9464 74.5039 47.1483 74.104 47.3502 74.104C47.5521 73.904 47.956 74.104 47.956 74.3039C48.9655 76.7432 51.4692 78.3828 54.1344 78.5827C57.6476 78.9826 60.9185 76.7432 61.9684 73.3042C61.9684 73.1042 62.3723 72.9043 62.5742 72.9043C62.7761 72.9043 62.978 73.3042 62.978 73.5041C61.9281 77.1431 58.4149 79.5825 54.7401 79.5825Z" fill="#240100"/>
<path d="M32.7319 56.1491C50.6211 58.1886 68.7121 60.228 86.6013 62.2674C87.4089 62.2674 88.2569 62.4674 89.0645 62.4674C89.2665 60.4279 89.0645 57.3888 87.207 54.7095C86.8032 54.1097 86.1974 53.7098 85.7532 53.07C82.24 50.2307 77.3134 51.0305 73.8406 47.7914C73.8406 47.7914 73.6387 47.7914 73.6387 47.5915C72.3869 46.3518 71.7811 44.9522 71.5792 43.7125C71.1754 42.073 71.3773 40.6733 71.3773 40.2335C71.5792 37.9941 72.3869 36.3545 73.2349 35.3548C70.7716 32.3156 68.914 30.4761 67.7026 29.2365C67.5007 29.0365 67.0968 28.8366 66.8949 28.6366C64.8355 27.197 63.1798 26.9971 62.1703 26.9971C61.3626 28.6366 59.9089 30.876 58.2532 33.7152C53.1247 42.8727 53.1247 43.7125 51.671 44.7122C46.9463 48.1913 42.4236 44.7122 37.6989 48.3912C34.5895 50.8706 33.3377 53.9097 32.7319 56.1491Z" fill="#F7A39C"/>
<path d="M63.7856 49.6303C64.1895 50.4301 65.0375 50.87 65.6432 50.63C66.6528 50.4301 67.2989 49.1904 67.2989 49.1904L63.7856 49.6303Z" fill="#240100"/>
<path d="M67.7026 52.2695C67.9045 52.4695 68.3084 52.6694 68.7122 52.8694C70.1659 53.6692 71.1755 53.6692 72.2254 53.6692C75.2944 53.4692 78.2019 53.0693 79.0095 53.0693C76.7482 53.0693 74.6887 52.8694 72.4273 52.8694L67.7026 52.2695Z" fill="#240100"/>
<path d="M63.5837 52.0702C63.1799 52.2702 62.7761 52.2702 62.1299 52.4701C59.8686 52.87 58.011 52.6701 56.7995 52.4701C52.2768 51.6703 48.1578 50.6306 46.7041 50.4307C49.975 50.8306 53.2863 51.2304 56.5573 51.6703L63.5837 52.0702Z" fill="#240100"/>
<path d="M26.3518 141.885C27.6036 140.885 28.6132 140.645 29.2189 140.645C30.2285 140.645 31.0765 141.245 31.6822 140.645C31.8841 140.445 32.2879 140.245 32.934 140.046C33.1359 140.046 33.1359 139.846 33.3379 139.846C35.3973 139.246 36.6088 141.485 40.122 143.085C43.191 144.724 43.3929 143.485 48.158 145.524C49.1675 145.924 50.4194 146.524 52.075 146.524C53.7307 146.724 54.9421 146.324 55.7901 145.924C61.5647 144.284 63.18 146.524 68.5508 144.924C70.6102 144.324 71.216 143.685 72.8716 143.485C75.133 143.485 75.9406 144.284 78.202 144.724C79.2116 144.924 80.4634 144.924 82.1191 144.724C82.7248 144.724 83.3709 144.524 84.1785 144.324C83.169 138.006 82.1191 131.488 80.6653 124.57C79.4135 118.651 78.0001 112.973 76.5464 107.454C76.3445 106.855 76.3445 106.455 76.1426 106.015C66.0471 105.615 55.7901 105.015 45.6947 104.575C42.8276 107.015 39.3144 110.294 36.2453 114.572C29.017 125.17 26.9575 135.967 26.3518 141.885Z" fill="#FF6665"/>
<path d="M38.7086 105.855C44.039 107.494 51.2674 109.094 60.111 109.334C67.945 109.534 74.4869 108.534 79.6558 107.494C80.6653 100.576 81.7152 93.6581 82.7248 86.74C83.7343 85.7403 87.6514 82.2612 88.4994 76.5428C89.1051 72.8638 88.0956 70.0246 87.4898 68.385C88.0956 66.5455 88.9436 64.706 89.5493 62.6666C89.5493 61.227 89.5493 58.5877 88.2975 56.1484C84.7842 49.6301 76.3848 49.4302 75.9406 49.4302C75.7387 50.4299 74.285 57.1881 69.3584 58.9876C63.8261 61.027 54.7402 55.9484 51.4693 45.1514C50.8635 45.1514 49.8136 45.1514 48.6022 45.1514C45.5331 45.3513 35.8415 46.1511 32.7725 52.0695C32.1668 53.0692 31.5207 54.9087 31.9649 57.9879C34.1859 73.8635 36.4472 89.9391 38.7086 105.855Z" fill="#5A78EC"/>
<path d="M63.5838 142.885C63.3818 142.885 62.978 142.685 62.978 142.285L64.2299 109.694C64.2299 109.494 64.4318 109.294 64.8356 109.294C65.0375 109.294 65.2394 109.494 65.2394 109.894L63.9876 142.485C63.9876 142.685 63.7857 142.885 63.5838 142.885Z" fill="#240100"/>
<path d="M58.0111 136.167C57.6073 136.167 57.4054 135.967 57.6073 135.567L60.4744 111.534C60.4744 111.334 60.6763 111.134 61.0801 111.134C61.282 111.134 61.4839 111.334 61.4839 111.734L58.6572 135.767C58.4149 135.967 58.213 136.167 58.0111 136.167Z" fill="#240100"/>
<path d="M57.2033 114.613C58.0109 114.613 58.657 113.973 58.657 113.173C58.657 112.373 58.0109 111.733 57.2033 111.733C56.3956 111.733 55.7495 112.373 55.7495 113.173C55.7495 113.973 56.3956 114.613 57.2033 114.613Z" fill="#240100"/>
<path d="M50.6211 100.737C46.7041 100.337 43.0293 99.937 39.1123 99.4971C36.4471 91.9791 34.1857 82.7817 32.732 72.2245C32.1262 67.9457 31.9243 63.8668 31.9243 59.9879C32.1262 53.0698 36.649 48.7909 39.7584 49.1908C42.4236 49.5907 45.0888 53.6696 45.0888 58.9482C46.906 73.0643 48.7635 86.9005 50.6211 100.737Z" fill="#F7A39C"/>
<path d="M86.6014 85.4609C87.2071 87.3004 88.0551 88.94 88.6609 90.7395C78.1616 95.6181 65.6432 100.097 51.025 102.976C47.5118 103.576 44.039 104.216 40.5258 104.616C39.7181 104.016 37.4568 102.176 36.6087 98.6973C36.003 96.258 36.4068 94.0186 36.6087 92.9789C40.5258 91.7392 43.7967 90.9394 45.6543 90.5395C57.1631 87.7003 67.0566 86.8606 79.3731 85.8608C82.8863 85.6609 85.3899 85.4609 86.6014 85.4609Z" fill="#F7A39C"/>
<path d="M50.2174 85.0605C49.8136 86.5002 49.4098 87.8998 48.9656 89.3394C57.8092 94.8179 69.9237 100.536 84.9457 103.376C88.6609 103.975 92.1337 104.375 95.445 104.815C98.514 103.815 100.775 100.936 100.775 98.097C100.775 95.2578 98.9178 93.4183 98.514 93.0184C94.7989 92.0187 91.7299 91.3788 89.8723 90.9789C75.4964 88.3397 68.47 90.579 56.1535 87.1C53.2864 86.3002 51.227 85.4604 50.2174 85.0605Z" fill="#F7A39C"/>
<path d="M84.7437 29.4764C84.138 31.9157 82.6842 33.5553 81.0286 35.3948C80.6248 35.7947 76.9096 39.8735 74.0425 40.0735C73.033 40.0735 71.9831 40.0735 71.9831 40.0735C71.3773 39.8735 70.7312 39.6736 70.1255 39.4736C69.3179 39.0738 63.7452 35.9946 60.4743 30.3161C56.5572 23.1981 55.3458 9.56181 63.5433 3.64343C68.6718 -0.0355648 75.0521 1.00415 77.5154 1.60399C77.7173 1.60399 78.1211 1.80393 78.323 1.80393C78.323 1.80393 79.5748 2.20382 80.7863 2.80366C84.9052 4.8431 86.7628 7.88227 86.7628 7.88227C88.4184 10.7215 88.2165 14.2005 87.5704 17.0398C87.3685 17.6396 87.3685 18.0395 87.1666 18.4794C86.9647 19.0792 86.9647 19.4791 86.7628 19.919C86.359 21.1586 86.1571 21.7585 85.7532 23.598C84.9456 26.6371 85.1475 27.4369 84.7437 29.4764Z" fill="#F7A39C"/>
<path d="M59.1416 14.0405C57.3648 13.6407 55.4669 15.2802 54.9419 17.6796C54.3766 20.0789 55.3861 22.3583 57.1629 22.7582C58.9397 23.1581 60.8376 21.5185 61.3626 19.1192C61.928 16.7198 60.9184 14.4404 59.1416 14.0405Z" fill="#F7A39C"/>
<path d="M57.6071 23.358C57.4052 23.358 57.2033 23.358 57.0014 23.358C55.7495 23.1581 54.74 21.9184 54.3362 20.5188C54.3362 20.3188 54.3362 19.9189 54.74 19.9189C54.9419 19.9189 55.3457 19.9189 55.3457 20.3188C55.5476 21.5585 56.3553 22.1583 57.2033 22.3583C57.6071 22.3583 58.0109 22.3583 58.4551 22.1583C58.657 21.9584 59.0609 22.1583 59.0609 22.3583C59.2628 22.5582 59.0609 22.9581 58.8589 22.9581C58.4147 23.1581 58.0109 23.358 57.6071 23.358Z" fill="#240100"/>
<path d="M54.74 20.119C54.5381 20.119 54.3362 19.9191 54.3362 19.7191C54.3362 19.1193 54.3362 18.4795 54.3362 18.0796C54.3362 17.8796 54.74 17.6797 54.9419 17.6797C55.1438 17.6797 55.3457 18.0796 55.3457 18.2795C55.3457 18.6794 55.3457 19.2792 55.3457 19.7191C55.3457 19.9191 55.1438 20.119 54.74 20.119Z" fill="#240100"/>
<path d="M54.942 17.8796C54.5382 17.6796 54.3363 17.4797 54.5382 17.2797C55.3458 14.8404 57.2034 13.4008 59.2629 13.8007C59.6667 13.8007 60.0705 14.0006 60.5147 14.4005C60.7166 14.6005 60.7166 14.8004 60.5147 15.2003C60.3128 15.4003 60.1109 15.4003 59.7071 15.2003C59.5051 15.0004 59.1013 14.8004 58.8994 14.8004C57.4457 14.4005 56.0323 15.8002 55.3862 17.6396C55.3458 17.6796 55.1439 17.8796 54.942 17.8796Z" fill="#240100"/>
<path d="M58.2129 21.1184C58.011 21.1184 57.8091 20.9185 57.8091 20.7185L57.2034 16.4397C57.2034 16.2397 57.4053 15.8398 57.6072 15.8398C57.8091 15.8398 58.2129 16.0398 58.2129 16.2397L58.8186 20.5186C58.859 20.9185 58.6571 21.1184 58.2129 21.1184C58.4148 21.1184 58.2129 21.1184 58.2129 21.1184Z" fill="#240100"/>
<path d="M58.0111 18.6787C57.8092 18.6787 57.8092 18.6787 57.6072 18.4788C57.4053 18.2788 57.4053 17.8789 57.6072 17.679L58.6168 16.6793C58.8187 16.4793 59.2225 16.4793 59.4244 16.6793C59.6263 16.8792 59.6263 17.2791 59.4244 17.479L58.4149 18.4788C58.213 18.6787 58.213 18.6787 58.0111 18.6787Z" fill="#240100"/>
<path d="M73.235 20.7181C73.033 21.5179 71.9831 21.9578 70.9736 21.7178C69.964 21.5179 69.3179 20.4782 69.5198 19.6784C69.7217 18.8786 70.7717 18.4387 71.7812 18.6787C72.8311 19.0786 73.4369 19.9183 73.235 20.7181Z" fill="#240100"/>
<path d="M67.0566 18.2794C70.3276 17.4796 71.7813 17.8795 72.387 18.6793C72.9928 19.2791 72.7909 20.3188 73.1947 20.5188C73.5985 20.5188 74.2042 19.519 73.8004 18.4793C73.5985 17.8795 72.9928 17.4796 72.9928 17.4796C71.1756 16.04 67.5008 18.0794 67.0566 18.2794Z" fill="#DD706B"/>
<path d="M73.235 20.9181H73.0331C72.8311 20.9181 72.8311 20.7182 72.8311 20.5182C72.8311 20.3183 72.6292 19.9184 72.6292 19.7184C72.0235 18.7187 69.7621 18.2788 67.2988 18.9187C67.0969 18.9187 66.6931 18.9187 66.6931 18.5188C66.6931 18.3188 66.6931 17.9189 67.0969 17.9189C70.1659 17.1191 72.6292 17.519 73.6792 19.1586C73.6792 19.3585 73.8811 19.3585 73.8811 19.5585L74.6887 19.1586C74.8906 18.9586 75.2944 19.1586 75.2944 19.3585C75.4963 19.5585 75.2944 19.9584 75.0925 19.9584L73.6388 20.7582C73.4369 20.9181 73.4369 20.9181 73.235 20.9181Z" fill="#240100"/>
<path d="M85.9956 23.5575C85.9956 24.3573 85.188 25.1971 84.1381 25.1971C83.1285 25.1971 82.2805 24.5972 82.2805 23.5575C82.2805 22.7577 83.0882 21.918 84.1381 21.918C85.1476 22.1579 85.9956 22.7577 85.9956 23.5575Z" fill="#240100"/>
<path d="M79.6152 22.9579C82.6843 21.3183 84.138 21.3183 84.9456 21.9582C85.7533 22.558 85.9552 23.5977 86.1975 23.3978C86.6013 23.3978 86.8032 22.1581 86.3994 21.3583C85.9956 20.7585 85.3898 20.5585 85.1475 20.5585C82.8862 19.9187 80.0191 22.7579 79.6152 22.9579Z" fill="#DD706B"/>
<path d="M86.1975 23.7576C85.9956 23.7576 85.7937 23.5577 85.7937 23.3577C85.5918 23.1578 85.5918 22.9578 85.3899 22.7579C84.3803 21.9581 82.3209 22.158 80.0595 23.5577C79.8576 23.7576 79.4538 23.5577 79.4538 23.3577C79.2518 23.1578 79.4538 22.7579 79.6557 22.7579C82.3209 21.1183 84.9861 20.9184 86.2379 22.158C86.4398 22.358 86.4398 22.358 86.6417 22.5579L87.2474 21.9581C87.4493 21.7581 87.8532 21.7581 88.0551 21.9581C88.257 22.158 88.257 22.5579 88.0551 22.7579L87.0455 23.9975C86.3994 23.7576 86.3994 23.7576 86.1975 23.7576Z" fill="#240100"/>
<path d="M66.4509 14.4003C67.7028 14.2003 69.318 14.2003 71.3775 14.4003C73.0332 14.6002 74.6484 15.0001 75.6983 15.4C75.6983 15.2001 75.6983 15.0001 75.6983 14.6002C75.4964 13.8005 75.2945 13.3606 75.0926 12.9607C73.6389 12.7607 72.6293 12.7607 71.5794 12.7607C69.5199 12.7607 68.9142 12.9607 68.5104 12.9607C67.5009 13.4006 66.8547 14.0004 66.4509 14.4003Z" fill="#240100"/>
<path d="M75.6982 12.9609C75.9001 13.1609 75.9001 13.5608 76.1021 13.9607C76.304 14.7604 76.1021 15.4003 76.1021 15.4003C76.1021 15.4003 75.9001 14.6005 75.9001 14.4005C75.9001 14.0007 75.9001 13.8007 75.6982 13.1609C75.6982 12.9609 75.6982 12.9609 75.4963 12.9609H75.6982Z" fill="#240100"/>
<path d="M88.0551 16.4399C88.0551 17.0398 88.0551 17.4397 87.8532 17.8795C87.2475 17.8795 86.8437 17.8795 86.1976 17.8795C84.34 17.8795 82.9266 18.2794 81.8767 18.4794C81.8767 18.2794 81.8767 18.0795 81.8767 17.6796C82.0786 17.0798 82.2805 16.4399 82.6843 16.04C84.1381 16.04 85.1476 16.04 86.1976 16.04C87.0052 16.4399 87.6513 16.4399 88.0551 16.4399Z" fill="#240100"/>
<path d="M82.0787 16.4395C81.8768 16.6394 81.8768 17.0393 81.6749 17.4392C81.473 18.039 81.473 18.8788 81.6749 18.8788C81.6749 18.8788 81.8768 18.079 82.0787 17.8791C82.0787 17.4792 82.2806 17.2792 82.4825 16.6394C82.4825 16.4395 82.6844 16.4395 82.6844 16.4395H82.0787Z" fill="#240100"/>
<path d="M76.3442 27.0367C76.95 26.8367 77.3538 26.8367 77.798 27.0367C78.2018 27.2366 78.6056 27.2366 79.0498 27.6365C78.4441 27.8365 78.0403 27.8365 77.5961 27.6365C77.1519 27.6365 76.7481 27.4366 76.3442 27.0367Z" fill="#240100"/>
<path d="M76.3444 34.9545C75.9406 34.9545 75.5368 34.9545 75.3349 34.7546C74.5272 34.5546 73.6792 34.3547 73.0735 33.7549C72.8716 33.5549 72.8716 33.355 72.8716 33.155C73.0735 32.9551 73.2754 32.9551 73.4773 32.9551C74.083 33.355 74.7292 33.5549 75.5368 33.7549C75.7387 33.7549 76.1425 33.7549 76.5463 33.7549C76.7482 33.7549 76.9502 33.9548 76.9502 34.3547C76.9502 34.7546 76.7482 34.9545 76.3444 34.9545Z" fill="#240100"/>
<path d="M76.1021 29.5156C74.2041 29.2357 72.5081 29.9555 72.3466 31.0752C72.185 32.1949 73.5984 33.3146 75.5367 33.5545C77.4347 33.8344 79.1307 33.1146 79.2922 31.9949C79.4537 30.9152 78 29.7955 76.1021 29.5156Z" fill="#DD706B"/>
<path d="M80.221 33.5545C78.3634 33.3546 76.7078 32.9547 75.0925 32.3149C73.4368 31.915 71.5793 31.3151 70.1659 30.4754C69.964 30.2754 69.7621 30.0755 69.964 29.8755C70.1659 29.6756 70.3678 29.4756 70.5697 29.6756C72.2254 30.2754 73.8407 30.9153 75.4963 31.5151C77.152 31.915 78.7672 32.3149 80.4229 32.5148C80.6248 32.5148 80.8267 32.9147 80.8267 33.1147C80.6248 33.3546 80.4229 33.5545 80.221 33.5545Z" fill="#240100"/>
<path d="M32.9338 73.6638C33.7415 73.2639 34.3876 73.064 35.1952 72.6641C39.1123 73.064 43.0293 73.6638 46.9059 74.1037C42.3832 75.1034 37.8604 76.3431 33.3377 77.3428L32.9338 73.6638Z" fill="#240100"/>
<path d="M29.0168 74.4634C35.801 74.2635 42.787 74.0635 49.5712 73.8636C48.9654 67.1454 48.1174 60.4273 47.5117 53.7091C46.0983 49.2303 41.5756 46.5911 37.6585 47.5908C34.7914 48.3906 32.5301 50.8299 31.884 54.109C31.0763 60.8272 30.0668 67.7453 29.0168 74.4634Z" fill="#5A78EC"/>
<path d="M79.4133 77.7431C84.9456 77.1433 90.5183 76.5035 96.2929 75.9036C95.2834 71.8247 93.6277 67.346 91.1644 62.6672C90.1549 60.6278 89.105 58.9882 88.2973 57.3887C85.4302 58.8283 82.5227 60.4278 79.6556 61.8674V77.7431H79.4133Z" fill="#5A78EC"/>
<path d="M50.6212 92.1786C52.6807 91.7787 54.5383 91.5787 56.5977 91.1788C56.5977 90.1791 56.3958 89.1394 56.3958 88.1397C55.7901 86.9 54.9421 85.1005 53.1249 83.461C49.854 80.4218 46.1389 79.782 44.6851 79.582C40.5662 80.1819 38.5067 80.5818 38.5067 81.2216C38.5067 81.4215 38.9105 81.6215 39.5162 81.8214C41.1719 81.8214 43.0295 82.0214 44.6447 82.0214C45.6543 82.6212 46.7042 83.261 47.7137 83.8609C46.7042 83.461 45.4524 82.8611 44.4428 82.4213C41.7776 82.6212 38.4663 82.8211 38.4663 83.421C38.4663 84.0208 41.9795 84.6606 44.6447 85.0605C45.4524 85.6604 46.3004 86.5001 47.108 87.1C45.8562 86.7001 44.8466 86.3002 43.5948 85.8603C40.3239 85.8603 38.6682 86.2602 38.6682 86.6601C38.6682 86.86 38.8701 87.06 39.4759 87.4599C40.9296 87.6598 42.1411 87.8598 43.5948 88.0597C44.6043 88.4596 45.8562 88.6595 46.8657 89.0594C41.7372 89.4593 39.0317 90.0592 39.2739 90.499C39.2739 90.8989 41.7372 91.2988 46.4619 91.4988C47.0676 91.4988 47.9156 91.4988 48.9252 91.6987C49.5713 91.5787 50.2174 91.9786 50.6212 92.1786Z" fill="#F7A39C"/>
<path d="M56.5977 88.7398C56.3958 88.7398 56.1938 88.5399 56.1938 88.5399C55.3862 86.9003 54.3363 85.3008 53.1248 84.0611C51.6711 82.6215 49.8539 81.6218 47.7944 80.822C47.5925 80.822 47.3906 80.4221 47.3906 80.2222C47.3906 80.0222 47.7944 79.8223 47.9964 79.8223C50.2577 80.622 52.1153 81.6618 53.7709 83.3013C55.2247 84.7409 56.4361 86.3405 57.2842 88.18C57.4861 88.3799 57.2842 88.7798 57.0822 88.7798C56.5977 88.7398 56.5977 88.7398 56.5977 88.7398Z" fill="#240100"/>
<path d="M49.3693 92.1792C49.3693 92.1792 49.1674 92.1792 49.3693 92.1792C48.9655 92.1792 48.7636 91.9793 48.5617 91.9793C47.754 91.7794 47.1079 91.7794 46.3003 91.7794C38.7085 91.1795 38.7085 90.7796 38.7085 90.1398C38.7085 89.5 38.7085 89.1401 44.4831 88.5003L43.4736 88.3003L39.5565 87.7005C38.7489 87.3006 38.1028 87.1006 38.1028 86.4608C38.1028 85.821 38.9104 85.4611 42.8275 85.2212C38.1028 84.4214 38.1028 83.9815 38.1028 83.3817C38.1028 82.9818 38.3047 82.5819 40.3642 82.3819H39.7584C38.9508 82.182 38.3047 81.982 38.3047 81.3822C38.3047 80.7824 38.7085 80.1426 44.8869 79.3428C44.8869 79.3428 44.8869 79.3428 45.0888 79.3428C46.0984 79.5427 46.9464 79.7427 47.9559 79.9426C48.1578 79.9426 48.3598 80.3425 48.3598 80.5424C48.3598 80.7424 47.9559 80.9423 47.754 80.9423C46.9464 80.7424 46.0984 80.5424 45.0888 80.3425C41.5756 80.7424 40.3642 81.1423 39.7584 81.3422H39.9603L44.8869 81.5422H45.0888L48.1578 83.3817C48.3598 83.5816 48.3598 83.7816 48.3598 83.9815C48.1578 84.1814 47.9559 84.3814 47.754 84.1814L44.4831 82.7418C41.616 82.9418 40.3642 83.1417 39.5565 83.1417C40.1623 83.3417 41.616 83.7416 44.685 84.1415C44.685 84.1415 44.8869 84.1415 44.8869 84.3414L47.3502 86.3808C47.5521 86.5808 47.5521 86.7807 47.5521 86.9807C47.3502 87.1806 47.1483 87.3806 46.9464 87.1806L43.6755 85.941C41.0103 85.941 39.9603 86.1409 39.5565 86.3408C39.5565 86.3408 39.7584 86.5408 39.9603 86.5408L44.2812 87.3406L47.3502 88.1404C47.5521 88.1404 47.754 88.3403 47.754 88.7402C47.754 88.9401 47.5521 89.1401 47.3502 89.1401C43.6351 89.54 41.8179 89.7399 40.9699 89.9399C41.7775 90.1398 43.6351 90.3397 46.7445 90.5397C47.5521 90.5397 48.4001 90.5397 49.2078 90.7396C49.4097 90.7396 49.6116 90.9396 50.0154 90.9396C50.2173 90.9396 50.4192 91.3395 50.4192 91.5394C49.8135 91.9793 49.5712 92.1792 49.3693 92.1792Z" fill="#240100"/>
<path d="M84.7437 91.3793C82.8862 91.1794 81.2305 90.7795 79.4133 90.5795C79.4133 89.5798 79.6152 88.74 79.6152 87.7403C80.0191 86.7406 81.069 85.101 82.4823 83.4615C85.3494 80.8222 88.6608 80.2224 89.8722 79.9824C93.5873 80.3823 95.4045 80.9822 95.4045 81.422C95.4045 81.622 95.2026 81.8219 94.5969 81.8219C93.1431 81.8219 91.5279 82.0219 90.0741 82.0219C89.2665 82.6217 88.2165 83.2615 87.4089 83.6614C88.4185 83.2615 89.4684 82.8616 90.276 82.2218C92.7393 82.4218 95.6064 82.6217 95.6064 83.0216C95.6064 83.4215 92.5374 84.0213 90.0741 84.4612C89.4684 85.061 88.6204 85.7009 88.0146 86.3007C89.0242 85.9008 90.0741 85.5009 91.0837 85.061C93.9508 85.061 95.6064 85.261 95.6064 85.6609C95.6064 85.8608 95.4045 86.0608 94.7988 86.2607C93.5469 86.4607 92.3355 86.6606 91.0837 86.8605C90.0741 87.2604 89.0242 87.4604 88.0146 87.8603C92.5374 88.2602 94.7988 88.6601 94.7988 89.0999C94.7988 89.4998 92.7393 89.6998 88.4185 90.0997C87.8127 90.0997 87.1666 90.0997 86.359 90.2996C85.7936 90.7795 85.1475 91.1794 84.7437 91.3793Z" fill="#F7A39C"/>
<path d="M85.7937 91.379C85.5918 91.379 85.3899 91.1791 85.3899 90.9791C85.3899 90.7792 85.3899 90.3793 85.7937 90.3793C85.9956 90.3793 86.1975 90.1793 86.3994 90.1793C87.2071 89.9794 87.8532 89.9794 88.6608 89.9794C91.1241 89.7795 92.5778 89.5795 93.3855 89.5795C92.5778 89.3796 90.9222 89.1796 88.0551 88.9797C87.8532 88.9797 87.6513 88.7797 87.6513 88.5798C87.6513 88.3798 87.8532 88.1799 88.0551 87.9799L91.1241 86.9802L94.8392 86.3804C94.4354 86.1804 93.3855 86.1804 91.326 85.9805L88.4589 86.9802C88.257 86.9802 88.0551 86.9802 87.8532 86.7803C87.6513 86.5803 87.8532 86.3804 88.0551 86.1804L90.1146 84.3409C90.1146 84.3409 90.3165 84.3409 90.3165 84.141C92.7798 83.7411 94.0316 83.5412 94.6373 83.3412C94.0316 83.1413 92.7798 83.1413 90.5184 82.9413L87.6513 84.181C87.4494 84.3809 87.0455 84.181 87.0455 83.981C86.8436 83.7811 87.0455 83.3812 87.2475 83.3812L89.9126 81.7416H90.1146L94.6373 81.5417C94.0316 81.3418 92.7798 81.1418 89.9126 80.7419C89.105 80.9419 88.257 80.9419 87.6513 81.3418C87.4494 81.3418 87.0455 81.3418 87.0455 80.9419C87.0455 80.7419 87.0455 80.342 87.4494 80.342C88.257 80.1421 89.105 79.9421 89.9126 79.7422C89.9126 79.7422 89.9126 79.7422 90.1146 79.7422C95.6469 80.542 96.0911 80.9819 96.0911 81.5817C96.0911 82.1815 95.4853 82.3815 94.8392 82.5814H94.6373C96.0911 82.7814 96.293 83.1813 96.293 83.5811C96.293 84.181 96.0911 84.5809 92.5778 85.2207C95.6469 85.4206 96.293 85.6206 96.293 86.2204C96.293 86.8203 95.6872 87.0202 95.2834 87.4601L91.5683 88.0599L90.9626 88.2599C95.8892 88.8597 95.8892 89.2596 95.8892 89.6995C95.8892 90.2993 95.8891 90.6992 89.105 91.1391C88.2974 91.1391 87.6513 91.1391 87.0455 91.339C86.3994 91.1791 86.1975 91.1791 85.7937 91.379C85.9956 91.379 85.9956 91.379 85.7937 91.379Z" fill="#240100"/>
<path d="M62.3319 100.936C62.13 100.936 61.9281 100.736 61.9281 100.736C61.7262 100.536 61.9281 100.136 62.13 100.136L84.34 90.5789C84.5419 90.379 84.9457 90.5789 84.9457 90.7789C85.1476 90.9788 84.9457 91.3787 84.7438 91.3787L62.5338 100.936C62.5338 100.936 62.5338 100.936 62.3319 100.936Z" fill="#240100"/>
<path d="M49.3694 92.1793C49.1675 92.1793 48.9656 91.9793 48.9656 91.7794C48.9656 91.5794 48.9656 91.1795 49.3694 91.1795L59.2225 87.9404C59.4245 87.9404 59.8283 87.9404 59.8283 88.3403C59.8283 88.5403 59.8283 88.9402 59.4245 88.9402L49.3694 92.1793Z" fill="#240100"/>
<path d="M56.3958 14.2007C56.7996 15.8403 57.8495 17.6798 59.2629 17.8797C60.5147 17.8797 61.1205 16.64 62.3319 15.4404C65.199 12.4012 68.3084 13.201 75.6983 11.1615C81.2306 9.72194 84.9457 8.72221 85.1476 6.88271C85.5514 4.44338 79.8172 1.16427 74.6483 0.364491C68.6718 -0.435291 62.7357 2.20399 59.2225 6.28288C58.213 7.2826 55.5478 10.5217 56.3958 14.2007Z" fill="#240100"/>
<path d="M80.6249 10.1219C81.8767 13.6009 85.7534 16.4402 87.8129 15.6004C89.4685 14.8006 89.8724 11.7214 89.2666 9.48205C88.2571 5.44316 83.3305 2.40399 81.271 3.40371C79.6154 4.20349 79.8173 7.68254 80.6249 10.1219Z" fill="#240100"/>
<path d="M54.942 176.076C54.7401 176.076 54.5382 175.876 54.3363 175.676L53.6902 151.242C53.6902 151.042 53.8921 150.643 54.094 150.643C54.2959 150.643 54.6997 150.843 54.6997 151.042L55.3055 175.476C55.5478 175.876 55.1439 176.076 54.942 176.076Z" fill="#240100"/>
<path d="M72.4273 30.0762C72.2254 30.2761 73.881 32.1156 76.3443 32.7155C77.5961 33.1153 79.0095 32.9154 79.0095 32.7155C79.0095 32.5155 78.4038 32.3156 76.3443 31.4758C72.8311 30.2761 72.4273 30.0762 72.4273 30.0762Z" fill="white"/>
<path d="M71.1756 40.4728C70.166 40.0729 69.318 39.8729 68.5104 39.4731C67.2585 38.8732 66.0471 37.8335 64.9971 37.0337C64.7952 36.8338 64.7952 36.4339 64.9971 36.2339C65.199 36.034 65.6029 36.034 65.8048 36.2339C66.8143 37.2337 67.8642 37.8735 69.0757 38.6733C69.8833 39.0732 70.5294 39.4731 71.3371 39.673C71.539 39.673 71.7409 40.0729 71.7409 40.2728C71.5794 40.2728 71.5794 40.4728 71.1756 40.4728Z" fill="#240100"/>
<path d="M190.261 74.9839C192.335 74.9839 194.017 73.3188 194.017 71.2649C194.017 69.2109 192.335 67.5459 190.261 67.5459C188.187 67.5459 186.506 69.2109 186.506 71.2649C186.506 73.3188 188.187 74.9839 190.261 74.9839Z" fill="black"/>
<path d="M263.878 52.1896C274.458 52.1896 283.059 60.7073 283.059 71.1844C283.059 81.6616 274.458 90.1792 263.878 90.1792C253.297 90.1792 244.696 81.6616 244.696 71.1844C244.696 60.7073 253.297 52.1896 263.878 52.1896ZM263.878 49.9902C252.046 49.9902 242.435 59.5076 242.435 71.2244C242.435 82.9412 252.046 92.4586 263.878 92.4586C275.709 92.4586 285.32 82.9412 285.32 71.2244C285.32 59.5076 275.709 49.9902 263.878 49.9902Z" fill="black"/>
<path d="M267.068 69.3052C267.027 69.3052 266.987 69.3052 266.987 69.2652C266.946 69.2252 266.906 69.1452 266.987 69.0653L276.719 57.7483C276.759 57.7083 276.84 57.6683 276.921 57.7483C276.961 57.7883 277.002 57.8683 276.921 57.9483L267.189 69.2652C267.148 69.2652 267.108 69.3052 267.068 69.3052Z" fill="black"/>
<path d="M267.916 71.3447C267.835 71.3447 267.795 71.3047 267.795 71.2247C267.795 71.1448 267.835 71.0648 267.916 71.0648L280.838 68.9854C280.919 68.9854 280.999 69.0253 280.999 69.1053C280.999 69.1853 280.959 69.2653 280.878 69.2653L267.916 71.3447Z" fill="black"/>
<path d="M271.954 82.9415C271.914 82.9415 271.873 82.9015 271.833 82.9015L265.453 73.944C265.412 73.864 265.412 73.784 265.493 73.744C265.574 73.7041 265.654 73.7041 265.695 73.784L272.075 82.7416C272.116 82.8216 272.116 82.9015 272.035 82.9415C271.994 82.9415 271.954 82.9415 271.954 82.9415Z" fill="black"/>
<path d="M262.343 84.5805C262.262 84.5805 262.182 84.5006 262.222 84.4206L263.756 74.9032C263.756 74.8232 263.837 74.7832 263.918 74.7832C263.999 74.7832 264.039 74.8632 264.039 74.9432L262.505 84.4606C262.464 84.5405 262.424 84.5805 262.343 84.5805Z" fill="black"/>
<path d="M253.863 84.5809C253.822 84.5809 253.782 84.5809 253.782 84.5409C253.742 84.5009 253.701 84.4209 253.782 84.3409L259.758 77.1829C259.799 77.1429 259.88 77.1029 259.96 77.1829C260.001 77.2229 260.041 77.3029 259.96 77.3828L253.984 84.5409C253.944 84.5809 253.903 84.5809 253.863 84.5809Z" fill="black"/>
<path d="M257.457 72.8637L249.784 71.9039C249.703 71.9039 249.663 71.824 249.663 71.744C249.663 71.664 249.744 71.624 249.825 71.624L257.497 72.5838C257.578 72.5838 257.618 72.6637 257.618 72.7437C257.578 72.8237 257.538 72.8637 257.457 72.8637Z" fill="black"/>
<path d="M257.457 67.6253C257.417 67.6253 257.376 67.6253 257.336 67.5853L253.5 63.5864C253.459 63.5464 253.459 63.4264 253.5 63.3864C253.54 63.3464 253.661 63.3464 253.701 63.3864L257.538 67.3853C257.578 67.4253 257.578 67.5453 257.538 67.5853C257.538 67.6253 257.497 67.6253 257.457 67.6253Z" fill="black"/>
<path d="M263.877 73.1441C263.11 73.1441 262.383 72.7042 262.101 71.9844L244.252 30.4757C243.848 29.476 244.292 28.3563 245.302 27.9564C246.311 27.5565 247.442 27.9964 247.846 28.9961L265.695 70.5048C266.098 71.5045 265.654 72.6242 264.645 73.0241C264.362 73.1041 264.12 73.1441 263.877 73.1441Z" fill="#AAC8FF"/>
<path d="M258.668 31.9952C258.628 31.9952 258.587 31.9952 258.547 31.9952L248.775 30.9155C246.19 30.6356 243.646 29.9158 241.304 28.7561L235.004 25.7169C234.479 25.477 234.197 24.8771 234.399 24.3173C234.641 23.7175 235.328 23.4375 235.933 23.7175L241.95 26.5967C244.292 27.7164 246.836 28.4362 249.421 28.7561L258.749 29.7958C259.314 29.8758 259.799 30.3556 259.799 30.9155C259.758 31.5153 259.233 31.9952 258.668 31.9952Z" fill="black"/>
<path d="M189.413 52.7492C199.993 52.7492 208.595 61.2669 208.595 71.744C208.595 82.2211 199.993 90.7388 189.413 90.7388C178.833 90.7388 170.232 82.2211 170.232 71.744C170.232 61.2669 178.833 52.7492 189.413 52.7492ZM189.413 50.5498C177.582 50.5498 167.971 60.0672 167.971 71.784C167.971 83.5008 177.582 93.0182 189.413 93.0182C201.245 93.0182 210.856 83.5008 210.856 71.784C210.856 60.0672 201.245 50.5498 189.413 50.5498Z" fill="black"/>
<path d="M186.91 86.1002H186.869C186.789 86.0602 186.748 85.9802 186.789 85.9403L190.261 74.9033C190.302 74.8233 190.342 74.7833 190.423 74.8233C190.504 74.8633 190.544 74.9433 190.504 74.9833L187.031 86.0202C187.031 86.0602 186.99 86.1002 186.91 86.1002Z" fill="black"/>
<path d="M179.116 84.5803C179.076 84.5803 179.035 84.5803 179.035 84.5403C178.995 84.5003 178.995 84.4203 179.035 84.3404L185.698 77.1823C185.739 77.1423 185.819 77.1423 185.9 77.1823C185.94 77.2223 185.94 77.3023 185.9 77.3823L179.237 84.5403C179.197 84.5803 179.156 84.5803 179.116 84.5803Z" fill="black"/>
<path d="M173.584 76.7025C173.503 76.7025 173.463 76.6625 173.463 76.5825C173.422 76.5025 173.503 76.4225 173.543 76.4225L183.275 73.7033C183.356 73.6633 183.437 73.7433 183.437 73.7833C183.477 73.8632 183.397 73.9432 183.356 73.9432L173.584 76.7025Z" fill="black"/>
<path d="M183.316 68.345H183.275L176.734 65.6657C176.653 65.6257 176.612 65.5458 176.653 65.4658C176.693 65.3858 176.774 65.3458 176.855 65.3858L183.397 68.0651C183.477 68.1051 183.518 68.185 183.477 68.265C183.397 68.305 183.356 68.345 183.316 68.345Z" fill="black"/>
<path d="M186.91 64.1862C186.829 64.1862 186.789 64.1462 186.789 64.1063L184.689 56.9482C184.648 56.8682 184.729 56.7882 184.77 56.7882C184.85 56.7483 184.931 56.8282 184.931 56.8682L187.031 64.0263C187.071 64.1063 187.031 64.1862 186.91 64.1862C186.95 64.1862 186.95 64.1862 186.91 64.1862Z" fill="black"/>
<path d="M191.675 63.6259C191.634 63.6259 191.634 63.6259 191.675 63.6259C191.554 63.5859 191.513 63.5059 191.554 63.4659L193.775 55.748C193.815 55.668 193.856 55.628 193.936 55.668C194.017 55.708 194.057 55.748 194.017 55.828L191.796 63.5459C191.756 63.5859 191.715 63.6259 191.675 63.6259Z" fill="black"/>
<path d="M199.469 69.3045C199.428 69.3045 199.347 69.2645 199.347 69.2245C199.307 69.1445 199.347 69.0646 199.428 69.0646L205.405 66.7452C205.485 66.7052 205.566 66.7452 205.566 66.8252C205.607 66.9051 205.566 66.9851 205.485 66.9851L199.509 69.3045C199.469 69.3045 199.469 69.3045 199.469 69.3045Z" fill="black"/>
<path d="M204.193 80.5821H204.153L198.298 78.4626C198.217 78.4227 198.176 78.3427 198.217 78.3027C198.257 78.2227 198.338 78.1827 198.378 78.2227L204.234 80.3421C204.314 80.3821 204.355 80.4621 204.314 80.5021C204.274 80.5421 204.234 80.5821 204.193 80.5821Z" fill="black"/>
<path d="M196.117 87.0596C196.077 87.0596 195.996 87.0196 195.996 86.9796L192.644 79.4217C192.604 79.3417 192.644 79.2617 192.725 79.2217C192.806 79.1818 192.886 79.2217 192.927 79.3017L196.278 86.8596C196.319 86.9396 196.278 87.0196 196.198 87.0596C196.157 87.0596 196.117 87.0596 196.117 87.0596Z" fill="black"/>
<path d="M210.701 42.3542L207.924 32.4521L206.056 32.9658L208.833 42.8679L210.701 42.3542Z" fill="black"/>
<path d="M198.58 34.5541C201.367 36.3536 208.676 31.9148 216.106 32.9545C217.035 33.2344 216.389 30.5552 211.139 30.5952C205.889 30.6352 193.775 29.5155 198.58 34.5541Z" fill="black"/>
<path d="M191.069 67.6253L188.646 70.0246C187.394 71.2643 188.121 73.3837 189.898 73.5436L217.156 76.5028C217.358 76.5428 217.56 76.5428 217.762 76.5428C219.013 76.5428 220.184 76.1429 221.194 75.3831C221.275 75.3432 221.315 75.3032 221.396 75.2232C221.679 74.9833 221.961 74.7433 222.163 74.4234L250.713 39.193L252.53 38.9131L249.946 33.4746L212.997 47.2308L211.058 40.6327L207.303 41.7124L209.604 49.4302L191.069 67.6253ZM194.017 70.1446L210.816 53.6291L216.429 72.5839L194.017 70.1446ZM220.023 70.9044L214.087 50.9498L245.706 39.1531L220.023 70.9044Z" fill="#5A78EC"/>
<path d="M221.356 75.3437L221.154 75.4237C221.234 75.3837 221.275 75.3437 221.356 75.2637V75.3437Z" fill="#EFEFEF"/>
<path d="M219.377 71.2639C221.315 71.2639 222.89 72.8234 222.89 74.7429C222.89 76.6624 221.315 78.222 219.377 78.222C217.438 78.222 215.864 76.6624 215.864 74.7429C215.864 72.8634 217.438 71.2639 219.377 71.2639ZM219.377 69.0645C216.187 69.0645 213.643 71.6238 213.643 74.7429C213.643 77.9021 216.227 80.4214 219.377 80.4214C222.567 80.4214 225.111 77.8621 225.111 74.7429C225.151 71.6238 222.567 69.0645 219.377 69.0645Z" fill="black"/>
<path d="M218.206 74.4636L222.002 62.7867C222.082 62.5068 222.405 62.3469 222.728 62.4268C223.011 62.5068 223.173 62.7867 223.092 63.0667L220.588 75.0634C220.467 75.7032 219.821 76.1431 219.134 75.9832C218.488 75.8632 218.044 75.2234 218.206 74.5435C218.206 74.5435 218.206 74.5036 218.206 74.4636Z" fill="black"/>
<path d="M218.569 81.5015L216.752 87.0599C216.671 87.3399 216.348 87.4998 216.025 87.4198C215.742 87.3399 215.581 87.0599 215.662 86.78L216.873 81.1016C217.438 81.3015 218.004 81.4615 218.569 81.5015Z" fill="black"/>
<path d="M224.949 63.1865H220.467C220.103 63.1865 219.821 62.9066 219.821 62.5467V62.2668C219.821 61.9069 220.103 61.627 220.467 61.627H224.99C225.353 61.627 225.636 61.9069 225.636 62.2668V62.5467C225.595 62.9066 225.313 63.1865 224.949 63.1865Z" fill="black"/>
<path d="M218.529 88.2598H214.006C213.643 88.2598 213.36 87.9799 213.36 87.62V87.34C213.36 86.9801 213.643 86.7002 214.006 86.7002H218.529C218.892 86.7002 219.175 86.9801 219.175 87.34V87.62C219.175 87.9399 218.852 88.2598 218.529 88.2598Z" fill="black"/>
<path d="M228.301 67.3855C228.18 67.3855 228.059 67.3455 227.938 67.2655C227.695 67.0656 227.655 66.7457 227.857 66.5057L240.617 50.79C240.819 50.5501 241.142 50.5101 241.385 50.7101C241.627 50.91 241.667 51.2299 241.465 51.4698L228.705 67.1856C228.624 67.3455 228.463 67.3855 228.301 67.3855Z" fill="black"/>
<path d="M210.25 54.749C210.129 54.749 210.008 54.7091 209.887 54.6291C209.645 54.4291 209.604 54.0692 209.806 53.8693L211.018 52.4297C211.22 52.1897 211.583 52.1498 211.785 52.3497C212.027 52.5496 212.068 52.9095 211.866 53.1095L210.654 54.5491C210.574 54.7091 210.412 54.749 210.25 54.749Z" fill="black"/>
<path d="M190.261 72.2242C190.797 72.2242 191.231 71.7945 191.231 71.2644C191.231 70.7344 190.797 70.3047 190.261 70.3047C189.726 70.3047 189.292 70.7344 189.292 71.2644C189.292 71.7945 189.726 72.2242 190.261 72.2242Z" fill="black"/>
<path d="M218.65 80.5015C218.327 80.5015 218.165 80.4615 218.125 80.4615L189.413 74.9431C188.767 74.9431 187.758 73.5834 187.394 72.1438C186.91 70.2243 187.556 68.5848 189.252 67.665L189.373 67.905C187.273 69.0647 187.394 70.9841 187.677 72.0638C188.04 73.5434 189.01 74.6631 189.454 74.6631L218.206 80.1816C218.246 80.1816 220.144 80.6615 222.85 78.1422C223.698 77.3424 224.061 76.2227 223.9 74.7831C223.657 72.3838 222.082 69.8644 221.315 69.3846C220.669 68.9847 210.897 68.7847 203.062 68.6248C200.518 68.5848 198.055 68.5048 195.915 68.4648V68.1849C198.055 68.2249 200.518 68.3049 203.062 68.3449C213.764 68.5848 220.79 68.7847 221.436 69.1446C222.244 69.6245 223.9 72.2638 224.142 74.7431C224.303 76.3027 223.94 77.5024 223.011 78.3421C220.992 80.2216 219.417 80.5015 218.65 80.5015Z" fill="black"/>
<path d="M261.318 189.204C261.171 189.204 261.024 189.023 261.003 188.732C260.982 188.442 261.087 188.152 261.276 188.116L264.64 187.209C264.808 187.172 264.976 187.354 264.997 187.68C265.018 187.971 264.913 188.261 264.724 188.297L261.36 189.204C261.36 189.204 261.339 189.204 261.318 189.204Z" fill="#240100"/>
<path d="M290.125 192.672L269.935 192.352C269.612 192.352 269.329 192.072 269.329 191.752C269.329 191.432 269.612 191.152 269.935 191.152L290.125 191.472C290.449 191.472 290.731 191.752 290.731 192.072C290.731 192.392 290.449 192.672 290.125 192.672Z" fill="#240100"/>
</g>
<defs>
<clipPath id="clip0_1550_1337">
<rect width="275" height="293" fill="white" transform="translate(23 0.204102)"/>
</clipPath>
</defs>
</svg>
